<?xml version="1.0" encoding="UTF-8" standalone="no"?>
<!DOCTYPE svg PUBLIC "-//W3C//DTD SVG 1.1//EN" "http://www.w3.org/Graphics/SVG/1.1/DTD/svg11.dtd">
<svg xmlns="http://www.w3.org/2000/svg" version="1.1" viewBox="0.00 0.00 216.00 200.00">
<g stroke-width="2.00" fill="none" stroke-linecap="butt">
<path stroke="#d7cec5" vector-effect="non-scaling-stroke" d="
  M 200.15 37.64
  A 17.64 17.64 0.0 0 0 182.51 20.00
  L 31.45 20.00
  A 17.64 17.64 0.0 0 0 13.81 37.64
  L 13.81 161.36
  A 17.64 17.64 0.0 0 0 31.45 179.00
  L 182.51 179.00
  A 17.64 17.64 0.0 0 0 200.15 161.36
  L 200.15 37.64"
/>
<path stroke="#d7cec5" vector-effect="non-scaling-stroke" d="
  M 29.13 40.87
  Q 67.17 79.17 105.47 117.54
  Q 106.98 119.06 108.50 117.54
  L 185.50 40.29
  Q 185.81 39.98 185.89 39.55
  C 186.68 35.19 184.12 34.24 180.31 34.25
  Q 106.28 34.35 32.25 34.14
  C 28.59 34.13 26.42 38.15 29.13 40.87"
/>
<path stroke="#d7cec5" vector-effect="non-scaling-stroke" d="
  M 118.55 127.66
  C 111.76 134.46 101.20 133.51 94.73 127.01
  Q 61.61 93.74 28.49 60.56
  A 0.28 0.28 0.0 0 0 28.01 60.75
  L 28.00 160.99
  A 3.74 3.74 0.0 0 0 31.74 164.74
  L 181.75 164.74
  Q 185.98 164.74 185.98 160.50
  L 185.98 60.77
  Q 185.98 60.05 185.47 60.56
  Q 152.13 94.04 118.55 127.66"
/>
</g>
<path fill="#e1dcd9" d="
  M 0.00 0.00
  L 216.00 0.00
  L 216.00 200.00
  L 0.00 200.00
  L 0.00 0.00
  Z
  M 200.15 37.64
  A 17.64 17.64 0.0 0 0 182.51 20.00
  L 31.45 20.00
  A 17.64 17.64 0.0 0 0 13.81 37.64
  L 13.81 161.36
  A 17.64 17.64 0.0 0 0 31.45 179.00
  L 182.51 179.00
  A 17.64 17.64 0.0 0 0 200.15 161.36
  L 200.15 37.64
  Z"
/>
<path fill="#ccbfb0" d="
  M 200.15 161.36
  A 17.64 17.64 0.0 0 1 182.51 179.00
  L 31.45 179.00
  A 17.64 17.64 0.0 0 1 13.81 161.36
  L 13.81 37.64
  A 17.64 17.64 0.0 0 1 31.45 20.00
  L 182.51 20.00
  A 17.64 17.64 0.0 0 1 200.15 37.64
  L 200.15 161.36
  Z
  M 29.13 40.87
  Q 67.17 79.17 105.47 117.54
  Q 106.98 119.06 108.50 117.54
  L 185.50 40.29
  Q 185.81 39.98 185.89 39.55
  C 186.68 35.19 184.12 34.24 180.31 34.25
  Q 106.28 34.35 32.25 34.14
  C 28.59 34.13 26.42 38.15 29.13 40.87
  Z
  M 118.55 127.66
  C 111.76 134.46 101.20 133.51 94.73 127.01
  Q 61.61 93.74 28.49 60.56
  A 0.28 0.28 0.0 0 0 28.01 60.75
  L 28.00 160.99
  A 3.74 3.74 0.0 0 0 31.74 164.74
  L 181.75 164.74
  Q 185.98 164.74 185.98 160.50
  L 185.98 60.77
  Q 185.98 60.05 185.47 60.56
  Q 152.13 94.04 118.55 127.66
  Z"
/>
<path fill="#e1dcd9" d="
  M 29.13 40.87
  C 26.42 38.15 28.59 34.13 32.25 34.14
  Q 106.28 34.35 180.31 34.25
  C 184.12 34.24 186.68 35.19 185.89 39.55
  Q 185.81 39.98 185.50 40.29
  L 108.50 117.54
  Q 106.98 119.06 105.47 117.54
  Q 67.17 79.17 29.13 40.87
  Z"
/>
<path fill="#e1dcd9" d="
  M 94.73 127.01
  C 101.20 133.51 111.76 134.46 118.55 127.66
  Q 152.13 94.04 185.47 60.56
  Q 185.98 60.05 185.98 60.77
  L 185.98 160.50
  Q 185.98 164.74 181.75 164.74
  L 31.74 164.74
  A 3.74 3.74 0.0 0 1 28.00 160.99
  L 28.01 60.75
  A 0.28 0.28 0.0 0 1 28.49 60.56
  Q 61.61 93.74 94.73 127.01
  Z"
/>
</svg>
