<?xml version="1.0" encoding="UTF-8" standalone="no"?>
<!DOCTYPE svg PUBLIC "-//W3C//DTD SVG 1.1//EN" "http://www.w3.org/Graphics/SVG/1.1/DTD/svg11.dtd">
<svg xmlns="http://www.w3.org/2000/svg" version="1.1" viewBox="0.00 0.00 228.00 216.00">
<g stroke-width="2.00" fill="none" stroke-linecap="butt">
<path stroke="#d7cec5" vector-effect="non-scaling-stroke" d="
  M 210.77 108.99
  A 96.79 96.79 0.0 0 0 113.98 12.20
  A 96.79 96.79 0.0 0 0 17.19 108.99
  A 96.79 96.79 0.0 0 0 113.98 205.78
  A 96.79 96.79 0.0 0 0 210.77 108.99"
/>
<path stroke="#d7cec5" vector-effect="non-scaling-stroke" d="
  M 196.43 108.99
  A 82.44 82.44 0.0 0 0 113.99 26.55
  A 82.44 82.44 0.0 0 0 31.55 108.99
  A 82.44 82.44 0.0 0 0 113.99 191.43
  A 82.44 82.44 0.0 0 0 196.43 108.99"
/>
<path stroke="#d7cec5" vector-effect="non-scaling-stroke" d="
  M 142.15 144.84
  C 146.73 147.96 152.54 145.19 153.33 139.98
  C 153.90 136.24 151.71 134.18 148.61 132.05
  Q 133.25 121.48 118.04 111.09
  A 1.87 1.87 0.0 0 1 117.23 109.57
  Q 116.86 83.44 117.32 57.16
  C 117.41 52.00 116.96 47.48 111.21 46.83
  C 105.10 46.14 103.24 50.27 103.25 55.75
  Q 103.29 83.87 103.13 112.00
  C 103.11 115.40 102.97 118.02 106.10 120.17
  Q 124.10 132.53 142.15 144.84"
/>
</g>
<path fill="#e1dcd9" d="
  M 0.00 0.00
  L 228.00 0.00
  L 228.00 216.00
  L 0.00 216.00
  L 0.00 0.00
  Z
  M 210.77 108.99
  A 96.79 96.79 0.0 0 0 113.98 12.20
  A 96.79 96.79 0.0 0 0 17.19 108.99
  A 96.79 96.79 0.0 0 0 113.98 205.78
  A 96.79 96.79 0.0 0 0 210.77 108.99
  Z"
/>
<path fill="#ccbfb0" d="
  M 210.77 108.99
  A 96.79 96.79 0.0 0 1 113.98 205.78
  A 96.79 96.79 0.0 0 1 17.19 108.99
  A 96.79 96.79 0.0 0 1 113.98 12.20
  A 96.79 96.79 0.0 0 1 210.77 108.99
  Z
  M 196.43 108.99
  A 82.44 82.44 0.0 0 0 113.99 26.55
  A 82.44 82.44 0.0 0 0 31.55 108.99
  A 82.44 82.44 0.0 0 0 113.99 191.43
  A 82.44 82.44 0.0 0 0 196.43 108.99
  Z"
/>
<path fill="#e1dcd9" d="
  M 196.43 108.99
  A 82.44 82.44 0.0 0 1 113.99 191.43
  A 82.44 82.44 0.0 0 1 31.55 108.99
  A 82.44 82.44 0.0 0 1 113.99 26.55
  A 82.44 82.44 0.0 0 1 196.43 108.99
  Z
  M 142.15 144.84
  C 146.73 147.96 152.54 145.19 153.33 139.98
  C 153.90 136.24 151.71 134.18 148.61 132.05
  Q 133.25 121.48 118.04 111.09
  A 1.87 1.87 0.0 0 1 117.23 109.57
  Q 116.86 83.44 117.32 57.16
  C 117.41 52.00 116.96 47.48 111.21 46.83
  C 105.10 46.14 103.24 50.27 103.25 55.75
  Q 103.29 83.87 103.13 112.00
  C 103.11 115.40 102.97 118.02 106.10 120.17
  Q 124.10 132.53 142.15 144.84
  Z"
/>
<path fill="#ccbfb0" d="
  M 153.33 139.98
  C 152.54 145.19 146.73 147.96 142.15 144.84
  Q 124.10 132.53 106.10 120.17
  C 102.97 118.02 103.11 115.40 103.13 112.00
  Q 103.29 83.87 103.25 55.75
  C 103.24 50.27 105.10 46.14 111.21 46.83
  C 116.96 47.48 117.41 52.00 117.32 57.16
  Q 116.86 83.44 117.23 109.57
  A 1.87 1.87 0.0 0 0 118.04 111.09
  Q 133.25 121.48 148.61 132.05
  C 151.71 134.18 153.90 136.24 153.33 139.98
  Z"
/>
</svg>
