<?xml version="1.0" encoding="UTF-8"?>
<svg xmlns="http://www.w3.org/2000/svg" xmlns:xlink="http://www.w3.org/1999/xlink" width="200px" height="85px" viewBox="0 0 199 85" version="1.1">
<g id="surface1">
<path style="fill:none;stroke-width:2;stroke-linecap:butt;stroke-linejoin:miter;stroke:rgb(54.509804%,56.862745%,57.647059%);stroke-opacity:1;stroke-miterlimit:4;" d="M 1731.348147 76.482353 C 1731.206815 76.623529 1731.242148 76.835294 1731.38348 76.976471 L 1734.916771 80.505882 C 1735.058103 80.647059 1735.270101 80.682353 1735.446765 80.541176 L 1784.170854 42.564706 C 1784.24152 42.529412 1784.312186 42.423529 1784.312186 42.282353 C 1784.312186 42.176471 1784.276853 42.070588 1784.206187 42 L 1769.896357 27.705882 C 1769.825691 27.6 1769.719692 27.564706 1769.613693 27.564706 C 1769.507695 27.6 1769.401696 27.635294 1769.33103 27.741176 L 1731.348147 76.482353 " transform="matrix(0.110556,0,0,0.110677,0,0)"/>
<path style="fill:none;stroke-width:2;stroke-linecap:butt;stroke-linejoin:miter;stroke:rgb(54.509804%,56.862745%,57.647059%);stroke-opacity:1;stroke-miterlimit:4;" d="M 1521.788631 147.070588 C 1521.470634 147.670588 1521.329303 147.6 1521.329303 146.964706 L 1521.29397 52.623529 C 1521.29397 52.305882 1521.046639 52.023529 1520.728643 52.023529 L 1500.659548 52.023529 C 1500.482883 52.023529 1500.341552 52.094118 1500.235553 52.2 C 1500.129554 52.305882 1500.094221 52.447059 1500.094221 52.588235 L 1500.094221 252.529412 C 1500.094221 252.776471 1500.306219 252.988235 1500.553549 252.988235 L 1520.763976 252.988235 C 1521.187971 252.988235 1521.399969 252.776471 1521.364636 252.352941 C 1521.223304 226.164706 1521.223304 200.223529 1521.364636 174.6 C 1521.435302 160.905882 1525.604585 148.764706 1533.801822 138.176471 C 1544.295697 124.658824 1560.654837 115.058824 1578.073964 114.176471 C 1598.88505 113.152941 1614.608197 122.929412 1620.155465 143.4 C 1622.593436 152.258824 1623.794755 161.541176 1623.794755 171.247059 C 1623.830088 198.388235 1623.830088 225.529412 1623.794755 252.6 C 1623.794755 252.811765 1623.97142 252.988235 1624.183417 252.988235 L 1644.46451 252.988235 C 1644.817839 252.988235 1644.994504 252.811765 1644.994504 252.458824 C 1645.100503 227.823529 1645.06517 203.823529 1644.923838 180.423529 C 1644.888505 167.682353 1643.581187 156.458824 1641.037217 146.717647 C 1636.231941 128.4 1624.925408 115.905882 1606.198964 111.070588 C 1592.595791 107.541176 1576.483982 107.223529 1562.774812 111.458824 C 1548.500314 115.870588 1536.981784 123.988235 1528.254554 135.847059 C 1525.675251 139.376471 1523.767274 143.152941 1521.788631 147.070588 " transform="matrix(0.110556,0,0,0.110677,0,0)"/>
<path style="fill:none;stroke-width:2;stroke-linecap:butt;stroke-linejoin:miter;stroke:rgb(54.509804%,56.862745%,57.647059%);stroke-opacity:1;stroke-miterlimit:4;" d="M 1303.996545 206.329412 L 1417.803863 157.376471 C 1418.157192 157.235294 1418.263191 156.988235 1418.157192 156.635294 C 1415.895886 149.576471 1412.786589 142.976471 1408.864636 136.870588 C 1402.752041 127.376471 1394.837469 119.929412 1385.15625 114.529412 C 1370.84642 106.552941 1352.7913 104.964706 1336.78549 108.176471 C 1294.456658 116.752941 1271.207601 157.023529 1279.970163 198.317647 C 1285.976759 226.482353 1308.095163 248.258824 1336.926822 253.482353 C 1366.041143 258.776471 1398.335427 249.035294 1416.107883 224.541176 C 1416.284548 224.329412 1416.284548 224.117647 1416.107883 223.941176 L 1413.069253 220.411765 C 1412.998587 220.305882 1412.857255 220.270588 1412.751256 220.270588 C 1412.609925 220.270588 1412.503926 220.341176 1412.43326 220.447059 C 1408.79397 225.917647 1404.130025 230.788235 1398.512092 235.023529 C 1375.404366 252.458824 1343.922739 243 1323.394315 226.764706 C 1315.727073 220.694118 1309.225817 214.058824 1303.855214 206.823529 C 1303.819881 206.717647 1303.784548 206.611765 1303.819881 206.541176 C 1303.855214 206.435294 1303.925879 206.364706 1303.996545 206.329412 " transform="matrix(0.110556,0,0,0.110677,0,0)"/>
<path style="fill:none;stroke-width:2;stroke-linecap:butt;stroke-linejoin:miter;stroke:rgb(54.509804%,56.862745%,57.647059%);stroke-opacity:1;stroke-miterlimit:4;" d="M 142.780308 230.223529 L 142.780308 252.635294 C 142.780308 252.847059 142.921639 252.988235 143.133637 252.988235 L 163.732726 252.988235 C 164.086055 252.988235 164.26272 252.811765 164.26272 252.494118 C 164.404052 215.294118 164.368719 185.117647 164.156721 161.894118 C 164.086055 153.211765 162.602073 145.023529 159.740107 137.294118 C 154.228172 122.505882 141.896985 113.611765 126.5625 110.541176 C 118.789259 108.988235 110.592023 108.282353 102.006124 108.423529 C 79.322393 108.847059 57.380653 116.188235 42.682161 132.635294 C 42.258166 133.094118 42.1875 133.623529 42.470163 134.152941 L 44.837469 138.917647 C 45.084799 139.411765 45.332129 139.411765 45.57946 138.917647 C 48.229428 133.552941 54.518687 128.435294 59.394629 125.4 C 74.623116 115.905882 90.770258 112.129412 107.871388 114.070588 C 115.644629 114.988235 122.07522 117 127.057161 120.211765 C 140.02434 128.505882 142.992305 146.894118 142.709642 161.647059 C 142.709642 161.929412 142.497644 162.141176 142.214981 162.141176 C 124.477858 162.811765 107.447393 164.576471 91.123587 167.435294 C 66.567211 171.705882 34.802921 184.235294 31.022299 212.294118 C 28.831658 228.6 35.686244 242.823529 50.455402 250.235294 C 60.772613 255.423529 73.598461 256.623529 84.904994 255.352941 C 106.988065 252.776471 126.173838 244.376471 142.462312 230.082353 C 142.497644 230.011765 142.56831 230.011765 142.638976 230.047059 C 142.709642 230.082353 142.780308 230.152941 142.780308 230.223529 " transform="matrix(0.110556,0,0,0.110677,0,0)"/>
<path style="fill:none;stroke-width:2;stroke-linecap:butt;stroke-linejoin:miter;stroke:rgb(54.509804%,56.862745%,57.647059%);stroke-opacity:1;stroke-miterlimit:4;" d="M 278.564698 146.541176 L 278.564698 110.047059 C 278.564698 109.658824 278.388034 109.482353 278.034705 109.482353 L 258.036275 109.482353 C 257.576947 109.482353 257.329617 109.729412 257.329617 110.188235 L 257.329617 252.282353 C 257.329617 252.776471 257.576947 252.988235 258.036275 252.988235 L 277.999372 252.988235 C 278.388034 252.988235 278.600031 252.811765 278.600031 252.388235 C 278.564698 227.470588 278.564698 201.847059 278.600031 175.482353 C 278.600031 157.517647 285.207286 142.411765 298.386464 130.2 C 312.307632 117.317647 331.846734 111.141176 350.502513 115.588235 C 364.459014 118.976471 373.50424 129.388235 377.284862 142.976471 C 379.758166 151.729412 380.994818 161.011765 380.994818 170.752941 C 381.065484 198.847059 381.065484 226.094118 381.030151 252.494118 C 381.030151 252.847059 381.206815 252.988235 381.524812 252.988235 L 401.735239 252.988235 C 402.123901 252.988235 402.300565 252.811765 402.300565 252.423529 C 402.265232 231.317647 402.265232 208.129412 402.265232 182.929412 C 402.265232 172.094118 401.311244 161.682353 399.438599 151.764706 C 395.127984 129.070588 381.807475 114.176471 358.664416 109.941176 C 348.629868 108.105882 339.125314 107.858824 330.115421 109.2 C 307.926351 112.447059 288.669912 126.105882 279.30669 146.682353 C 278.812029 147.741176 278.564698 147.705882 278.564698 146.541176 " transform="matrix(0.110556,0,0,0.110677,0,0)"/>
<path style="fill:none;stroke-width:2;stroke-linecap:butt;stroke-linejoin:miter;stroke:rgb(54.509804%,56.862745%,57.647059%);stroke-opacity:1;stroke-miterlimit:4;" d="M 511.33794 146.682353 L 511.33794 110.047059 C 511.33794 109.658824 511.161275 109.482353 510.772613 109.482353 L 490.562186 109.482353 C 490.24419 109.482353 490.067525 109.658824 490.067525 109.941176 L 490.102858 252.352941 C 490.102858 252.776471 490.279523 252.988235 490.703518 252.988235 L 510.73728 252.988235 C 511.125942 252.988235 511.302607 252.811765 511.302607 252.423529 C 511.33794 226.305882 511.33794 200.752941 511.33794 175.694118 C 511.33794 157.658824 517.874529 142.552941 530.98304 130.376471 C 545.257538 117.105882 565.079303 110.929412 584.088411 115.835294 C 597.65625 119.294118 606.489479 129.952941 610.164102 143.294118 C 612.56674 152.047059 613.768059 161.294118 613.768059 171 C 613.803392 199.482353 613.803392 226.588235 613.803392 252.352941 C 613.803392 252.776471 614.050722 252.988235 614.474717 252.988235 L 634.437814 252.988235 C 634.75581 252.988235 635.003141 252.741176 635.003141 252.423529 C 635.073807 229.976471 635.073807 206.858824 634.967808 183.035294 C 634.861809 158.152941 632.105842 127.976471 607.443467 115.305882 C 594.582286 108.705882 576.774497 107.117647 562.888662 109.2 C 540.982255 112.517647 520.842494 126.176471 512.044598 146.823529 C 511.549937 147.952941 511.33794 147.882353 511.33794 146.682353 " transform="matrix(0.110556,0,0,0.110677,0,0)"/>
<path style="fill:none;stroke-width:2;stroke-linecap:butt;stroke-linejoin:miter;stroke:rgb(54.509804%,56.862745%,57.647059%);stroke-opacity:1;stroke-miterlimit:4;" d="M 825.023555 230.223529 L 825.023555 252.741176 C 825.023555 252.882353 825.129554 252.988235 825.306219 252.988235 L 845.975974 252.988235 C 846.364636 252.988235 846.576633 252.811765 846.576633 252.423529 C 846.5413 224.682353 846.5413 196.8 846.576633 168.811765 C 846.576633 157.658824 845.799309 146.964706 841.771357 136.694118 C 836.082758 122.294118 824.281564 113.788235 809.19441 110.647059 C 801.244504 108.988235 792.941269 108.247059 784.214039 108.423529 C 761.565641 108.847059 739.093907 116.294118 724.46608 133.129412 C 724.360082 133.270588 724.324749 133.411765 724.430747 133.552941 L 727.116049 138.952941 C 727.222048 139.164706 727.363379 139.164706 727.469378 138.988235 C 731.603329 133.235294 736.196608 128.788235 741.284548 125.611765 C 756.795697 115.905882 773.084171 112.094118 790.114636 114.105882 C 797.887877 114.988235 804.141803 116.929412 808.84108 119.894118 C 815.766332 124.270588 820.359611 131.188235 822.65625 140.682353 C 824.316897 147.705882 825.094221 154.658824 824.952889 161.505882 C 824.917557 161.858824 824.776225 162.035294 824.422896 162.035294 C 811.915044 162.705882 800.361181 163.658824 789.867305 164.929412 C 760.646985 168.423529 713.654209 178.941176 712.876884 217.270588 C 712.735553 224.364706 714.219535 230.647059 717.399497 236.117647 C 727.328046 253.235294 748.95179 257.364706 767.112908 255.317647 C 789.125314 252.847059 808.311087 244.447059 824.705559 230.082353 C 824.740892 230.047059 824.846891 230.011765 824.917557 230.047059 C 824.988222 230.082353 825.023555 230.152941 825.023555 230.223529 " transform="matrix(0.110556,0,0,0.110677,0,0)"/>
<path style="fill:none;stroke-width:2;stroke-linecap:butt;stroke-linejoin:miter;stroke:rgb(54.509804%,56.862745%,57.647059%);stroke-opacity:1;stroke-miterlimit:4;" d="M 1202.308417 109.482353 C 1202.202418 109.482353 1202.09642 109.552941 1202.025754 109.658824 L 1146.411746 223.482353 C 1146.376413 223.588235 1146.270415 223.658824 1146.164416 223.658824 C 1146.023084 223.658824 1145.917085 223.588235 1145.881753 223.482353 L 1090.267745 109.658824 C 1090.232412 109.552941 1090.126413 109.517647 1090.020415 109.482353 L 1066.559359 109.482353 C 1066.453361 109.482353 1066.347362 109.552941 1066.312029 109.623529 C 1066.241363 109.729412 1066.241363 109.835294 1066.276696 109.905882 L 1137.260521 254.470588 C 1137.331187 254.576471 1137.437186 254.647059 1137.543185 254.647059 C 1137.649183 254.647059 1137.755182 254.576471 1137.825848 254.470588 L 1208.77434 109.905882 C 1208.845006 109.835294 1208.845006 109.729412 1208.77434 109.623529 C 1208.703675 109.552941 1208.633009 109.482353 1208.52701 109.482353 L 1202.308417 109.482353 " transform="matrix(0.110556,0,0,0.110677,0,0)"/>
<path style="fill:none;stroke-width:2;stroke-linecap:butt;stroke-linejoin:miter;stroke:rgb(54.509804%,56.862745%,57.647059%);stroke-opacity:1;stroke-miterlimit:4;" d="M 1754.067211 109.835294 C 1754.067211 109.658824 1753.925879 109.482353 1753.713882 109.482353 L 1733.185459 109.482353 C 1732.973461 109.482353 1732.832129 109.658824 1732.832129 109.835294 L 1732.832129 252.635294 C 1732.832129 252.847059 1732.973461 252.988235 1733.185459 252.988235 L 1753.713882 252.988235 C 1753.925879 252.988235 1754.067211 252.847059 1754.067211 252.635294 L 1754.067211 109.835294 " transform="matrix(0.110556,0,0,0.110677,0,0)"/>
<path style="fill:none;stroke-width:2;stroke-linecap:butt;stroke-linejoin:miter;stroke:rgb(54.509804%,56.862745%,57.647059%);stroke-opacity:1;stroke-miterlimit:4;" d="M 1751.063913 416.647059 C 1751.134579 416.576471 1751.169912 416.435294 1751.099246 416.329412 C 1751.063913 416.223529 1750.957915 416.152941 1750.816583 416.152941 L 1743.961997 416.152941 C 1743.855999 416.152941 1743.785333 416.188235 1743.714667 416.294118 L 1731.524812 434.929412 C 1731.454146 435.035294 1731.454146 435.176471 1731.489479 435.247059 C 1731.560144 435.352941 1731.666143 435.423529 1731.772142 435.423529 L 1735.941426 435.458824 C 1736.047425 435.458824 1736.153423 435.423529 1736.188756 435.317647 L 1751.063913 416.647059 " transform="matrix(0.110556,0,0,0.110677,0,0)"/>
<path style="fill:none;stroke-width:2;stroke-linecap:butt;stroke-linejoin:miter;stroke:rgb(54.509804%,56.862745%,57.647059%);stroke-opacity:1;stroke-miterlimit:4;" d="M 785.662688 493.023529 L 785.627356 503.752941 C 785.627356 503.929412 785.698021 504 785.839353 504 L 792.375942 504 C 792.481941 504 792.552607 503.929412 792.552607 503.823529 L 792.552607 421.270588 C 792.552607 421.094118 792.446608 420.988235 792.305276 420.988235 L 785.910019 421.023529 C 785.80402 421.023529 785.768687 421.058824 785.768687 421.164706 L 785.768687 457.976471 C 785.768687 458.505882 785.592023 458.541176 785.238693 458.152941 C 783.507381 456.105882 782.023398 454.058824 779.86809 452.4 C 767.395572 442.8 749.764447 443.082353 738.917242 454.941176 C 728.988693 465.776471 728.882695 483.776471 738.493247 495.176471 C 747.715138 506.117647 763.01429 507.988235 775.522142 501.105882 C 779.444095 498.952941 782.588725 496.2 785.026696 492.847059 C 785.450691 492.247059 785.662688 492.317647 785.662688 493.023529 " transform="matrix(0.110556,0,0,0.110677,0,0)"/>
<path style="fill:none;stroke-width:2;stroke-linecap:butt;stroke-linejoin:miter;stroke:rgb(54.509804%,56.862745%,57.647059%);stroke-opacity:1;stroke-miterlimit:4;" d="M 1468.612594 426.494118 C 1468.612594 423.811765 1466.421954 421.623529 1463.736652 421.623529 C 1461.051351 421.623529 1458.86071 423.811765 1458.86071 426.494118 C 1458.86071 429.176471 1461.051351 431.364706 1463.736652 431.364706 C 1466.421954 431.364706 1468.612594 429.176471 1468.612594 426.494118 " transform="matrix(0.110556,0,0,0.110677,0,0)"/>
<path style="fill:none;stroke-width:2;stroke-linecap:butt;stroke-linejoin:miter;stroke:rgb(54.509804%,56.862745%,57.647059%);stroke-opacity:1;stroke-miterlimit:4;" d="M 1644.605842 426.494118 C 1644.605842 423.811765 1642.415201 421.623529 1639.729899 421.623529 C 1637.044598 421.623529 1634.853957 423.811765 1634.853957 426.494118 C 1634.853957 429.176471 1637.044598 431.364706 1639.729899 431.364706 C 1642.415201 431.364706 1644.605842 429.176471 1644.605842 426.494118 " transform="matrix(0.110556,0,0,0.110677,0,0)"/>
<path style="fill:none;stroke-width:2;stroke-linecap:butt;stroke-linejoin:miter;stroke:rgb(54.509804%,56.862745%,57.647059%);stroke-opacity:1;stroke-miterlimit:4;" d="M 376.507538 453.847059 C 376.507538 453.670588 376.648869 453.494118 376.860867 453.494118 L 393.714667 453.494118 C 393.891332 453.494118 394.032663 453.352941 394.032663 453.176471 L 394.032663 448.376471 C 394.032663 448.164706 393.891332 448.023529 393.714667 448.023529 L 376.860867 448.023529 C 376.648869 448.023529 376.507538 447.847059 376.507538 447.670588 L 376.507538 422.682353 C 376.507538 422.505882 376.330873 422.364706 376.154209 422.364706 L 369.86495 422.364706 C 369.688285 422.364706 369.546954 422.505882 369.546954 422.682353 L 369.546954 447.670588 C 369.546954 447.882353 369.370289 448.023529 369.193624 448.023529 L 357.851759 448.023529 C 357.675094 448.023529 357.49843 448.164706 357.49843 448.341176 L 357.533763 453.176471 C 357.533763 453.352941 357.675094 453.494118 357.851759 453.494118 L 369.193624 453.494118 C 369.370289 453.494118 369.546954 453.670588 369.546954 453.847059 L 369.546954 503.647059 C 369.546954 503.858824 369.688285 504 369.86495 504 L 376.154209 504 C 376.366206 504 376.507538 503.858824 376.507538 503.647059 L 376.507538 453.847059 " transform="matrix(0.110556,0,0,0.110677,0,0)"/>
<path style="fill:none;stroke-width:2;stroke-linecap:butt;stroke-linejoin:miter;stroke:rgb(54.509804%,56.862745%,57.647059%);stroke-opacity:1;stroke-miterlimit:4;" d="M 1296.187971 453.494118 C 1302.088568 453.529412 1307.600503 453.529412 1312.759108 453.494118 C 1312.935773 453.494118 1313.041771 453.423529 1313.041771 453.247059 C 1313.041771 453.211765 1313.041771 451.588235 1313.041771 448.305882 C 1313.041771 448.129412 1312.935773 448.023529 1312.723775 448.023529 L 1295.763976 448.023529 C 1295.587312 448.023529 1295.516646 447.917647 1295.516646 447.776471 L 1295.516646 422.717647 C 1295.516646 422.505882 1295.339981 422.364706 1295.163317 422.364706 L 1288.944724 422.364706 C 1288.732726 422.364706 1288.556062 422.541176 1288.556062 422.788235 L 1288.556062 447.458824 C 1288.556062 447.847059 1288.344064 448.023529 1287.990735 448.023529 L 1277.002198 448.023529 C 1276.684202 448.023529 1276.507538 448.164706 1276.507538 448.517647 L 1276.507538 453.035294 C 1276.507538 453.352941 1276.684202 453.529412 1277.037531 453.494118 L 1288.026068 453.494118 C 1288.379397 453.494118 1288.556062 453.670588 1288.556062 454.023529 L 1288.556062 503.752941 C 1288.556062 503.894118 1288.626727 504 1288.768059 504 L 1295.233982 504 C 1295.410647 504 1295.516646 503.929412 1295.516646 503.752941 L 1295.516646 454.2 C 1295.516646 453.741176 1295.728643 453.494118 1296.187971 453.494118 " transform="matrix(0.110556,0,0,0.110677,0,0)"/>
<path style="fill:none;stroke-width:2;stroke-linecap:butt;stroke-linejoin:miter;stroke:rgb(54.509804%,56.862745%,57.647059%);stroke-opacity:1;stroke-miterlimit:4;" d="M 141.967651 486 C 141.896985 485.929412 141.861652 485.788235 141.896985 485.682353 C 141.932318 485.576471 142.038317 485.470588 142.144315 485.435294 L 189.561087 467.117647 C 189.914416 466.976471 190.020415 466.729412 189.914416 466.376471 C 185.992462 454.2 176.523241 445.517647 163.273398 445.482353 C 157.761464 445.482353 152.850188 446.752941 148.468907 449.294118 C 133.487751 458.152941 128.576476 476.117647 136.915044 490.623529 C 140.201005 496.376471 146.348932 501.458824 152.496859 503.435294 C 163.202732 506.858824 173.378612 505.058824 183.024497 498 C 183.165829 497.929412 183.165829 497.823529 183.095163 497.717647 L 179.915201 493.235294 C 179.844535 493.164706 179.738536 493.094118 179.632538 493.094118 C 179.561872 493.094118 179.455873 493.129412 179.349874 493.164706 C 169.173995 501.847059 155.005496 501 145.889604 491.682353 C 144.299623 490.023529 143.274969 487.905882 141.967651 486 " transform="matrix(0.110556,0,0,0.110677,0,0)"/>
<path style="fill:none;stroke-width:2;stroke-linecap:butt;stroke-linejoin:miter;stroke:rgb(54.509804%,56.862745%,57.647059%);stroke-opacity:1;stroke-miterlimit:4;" d="M 545.080873 485.364706 L 592.356313 467.082353 C 592.709642 466.941176 592.850974 466.694118 592.709642 466.305882 C 588.399026 454.023529 579.318467 445.447059 565.821294 445.482353 C 554.302764 445.482353 544.338882 452.011765 539.003612 461.894118 C 536.035647 467.364706 535.046325 473.576471 536.07098 480.564706 C 537.024969 486.952941 539.957601 492.494118 544.939541 497.152941 C 556.387406 507.847059 573.17054 507.352941 585.53706 498.176471 C 585.784391 497.964706 585.819724 497.717647 585.643059 497.435294 L 582.781093 493.376471 C 582.710427 493.270588 582.569095 493.2 582.427764 493.164706 C 582.321765 493.164706 582.180433 493.2 582.074435 493.270588 C 576.845163 497.4 571.22723 499.376471 565.114636 499.164706 C 556.246074 498.847059 549.497487 494.470588 544.833543 486.105882 C 544.621545 485.752941 544.727544 485.505882 545.080873 485.364706 " transform="matrix(0.110556,0,0,0.110677,0,0)"/>
<path style="fill:none;stroke-width:2;stroke-linecap:butt;stroke-linejoin:miter;stroke:rgb(54.509804%,56.862745%,57.647059%);stroke-opacity:1;stroke-miterlimit:4;" d="M 862.229114 485.858824 C 862.193781 485.788235 862.193781 485.682353 862.229114 485.611765 C 862.229114 485.505882 862.29978 485.470588 862.405779 485.435294 L 909.82255 467.117647 C 910.175879 466.976471 910.281878 466.729412 910.175879 466.341176 C 908.12657 460.129412 904.805276 455.082353 900.176665 451.235294 C 891.590766 444.070588 878.164259 443.682353 868.624372 449.364706 C 856.646514 456.494118 851.063913 468.988235 853.925879 482.576471 C 855.056533 487.729412 857.635835 492.423529 861.769786 496.552941 C 873.005653 507.776471 890.318781 507.564706 903.003298 498.176471 C 903.285961 497.964706 903.321294 497.717647 903.109296 497.4 L 900.282663 493.411765 C 900.176665 493.305882 900.035333 493.2 899.894001 493.2 C 899.717337 493.164706 899.576005 493.2 899.434673 493.305882 C 894.205402 497.611765 888.304805 499.517647 881.69755 499.094118 C 873.111652 498.494118 866.610396 494.082353 862.229114 485.858824 " transform="matrix(0.110556,0,0,0.110677,0,0)"/>
<path style="fill:none;stroke-width:2;stroke-linecap:butt;stroke-linejoin:miter;stroke:rgb(54.509804%,56.862745%,57.647059%);stroke-opacity:1;stroke-miterlimit:4;" d="M 1763.465766 469.094118 C 1760.073807 452.929412 1744.032663 442.623529 1727.673524 446.082353 C 1711.314384 449.541176 1700.785176 465.423529 1704.212469 481.588235 C 1707.604428 497.752941 1723.645572 508.058824 1740.004711 504.6 C 1756.363851 501.141176 1766.893059 485.258824 1763.465766 469.094118 " transform="matrix(0.110556,0,0,0.110677,0,0)"/>
<path style="fill:none;stroke-width:2;stroke-linecap:butt;stroke-linejoin:miter;stroke:rgb(54.509804%,56.862745%,57.647059%);stroke-opacity:1;stroke-miterlimit:4;" d="M 256.304962 459.141176 C 256.057632 459.705882 255.880967 459.670588 255.845634 459.035294 L 255.386307 447.564706 C 255.350974 447.388235 255.280308 447.282353 255.06831 447.282353 L 249.697707 447.282353 C 249.521043 447.282353 249.415044 447.352941 249.415044 447.564706 L 249.415044 503.717647 C 249.415044 503.894118 249.521043 504 249.697707 504 L 255.986966 504 C 256.092965 504 256.163631 503.929412 256.163631 503.823529 C 256.304962 495.494118 256.304962 487.8 256.163631 480.776471 C 256.022299 473.788235 256.552293 468.705882 257.753612 465.529412 C 261.180905 456.494118 270.014133 450.847059 279.766018 451.870588 C 288.493247 452.788235 290.966552 460.376471 290.931219 467.858824 C 290.82522 479.964706 290.82522 491.964706 290.931219 503.788235 C 290.931219 503.929412 291.001884 503.964706 291.107883 503.964706 L 297.503141 504 C 297.679805 504 297.821137 503.858824 297.821137 503.682353 C 297.785804 490.8 297.785804 478.023529 297.85647 465.423529 C 297.891803 461.647059 297.397142 458.541176 296.40782 456.176471 C 292.803863 447.352941 284.0413 444.670588 275.06674 446.117647 C 267.1875 447.388235 259.767588 451.905882 256.304962 459.141176 " transform="matrix(0.110556,0,0,0.110677,0,0)"/>
<path style="fill:none;stroke-width:2;stroke-linecap:butt;stroke-linejoin:miter;stroke:rgb(54.509804%,56.862745%,57.647059%);stroke-opacity:1;stroke-miterlimit:4;" d="M 457.87924 460.058824 L 457.384579 447.564706 C 457.349246 447.388235 457.27858 447.282353 457.066583 447.282353 L 451.69598 447.282353 C 451.519315 447.282353 451.413317 447.352941 451.413317 447.564706 L 451.413317 503.823529 C 451.413317 503.929412 451.483982 504 451.589981 504 L 457.985239 504 C 458.12657 504 458.232569 503.894118 458.232569 503.752941 C 458.197236 494.082353 458.197236 484.411765 458.303235 474.635294 C 458.373901 467.894118 460.741206 462.458824 465.440484 458.4 C 469.857098 454.552941 475.051036 452.611765 481.057632 452.541176 C 481.410961 452.541176 481.587626 452.364706 481.587626 452.011765 L 481.834956 446.223529 C 481.834956 445.870588 481.658291 445.729412 481.304962 445.729412 C 472.047739 446.294118 462.578518 451.552941 458.267902 460.129412 C 458.020572 460.623529 457.914573 460.588235 457.87924 460.058824 " transform="matrix(0.110556,0,0,0.110677,0,0)"/>
<path style="fill:none;stroke-width:2;stroke-linecap:butt;stroke-linejoin:miter;stroke:rgb(54.509804%,56.862745%,57.647059%);stroke-opacity:1;stroke-miterlimit:4;" d="M 1061.330088 459.141176 C 1061.047425 459.705882 1060.87076 459.670588 1060.87076 459.035294 L 1060.376099 447.564706 C 1060.376099 447.388235 1060.270101 447.282353 1060.058103 447.282353 L 1054.6875 447.282353 C 1054.510835 447.282353 1054.44017 447.352941 1054.44017 447.564706 L 1054.404837 503.717647 C 1054.404837 503.894118 1054.510835 504 1054.6875 504 L 1060.976759 504 C 1061.11809 504 1061.188756 503.929412 1061.188756 503.823529 C 1061.330088 495.882353 1061.294755 488.258824 1061.153423 480.882353 C 1061.047425 473.470588 1061.542085 468.352941 1062.708072 465.494118 C 1065.711369 458.047059 1072.000628 452.858824 1079.985867 451.905882 C 1091.151068 450.635294 1095.956344 457.305882 1095.885678 467.470588 C 1095.850345 479.505882 1095.850345 491.611765 1095.885678 503.788235 C 1095.885678 503.929412 1095.956344 504 1096.097676 504 L 1102.598932 504 C 1102.740264 504 1102.846263 503.929412 1102.846263 503.752941 C 1102.775597 491.788235 1102.775597 479.364706 1102.881595 466.482353 C 1102.916928 462.211765 1102.457601 458.858824 1101.538945 456.458824 C 1096.521671 443.470588 1080.26853 443.682353 1070.057318 449.752941 C 1066.170697 452.047059 1063.273398 455.152941 1061.330088 459.141176 " transform="matrix(0.110556,0,0,0.110677,0,0)"/>
<path style="fill:none;stroke-width:2;stroke-linecap:butt;stroke-linejoin:miter;stroke:rgb(54.509804%,56.862745%,57.647059%);stroke-opacity:1;stroke-miterlimit:4;" d="M 1377.418342 459.882353 C 1377.065013 460.552941 1376.888348 460.517647 1376.853015 459.776471 L 1376.358354 447.564706 C 1376.358354 447.388235 1376.252356 447.282353 1376.075691 447.282353 L 1370.705088 447.282353 C 1370.528423 447.282353 1370.422425 447.352941 1370.422425 447.564706 L 1370.422425 503.823529 C 1370.422425 503.929412 1370.49309 504 1370.599089 504 L 1376.994347 504 C 1377.100345 504 1377.171011 503.929412 1377.171011 503.823529 C 1377.27701 495.6 1377.27701 487.305882 1377.171011 478.870588 C 1377.100345 474.352941 1377.453675 470.752941 1378.195666 468.105882 C 1380.880967 458.505882 1390.24419 452.752941 1400.06674 452.505882 C 1400.384736 452.505882 1400.561401 452.329412 1400.596734 452.011765 L 1400.808731 446.223529 C 1400.844064 445.870588 1400.667399 445.729412 1400.31407 445.729412 C 1391.127513 446.294118 1381.658291 451.552941 1377.418342 459.882353 " transform="matrix(0.110556,0,0,0.110677,0,0)"/>
<path style="fill:none;stroke-width:2;stroke-linecap:butt;stroke-linejoin:miter;stroke:rgb(54.509804%,56.862745%,57.647059%);stroke-opacity:1;stroke-miterlimit:4;" d="M 37.558888 481.517647 C 35.15625 471.670588 38.830873 461.435294 47.169441 455.717647 C 55.826005 449.717647 67.026539 450.741176 75.40044 457.164706 C 75.577104 457.305882 75.718436 457.270588 75.824435 457.129412 L 79.145729 452.929412 C 79.251727 452.788235 79.216394 452.682353 79.110396 452.576471 C 75.930433 450.070588 72.785804 448.411765 69.71184 447.564706 C 56.956658 444.070588 46.42745 446.611765 38.124215 455.152941 C 34.767588 458.611765 32.506281 462.388235 31.234296 466.517647 C 27.807004 477.952941 30.845634 489.882353 40.067525 497.929412 C 50.808731 507.352941 67.415201 507.458824 78.933731 498.635294 C 79.075063 498.494118 79.110396 498.388235 78.969064 498.247059 L 75.541771 494.435294 C 75.435773 494.329412 75.294441 494.294118 75.153109 494.4 C 61.620603 504.352941 41.692839 498.352941 37.558888 481.517647 " transform="matrix(0.110556,0,0,0.110677,0,0)"/>
<path style="fill:none;stroke-width:2;stroke-linecap:butt;stroke-linejoin:miter;stroke:rgb(54.509804%,56.862745%,57.647059%);stroke-opacity:1;stroke-miterlimit:4;" d="M 1543.730371 501.917647 C 1554.860239 507.176471 1565.884108 506.082353 1576.801979 498.705882 C 1576.907977 498.635294 1576.94331 498.529412 1576.837312 498.423529 C 1575.035333 496.235294 1573.798681 494.929412 1573.127356 494.470588 C 1573.021357 494.4 1572.950691 494.4 1572.844692 494.470588 C 1560.760835 503.117647 1543.765704 499.8 1537.05245 486.247059 C 1533.519158 479.117647 1533.801822 470.117647 1537.865107 463.305882 C 1545.673681 450.352941 1561.396828 448.305882 1573.233354 457.2 C 1573.374686 457.305882 1573.516018 457.270588 1573.622016 457.129412 C 1575.706658 454.411765 1576.801979 453 1576.837312 452.964706 C 1576.94331 452.823529 1576.907977 452.682353 1576.801979 452.576471 C 1573.728015 450.035294 1570.336055 448.270588 1566.590766 447.317647 C 1554.824906 444.282353 1544.861024 446.647059 1536.699121 454.341176 C 1525.53392 464.894118 1524.473932 483.141176 1534.614479 494.752941 C 1537.476445 498 1540.515075 500.4 1543.730371 501.917647 " transform="matrix(0.110556,0,0,0.110677,0,0)"/>
<path style="fill:none;stroke-width:2;stroke-linecap:butt;stroke-linejoin:miter;stroke:rgb(54.509804%,56.862745%,57.647059%);stroke-opacity:1;stroke-miterlimit:4;" d="M 1210.434987 492.988235 L 1210.788317 503.752941 C 1210.788317 503.929412 1210.894315 504 1211.035647 504 L 1216.724246 504 C 1216.865578 504 1216.936244 503.929412 1216.936244 503.788235 L 1216.936244 447.635294 C 1216.936244 447.388235 1216.794912 447.282353 1216.547582 447.282353 L 1210.505653 447.282353 C 1210.258323 447.282353 1210.081658 447.458824 1210.081658 447.705882 C 1210.046325 456.035294 1210.046325 464.823529 1210.081658 474.035294 C 1210.116991 481.305882 1209.057004 487.235294 1204.534391 492.282353 C 1199.693781 497.682353 1193.863851 500.047059 1187.079931 499.305882 C 1184.853957 499.094118 1182.804648 498.317647 1180.967337 497.011765 C 1176.515389 493.870588 1175.667399 488.611765 1175.667399 483.247059 C 1175.773398 470.647059 1175.773398 458.752941 1175.702732 447.529412 C 1175.702732 447.352941 1175.632067 447.282353 1175.455402 447.282353 L 1169.236809 447.282353 C 1169.024812 447.282353 1168.918813 447.388235 1168.918813 447.635294 C 1168.88348 461.258824 1168.918813 474.811765 1168.989479 488.223529 C 1169.060144 500.4 1179.094692 507.247059 1190.719221 505.270588 C 1199.446451 503.788235 1205.877041 499.658824 1209.940327 492.847059 C 1210.258323 492.352941 1210.399655 492.388235 1210.434987 492.988235 " transform="matrix(0.110556,0,0,0.110677,0,0)"/>
<path style="fill:none;stroke-width:2;stroke-linecap:butt;stroke-linejoin:miter;stroke:rgb(54.509804%,56.862745%,57.647059%);stroke-opacity:1;stroke-miterlimit:4;" d="M 1466.98728 447.776471 C 1466.98728 447.494118 1466.775283 447.282353 1466.492619 447.282353 L 1460.662688 447.282353 C 1460.380025 447.282353 1460.168028 447.494118 1460.168028 447.776471 L 1460.168028 503.505882 C 1460.168028 503.788235 1460.380025 504 1460.662688 504 L 1466.492619 504 C 1466.775283 504 1466.98728 503.788235 1466.98728 503.505882 L 1466.98728 447.776471 " transform="matrix(0.110556,0,0,0.110677,0,0)"/>
<path style="fill:none;stroke-width:2;stroke-linecap:butt;stroke-linejoin:miter;stroke:rgb(54.509804%,56.862745%,57.647059%);stroke-opacity:1;stroke-miterlimit:4;" d="M 1642.980528 447.776471 C 1642.980528 447.494118 1642.76853 447.282353 1642.485867 447.282353 L 1636.655936 447.282353 C 1636.373273 447.282353 1636.161275 447.494118 1636.161275 447.776471 L 1636.161275 503.505882 C 1636.161275 503.788235 1636.373273 504 1636.655936 504 L 1642.485867 504 C 1642.76853 504 1642.980528 503.788235 1642.980528 503.505882 L 1642.980528 447.776471 " transform="matrix(0.110556,0,0,0.110677,0,0)"/>
<path style="fill:none;stroke-width:2;stroke-linecap:butt;stroke-linejoin:miter;stroke:rgb(54.509804%,56.862745%,57.647059%);stroke-opacity:1;stroke-miterlimit:4;" d="M 897.032035 743.152941 C 903.992619 743.188235 909.681219 737.470588 909.716552 730.376471 C 909.787217 723.282353 904.169284 717.494118 897.2087 717.423529 C 890.212783 717.388235 884.524183 723.105882 884.488851 730.2 C 884.453518 737.294118 890.036118 743.082353 897.032035 743.152941 " transform="matrix(0.110556,0,0,0.110677,0,0)"/>
<path style="fill:none;stroke-width:2;stroke-linecap:butt;stroke-linejoin:miter;stroke:rgb(54.509804%,56.862745%,57.647059%);stroke-opacity:1;stroke-miterlimit:4;" d="M 1385.792242 139.305882 C 1370.49309 121.835294 1348.480685 110.047059 1325.655622 117.282353 C 1315.373744 120.529412 1305.480528 127.905882 1298.908606 136.235294 C 1283.185459 156.211765 1287.178078 180.847059 1300.251256 201.105882 C 1300.463254 201.423529 1300.710584 201.494118 1301.063913 201.352941 L 1397.169441 160.411765 C 1397.310773 160.341176 1397.346106 160.270588 1397.310773 160.164706 C 1394.802136 152.117647 1390.950848 145.164706 1385.792242 139.305882 " transform="matrix(0.110556,0,0,0.110677,0,0)"/>
<path style="fill:none;stroke-width:2;stroke-linecap:butt;stroke-linejoin:miter;stroke:rgb(54.509804%,56.862745%,57.647059%);stroke-opacity:1;stroke-miterlimit:4;" d="M 55.084014 198.105882 C 51.409391 207.070588 50.879397 216.529412 53.564698 226.447059 C 57.769315 242.152941 71.725817 249.035294 87.272299 248.576471 C 108.295383 247.976471 127.516489 237.811765 142.356313 222.952941 C 142.638976 222.670588 142.780308 222.352941 142.780308 221.964706 L 142.780308 167.788235 C 142.780308 167.435294 142.603643 167.294118 142.285647 167.294118 C 127.233825 167.752941 112.923995 169.058824 99.356156 171.247059 C 81.937029 174.035294 62.009265 181.305882 55.084014 198.105882 " transform="matrix(0.110556,0,0,0.110677,0,0)"/>
<path style="fill:none;stroke-width:2;stroke-linecap:butt;stroke-linejoin:miter;stroke:rgb(54.509804%,56.862745%,57.647059%);stroke-opacity:1;stroke-miterlimit:4;" d="M 781.776068 171.176471 C 762.625628 174.211765 739.765232 182.964706 735.313285 204.282353 C 733.723304 211.941176 733.829303 219.176471 735.631281 225.988235 C 739.800565 241.835294 753.509736 248.964706 769.056219 248.576471 C 790.255967 248.117647 809.795069 237.882353 824.634893 222.882353 C 824.917557 222.635294 825.023555 222.317647 825.023555 221.964706 L 825.023555 167.788235 C 825.023555 167.435294 824.846891 167.258824 824.493562 167.294118 C 809.300408 167.788235 795.061244 169.094118 781.776068 171.176471 " transform="matrix(0.110556,0,0,0.110677,0,0)"/>
<path style="fill:none;stroke-width:2;stroke-linecap:butt;stroke-linejoin:miter;stroke:rgb(54.509804%,56.862745%,57.647059%);stroke-opacity:1;stroke-miterlimit:4;" d="M 770.822864 497.541176 C 783.118719 492.705882 789.125314 478.835294 784.320038 466.482353 C 779.479428 454.164706 765.593593 448.058824 753.333072 452.858824 C 741.07255 457.694118 735.030622 471.564706 739.871231 483.917647 C 744.71184 496.235294 758.562343 502.341176 770.822864 497.541176 " transform="matrix(0.110556,0,0,0.110677,0,0)"/>
<path style="fill:none;stroke-width:2;stroke-linecap:butt;stroke-linejoin:miter;stroke:rgb(54.509804%,56.862745%,57.647059%);stroke-opacity:1;stroke-miterlimit:4;" d="M 141.755653 465.176471 C 139.77701 469.482353 139.176351 474.352941 140.02434 479.823529 C 140.059673 480.282353 140.342337 480.423529 140.766332 480.282353 L 181.222519 464.4 C 181.646514 464.223529 181.71718 463.976471 181.540515 463.588235 C 177.795226 456.564706 171.258637 451.058824 163.167399 451.305882 C 152.99152 451.658824 145.854271 456.282353 141.755653 465.176471 " transform="matrix(0.110556,0,0,0.110677,0,0)"/>
<path style="fill:none;stroke-width:2;stroke-linecap:butt;stroke-linejoin:miter;stroke:rgb(54.509804%,56.862745%,57.647059%);stroke-opacity:1;stroke-miterlimit:4;" d="M 584.265075 463.623529 C 580.590452 456.705882 574.61919 451.588235 566.951947 451.341176 C 557.906721 450.988235 549.603486 455.4 545.363536 463.305882 C 542.713568 468.282353 541.830245 473.788235 542.819567 479.894118 C 542.890232 480.282353 543.10223 480.423529 543.490892 480.282353 L 583.982412 464.4 C 584.371074 464.223529 584.477073 463.976471 584.265075 463.623529 " transform="matrix(0.110556,0,0,0.110677,0,0)"/>
<path style="fill:none;stroke-width:2;stroke-linecap:butt;stroke-linejoin:miter;stroke:rgb(54.509804%,56.862745%,57.647059%);stroke-opacity:1;stroke-miterlimit:4;" d="M 867.38772 457.482353 C 861.169127 463.2 859.084485 471.352941 860.285804 479.858824 C 860.35647 480.282353 860.6038 480.423529 860.992462 480.282353 L 901.766646 464.294118 C 901.94331 464.223529 902.013976 464.082353 901.907977 463.905882 C 898.834014 457.517647 892.686087 451.976471 885.407506 451.411765 C 878.411589 450.882353 872.404994 452.894118 867.38772 457.482353 " transform="matrix(0.110556,0,0,0.110677,0,0)"/>
<path style="fill:none;stroke-width:2;stroke-linecap:butt;stroke-linejoin:miter;stroke:rgb(54.509804%,56.862745%,57.647059%);stroke-opacity:1;stroke-miterlimit:4;" d="M 1733.044127 499.270588 C 1745.834642 499.694118 1756.575848 489.352941 1757.035176 476.152941 C 1757.459171 462.952941 1747.424623 451.905882 1734.598775 451.482353 C 1721.80826 451.058824 1711.067054 461.4 1710.607726 474.6 C 1710.183731 487.8 1720.218279 498.847059 1733.044127 499.270588 " transform="matrix(0.110556,0,0,0.110677,0,0)"/>
<path style=" stroke:none;fill-rule:nonzero;fill:rgb(88.235294%,86.27451%,85.098039%);fill-opacity:1;" d="M 0 0 L 199 0 L 199 85 L 0 85 Z M 191.410156 8.464844 C 191.394531 8.480469 191.398438 8.503906 191.414062 8.519531 L 191.804688 8.910156 C 191.820312 8.925781 191.84375 8.929688 191.863281 8.914062 L 197.25 4.710938 C 197.257812 4.707031 197.265625 4.695312 197.265625 4.679688 C 197.265625 4.667969 197.261719 4.65625 197.253906 4.648438 L 195.671875 3.066406 C 195.664062 3.054688 195.652344 3.050781 195.640625 3.050781 C 195.628906 3.054688 195.617188 3.058594 195.609375 3.070312 Z M 168.242188 16.277344 C 168.207031 16.34375 168.191406 16.335938 168.191406 16.265625 L 168.1875 5.824219 C 168.1875 5.789062 168.160156 5.757812 168.125 5.757812 L 165.90625 5.757812 C 165.886719 5.757812 165.871094 5.765625 165.859375 5.777344 C 165.847656 5.789062 165.84375 5.804688 165.84375 5.820312 L 165.84375 27.949219 C 165.84375 27.976562 165.867188 28 165.894531 28 L 168.128906 28 C 168.175781 28 168.199219 27.976562 168.195312 27.929688 C 168.179688 25.03125 168.179688 22.160156 168.195312 19.324219 C 168.203125 17.808594 168.664062 16.464844 169.570312 15.292969 C 170.730469 13.796875 172.539062 12.734375 174.464844 12.636719 C 176.765625 12.523438 178.503906 13.605469 179.117188 15.871094 C 179.386719 16.851562 179.519531 17.878906 179.519531 18.953125 C 179.523438 21.957031 179.523438 24.960938 179.519531 27.957031 C 179.519531 27.980469 179.539062 28 179.5625 28 L 181.804688 28 C 181.84375 28 181.863281 27.980469 181.863281 27.941406 C 181.875 25.214844 181.871094 22.558594 181.855469 19.96875 C 181.851562 18.558594 181.707031 17.316406 181.425781 16.238281 C 180.894531 14.210938 179.644531 12.828125 177.574219 12.292969 C 176.070312 11.902344 174.289062 11.867188 172.773438 12.335938 C 171.195312 12.824219 169.921875 13.722656 168.957031 15.035156 C 168.671875 15.425781 168.460938 15.84375 168.242188 16.277344 Z M 144.164062 22.835938 L 156.746094 17.417969 C 156.785156 17.402344 156.796875 17.375 156.785156 17.335938 C 156.535156 16.554688 156.191406 15.824219 155.757812 15.148438 C 155.082031 14.097656 154.207031 13.273438 153.136719 12.675781 C 151.554688 11.792969 149.558594 11.617188 147.789062 11.972656 C 143.109375 12.921875 140.539062 17.378906 141.507812 21.949219 C 142.171875 25.066406 144.617188 27.476562 147.804688 28.054688 C 151.023438 28.640625 154.59375 27.5625 156.558594 24.851562 C 156.578125 24.828125 156.578125 24.804688 156.558594 24.785156 L 156.222656 24.394531 C 156.214844 24.382812 156.199219 24.378906 156.1875 24.378906 C 156.171875 24.378906 156.160156 24.386719 156.152344 24.398438 C 155.75 25.003906 155.234375 25.542969 154.613281 26.011719 C 152.058594 27.941406 148.578125 26.894531 146.308594 25.097656 C 145.460938 24.425781 144.742188 23.691406 144.148438 22.890625 C 144.144531 22.878906 144.140625 22.867188 144.144531 22.859375 C 144.148438 22.847656 144.15625 22.839844 144.164062 22.835938 Z M 15.785156 25.480469 L 15.785156 27.960938 C 15.785156 27.984375 15.800781 28 15.824219 28 L 18.101562 28 C 18.140625 28 18.160156 27.980469 18.160156 27.945312 C 18.175781 23.828125 18.171875 20.488281 18.148438 17.917969 C 18.140625 16.957031 17.976562 16.050781 17.660156 15.195312 C 17.050781 13.558594 15.6875 12.574219 13.992188 12.234375 C 13.132812 12.0625 12.226562 11.984375 11.277344 12 C 8.769531 12.046875 6.34375 12.859375 4.71875 14.679688 C 4.671875 14.730469 4.664062 14.789062 4.695312 14.847656 L 4.957031 15.375 C 4.984375 15.429688 5.011719 15.429688 5.039062 15.375 C 5.332031 14.78125 6.027344 14.214844 6.566406 13.878906 C 8.25 12.828125 10.035156 12.410156 11.925781 12.625 C 12.785156 12.726562 13.496094 12.949219 14.046875 13.304688 C 15.480469 14.222656 15.808594 16.257812 15.777344 17.890625 C 15.777344 17.921875 15.753906 17.945312 15.722656 17.945312 C 13.761719 18.019531 11.878906 18.214844 10.074219 18.53125 C 7.359375 19.003906 3.847656 20.390625 3.429688 23.496094 C 3.1875 25.300781 3.945312 26.875 5.578125 27.695312 C 6.71875 28.269531 8.136719 28.402344 9.386719 28.261719 C 11.828125 27.976562 13.949219 27.046875 15.75 25.464844 C 15.753906 25.457031 15.761719 25.457031 15.769531 25.460938 C 15.777344 25.464844 15.785156 25.472656 15.785156 25.480469 Z M 30.796875 16.21875 L 30.796875 12.179688 C 30.796875 12.136719 30.777344 12.117188 30.738281 12.117188 L 28.527344 12.117188 C 28.476562 12.117188 28.449219 12.144531 28.449219 12.195312 L 28.449219 27.921875 C 28.449219 27.976562 28.476562 28 28.527344 28 L 30.734375 28 C 30.777344 28 30.800781 27.980469 30.800781 27.933594 C 30.796875 25.175781 30.796875 22.339844 30.800781 19.421875 C 30.800781 17.433594 31.53125 15.761719 32.988281 14.410156 C 34.527344 12.984375 36.6875 12.300781 38.75 12.792969 C 40.292969 13.167969 41.292969 14.320312 41.710938 15.824219 C 41.984375 16.792969 42.121094 17.820312 42.121094 18.898438 C 42.128906 22.007812 42.128906 25.023438 42.125 27.945312 C 42.125 27.984375 42.144531 28 42.179688 28 L 44.414062 28 C 44.457031 28 44.476562 27.980469 44.476562 27.9375 C 44.472656 25.601562 44.472656 23.035156 44.472656 20.246094 C 44.472656 19.046875 44.367188 17.894531 44.160156 16.796875 C 43.683594 14.285156 42.210938 12.636719 39.652344 12.167969 C 38.542969 11.964844 37.492188 11.9375 36.496094 12.085938 C 34.042969 12.445312 31.914062 13.957031 30.878906 16.234375 C 30.824219 16.351562 30.796875 16.347656 30.796875 16.21875 Z M 56.53125 16.234375 L 56.53125 12.179688 C 56.53125 12.136719 56.511719 12.117188 56.46875 12.117188 L 54.234375 12.117188 C 54.199219 12.117188 54.179688 12.136719 54.179688 12.167969 L 54.183594 27.929688 C 54.183594 27.976562 54.203125 28 54.25 28 L 56.464844 28 C 56.507812 28 56.527344 27.980469 56.527344 27.9375 C 56.53125 25.046875 56.53125 22.21875 56.53125 19.445312 C 56.53125 17.449219 57.253906 15.777344 58.703125 14.429688 C 60.28125 12.960938 62.472656 12.277344 64.574219 12.820312 C 66.074219 13.203125 67.050781 14.382812 67.457031 15.859375 C 67.722656 16.828125 67.855469 17.851562 67.855469 18.925781 C 67.859375 22.078125 67.859375 25.078125 67.859375 27.929688 C 67.859375 27.976562 67.886719 28 67.933594 28 L 70.140625 28 C 70.175781 28 70.203125 27.972656 70.203125 27.9375 C 70.210938 25.453125 70.210938 22.894531 70.199219 20.257812 C 70.1875 17.503906 69.882812 14.164062 67.15625 12.761719 C 65.734375 12.03125 63.765625 11.855469 62.230469 12.085938 C 59.808594 12.453125 57.582031 13.964844 56.609375 16.25 C 56.554688 16.375 56.53125 16.367188 56.53125 16.234375 Z M 91.210938 25.480469 L 91.210938 27.972656 C 91.210938 27.988281 91.222656 28 91.242188 28 L 93.527344 28 C 93.570312 28 93.59375 27.980469 93.59375 27.9375 C 93.589844 24.867188 93.589844 21.78125 93.59375 18.683594 C 93.59375 17.449219 93.507812 16.265625 93.0625 15.128906 C 92.433594 13.535156 91.128906 12.59375 89.460938 12.246094 C 88.582031 12.0625 87.664062 11.980469 86.699219 12 C 84.195312 12.046875 81.710938 12.871094 80.09375 14.734375 C 80.082031 14.75 80.078125 14.765625 80.089844 14.78125 L 80.386719 15.378906 C 80.398438 15.402344 80.414062 15.402344 80.425781 15.382812 C 80.882812 14.746094 81.390625 14.253906 81.953125 13.902344 C 83.667969 12.828125 85.46875 12.40625 87.351562 12.628906 C 88.210938 12.726562 88.902344 12.941406 89.421875 13.269531 C 90.1875 13.753906 90.695312 14.519531 90.949219 15.570312 C 91.132812 16.347656 91.21875 17.117188 91.203125 17.875 C 91.199219 17.914062 91.183594 17.933594 91.144531 17.933594 C 89.761719 18.007812 88.484375 18.113281 87.324219 18.253906 C 84.09375 18.640625 78.898438 19.804688 78.8125 24.046875 C 78.796875 24.832031 78.960938 25.527344 79.3125 26.132812 C 80.410156 28.027344 82.800781 28.484375 84.808594 28.257812 C 87.242188 27.984375 89.363281 27.054688 91.175781 25.464844 C 91.179688 25.460938 91.191406 25.457031 91.199219 25.460938 C 91.207031 25.464844 91.210938 25.472656 91.210938 25.480469 Z M 132.921875 12.117188 C 132.910156 12.117188 132.898438 12.125 132.890625 12.136719 L 126.742188 24.734375 C 126.738281 24.746094 126.726562 24.753906 126.714844 24.753906 C 126.699219 24.753906 126.6875 24.746094 126.683594 24.734375 L 120.535156 12.136719 C 120.53125 12.125 120.519531 12.121094 120.507812 12.117188 L 117.914062 12.117188 C 117.902344 12.117188 117.890625 12.125 117.886719 12.132812 C 117.878906 12.144531 117.878906 12.15625 117.882812 12.164062 L 125.730469 28.164062 C 125.738281 28.175781 125.75 28.183594 125.761719 28.183594 C 125.773438 28.183594 125.785156 28.175781 125.792969 28.164062 L 133.636719 12.164062 C 133.644531 12.15625 133.644531 12.144531 133.636719 12.132812 C 133.628906 12.125 133.621094 12.117188 133.609375 12.117188 Z M 193.921875 12.15625 C 193.921875 12.136719 193.90625 12.117188 193.882812 12.117188 L 191.613281 12.117188 C 191.589844 12.117188 191.574219 12.136719 191.574219 12.15625 L 191.574219 27.960938 C 191.574219 27.984375 191.589844 28 191.613281 28 L 193.882812 28 C 193.90625 28 193.921875 27.984375 193.921875 27.960938 Z M 193.589844 46.113281 C 193.597656 46.105469 193.601562 46.089844 193.59375 46.078125 C 193.589844 46.066406 193.578125 46.058594 193.5625 46.058594 L 192.804688 46.058594 C 192.792969 46.058594 192.785156 46.0625 192.777344 46.074219 L 191.429688 48.136719 C 191.421875 48.148438 191.421875 48.164062 191.425781 48.171875 C 191.433594 48.183594 191.445312 48.191406 191.457031 48.191406 L 191.917969 48.195312 C 191.929688 48.195312 191.941406 48.191406 191.945312 48.179688 Z M 86.859375 54.566406 L 86.855469 55.753906 C 86.855469 55.773438 86.863281 55.78125 86.878906 55.78125 L 87.601562 55.78125 C 87.613281 55.78125 87.621094 55.773438 87.621094 55.761719 L 87.621094 46.625 C 87.621094 46.605469 87.609375 46.59375 87.59375 46.59375 L 86.886719 46.597656 C 86.875 46.597656 86.871094 46.601562 86.871094 46.613281 L 86.871094 50.6875 C 86.871094 50.746094 86.851562 50.75 86.8125 50.707031 C 86.621094 50.480469 86.457031 50.253906 86.21875 50.070312 C 84.839844 49.007812 82.890625 49.039062 81.691406 50.351562 C 80.59375 51.550781 80.582031 53.542969 81.644531 54.804688 C 82.664062 56.015625 84.355469 56.222656 85.738281 55.460938 C 86.171875 55.222656 86.519531 54.917969 86.789062 54.546875 C 86.835938 54.480469 86.859375 54.488281 86.859375 54.566406 Z M 162.363281 47.203125 C 162.363281 46.90625 162.121094 46.664062 161.824219 46.664062 C 161.527344 46.664062 161.285156 46.90625 161.285156 47.203125 C 161.285156 47.5 161.527344 47.742188 161.824219 47.742188 C 162.121094 47.742188 162.363281 47.5 162.363281 47.203125 Z M 181.820312 47.203125 C 181.820312 46.90625 181.578125 46.664062 181.28125 46.664062 C 180.984375 46.664062 180.742188 46.90625 180.742188 47.203125 C 180.742188 47.5 180.984375 47.742188 181.28125 47.742188 C 181.578125 47.742188 181.820312 47.5 181.820312 47.203125 Z M 41.625 50.230469 C 41.625 50.210938 41.640625 50.191406 41.664062 50.191406 L 43.527344 50.191406 C 43.546875 50.191406 43.5625 50.175781 43.5625 50.15625 L 43.5625 49.625 C 43.5625 49.601562 43.546875 49.585938 43.527344 49.585938 L 41.664062 49.585938 C 41.640625 49.585938 41.625 49.566406 41.625 49.546875 L 41.625 46.78125 C 41.625 46.761719 41.605469 46.746094 41.585938 46.746094 L 40.890625 46.746094 C 40.871094 46.746094 40.855469 46.761719 40.855469 46.78125 L 40.855469 49.546875 C 40.855469 49.570312 40.835938 49.585938 40.816406 49.585938 L 39.5625 49.585938 C 39.542969 49.585938 39.523438 49.601562 39.523438 49.621094 L 39.527344 50.15625 C 39.527344 50.175781 39.542969 50.191406 39.5625 50.191406 L 40.816406 50.191406 C 40.835938 50.191406 40.855469 50.210938 40.855469 50.230469 L 40.855469 55.742188 C 40.855469 55.765625 40.871094 55.78125 40.890625 55.78125 L 41.585938 55.78125 C 41.609375 55.78125 41.625 55.765625 41.625 55.742188 Z M 143.300781 50.191406 C 143.953125 50.195312 144.5625 50.195312 145.132812 50.191406 C 145.152344 50.191406 145.164062 50.183594 145.164062 50.164062 C 145.164062 50.160156 145.164062 49.980469 145.164062 49.617188 C 145.164062 49.597656 145.152344 49.585938 145.128906 49.585938 L 143.253906 49.585938 C 143.234375 49.585938 143.226562 49.574219 143.226562 49.558594 L 143.226562 46.785156 C 143.226562 46.761719 143.207031 46.746094 143.1875 46.746094 L 142.5 46.746094 C 142.476562 46.746094 142.457031 46.765625 142.457031 46.792969 L 142.457031 49.523438 C 142.457031 49.566406 142.433594 49.585938 142.394531 49.585938 L 141.179688 49.585938 C 141.144531 49.585938 141.125 49.601562 141.125 49.640625 L 141.125 50.140625 C 141.125 50.175781 141.144531 50.195312 141.183594 50.191406 L 142.398438 50.191406 C 142.4375 50.191406 142.457031 50.210938 142.457031 50.25 L 142.457031 55.753906 C 142.457031 55.769531 142.464844 55.78125 142.480469 55.78125 L 143.195312 55.78125 C 143.214844 55.78125 143.226562 55.773438 143.226562 55.753906 L 143.226562 50.269531 C 143.226562 50.21875 143.25 50.191406 143.300781 50.191406 Z M 15.695312 53.789062 C 15.6875 53.78125 15.683594 53.765625 15.6875 53.753906 C 15.691406 53.742188 15.703125 53.730469 15.714844 53.726562 L 20.957031 51.699219 C 20.996094 51.683594 21.007812 51.65625 20.996094 51.617188 C 20.5625 50.269531 19.515625 49.308594 18.050781 49.304688 C 17.441406 49.304688 16.898438 49.445312 16.414062 49.726562 C 14.757812 50.707031 14.214844 52.695312 15.136719 54.300781 C 15.5 54.9375 16.179688 55.5 16.859375 55.71875 C 18.042969 56.097656 19.167969 55.898438 20.234375 55.117188 C 20.25 55.109375 20.25 55.097656 20.242188 55.085938 L 19.890625 54.589844 C 19.882812 54.582031 19.871094 54.574219 19.859375 54.574219 C 19.851562 54.574219 19.839844 54.578125 19.828125 54.582031 C 18.703125 55.542969 17.136719 55.449219 16.128906 54.417969 C 15.953125 54.234375 15.839844 54 15.695312 53.789062 Z M 60.261719 53.71875 L 65.488281 51.695312 C 65.527344 51.679688 65.542969 51.652344 65.527344 51.609375 C 65.050781 50.25 64.046875 49.300781 62.554688 49.304688 C 61.28125 49.304688 60.179688 50.027344 59.589844 51.121094 C 59.261719 51.726562 59.152344 52.414062 59.265625 53.1875 C 59.371094 53.894531 59.695312 54.507812 60.246094 55.023438 C 61.511719 56.207031 63.367188 56.152344 64.734375 55.136719 C 64.761719 55.113281 64.765625 55.085938 64.746094 55.054688 L 64.429688 54.605469 C 64.421875 54.59375 64.40625 54.585938 64.390625 54.582031 C 64.378906 54.582031 64.363281 54.585938 64.351562 54.59375 C 63.773438 55.050781 63.152344 55.269531 62.476562 55.246094 C 61.496094 55.210938 60.75 54.726562 60.234375 53.800781 C 60.210938 53.761719 60.222656 53.734375 60.261719 53.71875 Z M 95.324219 53.773438 C 95.320312 53.765625 95.320312 53.753906 95.324219 53.746094 C 95.324219 53.734375 95.332031 53.730469 95.34375 53.726562 L 100.585938 51.699219 C 100.625 51.683594 100.636719 51.65625 100.625 51.613281 C 100.398438 50.925781 100.03125 50.367188 99.519531 49.941406 C 98.570312 49.148438 97.085938 49.105469 96.03125 49.734375 C 94.707031 50.523438 94.089844 51.90625 94.40625 53.410156 C 94.53125 53.980469 94.816406 54.5 95.273438 54.957031 C 96.515625 56.199219 98.429688 56.175781 99.832031 55.136719 C 99.863281 55.113281 99.867188 55.085938 99.84375 55.050781 L 99.53125 54.609375 C 99.519531 54.597656 99.503906 54.585938 99.488281 54.585938 C 99.46875 54.582031 99.453125 54.585938 99.4375 54.597656 C 98.859375 55.074219 98.207031 55.285156 97.476562 55.238281 C 96.527344 55.171875 95.808594 54.683594 95.324219 53.773438 Z M 194.960938 51.917969 C 194.585938 50.128906 192.8125 48.988281 191.003906 49.371094 C 189.195312 49.753906 188.03125 51.511719 188.410156 53.300781 C 188.785156 55.089844 190.558594 56.230469 192.367188 55.847656 C 194.175781 55.464844 195.339844 53.707031 194.960938 51.917969 Z M 28.335938 50.816406 C 28.308594 50.878906 28.289062 50.875 28.285156 50.804688 L 28.234375 49.535156 C 28.230469 49.515625 28.222656 49.503906 28.199219 49.503906 L 27.605469 49.503906 C 27.585938 49.503906 27.574219 49.511719 27.574219 49.535156 L 27.574219 55.75 C 27.574219 55.769531 27.585938 55.78125 27.605469 55.78125 L 28.300781 55.78125 C 28.3125 55.78125 28.320312 55.773438 28.320312 55.761719 C 28.335938 54.839844 28.335938 53.988281 28.320312 53.210938 C 28.304688 52.4375 28.363281 51.875 28.496094 51.523438 C 28.875 50.523438 29.851562 49.898438 30.929688 50.011719 C 31.894531 50.113281 32.167969 50.953125 32.164062 51.78125 C 32.152344 53.121094 32.152344 54.449219 32.164062 55.757812 C 32.164062 55.773438 32.171875 55.777344 32.183594 55.777344 L 32.890625 55.78125 C 32.910156 55.78125 32.925781 55.765625 32.925781 55.746094 C 32.921875 54.320312 32.921875 52.90625 32.929688 51.511719 C 32.933594 51.09375 32.878906 50.75 32.769531 50.488281 C 32.371094 49.511719 31.402344 49.214844 30.410156 49.375 C 29.539062 49.515625 28.71875 50.015625 28.335938 50.816406 Z M 50.621094 50.917969 L 50.566406 49.535156 C 50.5625 49.515625 50.554688 49.503906 50.53125 49.503906 L 49.9375 49.503906 C 49.917969 49.503906 49.90625 49.511719 49.90625 49.535156 L 49.90625 55.761719 C 49.90625 55.773438 49.914062 55.78125 49.925781 55.78125 L 50.632812 55.78125 C 50.648438 55.78125 50.660156 55.769531 50.660156 55.753906 C 50.65625 54.683594 50.65625 53.613281 50.667969 52.53125 C 50.675781 51.785156 50.9375 51.183594 51.457031 50.734375 C 51.945312 50.308594 52.519531 50.09375 53.183594 50.085938 C 53.222656 50.085938 53.242188 50.066406 53.242188 50.027344 L 53.269531 49.386719 C 53.269531 49.347656 53.25 49.332031 53.210938 49.332031 C 52.1875 49.394531 51.140625 49.976562 50.664062 50.925781 C 50.636719 50.980469 50.625 50.976562 50.621094 50.917969 Z M 117.335938 50.816406 C 117.304688 50.878906 117.285156 50.875 117.285156 50.804688 L 117.230469 49.535156 C 117.230469 49.515625 117.21875 49.503906 117.195312 49.503906 L 116.601562 49.503906 C 116.582031 49.503906 116.574219 49.511719 116.574219 49.535156 L 116.570312 55.75 C 116.570312 55.769531 116.582031 55.78125 116.601562 55.78125 L 117.296875 55.78125 C 117.3125 55.78125 117.320312 55.773438 117.320312 55.761719 C 117.335938 54.882812 117.332031 54.039062 117.316406 53.222656 C 117.304688 52.402344 117.359375 51.835938 117.488281 51.519531 C 117.820312 50.695312 118.515625 50.121094 119.398438 50.015625 C 120.632812 49.875 121.164062 50.613281 121.15625 51.738281 C 121.152344 53.070312 121.152344 54.410156 121.15625 55.757812 C 121.15625 55.773438 121.164062 55.78125 121.179688 55.78125 L 121.898438 55.78125 C 121.914062 55.78125 121.925781 55.773438 121.925781 55.753906 C 121.917969 54.429688 121.917969 53.054688 121.929688 51.628906 C 121.933594 51.15625 121.882812 50.785156 121.78125 50.519531 C 121.226562 49.082031 119.429688 49.105469 118.300781 49.777344 C 117.871094 50.03125 117.550781 50.375 117.335938 50.816406 Z M 152.28125 50.898438 C 152.242188 50.972656 152.222656 50.96875 152.21875 50.886719 L 152.164062 49.535156 C 152.164062 49.515625 152.152344 49.503906 152.132812 49.503906 L 151.539062 49.503906 C 151.519531 49.503906 151.507812 49.511719 151.507812 49.535156 L 151.507812 55.761719 C 151.507812 55.773438 151.515625 55.78125 151.527344 55.78125 L 152.234375 55.78125 C 152.246094 55.78125 152.253906 55.773438 152.253906 55.761719 C 152.265625 54.851562 152.265625 53.933594 152.253906 53 C 152.246094 52.5 152.285156 52.101562 152.367188 51.808594 C 152.664062 50.746094 153.699219 50.109375 154.785156 50.082031 C 154.820312 50.082031 154.839844 50.0625 154.84375 50.027344 L 154.867188 49.386719 C 154.871094 49.347656 154.851562 49.332031 154.8125 49.332031 C 153.796875 49.394531 152.75 49.976562 152.28125 50.898438 Z M 4.152344 53.292969 C 3.886719 52.203125 4.292969 51.070312 5.214844 50.4375 C 6.171875 49.773438 7.410156 49.886719 8.335938 50.597656 C 8.355469 50.613281 8.371094 50.609375 8.382812 50.59375 L 8.75 50.128906 C 8.761719 50.113281 8.757812 50.101562 8.746094 50.089844 C 8.394531 49.8125 8.046875 49.628906 7.707031 49.535156 C 6.296875 49.148438 5.132812 49.429688 4.214844 50.375 C 3.84375 50.757812 3.59375 51.175781 3.453125 51.632812 C 3.074219 52.898438 3.410156 54.21875 4.429688 55.109375 C 5.617188 56.152344 7.453125 56.164062 8.726562 55.1875 C 8.742188 55.171875 8.746094 55.160156 8.730469 55.144531 L 8.351562 54.722656 C 8.339844 54.710938 8.324219 54.707031 8.308594 54.71875 C 6.8125 55.820312 4.609375 55.15625 4.152344 53.292969 Z M 170.667969 55.550781 C 171.898438 56.132812 173.117188 56.011719 174.324219 55.195312 C 174.335938 55.1875 174.339844 55.175781 174.328125 55.164062 C 174.128906 54.921875 173.992188 54.777344 173.917969 54.726562 C 173.90625 54.71875 173.898438 54.71875 173.886719 54.726562 C 172.550781 55.683594 170.671875 55.316406 169.929688 53.816406 C 169.539062 53.027344 169.570312 52.03125 170.019531 51.277344 C 170.882812 49.84375 172.621094 49.617188 173.929688 50.601562 C 173.945312 50.613281 173.960938 50.609375 173.972656 50.59375 C 174.203125 50.292969 174.324219 50.136719 174.328125 50.132812 C 174.339844 50.117188 174.335938 50.101562 174.324219 50.089844 C 173.984375 49.808594 173.609375 49.613281 173.195312 49.507812 C 171.894531 49.171875 170.792969 49.433594 169.890625 50.285156 C 168.65625 51.453125 168.539062 53.472656 169.660156 54.757812 C 169.976562 55.117188 170.3125 55.382812 170.667969 55.550781 Z M 133.820312 54.5625 L 133.859375 55.753906 C 133.859375 55.773438 133.871094 55.78125 133.886719 55.78125 L 134.515625 55.78125 C 134.53125 55.78125 134.539062 55.773438 134.539062 55.757812 L 134.539062 49.542969 C 134.539062 49.515625 134.523438 49.503906 134.496094 49.503906 L 133.828125 49.503906 C 133.800781 49.503906 133.78125 49.523438 133.78125 49.550781 C 133.777344 50.472656 133.777344 51.445312 133.78125 52.464844 C 133.785156 53.269531 133.667969 53.925781 133.167969 54.484375 C 132.632812 55.082031 131.988281 55.34375 131.238281 55.261719 C 130.992188 55.238281 130.765625 55.152344 130.5625 55.007812 C 130.070312 54.660156 129.976562 54.078125 129.976562 53.484375 C 129.988281 52.089844 129.988281 50.773438 129.980469 49.53125 C 129.980469 49.511719 129.972656 49.503906 129.953125 49.503906 L 129.265625 49.503906 C 129.242188 49.503906 129.230469 49.515625 129.230469 49.542969 C 129.226562 51.050781 129.230469 52.550781 129.238281 54.035156 C 129.246094 55.382812 130.355469 56.140625 131.640625 55.921875 C 132.605469 55.757812 133.316406 55.300781 133.765625 54.546875 C 133.800781 54.492188 133.816406 54.496094 133.820312 54.5625 Z M 162.183594 49.558594 C 162.183594 49.527344 162.160156 49.503906 162.128906 49.503906 L 161.484375 49.503906 C 161.453125 49.503906 161.429688 49.527344 161.429688 49.558594 L 161.429688 55.726562 C 161.429688 55.757812 161.453125 55.78125 161.484375 55.78125 L 162.128906 55.78125 C 162.160156 55.78125 162.183594 55.757812 162.183594 55.726562 Z M 181.640625 49.558594 C 181.640625 49.527344 181.617188 49.503906 181.585938 49.503906 L 180.941406 49.503906 C 180.910156 49.503906 180.886719 49.527344 180.886719 49.558594 L 180.886719 55.726562 C 180.886719 55.757812 180.910156 55.78125 180.941406 55.78125 L 181.585938 55.78125 C 181.617188 55.78125 181.640625 55.757812 181.640625 55.726562 Z M 99.171875 82.25 C 99.941406 82.253906 100.570312 81.621094 100.574219 80.835938 C 100.582031 80.050781 99.960938 79.410156 99.191406 79.402344 C 98.417969 79.398438 97.789062 80.03125 97.785156 80.816406 C 97.78125 81.601562 98.398438 82.242188 99.171875 82.25 Z M 99.171875 82.25 "/>
<path style=" stroke:none;fill-rule:nonzero;fill:rgb(20.784314%,27.058824%,30.196078%);fill-opacity:1;" d="M 191.410156 8.464844 L 195.609375 3.070312 C 195.617188 3.058594 195.628906 3.054688 195.640625 3.050781 C 195.652344 3.050781 195.664062 3.054688 195.671875 3.066406 L 197.253906 4.648438 C 197.261719 4.65625 197.265625 4.667969 197.265625 4.679688 C 197.265625 4.695312 197.257812 4.707031 197.25 4.710938 L 191.863281 8.914062 C 191.84375 8.929688 191.820312 8.925781 191.804688 8.910156 L 191.414062 8.519531 C 191.398438 8.503906 191.394531 8.480469 191.410156 8.464844 Z M 191.410156 8.464844 "/>
<path style=" stroke:none;fill-rule:nonzero;fill:rgb(20.784314%,27.058824%,30.196078%);fill-opacity:1;" d="M 168.242188 16.277344 C 168.460938 15.84375 168.671875 15.425781 168.957031 15.035156 C 169.921875 13.722656 171.195312 12.824219 172.773438 12.335938 C 174.289062 11.867188 176.070312 11.902344 177.574219 12.292969 C 179.644531 12.828125 180.894531 14.210938 181.425781 16.238281 C 181.707031 17.316406 181.851562 18.558594 181.855469 19.96875 C 181.871094 22.558594 181.875 25.214844 181.863281 27.941406 C 181.863281 27.980469 181.84375 28 181.804688 28 L 179.5625 28 C 179.539062 28 179.519531 27.980469 179.519531 27.957031 C 179.523438 24.960938 179.523438 21.957031 179.519531 18.953125 C 179.519531 17.878906 179.386719 16.851562 179.117188 15.871094 C 178.503906 13.605469 176.765625 12.523438 174.464844 12.636719 C 172.539062 12.734375 170.730469 13.796875 169.570312 15.292969 C 168.664062 16.464844 168.203125 17.808594 168.195312 19.324219 C 168.179688 22.160156 168.179688 25.03125 168.195312 27.929688 C 168.199219 27.976562 168.175781 28 168.128906 28 L 165.894531 28 C 165.867188 28 165.84375 27.976562 165.84375 27.949219 L 165.84375 5.820312 C 165.84375 5.804688 165.847656 5.789062 165.859375 5.777344 C 165.871094 5.765625 165.886719 5.757812 165.90625 5.757812 L 168.125 5.757812 C 168.160156 5.757812 168.1875 5.789062 168.1875 5.824219 L 168.191406 16.265625 C 168.191406 16.335938 168.207031 16.34375 168.242188 16.277344 Z M 168.242188 16.277344 "/>
<path style=" stroke:none;fill-rule:nonzero;fill:rgb(20.784314%,27.058824%,30.196078%);fill-opacity:1;" d="M 144.164062 22.835938 C 144.15625 22.839844 144.148438 22.847656 144.144531 22.859375 C 144.140625 22.867188 144.144531 22.878906 144.148438 22.890625 C 144.742188 23.691406 145.460938 24.425781 146.308594 25.097656 C 148.578125 26.894531 152.058594 27.941406 154.613281 26.011719 C 155.234375 25.542969 155.75 25.003906 156.152344 24.398438 C 156.160156 24.386719 156.171875 24.378906 156.1875 24.378906 C 156.199219 24.378906 156.214844 24.382812 156.222656 24.394531 L 156.558594 24.785156 C 156.578125 24.804688 156.578125 24.828125 156.558594 24.851562 C 154.59375 27.5625 151.023438 28.640625 147.804688 28.054688 C 144.617188 27.476562 142.171875 25.066406 141.507812 21.949219 C 140.539062 17.378906 143.109375 12.921875 147.789062 11.972656 C 149.558594 11.617188 151.554688 11.792969 153.136719 12.675781 C 154.207031 13.273438 155.082031 14.097656 155.757812 15.148438 C 156.191406 15.824219 156.535156 16.554688 156.785156 17.335938 C 156.796875 17.375 156.785156 17.402344 156.746094 17.417969 Z M 153.207031 15.417969 C 151.515625 13.484375 149.082031 12.179688 146.558594 12.980469 C 145.421875 13.339844 144.328125 14.15625 143.601562 15.078125 C 141.863281 17.289062 142.304688 20.015625 143.75 22.257812 C 143.773438 22.292969 143.800781 22.300781 143.839844 22.285156 L 154.464844 17.753906 C 154.480469 17.746094 154.484375 17.738281 154.480469 17.726562 C 154.203125 16.835938 153.777344 16.066406 153.207031 15.417969 Z M 153.207031 15.417969 "/>
<path style=" stroke:none;fill-rule:nonzero;fill:rgb(20.784314%,27.058824%,30.196078%);fill-opacity:1;" d="M 15.785156 25.480469 C 15.785156 25.472656 15.777344 25.464844 15.769531 25.460938 C 15.761719 25.457031 15.753906 25.457031 15.75 25.464844 C 13.949219 27.046875 11.828125 27.976562 9.386719 28.261719 C 8.136719 28.402344 6.71875 28.269531 5.578125 27.695312 C 3.945312 26.875 3.1875 25.300781 3.429688 23.496094 C 3.847656 20.390625 7.359375 19.003906 10.074219 18.53125 C 11.878906 18.214844 13.761719 18.019531 15.722656 17.945312 C 15.753906 17.945312 15.777344 17.921875 15.777344 17.890625 C 15.808594 16.257812 15.480469 14.222656 14.046875 13.304688 C 13.496094 12.949219 12.785156 12.726562 11.925781 12.625 C 10.035156 12.410156 8.25 12.828125 6.566406 13.878906 C 6.027344 14.214844 5.332031 14.78125 5.039062 15.375 C 5.011719 15.429688 4.984375 15.429688 4.957031 15.375 L 4.695312 14.847656 C 4.664062 14.789062 4.671875 14.730469 4.71875 14.679688 C 6.34375 12.859375 8.769531 12.046875 11.277344 12 C 12.226562 11.984375 13.132812 12.0625 13.992188 12.234375 C 15.6875 12.574219 17.050781 13.558594 17.660156 15.195312 C 17.976562 16.050781 18.140625 16.957031 18.148438 17.917969 C 18.171875 20.488281 18.175781 23.828125 18.160156 27.945312 C 18.160156 27.980469 18.140625 28 18.101562 28 L 15.824219 28 C 15.800781 28 15.785156 27.984375 15.785156 27.960938 Z M 6.089844 21.925781 C 5.683594 22.917969 5.625 23.964844 5.921875 25.0625 C 6.386719 26.800781 7.929688 27.5625 9.648438 27.511719 C 11.972656 27.445312 14.097656 26.320312 15.738281 24.675781 C 15.769531 24.644531 15.785156 24.609375 15.785156 24.566406 L 15.785156 18.570312 C 15.785156 18.53125 15.765625 18.515625 15.730469 18.515625 C 14.066406 18.566406 12.484375 18.710938 10.984375 18.953125 C 9.058594 19.261719 6.855469 20.066406 6.089844 21.925781 Z M 6.089844 21.925781 "/>
<path style=" stroke:none;fill-rule:nonzero;fill:rgb(20.784314%,27.058824%,30.196078%);fill-opacity:1;" d="M 30.796875 16.21875 C 30.796875 16.347656 30.824219 16.351562 30.878906 16.234375 C 31.914062 13.957031 34.042969 12.445312 36.496094 12.085938 C 37.492188 11.9375 38.542969 11.964844 39.652344 12.167969 C 42.210938 12.636719 43.683594 14.285156 44.160156 16.796875 C 44.367188 17.894531 44.472656 19.046875 44.472656 20.246094 C 44.472656 23.035156 44.472656 25.601562 44.476562 27.9375 C 44.476562 27.980469 44.457031 28 44.414062 28 L 42.179688 28 C 42.144531 28 42.125 27.984375 42.125 27.945312 C 42.128906 25.023438 42.128906 22.007812 42.121094 18.898438 C 42.121094 17.820312 41.984375 16.792969 41.710938 15.824219 C 41.292969 14.320312 40.292969 13.167969 38.75 12.792969 C 36.6875 12.300781 34.527344 12.984375 32.988281 14.410156 C 31.53125 15.761719 30.800781 17.433594 30.800781 19.421875 C 30.796875 22.339844 30.796875 25.175781 30.800781 27.933594 C 30.800781 27.980469 30.777344 28 30.734375 28 L 28.527344 28 C 28.476562 28 28.449219 27.976562 28.449219 27.921875 L 28.449219 12.195312 C 28.449219 12.144531 28.476562 12.117188 28.527344 12.117188 L 30.738281 12.117188 C 30.777344 12.117188 30.796875 12.136719 30.796875 12.179688 Z M 30.796875 16.21875 "/>
<path style=" stroke:none;fill-rule:nonzero;fill:rgb(20.784314%,27.058824%,30.196078%);fill-opacity:1;" d="M 56.53125 16.234375 C 56.53125 16.367188 56.554688 16.375 56.609375 16.25 C 57.582031 13.964844 59.808594 12.453125 62.230469 12.085938 C 63.765625 11.855469 65.734375 12.03125 67.15625 12.761719 C 69.882812 14.164062 70.1875 17.503906 70.199219 20.257812 C 70.210938 22.894531 70.210938 25.453125 70.203125 27.9375 C 70.203125 27.972656 70.175781 28 70.140625 28 L 67.933594 28 C 67.886719 28 67.859375 27.976562 67.859375 27.929688 C 67.859375 25.078125 67.859375 22.078125 67.855469 18.925781 C 67.855469 17.851562 67.722656 16.828125 67.457031 15.859375 C 67.050781 14.382812 66.074219 13.203125 64.574219 12.820312 C 62.472656 12.277344 60.28125 12.960938 58.703125 14.429688 C 57.253906 15.777344 56.53125 17.449219 56.53125 19.445312 C 56.53125 22.21875 56.53125 25.046875 56.527344 27.9375 C 56.527344 27.980469 56.507812 28 56.464844 28 L 54.25 28 C 54.203125 28 54.183594 27.976562 54.183594 27.929688 L 54.179688 12.167969 C 54.179688 12.136719 54.199219 12.117188 54.234375 12.117188 L 56.46875 12.117188 C 56.511719 12.117188 56.53125 12.136719 56.53125 12.179688 Z M 56.53125 16.234375 "/>
<path style=" stroke:none;fill-rule:nonzero;fill:rgb(20.784314%,27.058824%,30.196078%);fill-opacity:1;" d="M 91.210938 25.480469 C 91.210938 25.472656 91.207031 25.464844 91.199219 25.460938 C 91.191406 25.457031 91.179688 25.460938 91.175781 25.464844 C 89.363281 27.054688 87.242188 27.984375 84.808594 28.257812 C 82.800781 28.484375 80.410156 28.027344 79.3125 26.132812 C 78.960938 25.527344 78.796875 24.832031 78.8125 24.046875 C 78.898438 19.804688 84.09375 18.640625 87.324219 18.253906 C 88.484375 18.113281 89.761719 18.007812 91.144531 17.933594 C 91.183594 17.933594 91.199219 17.914062 91.203125 17.875 C 91.21875 17.117188 91.132812 16.347656 90.949219 15.570312 C 90.695312 14.519531 90.1875 13.753906 89.421875 13.269531 C 88.902344 12.941406 88.210938 12.726562 87.351562 12.628906 C 85.46875 12.40625 83.667969 12.828125 81.953125 13.902344 C 81.390625 14.253906 80.882812 14.746094 80.425781 15.382812 C 80.414062 15.402344 80.398438 15.402344 80.386719 15.378906 L 80.089844 14.78125 C 80.078125 14.765625 80.082031 14.75 80.09375 14.734375 C 81.710938 12.871094 84.195312 12.046875 86.699219 12 C 87.664062 11.980469 88.582031 12.0625 89.460938 12.246094 C 91.128906 12.59375 92.433594 13.535156 93.0625 15.128906 C 93.507812 16.265625 93.59375 17.449219 93.59375 18.683594 C 93.589844 21.78125 93.589844 24.867188 93.59375 27.9375 C 93.59375 27.980469 93.570312 28 93.527344 28 L 91.242188 28 C 91.222656 28 91.210938 27.988281 91.210938 27.972656 Z M 86.429688 18.945312 C 84.3125 19.28125 81.785156 20.25 81.292969 22.609375 C 81.117188 23.457031 81.128906 24.257812 81.328125 25.011719 C 81.789062 26.765625 83.304688 27.554688 85.023438 27.511719 C 87.367188 27.460938 89.527344 26.328125 91.167969 24.667969 C 91.199219 24.640625 91.210938 24.605469 91.210938 24.566406 L 91.210938 18.570312 C 91.210938 18.53125 91.191406 18.511719 91.152344 18.515625 C 89.472656 18.570312 87.898438 18.714844 86.429688 18.945312 Z M 86.429688 18.945312 "/>
<path style=" stroke:none;fill-rule:nonzero;fill:rgb(20.784314%,27.058824%,30.196078%);fill-opacity:1;" d="M 132.921875 12.117188 L 133.609375 12.117188 C 133.621094 12.117188 133.628906 12.125 133.636719 12.132812 C 133.644531 12.144531 133.644531 12.15625 133.636719 12.164062 L 125.792969 28.164062 C 125.785156 28.175781 125.773438 28.183594 125.761719 28.183594 C 125.75 28.183594 125.738281 28.175781 125.730469 28.164062 L 117.882812 12.164062 C 117.878906 12.15625 117.878906 12.144531 117.886719 12.132812 C 117.890625 12.125 117.902344 12.117188 117.914062 12.117188 L 120.507812 12.117188 C 120.519531 12.121094 120.53125 12.125 120.535156 12.136719 L 126.683594 24.734375 C 126.6875 24.746094 126.699219 24.753906 126.714844 24.753906 C 126.726562 24.753906 126.738281 24.746094 126.742188 24.734375 L 132.890625 12.136719 C 132.898438 12.125 132.910156 12.117188 132.921875 12.117188 Z M 132.921875 12.117188 "/>
<path style=" stroke:none;fill-rule:nonzero;fill:rgb(20.784314%,27.058824%,30.196078%);fill-opacity:1;" d="M 191.613281 12.117188 L 193.882812 12.117188 C 193.90625 12.117188 193.921875 12.136719 193.921875 12.15625 L 193.921875 27.960938 C 193.921875 27.984375 193.90625 28 193.882812 28 L 191.613281 28 C 191.589844 28 191.574219 27.984375 191.574219 27.960938 L 191.574219 12.15625 C 191.574219 12.136719 191.589844 12.117188 191.613281 12.117188 Z M 191.613281 12.117188 "/>
<path style=" stroke:none;fill-rule:nonzero;fill:rgb(88.235294%,86.27451%,85.098039%);fill-opacity:1;" d="M 146.558594 12.980469 C 149.082031 12.179688 151.515625 13.484375 153.207031 15.417969 C 153.777344 16.066406 154.203125 16.835938 154.480469 17.726562 C 154.484375 17.738281 154.480469 17.746094 154.464844 17.753906 L 143.839844 22.285156 C 143.800781 22.300781 143.773438 22.292969 143.75 22.257812 C 142.304688 20.015625 141.863281 17.289062 143.601562 15.078125 C 144.328125 14.15625 145.421875 13.339844 146.558594 12.980469 Z M 146.558594 12.980469 "/>
<path style=" stroke:none;fill-rule:nonzero;fill:rgb(88.235294%,86.27451%,85.098039%);fill-opacity:1;" d="M 6.089844 21.925781 C 6.855469 20.066406 9.058594 19.261719 10.984375 18.953125 C 12.484375 18.710938 14.066406 18.566406 15.730469 18.515625 C 15.765625 18.515625 15.785156 18.53125 15.785156 18.570312 L 15.785156 24.566406 C 15.785156 24.609375 15.769531 24.644531 15.738281 24.675781 C 14.097656 26.320312 11.972656 27.445312 9.648438 27.511719 C 7.929688 27.5625 6.386719 26.800781 5.921875 25.0625 C 5.625 23.964844 5.683594 22.917969 6.089844 21.925781 Z M 6.089844 21.925781 "/>
<path style=" stroke:none;fill-rule:nonzero;fill:rgb(88.235294%,86.27451%,85.098039%);fill-opacity:1;" d="M 81.292969 22.609375 C 81.785156 20.25 84.3125 19.28125 86.429688 18.945312 C 87.898438 18.714844 89.472656 18.570312 91.152344 18.515625 C 91.191406 18.511719 91.210938 18.53125 91.210938 18.570312 L 91.210938 24.566406 C 91.210938 24.605469 91.199219 24.640625 91.167969 24.667969 C 89.527344 26.328125 87.367188 27.460938 85.023438 27.511719 C 83.304688 27.554688 81.789062 26.765625 81.328125 25.011719 C 81.128906 24.257812 81.117188 23.457031 81.292969 22.609375 Z M 81.292969 22.609375 "/>
<path style=" stroke:none;fill-rule:nonzero;fill:rgb(20.784314%,27.058824%,30.196078%);fill-opacity:1;" d="M 193.589844 46.113281 L 191.945312 48.179688 C 191.941406 48.191406 191.929688 48.195312 191.917969 48.195312 L 191.457031 48.191406 C 191.445312 48.191406 191.433594 48.183594 191.425781 48.171875 C 191.421875 48.164062 191.421875 48.148438 191.429688 48.136719 L 192.777344 46.074219 C 192.785156 46.0625 192.792969 46.058594 192.804688 46.058594 L 193.5625 46.058594 C 193.578125 46.058594 193.589844 46.066406 193.59375 46.078125 C 193.601562 46.089844 193.597656 46.105469 193.589844 46.113281 Z M 193.589844 46.113281 "/>
<path style=" stroke:none;fill-rule:nonzero;fill:rgb(20.784314%,27.058824%,30.196078%);fill-opacity:1;" d="M 86.859375 54.566406 C 86.859375 54.488281 86.835938 54.480469 86.789062 54.546875 C 86.519531 54.917969 86.171875 55.222656 85.738281 55.460938 C 84.355469 56.222656 82.664062 56.015625 81.644531 54.804688 C 80.582031 53.542969 80.59375 51.550781 81.691406 50.351562 C 82.890625 49.039062 84.839844 49.007812 86.21875 50.070312 C 86.457031 50.253906 86.621094 50.480469 86.8125 50.707031 C 86.851562 50.75 86.871094 50.746094 86.871094 50.6875 L 86.871094 46.613281 C 86.871094 46.601562 86.875 46.597656 86.886719 46.597656 L 87.59375 46.59375 C 87.609375 46.59375 87.621094 46.605469 87.621094 46.625 L 87.621094 55.761719 C 87.621094 55.773438 87.613281 55.78125 87.601562 55.78125 L 86.878906 55.78125 C 86.863281 55.78125 86.855469 55.773438 86.855469 55.753906 Z M 85.21875 55.066406 C 86.578125 54.53125 87.242188 52.996094 86.710938 51.628906 C 86.175781 50.265625 84.640625 49.589844 83.285156 50.121094 C 81.929688 50.65625 81.261719 52.191406 81.796875 53.558594 C 82.332031 54.921875 83.863281 55.597656 85.21875 55.066406 Z M 85.21875 55.066406 "/>
<path style=" stroke:none;fill-rule:nonzero;fill:rgb(20.784314%,27.058824%,30.196078%);fill-opacity:1;" d="M 162.363281 47.203125 C 162.363281 47.5 162.121094 47.742188 161.824219 47.742188 C 161.527344 47.742188 161.285156 47.5 161.285156 47.203125 C 161.285156 46.90625 161.527344 46.664062 161.824219 46.664062 C 162.121094 46.664062 162.363281 46.90625 162.363281 47.203125 Z M 162.363281 47.203125 "/>
<path style=" stroke:none;fill-rule:nonzero;fill:rgb(20.784314%,27.058824%,30.196078%);fill-opacity:1;" d="M 181.820312 47.203125 C 181.820312 47.5 181.578125 47.742188 181.28125 47.742188 C 180.984375 47.742188 180.742188 47.5 180.742188 47.203125 C 180.742188 46.90625 180.984375 46.664062 181.28125 46.664062 C 181.578125 46.664062 181.820312 46.90625 181.820312 47.203125 Z M 181.820312 47.203125 "/>
<path style=" stroke:none;fill-rule:nonzero;fill:rgb(20.784314%,27.058824%,30.196078%);fill-opacity:1;" d="M 41.625 50.230469 L 41.625 55.742188 C 41.625 55.765625 41.609375 55.78125 41.585938 55.78125 L 40.890625 55.78125 C 40.871094 55.78125 40.855469 55.765625 40.855469 55.742188 L 40.855469 50.230469 C 40.855469 50.210938 40.835938 50.191406 40.816406 50.191406 L 39.5625 50.191406 C 39.542969 50.191406 39.527344 50.175781 39.527344 50.15625 L 39.523438 49.621094 C 39.523438 49.601562 39.542969 49.585938 39.5625 49.585938 L 40.816406 49.585938 C 40.835938 49.585938 40.855469 49.570312 40.855469 49.546875 L 40.855469 46.78125 C 40.855469 46.761719 40.871094 46.746094 40.890625 46.746094 L 41.585938 46.746094 C 41.605469 46.746094 41.625 46.761719 41.625 46.78125 L 41.625 49.546875 C 41.625 49.566406 41.640625 49.585938 41.664062 49.585938 L 43.527344 49.585938 C 43.546875 49.585938 43.5625 49.601562 43.5625 49.625 L 43.5625 50.15625 C 43.5625 50.175781 43.546875 50.191406 43.527344 50.191406 L 41.664062 50.191406 C 41.640625 50.191406 41.625 50.210938 41.625 50.230469 Z M 41.625 50.230469 "/>
<path style=" stroke:none;fill-rule:nonzero;fill:rgb(20.784314%,27.058824%,30.196078%);fill-opacity:1;" d="M 143.226562 50.269531 L 143.226562 55.753906 C 143.226562 55.773438 143.214844 55.78125 143.195312 55.78125 L 142.480469 55.78125 C 142.464844 55.78125 142.457031 55.769531 142.457031 55.753906 L 142.457031 50.25 C 142.457031 50.210938 142.4375 50.191406 142.398438 50.191406 L 141.183594 50.191406 C 141.144531 50.195312 141.125 50.175781 141.125 50.140625 L 141.125 49.640625 C 141.125 49.601562 141.144531 49.585938 141.179688 49.585938 L 142.394531 49.585938 C 142.433594 49.585938 142.457031 49.566406 142.457031 49.523438 L 142.457031 46.792969 C 142.457031 46.765625 142.476562 46.746094 142.5 46.746094 L 143.1875 46.746094 C 143.207031 46.746094 143.226562 46.761719 143.226562 46.785156 L 143.226562 49.558594 C 143.226562 49.574219 143.234375 49.585938 143.253906 49.585938 L 145.128906 49.585938 C 145.152344 49.585938 145.164062 49.597656 145.164062 49.617188 C 145.164062 49.980469 145.164062 50.160156 145.164062 50.164062 C 145.164062 50.183594 145.152344 50.191406 145.132812 50.191406 C 144.5625 50.195312 143.953125 50.195312 143.300781 50.191406 C 143.25 50.191406 143.226562 50.21875 143.226562 50.269531 Z M 143.226562 50.269531 "/>
<path style=" stroke:none;fill-rule:nonzero;fill:rgb(20.784314%,27.058824%,30.196078%);fill-opacity:1;" d="M 15.695312 53.789062 C 15.839844 54 15.953125 54.234375 16.128906 54.417969 C 17.136719 55.449219 18.703125 55.542969 19.828125 54.582031 C 19.839844 54.578125 19.851562 54.574219 19.859375 54.574219 C 19.871094 54.574219 19.882812 54.582031 19.890625 54.589844 L 20.242188 55.085938 C 20.25 55.097656 20.25 55.109375 20.234375 55.117188 C 19.167969 55.898438 18.042969 56.097656 16.859375 55.71875 C 16.179688 55.5 15.5 54.9375 15.136719 54.300781 C 14.214844 52.695312 14.757812 50.707031 16.414062 49.726562 C 16.898438 49.445312 17.441406 49.304688 18.050781 49.304688 C 19.515625 49.308594 20.5625 50.269531 20.996094 51.617188 C 21.007812 51.65625 20.996094 51.683594 20.957031 51.699219 L 15.714844 53.726562 C 15.703125 53.730469 15.691406 53.742188 15.6875 53.753906 C 15.683594 53.765625 15.6875 53.78125 15.695312 53.789062 Z M 15.671875 51.484375 C 15.453125 51.960938 15.386719 52.5 15.480469 53.105469 C 15.484375 53.15625 15.515625 53.171875 15.5625 53.15625 L 20.035156 51.398438 C 20.082031 51.378906 20.089844 51.351562 20.070312 51.308594 C 19.65625 50.53125 18.933594 49.921875 18.039062 49.949219 C 16.914062 49.988281 16.125 50.5 15.671875 51.484375 Z M 15.671875 51.484375 "/>
<path style=" stroke:none;fill-rule:nonzero;fill:rgb(20.784314%,27.058824%,30.196078%);fill-opacity:1;" d="M 60.234375 53.800781 C 60.75 54.726562 61.496094 55.210938 62.476562 55.246094 C 63.152344 55.269531 63.773438 55.050781 64.351562 54.59375 C 64.363281 54.585938 64.378906 54.582031 64.390625 54.582031 C 64.40625 54.585938 64.421875 54.59375 64.429688 54.605469 L 64.746094 55.054688 C 64.765625 55.085938 64.761719 55.113281 64.734375 55.136719 C 63.367188 56.152344 61.511719 56.207031 60.246094 55.023438 C 59.695312 54.507812 59.371094 53.894531 59.265625 53.1875 C 59.152344 52.414062 59.261719 51.726562 59.589844 51.121094 C 60.179688 50.027344 61.28125 49.304688 62.554688 49.304688 C 64.046875 49.300781 65.050781 50.25 65.527344 51.609375 C 65.542969 51.652344 65.527344 51.679688 65.488281 51.695312 L 60.261719 53.71875 C 60.222656 53.734375 60.210938 53.761719 60.234375 53.800781 Z M 64.59375 51.3125 C 64.1875 50.546875 63.527344 49.980469 62.679688 49.953125 C 61.679688 49.914062 60.761719 50.402344 60.292969 51.277344 C 60 51.828125 59.902344 52.4375 60.011719 53.113281 C 60.019531 53.15625 60.042969 53.171875 60.085938 53.15625 L 64.5625 51.398438 C 64.605469 51.378906 64.617188 51.351562 64.59375 51.3125 Z M 64.59375 51.3125 "/>
<path style=" stroke:none;fill-rule:nonzero;fill:rgb(20.784314%,27.058824%,30.196078%);fill-opacity:1;" d="M 95.324219 53.773438 C 95.808594 54.683594 96.527344 55.171875 97.476562 55.238281 C 98.207031 55.285156 98.859375 55.074219 99.4375 54.597656 C 99.453125 54.585938 99.46875 54.582031 99.488281 54.585938 C 99.503906 54.585938 99.519531 54.597656 99.53125 54.609375 L 99.84375 55.050781 C 99.867188 55.085938 99.863281 55.113281 99.832031 55.136719 C 98.429688 56.175781 96.515625 56.199219 95.273438 54.957031 C 94.816406 54.5 94.53125 53.980469 94.40625 53.410156 C 94.089844 51.90625 94.707031 50.523438 96.03125 49.734375 C 97.085938 49.105469 98.570312 49.148438 99.519531 49.941406 C 100.03125 50.367188 100.398438 50.925781 100.625 51.613281 C 100.636719 51.65625 100.625 51.683594 100.585938 51.699219 L 95.34375 53.726562 C 95.332031 53.730469 95.324219 53.734375 95.324219 53.746094 C 95.320312 53.753906 95.320312 53.765625 95.324219 53.773438 Z M 95.894531 50.632812 C 95.207031 51.265625 94.976562 52.167969 95.109375 53.109375 C 95.117188 53.15625 95.144531 53.171875 95.1875 53.15625 L 99.695312 51.386719 C 99.714844 51.378906 99.722656 51.363281 99.710938 51.34375 C 99.371094 50.636719 98.691406 50.023438 97.886719 49.960938 C 97.113281 49.902344 96.449219 50.125 95.894531 50.632812 Z M 95.894531 50.632812 "/>
<path style=" stroke:none;fill-rule:nonzero;fill:rgb(20.784314%,27.058824%,30.196078%);fill-opacity:1;" d="M 194.960938 51.917969 C 195.339844 53.707031 194.175781 55.464844 192.367188 55.847656 C 190.558594 56.230469 188.785156 55.089844 188.410156 53.300781 C 188.03125 51.511719 189.195312 49.753906 191.003906 49.371094 C 192.8125 48.988281 194.585938 50.128906 194.960938 51.917969 Z M 191.597656 55.257812 C 193.011719 55.304688 194.199219 54.160156 194.25 52.699219 C 194.296875 51.238281 193.1875 50.015625 191.769531 49.96875 C 190.355469 49.921875 189.167969 51.066406 189.117188 52.527344 C 189.070312 53.988281 190.179688 55.210938 191.597656 55.257812 Z M 191.597656 55.257812 "/>
<path style=" stroke:none;fill-rule:nonzero;fill:rgb(20.784314%,27.058824%,30.196078%);fill-opacity:1;" d="M 28.335938 50.816406 C 28.71875 50.015625 29.539062 49.515625 30.410156 49.375 C 31.402344 49.214844 32.371094 49.511719 32.769531 50.488281 C 32.878906 50.75 32.933594 51.09375 32.929688 51.511719 C 32.921875 52.90625 32.921875 54.320312 32.925781 55.746094 C 32.925781 55.765625 32.910156 55.78125 32.890625 55.78125 L 32.183594 55.777344 C 32.171875 55.777344 32.164062 55.773438 32.164062 55.757812 C 32.152344 54.449219 32.152344 53.121094 32.164062 51.78125 C 32.167969 50.953125 31.894531 50.113281 30.929688 50.011719 C 29.851562 49.898438 28.875 50.523438 28.496094 51.523438 C 28.363281 51.875 28.304688 52.4375 28.320312 53.210938 C 28.335938 53.988281 28.335938 54.839844 28.320312 55.761719 C 28.320312 55.773438 28.3125 55.78125 28.300781 55.78125 L 27.605469 55.78125 C 27.585938 55.78125 27.574219 55.769531 27.574219 55.75 L 27.574219 49.535156 C 27.574219 49.511719 27.585938 49.503906 27.605469 49.503906 L 28.199219 49.503906 C 28.222656 49.503906 28.230469 49.515625 28.234375 49.535156 L 28.285156 50.804688 C 28.289062 50.875 28.308594 50.878906 28.335938 50.816406 Z M 28.335938 50.816406 "/>
<path style=" stroke:none;fill-rule:nonzero;fill:rgb(20.784314%,27.058824%,30.196078%);fill-opacity:1;" d="M 50.621094 50.917969 C 50.625 50.976562 50.636719 50.980469 50.664062 50.925781 C 51.140625 49.976562 52.1875 49.394531 53.210938 49.332031 C 53.25 49.332031 53.269531 49.347656 53.269531 49.386719 L 53.242188 50.027344 C 53.242188 50.066406 53.222656 50.085938 53.183594 50.085938 C 52.519531 50.09375 51.945312 50.308594 51.457031 50.734375 C 50.9375 51.183594 50.675781 51.785156 50.667969 52.53125 C 50.65625 53.613281 50.65625 54.683594 50.660156 55.753906 C 50.660156 55.769531 50.648438 55.78125 50.632812 55.78125 L 49.925781 55.78125 C 49.914062 55.78125 49.90625 55.773438 49.90625 55.761719 L 49.90625 49.535156 C 49.90625 49.511719 49.917969 49.503906 49.9375 49.503906 L 50.53125 49.503906 C 50.554688 49.503906 50.5625 49.515625 50.566406 49.535156 Z M 50.621094 50.917969 "/>
<path style=" stroke:none;fill-rule:nonzero;fill:rgb(20.784314%,27.058824%,30.196078%);fill-opacity:1;" d="M 117.335938 50.816406 C 117.550781 50.375 117.871094 50.03125 118.300781 49.777344 C 119.429688 49.105469 121.226562 49.082031 121.78125 50.519531 C 121.882812 50.785156 121.933594 51.15625 121.929688 51.628906 C 121.917969 53.054688 121.917969 54.429688 121.925781 55.753906 C 121.925781 55.773438 121.914062 55.78125 121.898438 55.78125 L 121.179688 55.78125 C 121.164062 55.78125 121.15625 55.773438 121.15625 55.757812 C 121.152344 54.410156 121.152344 53.070312 121.15625 51.738281 C 121.164062 50.613281 120.632812 49.875 119.398438 50.015625 C 118.515625 50.121094 117.820312 50.695312 117.488281 51.519531 C 117.359375 51.835938 117.304688 52.402344 117.316406 53.222656 C 117.332031 54.039062 117.335938 54.882812 117.320312 55.761719 C 117.320312 55.773438 117.3125 55.78125 117.296875 55.78125 L 116.601562 55.78125 C 116.582031 55.78125 116.570312 55.769531 116.570312 55.75 L 116.574219 49.535156 C 116.574219 49.511719 116.582031 49.503906 116.601562 49.503906 L 117.195312 49.503906 C 117.21875 49.503906 117.230469 49.515625 117.230469 49.535156 L 117.285156 50.804688 C 117.285156 50.875 117.304688 50.878906 117.335938 50.816406 Z M 117.335938 50.816406 "/>
<path style=" stroke:none;fill-rule:nonzero;fill:rgb(20.784314%,27.058824%,30.196078%);fill-opacity:1;" d="M 152.28125 50.898438 C 152.75 49.976562 153.796875 49.394531 154.8125 49.332031 C 154.851562 49.332031 154.871094 49.347656 154.867188 49.386719 L 154.84375 50.027344 C 154.839844 50.0625 154.820312 50.082031 154.785156 50.082031 C 153.699219 50.109375 152.664062 50.746094 152.367188 51.808594 C 152.285156 52.101562 152.246094 52.5 152.253906 53 C 152.265625 53.933594 152.265625 54.851562 152.253906 55.761719 C 152.253906 55.773438 152.246094 55.78125 152.234375 55.78125 L 151.527344 55.78125 C 151.515625 55.78125 151.507812 55.773438 151.507812 55.761719 L 151.507812 49.535156 C 151.507812 49.511719 151.519531 49.503906 151.539062 49.503906 L 152.132812 49.503906 C 152.152344 49.503906 152.164062 49.515625 152.164062 49.535156 L 152.21875 50.886719 C 152.222656 50.96875 152.242188 50.972656 152.28125 50.898438 Z M 152.28125 50.898438 "/>
<path style=" stroke:none;fill-rule:nonzero;fill:rgb(20.784314%,27.058824%,30.196078%);fill-opacity:1;" d="M 5.214844 50.4375 C 4.292969 51.070312 3.886719 52.203125 4.152344 53.292969 C 4.609375 55.15625 6.8125 55.820312 8.308594 54.71875 C 8.324219 54.707031 8.339844 54.710938 8.351562 54.722656 L 8.730469 55.144531 C 8.746094 55.160156 8.742188 55.171875 8.726562 55.1875 C 7.453125 56.164062 5.617188 56.152344 4.429688 55.109375 C 3.410156 54.21875 3.074219 52.898438 3.453125 51.632812 C 3.59375 51.175781 3.84375 50.757812 4.214844 50.375 C 5.132812 49.429688 6.296875 49.148438 7.707031 49.535156 C 8.046875 49.628906 8.394531 49.8125 8.746094 50.089844 C 8.757812 50.101562 8.761719 50.113281 8.75 50.128906 L 8.382812 50.59375 C 8.371094 50.609375 8.355469 50.613281 8.335938 50.597656 C 7.410156 49.886719 6.171875 49.773438 5.214844 50.4375 Z M 5.214844 50.4375 "/>
<path style=" stroke:none;fill-rule:nonzero;fill:rgb(20.784314%,27.058824%,30.196078%);fill-opacity:1;" d="M 170.667969 55.550781 C 170.3125 55.382812 169.976562 55.117188 169.660156 54.757812 C 168.539062 53.472656 168.65625 51.453125 169.890625 50.285156 C 170.792969 49.433594 171.894531 49.171875 173.195312 49.507812 C 173.609375 49.613281 173.984375 49.808594 174.324219 50.089844 C 174.335938 50.101562 174.339844 50.117188 174.328125 50.132812 C 174.324219 50.136719 174.203125 50.292969 173.972656 50.59375 C 173.960938 50.609375 173.945312 50.613281 173.929688 50.601562 C 172.621094 49.617188 170.882812 49.84375 170.019531 51.277344 C 169.570312 52.03125 169.539062 53.027344 169.929688 53.816406 C 170.671875 55.316406 172.550781 55.683594 173.886719 54.726562 C 173.898438 54.71875 173.90625 54.71875 173.917969 54.726562 C 173.992188 54.777344 174.128906 54.921875 174.328125 55.164062 C 174.339844 55.175781 174.335938 55.1875 174.324219 55.195312 C 173.117188 56.011719 171.898438 56.132812 170.667969 55.550781 Z M 170.667969 55.550781 "/>
<path style=" stroke:none;fill-rule:nonzero;fill:rgb(20.784314%,27.058824%,30.196078%);fill-opacity:1;" d="M 133.765625 54.546875 C 133.316406 55.300781 132.605469 55.757812 131.640625 55.921875 C 130.355469 56.140625 129.246094 55.382812 129.238281 54.035156 C 129.230469 52.550781 129.226562 51.050781 129.230469 49.542969 C 129.230469 49.515625 129.242188 49.503906 129.265625 49.503906 L 129.953125 49.503906 C 129.972656 49.503906 129.980469 49.511719 129.980469 49.53125 C 129.988281 50.773438 129.988281 52.089844 129.976562 53.484375 C 129.976562 54.078125 130.070312 54.660156 130.5625 55.007812 C 130.765625 55.152344 130.992188 55.238281 131.238281 55.261719 C 131.988281 55.34375 132.632812 55.082031 133.167969 54.484375 C 133.667969 53.925781 133.785156 53.269531 133.78125 52.464844 C 133.777344 51.445312 133.777344 50.472656 133.78125 49.550781 C 133.78125 49.523438 133.800781 49.503906 133.828125 49.503906 L 134.496094 49.503906 C 134.523438 49.503906 134.539062 49.515625 134.539062 49.542969 L 134.539062 55.757812 C 134.539062 55.773438 134.53125 55.78125 134.515625 55.78125 L 133.886719 55.78125 C 133.871094 55.78125 133.859375 55.773438 133.859375 55.753906 L 133.820312 54.5625 C 133.816406 54.496094 133.800781 54.492188 133.765625 54.546875 Z M 133.765625 54.546875 "/>
<path style=" stroke:none;fill-rule:nonzero;fill:rgb(20.784314%,27.058824%,30.196078%);fill-opacity:1;" d="M 161.484375 49.503906 L 162.128906 49.503906 C 162.160156 49.503906 162.183594 49.527344 162.183594 49.558594 L 162.183594 55.726562 C 162.183594 55.757812 162.160156 55.78125 162.128906 55.78125 L 161.484375 55.78125 C 161.453125 55.78125 161.429688 55.757812 161.429688 55.726562 L 161.429688 49.558594 C 161.429688 49.527344 161.453125 49.503906 161.484375 49.503906 Z M 161.484375 49.503906 "/>
<path style=" stroke:none;fill-rule:nonzero;fill:rgb(20.784314%,27.058824%,30.196078%);fill-opacity:1;" d="M 180.941406 49.503906 L 181.585938 49.503906 C 181.617188 49.503906 181.640625 49.527344 181.640625 49.558594 L 181.640625 55.726562 C 181.640625 55.757812 181.617188 55.78125 181.585938 55.78125 L 180.941406 55.78125 C 180.910156 55.78125 180.886719 55.757812 180.886719 55.726562 L 180.886719 49.558594 C 180.886719 49.527344 180.910156 49.503906 180.941406 49.503906 Z M 180.941406 49.503906 "/>
<path style=" stroke:none;fill-rule:nonzero;fill:rgb(88.235294%,86.27451%,85.098039%);fill-opacity:1;" d="M 15.671875 51.484375 C 16.125 50.5 16.914062 49.988281 18.039062 49.949219 C 18.933594 49.921875 19.65625 50.53125 20.070312 51.308594 C 20.089844 51.351562 20.082031 51.378906 20.035156 51.398438 L 15.5625 53.15625 C 15.515625 53.171875 15.484375 53.15625 15.480469 53.105469 C 15.386719 52.5 15.453125 51.960938 15.671875 51.484375 Z M 15.671875 51.484375 "/>
<path style=" stroke:none;fill-rule:nonzero;fill:rgb(88.235294%,86.27451%,85.098039%);fill-opacity:1;" d="M 62.679688 49.953125 C 63.527344 49.980469 64.1875 50.546875 64.59375 51.3125 C 64.617188 51.351562 64.605469 51.378906 64.5625 51.398438 L 60.085938 53.15625 C 60.042969 53.171875 60.019531 53.15625 60.011719 53.113281 C 59.902344 52.4375 60 51.828125 60.292969 51.277344 C 60.761719 50.402344 61.679688 49.914062 62.679688 49.953125 Z M 62.679688 49.953125 "/>
<path style=" stroke:none;fill-rule:nonzero;fill:rgb(88.235294%,86.27451%,85.098039%);fill-opacity:1;" d="M 85.21875 55.066406 C 86.578125 54.53125 87.242188 52.996094 86.710938 51.628906 C 86.175781 50.265625 84.640625 49.589844 83.285156 50.121094 C 81.929688 50.65625 81.261719 52.191406 81.796875 53.558594 C 82.332031 54.921875 83.863281 55.597656 85.21875 55.066406 Z M 85.21875 55.066406 "/>
<path style=" stroke:none;fill-rule:nonzero;fill:rgb(88.235294%,86.27451%,85.098039%);fill-opacity:1;" d="M 95.109375 53.109375 C 94.976562 52.167969 95.207031 51.265625 95.894531 50.632812 C 96.449219 50.125 97.113281 49.902344 97.886719 49.960938 C 98.691406 50.023438 99.371094 50.636719 99.710938 51.34375 C 99.722656 51.363281 99.714844 51.378906 99.695312 51.386719 L 95.1875 53.15625 C 95.144531 53.171875 95.117188 53.15625 95.109375 53.109375 Z M 95.109375 53.109375 "/>
<path style=" stroke:none;fill-rule:nonzero;fill:rgb(88.235294%,86.27451%,85.098039%);fill-opacity:1;" d="M 191.597656 55.257812 C 193.011719 55.304688 194.199219 54.160156 194.25 52.699219 C 194.296875 51.238281 193.1875 50.015625 191.769531 49.96875 C 190.355469 49.921875 189.167969 51.066406 189.117188 52.527344 C 189.070312 53.988281 190.179688 55.210938 191.597656 55.257812 Z M 191.597656 55.257812 "/>
<path style=" stroke:none;fill-rule:nonzero;fill:rgb(20.784314%,27.058824%,30.196078%);fill-opacity:1;" d="M 99.171875 82.25 C 99.941406 82.253906 100.570312 81.621094 100.574219 80.835938 C 100.582031 80.050781 99.960938 79.410156 99.191406 79.402344 C 98.417969 79.398438 97.789062 80.03125 97.785156 80.816406 C 97.78125 81.601562 98.398438 82.242188 99.171875 82.25 Z M 99.171875 82.25 "/>
</g>
</svg>
