<?xml version="1.0" encoding="UTF-8"?>
<svg xmlns="http://www.w3.org/2000/svg" xmlns:xlink="http://www.w3.org/1999/xlink" width="299px" height="128px" viewBox="0 0 300 128" version="1.1">
<g id="surface1">
<path style="fill:none;stroke-width:2;stroke-linecap:butt;stroke-linejoin:miter;stroke:rgb(54.509804%,56.862745%,57.647059%);stroke-opacity:1;stroke-miterlimit:4;" d="M 1731.351562 76.476562 C 1731.210938 76.640625 1731.234375 76.851562 1731.375 76.992188 L 1734.914062 80.53125 C 1735.054688 80.648438 1735.265625 80.671875 1735.429688 80.554688 L 1784.15625 42.585938 C 1784.25 42.515625 1784.296875 42.398438 1784.320312 42.304688 C 1784.320312 42.1875 1784.273438 42.070312 1784.203125 42 L 1769.90625 27.679688 C 1769.8125 27.609375 1769.71875 27.5625 1769.601562 27.585938 C 1769.484375 27.585938 1769.390625 27.632812 1769.320312 27.726562 L 1731.351562 76.476562 " transform="matrix(0.166667,0,0,0.166667,0,0)"/>
<path style="fill:none;stroke-width:2;stroke-linecap:butt;stroke-linejoin:miter;stroke:rgb(54.509804%,56.862745%,57.647059%);stroke-opacity:1;stroke-miterlimit:4;" d="M 1521.796875 147.070312 C 1521.492188 147.65625 1521.328125 147.609375 1521.328125 146.953125 L 1521.28125 52.617188 C 1521.28125 52.289062 1521.046875 52.03125 1520.71875 52.03125 L 1500.65625 52.03125 C 1500.492188 52.03125 1500.351562 52.101562 1500.257812 52.195312 C 1500.140625 52.3125 1500.070312 52.453125 1500.070312 52.59375 L 1500.070312 252.539062 C 1500.070312 252.796875 1500.28125 253.007812 1500.539062 253.007812 L 1520.742188 253.007812 C 1521.1875 253.007812 1521.375 252.796875 1521.375 252.351562 C 1521.210938 226.148438 1521.210938 200.226562 1521.375 174.609375 C 1521.445312 160.898438 1525.59375 148.757812 1533.820312 138.164062 C 1544.296875 124.664062 1560.65625 115.054688 1578.070312 114.1875 C 1598.859375 113.179688 1614.609375 122.929688 1620.164062 143.390625 C 1622.578125 152.273438 1623.796875 161.554688 1623.796875 171.257812 C 1623.820312 198.398438 1623.820312 225.515625 1623.796875 252.609375 C 1623.796875 252.820312 1623.960938 253.007812 1624.195312 253.007812 L 1644.46875 253.007812 C 1644.820312 253.007812 1645.007812 252.820312 1645.007812 252.445312 C 1645.101562 227.835938 1645.078125 203.835938 1644.9375 180.421875 C 1644.867188 167.695312 1643.578125 156.445312 1641.023438 146.71875 C 1636.21875 128.390625 1624.898438 115.898438 1606.21875 111.070312 C 1592.601562 107.554688 1576.476562 107.226562 1562.789062 111.445312 C 1548.492188 115.875 1536.984375 124.007812 1528.265625 135.84375 C 1525.6875 139.382812 1523.765625 143.179688 1521.796875 147.070312 " transform="matrix(0.166667,0,0,0.166667,0,0)"/>
<path style="fill:none;stroke-width:2;stroke-linecap:butt;stroke-linejoin:miter;stroke:rgb(54.509804%,56.862745%,57.647059%);stroke-opacity:1;stroke-miterlimit:4;" d="M 1303.992188 206.320312 L 1417.804688 157.382812 C 1418.15625 157.242188 1418.273438 156.984375 1418.15625 156.632812 C 1415.882812 149.554688 1412.789062 142.96875 1408.851562 136.875 C 1402.757812 127.382812 1394.859375 119.929688 1385.132812 114.515625 C 1370.859375 106.570312 1352.789062 104.953125 1336.804688 108.1875 C 1294.453125 116.742188 1271.179688 157.007812 1279.96875 198.304688 C 1285.96875 226.476562 1308.09375 248.273438 1336.945312 253.5 C 1366.03125 258.75 1398.351562 249.023438 1416.117188 224.554688 C 1416.28125 224.34375 1416.28125 224.132812 1416.09375 223.921875 L 1413.070312 220.40625 C 1413 220.3125 1412.859375 220.265625 1412.742188 220.265625 C 1412.625 220.289062 1412.507812 220.335938 1412.4375 220.453125 C 1408.78125 225.914062 1404.140625 230.765625 1398.492188 235.03125 C 1375.382812 252.46875 1343.929688 243 1323.375 226.757812 C 1315.734375 220.710938 1309.21875 214.054688 1303.875 206.8125 C 1303.804688 206.71875 1303.804688 206.625 1303.828125 206.53125 C 1303.851562 206.4375 1303.921875 206.367188 1303.992188 206.320312 " transform="matrix(0.166667,0,0,0.166667,0,0)"/>
<path style="fill:none;stroke-width:2;stroke-linecap:butt;stroke-linejoin:miter;stroke:rgb(54.509804%,56.862745%,57.647059%);stroke-opacity:1;stroke-miterlimit:4;" d="M 142.78125 230.226562 L 142.78125 252.632812 C 142.78125 252.84375 142.945312 253.007812 143.132812 253.007812 L 163.734375 253.007812 C 164.085938 253.007812 164.25 252.820312 164.25 252.46875 C 164.390625 215.296875 164.367188 185.109375 164.15625 161.90625 C 164.085938 153.234375 162.609375 145.03125 159.726562 137.273438 C 154.242188 122.507812 141.914062 113.625 126.585938 110.53125 C 118.804688 108.984375 110.601562 108.28125 102 108.421875 C 79.335938 108.84375 57.375 116.179688 42.679688 132.632812 C 42.257812 133.101562 42.1875 133.617188 42.46875 134.15625 L 44.835938 138.914062 C 45.09375 139.40625 45.328125 139.40625 45.585938 138.914062 C 48.210938 133.546875 54.515625 128.460938 59.390625 125.414062 C 74.625 115.898438 90.773438 112.125 107.859375 114.070312 C 115.664062 114.984375 122.0625 117.023438 127.078125 120.210938 C 140.015625 128.484375 142.96875 146.882812 142.710938 161.648438 C 142.6875 161.90625 142.476562 162.117188 142.21875 162.140625 C 124.5 162.796875 107.460938 164.578125 91.148438 167.414062 C 66.5625 171.726562 34.78125 184.21875 31.007812 212.296875 C 28.828125 228.609375 35.695312 242.835938 50.460938 250.242188 C 60.773438 255.398438 73.59375 256.640625 84.890625 255.351562 C 106.992188 252.796875 126.1875 244.359375 142.453125 230.0625 C 142.5 230.015625 142.59375 230.015625 142.664062 230.039062 C 142.710938 230.0625 142.757812 230.132812 142.78125 230.226562 " transform="matrix(0.166667,0,0,0.166667,0,0)"/>
<path style="fill:none;stroke-width:2;stroke-linecap:butt;stroke-linejoin:miter;stroke:rgb(54.509804%,56.862745%,57.647059%);stroke-opacity:1;stroke-miterlimit:4;" d="M 278.578125 146.53125 L 278.578125 110.039062 C 278.578125 109.664062 278.390625 109.5 278.015625 109.5 L 258.046875 109.5 C 257.578125 109.5 257.34375 109.734375 257.34375 110.203125 L 257.320312 252.28125 C 257.320312 252.773438 257.578125 253.007812 258.046875 253.007812 L 277.992188 253.007812 C 278.390625 253.007812 278.601562 252.796875 278.601562 252.398438 C 278.554688 227.484375 278.554688 201.84375 278.601562 175.5 C 278.601562 157.5 285.210938 142.40625 298.40625 130.195312 C 312.328125 117.304688 331.851562 111.140625 350.484375 115.59375 C 364.476562 118.96875 373.5 129.375 377.296875 142.96875 C 379.757812 151.757812 381 160.992188 381 170.742188 C 381.046875 198.820312 381.070312 226.078125 381.046875 252.492188 C 381.046875 252.84375 381.210938 253.007812 381.539062 253.007812 L 401.742188 253.007812 C 402.117188 253.007812 402.304688 252.820312 402.304688 252.445312 C 402.257812 231.304688 402.257812 208.148438 402.257812 182.929688 C 402.257812 172.078125 401.320312 161.695312 399.421875 151.78125 C 395.132812 129.070312 381.820312 114.164062 358.640625 109.945312 C 348.632812 108.117188 339.117188 107.882812 330.117188 109.195312 C 307.945312 112.453125 288.679688 126.09375 279.28125 146.695312 C 278.8125 147.75 278.578125 147.703125 278.578125 146.53125 " transform="matrix(0.166667,0,0,0.166667,0,0)"/>
<path style="fill:none;stroke-width:2;stroke-linecap:butt;stroke-linejoin:miter;stroke:rgb(54.509804%,56.862745%,57.647059%);stroke-opacity:1;stroke-miterlimit:4;" d="M 511.335938 146.695312 L 511.335938 110.039062 C 511.335938 109.664062 511.148438 109.5 510.796875 109.5 L 490.546875 109.5 C 490.242188 109.5 490.078125 109.640625 490.078125 109.945312 L 490.101562 252.375 C 490.101562 252.796875 490.289062 253.007812 490.710938 253.007812 L 510.75 253.007812 C 511.125 253.007812 511.3125 252.820312 511.3125 252.421875 C 511.335938 226.3125 511.335938 200.742188 511.335938 175.710938 C 511.335938 157.640625 517.875 142.546875 530.976562 130.359375 C 545.25 117.117188 565.078125 110.929688 584.085938 115.828125 C 597.632812 119.320312 606.492188 129.9375 610.148438 143.296875 C 612.5625 152.0625 613.757812 161.296875 613.78125 171 C 613.804688 199.476562 613.804688 226.59375 613.828125 252.351562 C 613.828125 252.796875 614.039062 253.007812 614.460938 253.007812 L 634.453125 253.007812 C 634.757812 253.007812 635.015625 252.75 635.015625 252.445312 C 635.085938 229.992188 635.0625 206.859375 634.96875 183.023438 C 634.851562 158.15625 632.085938 127.96875 607.429688 115.289062 C 594.585938 108.679688 576.773438 107.109375 562.875 109.21875 C 540.984375 112.523438 520.851562 126.1875 512.039062 146.835938 C 511.570312 147.9375 511.335938 147.890625 511.335938 146.695312 " transform="matrix(0.166667,0,0,0.166667,0,0)"/>
<path style="fill:none;stroke-width:2;stroke-linecap:butt;stroke-linejoin:miter;stroke:rgb(54.509804%,56.862745%,57.647059%);stroke-opacity:1;stroke-miterlimit:4;" d="M 825.023438 230.226562 L 825.023438 252.75 C 825.023438 252.890625 825.140625 253.007812 825.28125 253.007812 L 845.976562 253.007812 C 846.375 253.007812 846.5625 252.820312 846.5625 252.421875 C 846.539062 224.671875 846.539062 196.804688 846.5625 168.796875 C 846.5625 157.664062 845.789062 146.953125 841.757812 136.6875 C 836.0625 122.273438 824.273438 113.789062 809.203125 110.648438 C 801.257812 109.007812 792.9375 108.257812 784.21875 108.421875 C 761.578125 108.84375 739.101562 116.296875 724.476562 133.148438 C 724.359375 133.265625 724.335938 133.40625 724.429688 133.570312 L 727.125 138.960938 C 727.21875 139.171875 727.335938 139.171875 727.476562 138.984375 C 731.601562 133.242188 736.195312 128.789062 741.28125 125.625 C 756.796875 115.921875 773.085938 112.078125 790.101562 114.09375 C 797.882812 115.007812 804.140625 116.929688 808.851562 119.90625 C 815.765625 124.242188 820.359375 131.179688 822.632812 140.671875 C 824.320312 147.703125 825.09375 154.640625 824.929688 161.53125 C 824.929688 161.859375 824.765625 162.023438 824.4375 162.046875 C 811.898438 162.703125 800.367188 163.664062 789.867188 164.929688 C 760.640625 168.398438 713.671875 178.945312 712.875 217.265625 C 712.734375 224.34375 714.234375 230.625 717.398438 236.109375 C 727.335938 253.21875 748.945312 257.390625 767.132812 255.328125 C 789.117188 252.84375 808.3125 244.429688 824.695312 230.085938 C 824.765625 230.039062 824.835938 230.015625 824.90625 230.039062 C 824.976562 230.085938 825.023438 230.15625 825.023438 230.226562 " transform="matrix(0.166667,0,0,0.166667,0,0)"/>
<path style="fill:none;stroke-width:2;stroke-linecap:butt;stroke-linejoin:miter;stroke:rgb(54.509804%,56.862745%,57.647059%);stroke-opacity:1;stroke-miterlimit:4;" d="M 1202.296875 109.5 C 1202.179688 109.5 1202.085938 109.546875 1202.039062 109.664062 L 1146.421875 223.476562 C 1146.375 223.59375 1146.257812 223.640625 1146.140625 223.640625 C 1146.023438 223.640625 1145.929688 223.59375 1145.882812 223.476562 L 1090.289062 109.664062 C 1090.21875 109.570312 1090.125 109.5 1090.007812 109.5 L 1066.570312 109.5 C 1066.453125 109.5 1066.359375 109.546875 1066.3125 109.640625 C 1066.242188 109.710938 1066.242188 109.828125 1066.289062 109.921875 L 1137.28125 254.484375 C 1137.328125 254.578125 1137.421875 254.648438 1137.539062 254.648438 C 1137.65625 254.648438 1137.75 254.578125 1137.820312 254.484375 L 1208.789062 109.921875 C 1208.835938 109.828125 1208.835938 109.710938 1208.765625 109.640625 C 1208.71875 109.546875 1208.625 109.5 1208.53125 109.5 L 1202.296875 109.5 " transform="matrix(0.166667,0,0,0.166667,0,0)"/>
<path style="fill:none;stroke-width:2;stroke-linecap:butt;stroke-linejoin:miter;stroke:rgb(54.509804%,56.862745%,57.647059%);stroke-opacity:1;stroke-miterlimit:4;" d="M 1754.0625 109.851562 C 1754.0625 109.640625 1753.921875 109.5 1753.710938 109.5 L 1733.179688 109.5 C 1732.992188 109.5 1732.828125 109.640625 1732.828125 109.851562 L 1732.828125 252.632812 C 1732.828125 252.84375 1732.992188 252.984375 1733.179688 252.984375 L 1753.710938 252.984375 C 1753.921875 252.984375 1754.0625 252.84375 1754.0625 252.632812 L 1754.0625 109.851562 " transform="matrix(0.166667,0,0,0.166667,0,0)"/>
<path style="fill:none;stroke-width:2;stroke-linecap:butt;stroke-linejoin:miter;stroke:rgb(54.509804%,56.862745%,57.647059%);stroke-opacity:1;stroke-miterlimit:4;" d="M 1751.0625 416.648438 C 1751.15625 416.554688 1751.15625 416.4375 1751.109375 416.320312 C 1751.0625 416.203125 1750.945312 416.132812 1750.828125 416.132812 L 1743.960938 416.132812 C 1743.867188 416.132812 1743.773438 416.203125 1743.703125 416.273438 L 1731.515625 434.929688 C 1731.445312 435.046875 1731.445312 435.164062 1731.492188 435.257812 C 1731.5625 435.375 1731.65625 435.421875 1731.773438 435.421875 L 1735.945312 435.445312 C 1736.039062 435.445312 1736.132812 435.398438 1736.203125 435.328125 L 1751.0625 416.648438 " transform="matrix(0.166667,0,0,0.166667,0,0)"/>
<path style="fill:none;stroke-width:2;stroke-linecap:butt;stroke-linejoin:miter;stroke:rgb(54.509804%,56.862745%,57.647059%);stroke-opacity:1;stroke-miterlimit:4;" d="M 785.648438 493.03125 L 785.625 503.765625 C 785.625 503.929688 785.695312 504 785.859375 504 L 792.375 504 C 792.492188 504 792.539062 503.929688 792.539062 503.8125 L 792.539062 421.265625 C 792.539062 421.078125 792.46875 420.984375 792.28125 420.984375 L 785.929688 421.03125 C 785.8125 421.03125 785.765625 421.078125 785.765625 421.171875 L 785.765625 457.96875 C 785.765625 458.484375 785.578125 458.554688 785.25 458.15625 C 783.515625 456.117188 782.015625 454.078125 779.859375 452.414062 C 767.390625 442.78125 749.789062 443.0625 738.914062 454.945312 C 729 465.773438 728.882812 483.75 738.492188 495.164062 C 747.703125 506.109375 763.007812 507.984375 775.5 501.117188 C 779.4375 498.960938 782.601562 496.195312 785.015625 492.84375 C 785.4375 492.234375 785.648438 492.304688 785.648438 493.03125 " transform="matrix(0.166667,0,0,0.166667,0,0)"/>
<path style="fill:none;stroke-width:2;stroke-linecap:butt;stroke-linejoin:miter;stroke:rgb(54.509804%,56.862745%,57.647059%);stroke-opacity:1;stroke-miterlimit:4;" d="M 1468.617188 426.492188 C 1468.617188 423.796875 1466.414062 421.617188 1463.71875 421.617188 C 1461.023438 421.617188 1458.84375 423.796875 1458.84375 426.492188 C 1458.84375 429.1875 1461.023438 431.367188 1463.71875 431.367188 C 1466.414062 431.367188 1468.617188 429.1875 1468.617188 426.492188 " transform="matrix(0.166667,0,0,0.166667,0,0)"/>
<path style="fill:none;stroke-width:2;stroke-linecap:butt;stroke-linejoin:miter;stroke:rgb(54.509804%,56.862745%,57.647059%);stroke-opacity:1;stroke-miterlimit:4;" d="M 1644.609375 426.492188 C 1644.609375 423.796875 1642.429688 421.617188 1639.734375 421.617188 C 1637.039062 421.617188 1634.859375 423.796875 1634.859375 426.492188 C 1634.859375 429.1875 1637.039062 431.367188 1639.734375 431.367188 C 1642.429688 431.367188 1644.609375 429.1875 1644.609375 426.492188 " transform="matrix(0.166667,0,0,0.166667,0,0)"/>
<path style="fill:none;stroke-width:2;stroke-linecap:butt;stroke-linejoin:miter;stroke:rgb(54.509804%,56.862745%,57.647059%);stroke-opacity:1;stroke-miterlimit:4;" d="M 376.5 453.84375 C 376.5 453.65625 376.664062 453.515625 376.851562 453.515625 L 393.703125 453.515625 C 393.890625 453.515625 394.054688 453.351562 394.054688 453.164062 L 394.03125 448.359375 C 394.03125 448.171875 393.890625 448.03125 393.703125 448.03125 L 376.851562 448.007812 C 376.664062 448.007812 376.5 447.867188 376.5 447.679688 L 376.5 422.695312 C 376.5 422.507812 376.359375 422.34375 376.148438 422.34375 L 369.890625 422.34375 C 369.703125 422.34375 369.539062 422.507812 369.539062 422.695312 L 369.539062 447.679688 C 369.539062 447.867188 369.398438 448.03125 369.210938 448.03125 L 357.84375 448.007812 C 357.65625 448.007812 357.515625 448.171875 357.515625 448.359375 L 357.515625 453.164062 C 357.515625 453.351562 357.679688 453.515625 357.867188 453.515625 L 369.210938 453.515625 C 369.398438 453.515625 369.539062 453.65625 369.539062 453.84375 L 369.539062 503.648438 C 369.539062 503.859375 369.703125 504 369.890625 504 L 376.171875 504 C 376.359375 504 376.5 503.859375 376.5 503.648438 L 376.5 453.84375 " transform="matrix(0.166667,0,0,0.166667,0,0)"/>
<path style="fill:none;stroke-width:2;stroke-linecap:butt;stroke-linejoin:miter;stroke:rgb(54.509804%,56.862745%,57.647059%);stroke-opacity:1;stroke-miterlimit:4;" d="M 1296.210938 453.492188 C 1302.070312 453.515625 1307.601562 453.515625 1312.78125 453.515625 C 1312.945312 453.515625 1313.039062 453.421875 1313.039062 453.234375 C 1313.039062 453.210938 1313.039062 451.570312 1313.039062 448.3125 C 1313.039062 448.125 1312.945312 448.03125 1312.734375 448.03125 L 1295.765625 448.007812 C 1295.601562 448.007812 1295.507812 447.9375 1295.507812 447.75 L 1295.507812 422.71875 C 1295.507812 422.507812 1295.34375 422.367188 1295.15625 422.367188 L 1288.96875 422.367188 C 1288.734375 422.367188 1288.546875 422.554688 1288.546875 422.789062 L 1288.546875 447.46875 C 1288.546875 447.84375 1288.359375 448.03125 1287.984375 448.03125 L 1276.992188 448.007812 C 1276.664062 448.007812 1276.5 448.171875 1276.5 448.5 L 1276.523438 453.023438 C 1276.523438 453.351562 1276.6875 453.515625 1277.015625 453.515625 L 1288.03125 453.515625 C 1288.359375 453.515625 1288.546875 453.679688 1288.546875 454.03125 L 1288.546875 503.765625 C 1288.546875 503.882812 1288.640625 504 1288.78125 504 L 1295.25 504 C 1295.414062 504 1295.507812 503.90625 1295.507812 503.742188 L 1295.507812 454.195312 C 1295.507812 453.726562 1295.742188 453.492188 1296.210938 453.492188 " transform="matrix(0.166667,0,0,0.166667,0,0)"/>
<path style="fill:none;stroke-width:2;stroke-linecap:butt;stroke-linejoin:miter;stroke:rgb(54.509804%,56.862745%,57.647059%);stroke-opacity:1;stroke-miterlimit:4;" d="M 141.960938 486 C 141.890625 485.90625 141.867188 485.789062 141.914062 485.671875 C 141.9375 485.554688 142.03125 485.460938 142.148438 485.4375 L 189.5625 467.109375 C 189.914062 466.96875 190.03125 466.734375 189.914062 466.359375 C 185.976562 454.195312 176.53125 445.5 163.265625 445.476562 C 157.78125 445.476562 152.835938 446.742188 148.476562 449.320312 C 133.476562 458.132812 128.554688 476.109375 136.921875 490.640625 C 140.203125 496.359375 146.34375 501.46875 152.507812 503.4375 C 163.195312 506.859375 173.367188 505.054688 183.046875 498 C 183.164062 497.929688 183.164062 497.8125 183.070312 497.71875 L 179.90625 493.242188 C 179.859375 493.171875 179.765625 493.101562 179.648438 493.101562 C 179.554688 493.078125 179.4375 493.101562 179.367188 493.171875 C 169.195312 501.84375 154.992188 501 145.898438 491.671875 C 144.28125 490.03125 143.296875 487.898438 141.960938 486 " transform="matrix(0.166667,0,0,0.166667,0,0)"/>
<path style="fill:none;stroke-width:2;stroke-linecap:butt;stroke-linejoin:miter;stroke:rgb(54.509804%,56.862745%,57.647059%);stroke-opacity:1;stroke-miterlimit:4;" d="M 545.085938 485.34375 L 592.335938 467.109375 C 592.710938 466.945312 592.828125 466.6875 592.710938 466.3125 C 588.398438 454.03125 579.328125 445.429688 565.828125 445.476562 C 554.320312 445.5 544.359375 452.015625 538.992188 461.90625 C 536.039062 467.367188 535.054688 473.578125 536.085938 480.5625 C 537.023438 486.960938 539.953125 492.492188 544.921875 497.132812 C 556.382812 507.84375 573.1875 507.351562 585.515625 498.164062 C 585.796875 497.953125 585.820312 497.71875 585.632812 497.4375 L 582.773438 493.382812 C 582.703125 493.265625 582.585938 493.195312 582.445312 493.171875 C 582.304688 493.148438 582.164062 493.195312 582.070312 493.265625 C 576.867188 497.414062 571.21875 499.359375 565.125 499.148438 C 556.242188 498.820312 549.46875 494.484375 544.828125 486.09375 C 544.617188 485.742188 544.710938 485.507812 545.085938 485.34375 " transform="matrix(0.166667,0,0,0.166667,0,0)"/>
<path style="fill:none;stroke-width:2;stroke-linecap:butt;stroke-linejoin:miter;stroke:rgb(54.509804%,56.862745%,57.647059%);stroke-opacity:1;stroke-miterlimit:4;" d="M 862.21875 485.859375 C 862.195312 485.789062 862.171875 485.695312 862.21875 485.601562 C 862.242188 485.53125 862.3125 485.460938 862.382812 485.4375 L 909.820312 467.109375 C 910.171875 466.96875 910.289062 466.710938 910.171875 466.359375 C 908.132812 460.125 904.804688 455.109375 900.164062 451.242188 C 891.585938 444.070312 878.179688 443.695312 868.617188 449.390625 C 856.640625 456.515625 851.039062 469.007812 853.945312 482.554688 C 855.046875 487.757812 857.648438 492.398438 861.773438 496.546875 C 873 507.796875 890.320312 507.539062 903 498.1875 C 903.28125 497.976562 903.328125 497.71875 903.117188 497.414062 L 900.28125 493.429688 C 900.1875 493.289062 900.046875 493.195312 899.882812 493.195312 C 899.71875 493.171875 899.578125 493.21875 899.460938 493.3125 C 894.210938 497.601562 888.304688 499.523438 881.695312 499.078125 C 873.117188 498.46875 866.625 494.0625 862.21875 485.859375 " transform="matrix(0.166667,0,0,0.166667,0,0)"/>
<path style="fill:none;stroke-width:2;stroke-linecap:butt;stroke-linejoin:miter;stroke:rgb(54.509804%,56.862745%,57.647059%);stroke-opacity:1;stroke-miterlimit:4;" d="M 1763.484375 469.101562 C 1760.0625 452.929688 1744.054688 442.640625 1727.671875 446.085938 C 1711.3125 449.53125 1700.789062 465.421875 1704.210938 481.59375 C 1707.609375 497.742188 1723.640625 508.054688 1740 504.585938 C 1756.382812 501.140625 1766.882812 485.25 1763.484375 469.101562 " transform="matrix(0.166667,0,0,0.166667,0,0)"/>
<path style="fill:none;stroke-width:2;stroke-linecap:butt;stroke-linejoin:miter;stroke:rgb(54.509804%,56.862745%,57.647059%);stroke-opacity:1;stroke-miterlimit:4;" d="M 256.3125 459.140625 C 256.03125 459.703125 255.890625 459.679688 255.867188 459.023438 L 255.375 447.5625 C 255.375 447.375 255.257812 447.28125 255.070312 447.28125 L 249.703125 447.28125 C 249.515625 447.28125 249.421875 447.375 249.421875 447.539062 L 249.421875 503.71875 C 249.421875 503.90625 249.515625 504 249.679688 504 L 255.984375 504 C 256.101562 504 256.171875 503.929688 256.171875 503.8125 C 256.3125 495.492188 256.3125 487.804688 256.148438 480.773438 C 256.007812 473.789062 256.546875 468.726562 257.742188 465.539062 C 261.1875 456.492188 270.023438 450.84375 279.75 451.875 C 288.492188 452.789062 290.976562 460.359375 290.929688 467.859375 C 290.835938 479.976562 290.835938 491.953125 290.929688 503.789062 C 290.929688 503.90625 290.976562 503.976562 291.117188 503.976562 L 297.492188 504 C 297.679688 504 297.820312 503.859375 297.820312 503.671875 C 297.773438 490.78125 297.796875 478.03125 297.867188 465.421875 C 297.890625 461.648438 297.421875 458.554688 296.414062 456.164062 C 292.78125 447.351562 284.039062 444.65625 275.039062 446.109375 C 267.1875 447.398438 259.78125 451.898438 256.3125 459.140625 " transform="matrix(0.166667,0,0,0.166667,0,0)"/>
<path style="fill:none;stroke-width:2;stroke-linecap:butt;stroke-linejoin:miter;stroke:rgb(54.509804%,56.862745%,57.647059%);stroke-opacity:1;stroke-miterlimit:4;" d="M 457.875 460.054688 L 457.359375 447.5625 C 457.359375 447.375 457.265625 447.28125 457.078125 447.28125 L 451.710938 447.28125 C 451.523438 447.28125 451.429688 447.375 451.429688 447.539062 L 451.429688 503.835938 C 451.429688 503.929688 451.476562 504 451.570312 504 L 457.992188 504 C 458.132812 504 458.25 503.882812 458.25 503.742188 C 458.203125 494.109375 458.203125 484.40625 458.296875 474.65625 C 458.367188 467.882812 460.734375 462.46875 465.421875 458.390625 C 469.851562 454.570312 475.054688 452.625 481.054688 452.53125 C 481.40625 452.53125 481.570312 452.367188 481.59375 452.015625 L 481.828125 446.226562 C 481.828125 445.875 481.664062 445.710938 481.3125 445.734375 C 472.054688 446.296875 462.585938 451.570312 458.273438 460.148438 C 458.039062 460.617188 457.898438 460.59375 457.875 460.054688 " transform="matrix(0.166667,0,0,0.166667,0,0)"/>
<path style="fill:none;stroke-width:2;stroke-linecap:butt;stroke-linejoin:miter;stroke:rgb(54.509804%,56.862745%,57.647059%);stroke-opacity:1;stroke-miterlimit:4;" d="M 1061.320312 459.140625 C 1061.039062 459.703125 1060.875 459.679688 1060.851562 459.046875 L 1060.359375 447.5625 C 1060.359375 447.375 1060.265625 447.28125 1060.078125 447.28125 L 1054.710938 447.28125 C 1054.523438 447.28125 1054.429688 447.375 1054.429688 447.539062 L 1054.429688 503.71875 C 1054.429688 503.90625 1054.523438 504 1054.710938 504 L 1060.992188 504 C 1061.109375 504 1061.179688 503.929688 1061.179688 503.8125 C 1061.320312 495.890625 1061.320312 488.25 1061.179688 480.890625 C 1061.039062 473.460938 1061.554688 468.351562 1062.703125 465.492188 C 1065.726562 458.039062 1072.007812 452.859375 1080 451.921875 C 1091.132812 450.632812 1095.9375 457.3125 1095.890625 467.484375 C 1095.867188 479.507812 1095.867188 491.625 1095.890625 503.789062 C 1095.890625 503.929688 1095.960938 504 1096.101562 504 L 1102.617188 504 C 1102.757812 504 1102.828125 503.90625 1102.828125 503.765625 C 1102.757812 491.789062 1102.78125 479.367188 1102.875 466.5 C 1102.921875 462.1875 1102.476562 458.859375 1101.539062 456.445312 C 1096.5 443.460938 1080.28125 443.671875 1070.039062 449.742188 C 1066.171875 452.039062 1063.265625 455.179688 1061.320312 459.140625 " transform="matrix(0.166667,0,0,0.166667,0,0)"/>
<path style="fill:none;stroke-width:2;stroke-linecap:butt;stroke-linejoin:miter;stroke:rgb(54.509804%,56.862745%,57.647059%);stroke-opacity:1;stroke-miterlimit:4;" d="M 1377.398438 459.890625 C 1377.070312 460.546875 1376.90625 460.523438 1376.859375 459.773438 L 1376.367188 447.5625 C 1376.367188 447.375 1376.273438 447.28125 1376.0625 447.28125 L 1370.695312 447.28125 C 1370.53125 447.28125 1370.4375 447.375 1370.4375 447.539062 L 1370.414062 503.8125 C 1370.414062 503.929688 1370.484375 504 1370.601562 504 L 1377 504 C 1377.117188 504 1377.1875 503.929688 1377.1875 503.8125 C 1377.28125 495.609375 1377.28125 487.289062 1377.164062 478.875 C 1377.117188 474.351562 1377.445312 470.765625 1378.195312 468.09375 C 1380.890625 458.507812 1390.265625 452.742188 1400.0625 452.53125 C 1400.390625 452.507812 1400.578125 452.34375 1400.578125 452.015625 L 1400.8125 446.25 C 1400.835938 445.875 1400.671875 445.710938 1400.320312 445.734375 C 1391.132812 446.296875 1381.664062 451.546875 1377.398438 459.890625 " transform="matrix(0.166667,0,0,0.166667,0,0)"/>
<path style="fill:none;stroke-width:2;stroke-linecap:butt;stroke-linejoin:miter;stroke:rgb(54.509804%,56.862745%,57.647059%);stroke-opacity:1;stroke-miterlimit:4;" d="M 37.570312 481.5 C 35.179688 471.65625 38.835938 461.460938 47.179688 455.695312 C 55.851562 449.71875 67.03125 450.75 75.398438 457.171875 C 75.5625 457.289062 75.703125 457.289062 75.84375 457.125 L 79.148438 452.929688 C 79.242188 452.789062 79.21875 452.671875 79.101562 452.578125 C 75.9375 450.070312 72.796875 448.40625 69.703125 447.539062 C 56.976562 444.09375 46.429688 446.625 38.109375 455.179688 C 34.78125 458.601562 32.484375 462.375 31.242188 466.523438 C 27.820312 477.960938 30.84375 489.890625 40.054688 497.929688 C 50.8125 507.351562 67.429688 507.46875 78.9375 498.609375 C 79.078125 498.492188 79.101562 498.375 78.960938 498.234375 L 75.539062 494.4375 C 75.445312 494.320312 75.304688 494.296875 75.164062 494.414062 C 61.617188 504.351562 41.671875 498.375 37.570312 481.5 " transform="matrix(0.166667,0,0,0.166667,0,0)"/>
<path style="fill:none;stroke-width:2;stroke-linecap:butt;stroke-linejoin:miter;stroke:rgb(54.509804%,56.862745%,57.647059%);stroke-opacity:1;stroke-miterlimit:4;" d="M 1543.710938 501.914062 C 1554.84375 507.164062 1565.859375 506.085938 1576.78125 498.703125 C 1576.921875 498.632812 1576.921875 498.539062 1576.851562 498.398438 C 1575.023438 496.242188 1573.78125 494.929688 1573.125 494.460938 C 1573.03125 494.390625 1572.9375 494.390625 1572.84375 494.460938 C 1560.75 503.109375 1543.78125 499.804688 1537.054688 486.257812 C 1533.515625 479.109375 1533.796875 470.132812 1537.875 463.3125 C 1545.65625 450.351562 1561.382812 448.289062 1573.242188 457.195312 C 1573.382812 457.289062 1573.523438 457.289062 1573.640625 457.148438 C 1575.726562 454.40625 1576.804688 453.023438 1576.851562 452.953125 C 1576.945312 452.835938 1576.921875 452.671875 1576.804688 452.578125 C 1573.734375 450.023438 1570.3125 448.265625 1566.609375 447.304688 C 1554.84375 444.28125 1544.859375 446.625 1536.679688 454.335938 C 1525.523438 464.882812 1524.46875 483.140625 1534.617188 494.742188 C 1537.476562 498 1540.5 500.390625 1543.710938 501.914062 " transform="matrix(0.166667,0,0,0.166667,0,0)"/>
<path style="fill:none;stroke-width:2;stroke-linecap:butt;stroke-linejoin:miter;stroke:rgb(54.509804%,56.862745%,57.647059%);stroke-opacity:1;stroke-miterlimit:4;" d="M 1210.429688 492.984375 L 1210.804688 503.765625 C 1210.804688 503.929688 1210.875 504 1211.039062 504 L 1216.710938 504 C 1216.851562 504 1216.921875 503.929688 1216.921875 503.789062 L 1216.921875 447.632812 C 1216.921875 447.398438 1216.804688 447.28125 1216.546875 447.28125 L 1210.5 447.28125 C 1210.265625 447.28125 1210.078125 447.46875 1210.078125 447.703125 C 1210.03125 456.046875 1210.054688 464.835938 1210.101562 474.046875 C 1210.125 481.3125 1209.070312 487.21875 1204.546875 492.28125 C 1199.695312 497.695312 1193.882812 500.039062 1187.0625 499.3125 C 1184.835938 499.078125 1182.820312 498.304688 1180.96875 497.015625 C 1176.515625 493.875 1175.648438 488.601562 1175.671875 483.234375 C 1175.765625 470.648438 1175.765625 458.742188 1175.695312 447.515625 C 1175.695312 447.351562 1175.625 447.28125 1175.460938 447.28125 L 1169.25 447.28125 C 1169.039062 447.28125 1168.921875 447.398438 1168.921875 447.609375 C 1168.898438 461.25 1168.921875 474.796875 1168.992188 488.25 C 1169.0625 500.390625 1179.09375 507.234375 1190.71875 505.265625 C 1199.460938 503.789062 1205.859375 499.664062 1209.9375 492.867188 C 1210.242188 492.351562 1210.40625 492.375 1210.429688 492.984375 " transform="matrix(0.166667,0,0,0.166667,0,0)"/>
<path style="fill:none;stroke-width:2;stroke-linecap:butt;stroke-linejoin:miter;stroke:rgb(54.509804%,56.862745%,57.647059%);stroke-opacity:1;stroke-miterlimit:4;" d="M 1467 447.75 C 1467 447.492188 1466.765625 447.28125 1466.507812 447.28125 L 1460.648438 447.28125 C 1460.390625 447.28125 1460.179688 447.492188 1460.179688 447.75 L 1460.179688 503.507812 C 1460.179688 503.765625 1460.390625 504 1460.648438 504 L 1466.507812 504 C 1466.765625 504 1467 503.765625 1467 503.507812 L 1467 447.75 " transform="matrix(0.166667,0,0,0.166667,0,0)"/>
<path style="fill:none;stroke-width:2;stroke-linecap:butt;stroke-linejoin:miter;stroke:rgb(54.509804%,56.862745%,57.647059%);stroke-opacity:1;stroke-miterlimit:4;" d="M 1642.992188 447.75 C 1642.992188 447.492188 1642.78125 447.28125 1642.5 447.28125 L 1636.664062 447.28125 C 1636.382812 447.28125 1636.171875 447.492188 1636.171875 447.75 L 1636.171875 503.507812 C 1636.171875 503.765625 1636.382812 504 1636.664062 504 L 1642.5 504 C 1642.78125 504 1642.992188 503.765625 1642.992188 503.507812 L 1642.992188 447.75 " transform="matrix(0.166667,0,0,0.166667,0,0)"/>
<path style="fill:none;stroke-width:2;stroke-linecap:butt;stroke-linejoin:miter;stroke:rgb(54.509804%,56.862745%,57.647059%);stroke-opacity:1;stroke-miterlimit:4;" d="M 897.023438 743.132812 C 903.984375 743.179688 909.679688 737.484375 909.726562 730.382812 C 909.773438 723.28125 904.171875 717.492188 897.210938 717.445312 C 890.226562 717.398438 884.53125 723.09375 884.484375 730.195312 C 884.4375 737.296875 890.039062 743.085938 897.023438 743.132812 " transform="matrix(0.166667,0,0,0.166667,0,0)"/>
<path style="fill:none;stroke-width:2;stroke-linecap:butt;stroke-linejoin:miter;stroke:rgb(54.509804%,56.862745%,57.647059%);stroke-opacity:1;stroke-miterlimit:4;" d="M 1385.789062 139.289062 C 1370.507812 121.851562 1348.476562 110.0625 1325.648438 117.28125 C 1315.359375 120.539062 1305.46875 127.921875 1298.929688 136.242188 C 1283.203125 156.210938 1287.1875 180.84375 1300.242188 201.117188 C 1300.453125 201.421875 1300.710938 201.515625 1301.039062 201.351562 L 1397.179688 160.40625 C 1397.296875 160.359375 1397.34375 160.265625 1397.296875 160.148438 C 1394.789062 152.132812 1390.96875 145.171875 1385.789062 139.289062 " transform="matrix(0.166667,0,0,0.166667,0,0)"/>
<path style="fill:none;stroke-width:2;stroke-linecap:butt;stroke-linejoin:miter;stroke:rgb(54.509804%,56.862745%,57.647059%);stroke-opacity:1;stroke-miterlimit:4;" d="M 55.101562 198.117188 C 51.398438 207.070312 50.882812 216.515625 53.554688 226.453125 C 57.773438 242.15625 71.71875 249.046875 87.257812 248.578125 C 108.28125 247.96875 127.523438 237.820312 142.359375 222.960938 C 142.640625 222.679688 142.78125 222.351562 142.78125 221.953125 L 142.78125 167.789062 C 142.78125 167.460938 142.59375 167.296875 142.265625 167.296875 C 127.242188 167.742188 112.945312 169.054688 99.351562 171.234375 C 81.9375 174.046875 61.992188 181.3125 55.101562 198.117188 " transform="matrix(0.166667,0,0,0.166667,0,0)"/>
<path style="fill:none;stroke-width:2;stroke-linecap:butt;stroke-linejoin:miter;stroke:rgb(54.509804%,56.862745%,57.647059%);stroke-opacity:1;stroke-miterlimit:4;" d="M 781.757812 171.1875 C 762.609375 174.210938 739.757812 182.953125 735.304688 204.304688 C 733.710938 211.921875 733.828125 219.164062 735.632812 225.984375 C 739.804688 241.828125 753.515625 248.953125 769.054688 248.601562 C 790.265625 248.109375 809.789062 237.890625 824.648438 222.890625 C 824.90625 222.632812 825.023438 222.328125 825.023438 221.976562 L 825.023438 167.789062 C 825.023438 167.4375 824.835938 167.273438 824.484375 167.273438 C 809.296875 167.789062 795.046875 169.101562 781.757812 171.1875 " transform="matrix(0.166667,0,0,0.166667,0,0)"/>
<path style="fill:none;stroke-width:2;stroke-linecap:butt;stroke-linejoin:miter;stroke:rgb(54.509804%,56.862745%,57.647059%);stroke-opacity:1;stroke-miterlimit:4;" d="M 770.835938 497.53125 C 783.117188 492.726562 789.140625 478.828125 784.3125 466.5 C 779.460938 454.171875 765.609375 448.054688 753.351562 452.882812 C 741.070312 457.6875 735.046875 471.585938 739.875 483.914062 C 744.703125 496.242188 758.578125 502.335938 770.835938 497.53125 " transform="matrix(0.166667,0,0,0.166667,0,0)"/>
<path style="fill:none;stroke-width:2;stroke-linecap:butt;stroke-linejoin:miter;stroke:rgb(54.509804%,56.862745%,57.647059%);stroke-opacity:1;stroke-miterlimit:4;" d="M 141.75 465.1875 C 139.757812 469.476562 139.195312 474.351562 140.015625 479.835938 C 140.085938 480.28125 140.320312 480.445312 140.765625 480.28125 L 181.242188 464.390625 C 181.640625 464.226562 181.734375 463.96875 181.546875 463.59375 C 177.796875 456.539062 171.257812 451.054688 163.148438 451.3125 C 152.976562 451.640625 145.851562 456.28125 141.75 465.1875 " transform="matrix(0.166667,0,0,0.166667,0,0)"/>
<path style="fill:none;stroke-width:2;stroke-linecap:butt;stroke-linejoin:miter;stroke:rgb(54.509804%,56.862745%,57.647059%);stroke-opacity:1;stroke-miterlimit:4;" d="M 584.273438 463.617188 C 580.570312 456.703125 574.617188 451.59375 566.929688 451.335938 C 557.929688 451.007812 549.609375 455.390625 545.367188 463.3125 C 542.695312 468.28125 541.851562 473.8125 542.8125 479.882812 C 542.882812 480.304688 543.117188 480.421875 543.492188 480.28125 L 583.992188 464.390625 C 584.367188 464.226562 584.484375 463.96875 584.273438 463.617188 " transform="matrix(0.166667,0,0,0.166667,0,0)"/>
<path style="fill:none;stroke-width:2;stroke-linecap:butt;stroke-linejoin:miter;stroke:rgb(54.509804%,56.862745%,57.647059%);stroke-opacity:1;stroke-miterlimit:4;" d="M 867.398438 457.5 C 861.164062 463.195312 859.101562 471.351562 860.273438 479.859375 C 860.34375 480.304688 860.601562 480.445312 861 480.28125 L 901.78125 464.296875 C 901.945312 464.226562 902.015625 464.085938 901.921875 463.898438 C 898.828125 457.5 892.710938 451.96875 885.398438 451.429688 C 878.414062 450.890625 872.414062 452.90625 867.398438 457.5 " transform="matrix(0.166667,0,0,0.166667,0,0)"/>
<path style="fill:none;stroke-width:2;stroke-linecap:butt;stroke-linejoin:miter;stroke:rgb(54.509804%,56.862745%,57.647059%);stroke-opacity:1;stroke-miterlimit:4;" d="M 1733.015625 499.265625 C 1745.835938 499.710938 1756.59375 489.351562 1757.015625 476.15625 C 1757.460938 462.960938 1747.429688 451.898438 1734.609375 451.476562 C 1721.789062 451.054688 1711.054688 461.414062 1710.609375 474.609375 C 1710.164062 487.804688 1720.21875 498.84375 1733.015625 499.265625 " transform="matrix(0.166667,0,0,0.166667,0,0)"/>
<path style=" stroke:none;fill-rule:nonzero;fill:rgb(88.235294%,86.27451%,85.098039%);fill-opacity:1;" d="M 0 0 L 300 0 L 300 128 L 0 128 Z M 288.558594 12.746094 C 288.535156 12.773438 288.539062 12.808594 288.5625 12.832031 L 289.152344 13.421875 C 289.175781 13.441406 289.210938 13.445312 289.238281 13.425781 L 297.359375 7.097656 C 297.375 7.085938 297.382812 7.066406 297.386719 7.050781 C 297.386719 7.03125 297.378906 7.011719 297.367188 7 L 294.984375 4.613281 C 294.96875 4.601562 294.953125 4.59375 294.933594 4.597656 C 294.914062 4.597656 294.898438 4.605469 294.886719 4.621094 Z M 253.632812 24.511719 C 253.582031 24.609375 253.554688 24.601562 253.554688 24.492188 L 253.546875 8.769531 C 253.546875 8.714844 253.507812 8.671875 253.453125 8.671875 L 250.109375 8.671875 C 250.082031 8.671875 250.058594 8.683594 250.042969 8.699219 C 250.023438 8.71875 250.011719 8.742188 250.011719 8.765625 L 250.011719 42.089844 C 250.011719 42.132812 250.046875 42.167969 250.089844 42.167969 L 253.457031 42.167969 C 253.53125 42.167969 253.5625 42.132812 253.5625 42.058594 C 253.535156 37.691406 253.535156 33.371094 253.5625 29.101562 C 253.574219 26.816406 254.265625 24.792969 255.636719 23.027344 C 257.382812 20.777344 260.109375 19.175781 263.011719 19.03125 C 266.476562 18.863281 269.101562 20.488281 270.027344 23.898438 C 270.429688 25.378906 270.632812 26.925781 270.632812 28.542969 C 270.636719 33.066406 270.636719 37.585938 270.632812 42.101562 C 270.632812 42.136719 270.660156 42.167969 270.699219 42.167969 L 274.078125 42.167969 C 274.136719 42.167969 274.167969 42.136719 274.167969 42.074219 C 274.183594 37.972656 274.179688 33.972656 274.15625 30.070312 C 274.144531 27.949219 273.929688 26.074219 273.503906 24.453125 C 272.703125 21.398438 270.816406 19.316406 267.703125 18.511719 C 265.433594 17.925781 262.746094 17.871094 260.464844 18.574219 C 258.082031 19.3125 256.164062 20.667969 254.710938 22.640625 C 254.28125 23.230469 253.960938 23.863281 253.632812 24.511719 Z M 217.332031 34.386719 L 236.300781 26.230469 C 236.359375 26.207031 236.378906 26.164062 236.359375 26.105469 C 235.980469 24.925781 235.464844 23.828125 234.808594 22.8125 C 233.792969 21.230469 232.476562 19.988281 230.855469 19.085938 C 228.476562 17.761719 225.464844 17.492188 222.800781 18.03125 C 215.742188 19.457031 211.863281 26.167969 213.328125 33.050781 C 214.328125 37.746094 218.015625 41.378906 222.824219 42.25 C 227.671875 43.125 233.058594 41.503906 236.019531 37.425781 C 236.046875 37.390625 236.046875 37.355469 236.015625 37.320312 L 235.511719 36.734375 C 235.5 36.71875 235.476562 36.710938 235.457031 36.710938 C 235.4375 36.714844 235.417969 36.722656 235.40625 36.742188 C 234.796875 37.652344 234.023438 38.460938 233.082031 39.171875 C 229.230469 42.078125 223.988281 40.5 220.5625 37.792969 C 219.289062 36.785156 218.203125 35.675781 217.3125 34.46875 C 217.300781 34.453125 217.300781 34.4375 217.304688 34.421875 C 217.308594 34.40625 217.320312 34.394531 217.332031 34.386719 Z M 23.796875 38.371094 L 23.796875 42.105469 C 23.796875 42.140625 23.824219 42.167969 23.855469 42.167969 L 27.289062 42.167969 C 27.347656 42.167969 27.375 42.136719 27.375 42.078125 C 27.398438 35.882812 27.394531 30.851562 27.359375 26.984375 C 27.347656 25.539062 27.101562 24.171875 26.621094 22.878906 C 25.707031 20.417969 23.652344 18.9375 21.097656 18.421875 C 19.800781 18.164062 18.433594 18.046875 17 18.070312 C 13.222656 18.140625 9.5625 19.363281 7.113281 22.105469 C 7.042969 22.183594 7.03125 22.269531 7.078125 22.359375 L 7.472656 23.152344 C 7.515625 23.234375 7.554688 23.234375 7.597656 23.152344 C 8.035156 22.257812 9.085938 21.410156 9.898438 20.902344 C 12.4375 19.316406 15.128906 18.6875 17.976562 19.011719 C 19.277344 19.164062 20.34375 19.503906 21.179688 20.035156 C 23.335938 21.414062 23.828125 24.480469 23.785156 26.941406 C 23.78125 26.984375 23.746094 27.019531 23.703125 27.023438 C 20.75 27.132812 17.910156 27.429688 15.191406 27.902344 C 11.09375 28.621094 5.796875 30.703125 5.167969 35.382812 C 4.804688 38.101562 5.949219 40.472656 8.410156 41.707031 C 10.128906 42.566406 12.265625 42.773438 14.148438 42.558594 C 17.832031 42.132812 21.03125 40.726562 23.742188 38.34375 C 23.75 38.335938 23.765625 38.335938 23.777344 38.339844 C 23.785156 38.34375 23.792969 38.355469 23.796875 38.371094 Z M 46.429688 24.421875 L 46.429688 18.339844 C 46.429688 18.277344 46.398438 18.25 46.335938 18.25 L 43.007812 18.25 C 42.929688 18.25 42.890625 18.289062 42.890625 18.367188 L 42.886719 42.046875 C 42.886719 42.128906 42.929688 42.167969 43.007812 42.167969 L 46.332031 42.167969 C 46.398438 42.167969 46.433594 42.132812 46.433594 42.066406 C 46.425781 37.914062 46.425781 33.640625 46.433594 29.25 C 46.433594 26.25 47.535156 23.734375 49.734375 21.699219 C 52.054688 19.550781 55.308594 18.523438 58.414062 19.265625 C 60.746094 19.828125 62.25 21.5625 62.882812 23.828125 C 63.292969 25.292969 63.5 26.832031 63.5 28.457031 C 63.507812 33.136719 63.511719 37.679688 63.507812 42.082031 C 63.507812 42.140625 63.535156 42.167969 63.589844 42.167969 L 66.957031 42.167969 C 67.019531 42.167969 67.050781 42.136719 67.050781 42.074219 C 67.042969 38.550781 67.042969 34.691406 67.042969 30.488281 C 67.042969 28.679688 66.886719 26.949219 66.570312 25.296875 C 65.855469 21.511719 63.636719 19.027344 59.773438 18.324219 C 58.105469 18.019531 56.519531 17.980469 55.019531 18.199219 C 51.324219 18.742188 48.113281 21.015625 46.546875 24.449219 C 46.46875 24.625 46.429688 24.617188 46.429688 24.421875 Z M 85.222656 24.449219 L 85.222656 18.339844 C 85.222656 18.277344 85.191406 18.25 85.132812 18.25 L 81.757812 18.25 C 81.707031 18.25 81.679688 18.273438 81.679688 18.324219 L 81.683594 42.0625 C 81.683594 42.132812 81.714844 42.167969 81.785156 42.167969 L 85.125 42.167969 C 85.1875 42.167969 85.21875 42.136719 85.21875 42.070312 C 85.222656 37.71875 85.222656 33.457031 85.222656 29.285156 C 85.222656 26.273438 86.3125 23.757812 88.496094 21.726562 C 90.875 19.519531 94.179688 18.488281 97.347656 19.304688 C 99.605469 19.886719 101.082031 21.65625 101.691406 23.882812 C 102.09375 25.34375 102.292969 26.882812 102.296875 28.5 C 102.300781 33.246094 102.300781 37.765625 102.304688 42.058594 C 102.304688 42.132812 102.339844 42.167969 102.410156 42.167969 L 105.742188 42.167969 C 105.792969 42.167969 105.835938 42.125 105.835938 42.074219 C 105.847656 38.332031 105.84375 34.476562 105.828125 30.503906 C 105.808594 26.359375 105.347656 21.328125 101.238281 19.214844 C 99.097656 18.113281 96.128906 17.851562 93.8125 18.203125 C 90.164062 18.753906 86.808594 21.03125 85.339844 24.472656 C 85.261719 24.65625 85.222656 24.648438 85.222656 24.449219 Z M 137.503906 38.371094 L 137.503906 42.125 C 137.503906 42.148438 137.523438 42.167969 137.546875 42.167969 L 140.996094 42.167969 C 141.0625 42.167969 141.09375 42.136719 141.09375 42.070312 C 141.089844 37.445312 141.089844 32.800781 141.09375 28.132812 C 141.09375 26.277344 140.964844 24.492188 140.292969 22.78125 C 139.34375 20.378906 137.378906 18.964844 134.867188 18.441406 C 133.542969 18.167969 132.15625 18.042969 130.703125 18.070312 C 126.929688 18.140625 123.183594 19.382812 120.746094 22.191406 C 120.726562 22.210938 120.722656 22.234375 120.738281 22.261719 L 121.1875 23.160156 C 121.203125 23.195312 121.222656 23.195312 121.246094 23.164062 C 121.933594 22.207031 122.699219 21.464844 123.546875 20.9375 C 126.132812 19.320312 128.847656 18.679688 131.683594 19.015625 C 132.980469 19.167969 134.023438 19.488281 134.808594 19.984375 C 135.960938 20.707031 136.726562 21.863281 137.105469 23.445312 C 137.386719 24.617188 137.515625 25.773438 137.488281 26.921875 C 137.488281 26.976562 137.460938 27.003906 137.40625 27.007812 C 135.316406 27.117188 133.394531 27.277344 131.644531 27.488281 C 126.773438 28.066406 118.945312 29.824219 118.8125 36.210938 C 118.789062 37.390625 119.039062 38.4375 119.566406 39.351562 C 121.222656 42.203125 124.824219 42.898438 127.855469 42.554688 C 131.519531 42.140625 134.71875 40.738281 137.449219 38.347656 C 137.460938 38.339844 137.472656 38.335938 137.484375 38.339844 C 137.496094 38.347656 137.503906 38.359375 137.503906 38.371094 Z M 200.382812 18.25 C 200.363281 18.25 200.347656 18.257812 200.339844 18.277344 L 191.070312 37.246094 C 191.0625 37.265625 191.042969 37.273438 191.023438 37.273438 C 191.003906 37.273438 190.988281 37.265625 190.980469 37.246094 L 181.714844 18.277344 C 181.703125 18.261719 181.6875 18.25 181.667969 18.25 L 177.761719 18.25 C 177.742188 18.25 177.726562 18.257812 177.71875 18.273438 C 177.707031 18.285156 177.707031 18.304688 177.714844 18.320312 L 189.546875 42.414062 C 189.554688 42.429688 189.570312 42.441406 189.589844 42.441406 C 189.609375 42.441406 189.625 42.429688 189.636719 42.414062 L 201.464844 18.320312 C 201.472656 18.304688 201.472656 18.285156 201.460938 18.273438 C 201.453125 18.257812 201.4375 18.25 201.421875 18.25 Z M 292.34375 18.308594 C 292.34375 18.273438 292.320312 18.25 292.285156 18.25 L 288.863281 18.25 C 288.832031 18.25 288.804688 18.273438 288.804688 18.308594 L 288.804688 42.105469 C 288.804688 42.140625 288.832031 42.164062 288.863281 42.164062 L 292.285156 42.164062 C 292.320312 42.164062 292.34375 42.140625 292.34375 42.105469 Z M 291.84375 69.441406 C 291.859375 69.425781 291.859375 69.40625 291.851562 69.386719 C 291.84375 69.367188 291.824219 69.355469 291.804688 69.355469 L 290.660156 69.355469 C 290.644531 69.355469 290.628906 69.367188 290.617188 69.378906 L 288.585938 72.488281 C 288.574219 72.507812 288.574219 72.527344 288.582031 72.542969 C 288.59375 72.5625 288.609375 72.570312 288.628906 72.570312 L 289.324219 72.574219 C 289.339844 72.574219 289.355469 72.566406 289.367188 72.554688 Z M 130.941406 82.171875 L 130.9375 83.960938 C 130.9375 83.988281 130.949219 84 130.976562 84 L 132.0625 84 C 132.082031 84 132.089844 83.988281 132.089844 83.96875 L 132.089844 70.210938 C 132.089844 70.179688 132.078125 70.164062 132.046875 70.164062 L 130.988281 70.171875 C 130.96875 70.171875 130.960938 70.179688 130.960938 70.195312 L 130.960938 76.328125 C 130.960938 76.414062 130.929688 76.425781 130.875 76.359375 C 130.585938 76.019531 130.335938 75.679688 129.976562 75.402344 C 127.898438 73.796875 124.964844 73.84375 123.152344 75.824219 C 121.5 77.628906 121.480469 80.625 123.082031 82.527344 C 124.617188 84.351562 127.167969 84.664062 129.25 83.519531 C 129.90625 83.160156 130.433594 82.699219 130.835938 82.140625 C 130.90625 82.039062 130.941406 82.050781 130.941406 82.171875 Z M 244.769531 71.082031 C 244.769531 70.632812 244.402344 70.269531 243.953125 70.269531 C 243.503906 70.269531 243.140625 70.632812 243.140625 71.082031 C 243.140625 71.53125 243.503906 71.894531 243.953125 71.894531 C 244.402344 71.894531 244.769531 71.53125 244.769531 71.082031 Z M 274.101562 71.082031 C 274.101562 70.632812 273.738281 70.269531 273.289062 70.269531 C 272.839844 70.269531 272.476562 70.632812 272.476562 71.082031 C 272.476562 71.53125 272.839844 71.894531 273.289062 71.894531 C 273.738281 71.894531 274.101562 71.53125 274.101562 71.082031 Z M 62.75 75.640625 C 62.75 75.609375 62.777344 75.585938 62.808594 75.585938 L 65.617188 75.585938 C 65.648438 75.585938 65.675781 75.558594 65.675781 75.527344 L 65.671875 74.726562 C 65.671875 74.695312 65.648438 74.671875 65.617188 74.671875 L 62.808594 74.667969 C 62.777344 74.667969 62.75 74.644531 62.75 74.613281 L 62.75 70.449219 C 62.75 70.417969 62.726562 70.390625 62.691406 70.390625 L 61.648438 70.390625 C 61.617188 70.390625 61.589844 70.417969 61.589844 70.449219 L 61.589844 74.613281 C 61.589844 74.644531 61.566406 74.671875 61.535156 74.671875 L 59.640625 74.667969 C 59.609375 74.667969 59.585938 74.695312 59.585938 74.726562 L 59.585938 75.527344 C 59.585938 75.558594 59.613281 75.585938 59.644531 75.585938 L 61.535156 75.585938 C 61.566406 75.585938 61.589844 75.609375 61.589844 75.640625 L 61.589844 83.941406 C 61.589844 83.976562 61.617188 84 61.648438 84 L 62.695312 84 C 62.726562 84 62.75 83.976562 62.75 83.941406 Z M 216.035156 75.582031 C 217.011719 75.585938 217.933594 75.585938 218.796875 75.585938 C 218.824219 75.585938 218.839844 75.570312 218.839844 75.539062 C 218.839844 75.535156 218.839844 75.261719 218.839844 74.71875 C 218.839844 74.6875 218.824219 74.671875 218.789062 74.671875 L 215.960938 74.667969 C 215.933594 74.667969 215.917969 74.65625 215.917969 74.625 L 215.917969 70.453125 C 215.917969 70.417969 215.890625 70.394531 215.859375 70.394531 L 214.828125 70.394531 C 214.789062 70.394531 214.757812 70.425781 214.757812 70.464844 L 214.757812 74.578125 C 214.757812 74.640625 214.726562 74.671875 214.664062 74.671875 L 212.832031 74.667969 C 212.777344 74.667969 212.75 74.695312 212.75 74.75 L 212.753906 75.503906 C 212.753906 75.558594 212.78125 75.585938 212.835938 75.585938 L 214.671875 75.585938 C 214.726562 75.585938 214.757812 75.613281 214.757812 75.671875 L 214.757812 83.960938 C 214.757812 83.980469 214.773438 84 214.796875 84 L 215.875 84 C 215.902344 84 215.917969 83.984375 215.917969 83.957031 L 215.917969 75.699219 C 215.917969 75.621094 215.957031 75.582031 216.035156 75.582031 Z M 23.660156 81 C 23.648438 80.984375 23.644531 80.964844 23.652344 80.945312 C 23.65625 80.925781 23.671875 80.910156 23.691406 80.90625 L 31.59375 77.851562 C 31.652344 77.828125 31.671875 77.789062 31.652344 77.726562 C 30.996094 75.699219 29.421875 74.25 27.210938 74.246094 C 26.296875 74.246094 25.472656 74.457031 24.746094 74.886719 C 22.246094 76.355469 21.425781 79.351562 22.820312 81.773438 C 23.367188 82.726562 24.390625 83.578125 25.417969 83.90625 C 27.199219 84.476562 28.894531 84.175781 30.507812 83 C 30.527344 82.988281 30.527344 82.96875 30.511719 82.953125 L 29.984375 82.207031 C 29.976562 82.195312 29.960938 82.183594 29.941406 82.183594 C 29.925781 82.179688 29.90625 82.183594 29.894531 82.195312 C 28.199219 83.640625 25.832031 83.5 24.316406 81.945312 C 24.046875 81.671875 23.882812 81.316406 23.660156 81 Z M 90.847656 80.890625 L 98.722656 77.851562 C 98.785156 77.824219 98.804688 77.78125 98.785156 77.71875 C 98.066406 75.671875 96.554688 74.238281 94.304688 74.246094 C 92.386719 74.25 90.726562 75.335938 89.832031 76.984375 C 89.339844 77.894531 89.175781 78.929688 89.347656 80.09375 C 89.503906 81.160156 89.992188 82.082031 90.820312 82.855469 C 92.730469 84.640625 95.53125 84.558594 97.585938 83.027344 C 97.632812 82.992188 97.636719 82.953125 97.605469 82.90625 L 97.128906 82.230469 C 97.117188 82.210938 97.097656 82.199219 97.074219 82.195312 C 97.050781 82.191406 97.027344 82.199219 97.011719 82.210938 C 96.144531 82.902344 95.203125 83.226562 94.1875 83.191406 C 92.707031 83.136719 91.578125 82.414062 90.804688 81.015625 C 90.769531 80.957031 90.785156 80.917969 90.847656 80.890625 Z M 143.703125 80.976562 C 143.699219 80.964844 143.695312 80.949219 143.703125 80.933594 C 143.707031 80.921875 143.71875 80.910156 143.730469 80.90625 L 151.636719 77.851562 C 151.695312 77.828125 151.714844 77.785156 151.695312 77.726562 C 151.355469 76.6875 150.800781 75.851562 150.027344 75.207031 C 148.597656 74.011719 146.363281 73.949219 144.769531 74.898438 C 142.773438 76.085938 141.839844 78.167969 142.324219 80.425781 C 142.507812 81.292969 142.941406 82.066406 143.628906 82.757812 C 145.5 84.632812 148.386719 84.589844 150.5 83.03125 C 150.546875 82.996094 150.554688 82.953125 150.519531 82.902344 L 150.046875 82.238281 C 150.03125 82.214844 150.007812 82.199219 149.980469 82.199219 C 149.953125 82.195312 149.929688 82.203125 149.910156 82.21875 C 149.035156 82.933594 148.050781 83.253906 146.949219 83.179688 C 145.519531 83.078125 144.4375 82.34375 143.703125 80.976562 Z M 293.914062 78.183594 C 293.34375 75.488281 290.675781 73.773438 287.945312 74.347656 C 285.21875 74.921875 283.464844 77.570312 284.035156 80.265625 C 284.601562 82.957031 287.273438 84.675781 290 84.097656 C 292.730469 83.523438 294.480469 80.875 293.914062 78.183594 Z M 42.71875 76.523438 C 42.671875 76.617188 42.648438 76.613281 42.644531 76.503906 L 42.5625 74.59375 C 42.5625 74.5625 42.542969 74.546875 42.511719 74.546875 L 41.617188 74.546875 C 41.585938 74.546875 41.570312 74.5625 41.570312 74.589844 L 41.570312 83.953125 C 41.570312 83.984375 41.585938 84 41.613281 84 L 42.664062 84 C 42.683594 84 42.695312 83.988281 42.695312 83.96875 C 42.71875 82.582031 42.71875 81.300781 42.691406 80.128906 C 42.667969 78.964844 42.757812 78.121094 42.957031 77.589844 C 43.53125 76.082031 45.003906 75.140625 46.625 75.3125 C 48.082031 75.464844 48.496094 76.726562 48.488281 77.976562 C 48.472656 79.996094 48.472656 81.992188 48.488281 83.964844 C 48.488281 83.984375 48.496094 83.996094 48.519531 83.996094 L 49.582031 84 C 49.613281 84 49.636719 83.976562 49.636719 83.945312 C 49.628906 81.796875 49.632812 79.671875 49.644531 77.570312 C 49.648438 76.941406 49.570312 76.425781 49.402344 76.027344 C 48.796875 74.558594 47.339844 74.109375 45.839844 74.351562 C 44.53125 74.566406 43.296875 75.316406 42.71875 76.523438 Z M 76.3125 76.675781 L 76.226562 74.59375 C 76.226562 74.5625 76.210938 74.546875 76.179688 74.546875 L 75.285156 74.546875 C 75.253906 74.546875 75.238281 74.5625 75.238281 74.589844 L 75.238281 83.972656 C 75.238281 83.988281 75.246094 84 75.261719 84 L 76.332031 84 C 76.355469 84 76.375 83.980469 76.375 83.957031 C 76.367188 82.351562 76.367188 80.734375 76.382812 79.109375 C 76.394531 77.980469 76.789062 77.078125 77.570312 76.398438 C 78.308594 75.761719 79.175781 75.4375 80.175781 75.421875 C 80.234375 75.421875 80.261719 75.394531 80.265625 75.335938 L 80.304688 74.371094 C 80.304688 74.3125 80.277344 74.285156 80.21875 74.289062 C 78.675781 74.382812 77.097656 75.261719 76.378906 76.691406 C 76.339844 76.769531 76.316406 76.765625 76.3125 76.675781 Z M 176.886719 76.523438 C 176.839844 76.617188 176.8125 76.613281 176.808594 76.507812 L 176.726562 74.59375 C 176.726562 74.5625 176.710938 74.546875 176.679688 74.546875 L 175.785156 74.546875 C 175.753906 74.546875 175.738281 74.5625 175.738281 74.589844 L 175.738281 83.953125 C 175.738281 83.984375 175.753906 84 175.785156 84 L 176.832031 84 C 176.851562 84 176.863281 83.988281 176.863281 83.96875 C 176.886719 82.648438 176.886719 81.375 176.863281 80.148438 C 176.839844 78.910156 176.925781 78.058594 177.117188 77.582031 C 177.621094 76.339844 178.667969 75.476562 180 75.320312 C 181.855469 75.105469 182.65625 76.21875 182.648438 77.914062 C 182.644531 79.917969 182.644531 81.9375 182.648438 83.964844 C 182.648438 83.988281 182.660156 84 182.683594 84 L 183.769531 84 C 183.792969 84 183.804688 83.984375 183.804688 83.960938 C 183.792969 81.964844 183.796875 79.894531 183.8125 77.75 C 183.820312 77.03125 183.746094 76.476562 183.589844 76.074219 C 182.75 73.910156 180.046875 73.945312 178.339844 74.957031 C 177.695312 75.339844 177.210938 75.863281 176.886719 76.523438 Z M 229.566406 76.648438 C 229.511719 76.757812 229.484375 76.753906 229.476562 76.628906 L 229.394531 74.59375 C 229.394531 74.5625 229.378906 74.546875 229.34375 74.546875 L 228.449219 74.546875 C 228.421875 74.546875 228.40625 74.5625 228.40625 74.589844 L 228.402344 83.96875 C 228.402344 83.988281 228.414062 84 228.433594 84 L 229.5 84 C 229.519531 84 229.53125 83.988281 229.53125 83.96875 C 229.546875 82.601562 229.546875 81.214844 229.527344 79.8125 C 229.519531 79.058594 229.574219 78.460938 229.699219 78.015625 C 230.148438 76.417969 231.710938 75.457031 233.34375 75.421875 C 233.398438 75.417969 233.429688 75.390625 233.429688 75.335938 L 233.46875 74.375 C 233.472656 74.3125 233.445312 74.285156 233.386719 74.289062 C 231.855469 74.382812 230.277344 75.257812 229.566406 76.648438 Z M 6.261719 80.25 C 5.863281 78.609375 6.472656 76.910156 7.863281 75.949219 C 9.308594 74.953125 11.171875 75.125 12.566406 76.195312 C 12.59375 76.214844 12.617188 76.214844 12.640625 76.1875 L 13.191406 75.488281 C 13.207031 75.464844 13.203125 75.445312 13.183594 75.429688 C 12.65625 75.011719 12.132812 74.734375 11.617188 74.589844 C 9.496094 74.015625 7.738281 74.4375 6.351562 75.863281 C 5.796875 76.433594 5.414062 77.0625 5.207031 77.753906 C 4.636719 79.660156 5.140625 81.648438 6.675781 82.988281 C 8.46875 84.558594 11.238281 84.578125 13.15625 83.101562 C 13.179688 83.082031 13.183594 83.0625 13.160156 83.039062 L 12.589844 82.40625 C 12.574219 82.386719 12.550781 82.382812 12.527344 82.402344 C 10.269531 84.058594 6.945312 83.0625 6.261719 80.25 Z M 257.285156 83.652344 C 259.140625 84.527344 260.976562 84.347656 262.796875 83.117188 C 262.820312 83.105469 262.820312 83.089844 262.808594 83.066406 C 262.503906 82.707031 262.296875 82.488281 262.1875 82.410156 C 262.171875 82.398438 262.15625 82.398438 262.140625 82.410156 C 260.125 83.851562 257.296875 83.300781 256.175781 81.042969 C 255.585938 79.851562 255.632812 78.355469 256.3125 77.21875 C 257.609375 75.058594 260.230469 74.714844 262.207031 76.199219 C 262.230469 76.214844 262.253906 76.214844 262.273438 76.191406 C 262.621094 75.734375 262.800781 75.503906 262.808594 75.492188 C 262.824219 75.472656 262.820312 75.445312 262.800781 75.429688 C 262.289062 75.003906 261.71875 74.710938 261.101562 74.550781 C 259.140625 74.046875 257.476562 74.4375 256.113281 75.722656 C 254.253906 77.480469 254.078125 80.523438 255.769531 82.457031 C 256.246094 83 256.75 83.398438 257.285156 83.652344 Z M 201.738281 82.164062 L 201.800781 83.960938 C 201.800781 83.988281 201.8125 84 201.839844 84 L 202.785156 84 C 202.808594 84 202.820312 83.988281 202.820312 83.964844 L 202.820312 74.605469 C 202.820312 74.566406 202.800781 74.546875 202.757812 74.546875 L 201.75 74.546875 C 201.710938 74.546875 201.679688 74.578125 201.679688 74.617188 C 201.671875 76.007812 201.675781 77.472656 201.683594 79.007812 C 201.6875 80.21875 201.511719 81.203125 200.757812 82.046875 C 199.949219 82.949219 198.980469 83.339844 197.84375 83.21875 C 197.472656 83.179688 197.136719 83.050781 196.828125 82.835938 C 196.085938 82.3125 195.941406 81.433594 195.945312 80.539062 C 195.960938 78.441406 195.960938 76.457031 195.949219 74.585938 C 195.949219 74.558594 195.9375 74.546875 195.910156 74.546875 L 194.875 74.546875 C 194.839844 74.546875 194.820312 74.566406 194.820312 74.601562 C 194.816406 76.875 194.820312 79.132812 194.832031 81.375 C 194.84375 83.398438 196.515625 84.539062 198.453125 84.210938 C 199.910156 83.964844 200.976562 83.277344 201.65625 82.144531 C 201.707031 82.058594 201.734375 82.0625 201.738281 82.164062 Z M 244.5 74.625 C 244.5 74.582031 244.460938 74.546875 244.417969 74.546875 L 243.441406 74.546875 C 243.398438 74.546875 243.363281 74.582031 243.363281 74.625 L 243.363281 83.917969 C 243.363281 83.960938 243.398438 84 243.441406 84 L 244.417969 84 C 244.460938 84 244.5 83.960938 244.5 83.917969 Z M 273.832031 74.625 C 273.832031 74.582031 273.796875 74.546875 273.75 74.546875 L 272.777344 74.546875 C 272.730469 74.546875 272.695312 74.582031 272.695312 74.625 L 272.695312 83.917969 C 272.695312 83.960938 272.730469 84 272.777344 84 L 273.75 84 C 273.796875 84 273.832031 83.960938 273.832031 83.917969 Z M 149.503906 123.855469 C 150.664062 123.863281 151.613281 122.914062 151.621094 121.730469 C 151.628906 120.546875 150.695312 119.582031 149.535156 119.574219 C 148.371094 119.566406 147.421875 120.515625 147.414062 121.699219 C 147.40625 122.882812 148.339844 123.847656 149.503906 123.855469 Z M 149.503906 123.855469 "/>
<path style=" stroke:none;fill-rule:nonzero;fill:rgb(20.784314%,27.058824%,30.196078%);fill-opacity:1;" d="M 288.558594 12.746094 L 294.886719 4.621094 C 294.898438 4.605469 294.914062 4.597656 294.933594 4.597656 C 294.953125 4.59375 294.96875 4.601562 294.984375 4.613281 L 297.367188 7 C 297.378906 7.011719 297.386719 7.03125 297.386719 7.050781 C 297.382812 7.066406 297.375 7.085938 297.359375 7.097656 L 289.238281 13.425781 C 289.210938 13.445312 289.175781 13.441406 289.152344 13.421875 L 288.5625 12.832031 C 288.539062 12.808594 288.535156 12.773438 288.558594 12.746094 Z M 288.558594 12.746094 "/>
<path style=" stroke:none;fill-rule:nonzero;fill:rgb(20.784314%,27.058824%,30.196078%);fill-opacity:1;" d="M 253.632812 24.511719 C 253.960938 23.863281 254.28125 23.230469 254.710938 22.640625 C 256.164062 20.667969 258.082031 19.3125 260.464844 18.574219 C 262.746094 17.871094 265.433594 17.925781 267.703125 18.511719 C 270.816406 19.316406 272.703125 21.398438 273.503906 24.453125 C 273.929688 26.074219 274.144531 27.949219 274.15625 30.070312 C 274.179688 33.972656 274.183594 37.972656 274.167969 42.074219 C 274.167969 42.136719 274.136719 42.167969 274.078125 42.167969 L 270.699219 42.167969 C 270.660156 42.167969 270.632812 42.136719 270.632812 42.101562 C 270.636719 37.585938 270.636719 33.066406 270.632812 28.542969 C 270.632812 26.925781 270.429688 25.378906 270.027344 23.898438 C 269.101562 20.488281 266.476562 18.863281 263.011719 19.03125 C 260.109375 19.175781 257.382812 20.777344 255.636719 23.027344 C 254.265625 24.792969 253.574219 26.816406 253.5625 29.101562 C 253.535156 33.371094 253.535156 37.691406 253.5625 42.058594 C 253.5625 42.132812 253.53125 42.167969 253.457031 42.167969 L 250.089844 42.167969 C 250.046875 42.167969 250.011719 42.132812 250.011719 42.089844 L 250.011719 8.765625 C 250.011719 8.742188 250.023438 8.71875 250.042969 8.699219 C 250.058594 8.683594 250.082031 8.671875 250.109375 8.671875 L 253.453125 8.671875 C 253.507812 8.671875 253.546875 8.714844 253.546875 8.769531 L 253.554688 24.492188 C 253.554688 24.601562 253.582031 24.609375 253.632812 24.511719 Z M 253.632812 24.511719 "/>
<path style=" stroke:none;fill-rule:nonzero;fill:rgb(20.784314%,27.058824%,30.196078%);fill-opacity:1;" d="M 217.332031 34.386719 C 217.320312 34.394531 217.308594 34.40625 217.304688 34.421875 C 217.300781 34.4375 217.300781 34.453125 217.3125 34.46875 C 218.203125 35.675781 219.289062 36.785156 220.5625 37.792969 C 223.988281 40.5 229.230469 42.078125 233.082031 39.171875 C 234.023438 38.460938 234.796875 37.652344 235.40625 36.742188 C 235.417969 36.722656 235.4375 36.714844 235.457031 36.710938 C 235.476562 36.710938 235.5 36.71875 235.511719 36.734375 L 236.015625 37.320312 C 236.046875 37.355469 236.046875 37.390625 236.019531 37.425781 C 233.058594 41.503906 227.671875 43.125 222.824219 42.25 C 218.015625 41.378906 214.328125 37.746094 213.328125 33.050781 C 211.863281 26.167969 215.742188 19.457031 222.800781 18.03125 C 225.464844 17.492188 228.476562 17.761719 230.855469 19.085938 C 232.476562 19.988281 233.792969 21.230469 234.808594 22.8125 C 235.464844 23.828125 235.980469 24.925781 236.359375 26.105469 C 236.378906 26.164062 236.359375 26.207031 236.300781 26.230469 Z M 230.964844 23.214844 C 228.417969 20.308594 224.746094 18.34375 220.941406 19.546875 C 219.226562 20.089844 217.578125 21.320312 216.488281 22.707031 C 213.867188 26.035156 214.53125 30.140625 216.707031 33.519531 C 216.742188 33.570312 216.785156 33.585938 216.839844 33.558594 L 232.863281 26.734375 C 232.882812 26.726562 232.890625 26.710938 232.882812 26.691406 C 232.464844 25.355469 231.828125 24.195312 230.964844 23.214844 Z M 230.964844 23.214844 "/>
<path style=" stroke:none;fill-rule:nonzero;fill:rgb(20.784314%,27.058824%,30.196078%);fill-opacity:1;" d="M 23.796875 38.371094 C 23.792969 38.355469 23.785156 38.34375 23.777344 38.339844 C 23.765625 38.335938 23.75 38.335938 23.742188 38.34375 C 21.03125 40.726562 17.832031 42.132812 14.148438 42.558594 C 12.265625 42.773438 10.128906 42.566406 8.410156 41.707031 C 5.949219 40.472656 4.804688 38.101562 5.167969 35.382812 C 5.796875 30.703125 11.09375 28.621094 15.191406 27.902344 C 17.910156 27.429688 20.75 27.132812 23.703125 27.023438 C 23.746094 27.019531 23.78125 26.984375 23.785156 26.941406 C 23.828125 24.480469 23.335938 21.414062 21.179688 20.035156 C 20.34375 19.503906 19.277344 19.164062 17.976562 19.011719 C 15.128906 18.6875 12.4375 19.316406 9.898438 20.902344 C 9.085938 21.410156 8.035156 22.257812 7.597656 23.152344 C 7.554688 23.234375 7.515625 23.234375 7.472656 23.152344 L 7.078125 22.359375 C 7.03125 22.269531 7.042969 22.183594 7.113281 22.105469 C 9.5625 19.363281 13.222656 18.140625 17 18.070312 C 18.433594 18.046875 19.800781 18.164062 21.097656 18.421875 C 23.652344 18.9375 25.707031 20.417969 26.621094 22.878906 C 27.101562 24.171875 27.347656 25.539062 27.359375 26.984375 C 27.394531 30.851562 27.398438 35.882812 27.375 42.078125 C 27.375 42.136719 27.347656 42.167969 27.289062 42.167969 L 23.855469 42.167969 C 23.824219 42.167969 23.796875 42.140625 23.796875 42.105469 Z M 9.183594 33.019531 C 8.566406 34.511719 8.480469 36.085938 8.925781 37.742188 C 9.628906 40.359375 11.953125 41.507812 14.542969 41.429688 C 18.046875 41.328125 21.253906 39.636719 23.726562 37.160156 C 23.773438 37.113281 23.796875 37.058594 23.796875 36.992188 L 23.796875 27.964844 C 23.796875 27.910156 23.765625 27.882812 23.710938 27.882812 C 21.207031 27.957031 18.824219 28.175781 16.558594 28.539062 C 13.65625 29.007812 10.332031 30.21875 9.183594 33.019531 Z M 9.183594 33.019531 "/>
<path style=" stroke:none;fill-rule:nonzero;fill:rgb(20.784314%,27.058824%,30.196078%);fill-opacity:1;" d="M 46.429688 24.421875 C 46.429688 24.617188 46.46875 24.625 46.546875 24.449219 C 48.113281 21.015625 51.324219 18.742188 55.019531 18.199219 C 56.519531 17.980469 58.105469 18.019531 59.773438 18.324219 C 63.636719 19.027344 65.855469 21.511719 66.570312 25.296875 C 66.886719 26.949219 67.042969 28.679688 67.042969 30.488281 C 67.042969 34.691406 67.042969 38.550781 67.050781 42.074219 C 67.050781 42.136719 67.019531 42.167969 66.957031 42.167969 L 63.589844 42.167969 C 63.535156 42.167969 63.507812 42.140625 63.507812 42.082031 C 63.511719 37.679688 63.507812 33.136719 63.5 28.457031 C 63.5 26.832031 63.292969 25.292969 62.882812 23.828125 C 62.25 21.5625 60.746094 19.828125 58.414062 19.265625 C 55.308594 18.523438 52.054688 19.550781 49.734375 21.699219 C 47.535156 23.734375 46.433594 26.25 46.433594 29.25 C 46.425781 33.640625 46.425781 37.914062 46.433594 42.066406 C 46.433594 42.132812 46.398438 42.167969 46.332031 42.167969 L 43.007812 42.167969 C 42.929688 42.167969 42.886719 42.128906 42.886719 42.046875 L 42.890625 18.367188 C 42.890625 18.289062 42.929688 18.25 43.007812 18.25 L 46.335938 18.25 C 46.398438 18.25 46.429688 18.277344 46.429688 18.339844 Z M 46.429688 24.421875 "/>
<path style=" stroke:none;fill-rule:nonzero;fill:rgb(20.784314%,27.058824%,30.196078%);fill-opacity:1;" d="M 85.222656 24.449219 C 85.222656 24.648438 85.261719 24.65625 85.339844 24.472656 C 86.808594 21.03125 90.164062 18.753906 93.8125 18.203125 C 96.128906 17.851562 99.097656 18.113281 101.238281 19.214844 C 105.347656 21.328125 105.808594 26.359375 105.828125 30.503906 C 105.84375 34.476562 105.847656 38.332031 105.835938 42.074219 C 105.835938 42.125 105.792969 42.167969 105.742188 42.167969 L 102.410156 42.167969 C 102.339844 42.167969 102.304688 42.132812 102.304688 42.058594 C 102.300781 37.765625 102.300781 33.246094 102.296875 28.5 C 102.292969 26.882812 102.09375 25.34375 101.691406 23.882812 C 101.082031 21.65625 99.605469 19.886719 97.347656 19.304688 C 94.179688 18.488281 90.875 19.519531 88.496094 21.726562 C 86.3125 23.757812 85.222656 26.273438 85.222656 29.285156 C 85.222656 33.457031 85.222656 37.71875 85.21875 42.070312 C 85.21875 42.136719 85.1875 42.167969 85.125 42.167969 L 81.785156 42.167969 C 81.714844 42.167969 81.683594 42.132812 81.683594 42.0625 L 81.679688 18.324219 C 81.679688 18.273438 81.707031 18.25 81.757812 18.25 L 85.132812 18.25 C 85.191406 18.25 85.222656 18.277344 85.222656 18.339844 Z M 85.222656 24.449219 "/>
<path style=" stroke:none;fill-rule:nonzero;fill:rgb(20.784314%,27.058824%,30.196078%);fill-opacity:1;" d="M 137.503906 38.371094 C 137.503906 38.359375 137.496094 38.347656 137.484375 38.339844 C 137.472656 38.335938 137.460938 38.339844 137.449219 38.347656 C 134.71875 40.738281 131.519531 42.140625 127.855469 42.554688 C 124.824219 42.898438 121.222656 42.203125 119.566406 39.351562 C 119.039062 38.4375 118.789062 37.390625 118.8125 36.210938 C 118.945312 29.824219 126.773438 28.066406 131.644531 27.488281 C 133.394531 27.277344 135.316406 27.117188 137.40625 27.007812 C 137.460938 27.003906 137.488281 26.976562 137.488281 26.921875 C 137.515625 25.773438 137.386719 24.617188 137.105469 23.445312 C 136.726562 21.863281 135.960938 20.707031 134.808594 19.984375 C 134.023438 19.488281 132.980469 19.167969 131.683594 19.015625 C 128.847656 18.679688 126.132812 19.320312 123.546875 20.9375 C 122.699219 21.464844 121.933594 22.207031 121.246094 23.164062 C 121.222656 23.195312 121.203125 23.195312 121.1875 23.160156 L 120.738281 22.261719 C 120.722656 22.234375 120.726562 22.210938 120.746094 22.191406 C 123.183594 19.382812 126.929688 18.140625 130.703125 18.070312 C 132.15625 18.042969 133.542969 18.167969 134.867188 18.441406 C 137.378906 18.964844 139.34375 20.378906 140.292969 22.78125 C 140.964844 24.492188 141.09375 26.277344 141.09375 28.132812 C 141.089844 32.800781 141.089844 37.445312 141.09375 42.070312 C 141.09375 42.136719 141.0625 42.167969 140.996094 42.167969 L 137.546875 42.167969 C 137.523438 42.167969 137.503906 42.148438 137.503906 42.125 Z M 130.292969 28.53125 C 127.101562 29.035156 123.292969 30.492188 122.550781 34.050781 C 122.285156 35.320312 122.304688 36.527344 122.605469 37.664062 C 123.300781 40.304688 125.585938 41.492188 128.175781 41.433594 C 131.710938 41.351562 134.964844 39.648438 137.441406 37.148438 C 137.484375 37.105469 137.503906 37.054688 137.503906 36.996094 L 137.503906 27.964844 C 137.503906 27.90625 137.472656 27.878906 137.414062 27.878906 C 134.882812 27.964844 132.507812 28.183594 130.292969 28.53125 Z M 130.292969 28.53125 "/>
<path style=" stroke:none;fill-rule:nonzero;fill:rgb(20.784314%,27.058824%,30.196078%);fill-opacity:1;" d="M 200.382812 18.25 L 201.421875 18.25 C 201.4375 18.25 201.453125 18.257812 201.460938 18.273438 C 201.472656 18.285156 201.472656 18.304688 201.464844 18.320312 L 189.636719 42.414062 C 189.625 42.429688 189.609375 42.441406 189.589844 42.441406 C 189.570312 42.441406 189.554688 42.429688 189.546875 42.414062 L 177.714844 18.320312 C 177.707031 18.304688 177.707031 18.285156 177.71875 18.273438 C 177.726562 18.257812 177.742188 18.25 177.761719 18.25 L 181.667969 18.25 C 181.6875 18.25 181.703125 18.261719 181.714844 18.277344 L 190.980469 37.246094 C 190.988281 37.265625 191.003906 37.273438 191.023438 37.273438 C 191.042969 37.273438 191.0625 37.265625 191.070312 37.246094 L 200.339844 18.277344 C 200.347656 18.257812 200.363281 18.25 200.382812 18.25 Z M 200.382812 18.25 "/>
<path style=" stroke:none;fill-rule:nonzero;fill:rgb(20.784314%,27.058824%,30.196078%);fill-opacity:1;" d="M 288.863281 18.25 L 292.285156 18.25 C 292.320312 18.25 292.34375 18.273438 292.34375 18.308594 L 292.34375 42.105469 C 292.34375 42.140625 292.320312 42.164062 292.285156 42.164062 L 288.863281 42.164062 C 288.832031 42.164062 288.804688 42.140625 288.804688 42.105469 L 288.804688 18.308594 C 288.804688 18.273438 288.832031 18.25 288.863281 18.25 Z M 288.863281 18.25 "/>
<path style=" stroke:none;fill-rule:nonzero;fill:rgb(88.235294%,86.27451%,85.098039%);fill-opacity:1;" d="M 220.941406 19.546875 C 224.746094 18.34375 228.417969 20.308594 230.964844 23.214844 C 231.828125 24.195312 232.464844 25.355469 232.882812 26.691406 C 232.890625 26.710938 232.882812 26.726562 232.863281 26.734375 L 216.839844 33.558594 C 216.785156 33.585938 216.742188 33.570312 216.707031 33.519531 C 214.53125 30.140625 213.867188 26.035156 216.488281 22.707031 C 217.578125 21.320312 219.226562 20.089844 220.941406 19.546875 Z M 220.941406 19.546875 "/>
<path style=" stroke:none;fill-rule:nonzero;fill:rgb(88.235294%,86.27451%,85.098039%);fill-opacity:1;" d="M 9.183594 33.019531 C 10.332031 30.21875 13.65625 29.007812 16.558594 28.539062 C 18.824219 28.175781 21.207031 27.957031 23.710938 27.882812 C 23.765625 27.882812 23.796875 27.910156 23.796875 27.964844 L 23.796875 36.992188 C 23.796875 37.058594 23.773438 37.113281 23.726562 37.160156 C 21.253906 39.636719 18.046875 41.328125 14.542969 41.429688 C 11.953125 41.507812 9.628906 40.359375 8.925781 37.742188 C 8.480469 36.085938 8.566406 34.511719 9.183594 33.019531 Z M 9.183594 33.019531 "/>
<path style=" stroke:none;fill-rule:nonzero;fill:rgb(88.235294%,86.27451%,85.098039%);fill-opacity:1;" d="M 122.550781 34.050781 C 123.292969 30.492188 127.101562 29.035156 130.292969 28.53125 C 132.507812 28.183594 134.882812 27.964844 137.414062 27.878906 C 137.472656 27.878906 137.503906 27.90625 137.503906 27.964844 L 137.503906 36.996094 C 137.503906 37.054688 137.484375 37.105469 137.441406 37.148438 C 134.964844 39.648438 131.710938 41.351562 128.175781 41.433594 C 125.585938 41.492188 123.300781 40.304688 122.605469 37.664062 C 122.304688 36.527344 122.285156 35.320312 122.550781 34.050781 Z M 122.550781 34.050781 "/>
<path style=" stroke:none;fill-rule:nonzero;fill:rgb(20.784314%,27.058824%,30.196078%);fill-opacity:1;" d="M 291.84375 69.441406 L 289.367188 72.554688 C 289.355469 72.566406 289.339844 72.574219 289.324219 72.574219 L 288.628906 72.570312 C 288.609375 72.570312 288.59375 72.5625 288.582031 72.542969 C 288.574219 72.527344 288.574219 72.507812 288.585938 72.488281 L 290.617188 69.378906 C 290.628906 69.367188 290.644531 69.355469 290.660156 69.355469 L 291.804688 69.355469 C 291.824219 69.355469 291.84375 69.367188 291.851562 69.386719 C 291.859375 69.40625 291.859375 69.425781 291.84375 69.441406 Z M 291.84375 69.441406 "/>
<path style=" stroke:none;fill-rule:nonzero;fill:rgb(20.784314%,27.058824%,30.196078%);fill-opacity:1;" d="M 130.941406 82.171875 C 130.941406 82.050781 130.90625 82.039062 130.835938 82.140625 C 130.433594 82.699219 129.90625 83.160156 129.25 83.519531 C 127.167969 84.664062 124.617188 84.351562 123.082031 82.527344 C 121.480469 80.625 121.5 77.628906 123.152344 75.824219 C 124.964844 73.84375 127.898438 73.796875 129.976562 75.402344 C 130.335938 75.679688 130.585938 76.019531 130.875 76.359375 C 130.929688 76.425781 130.960938 76.414062 130.960938 76.328125 L 130.960938 70.195312 C 130.960938 70.179688 130.96875 70.171875 130.988281 70.171875 L 132.046875 70.164062 C 132.078125 70.164062 132.089844 70.179688 132.089844 70.210938 L 132.089844 83.96875 C 132.089844 83.988281 132.082031 84 132.0625 84 L 130.976562 84 C 130.949219 84 130.9375 83.988281 130.9375 83.960938 Z M 128.472656 82.921875 C 130.519531 82.121094 131.523438 79.804688 130.71875 77.75 C 129.910156 75.695312 127.601562 74.675781 125.558594 75.480469 C 123.511719 76.28125 122.507812 78.597656 123.3125 80.652344 C 124.117188 82.707031 126.429688 83.722656 128.472656 82.921875 Z M 128.472656 82.921875 "/>
<path style=" stroke:none;fill-rule:nonzero;fill:rgb(20.784314%,27.058824%,30.196078%);fill-opacity:1;" d="M 244.769531 71.082031 C 244.769531 71.53125 244.402344 71.894531 243.953125 71.894531 C 243.503906 71.894531 243.140625 71.53125 243.140625 71.082031 C 243.140625 70.632812 243.503906 70.269531 243.953125 70.269531 C 244.402344 70.269531 244.769531 70.632812 244.769531 71.082031 Z M 244.769531 71.082031 "/>
<path style=" stroke:none;fill-rule:nonzero;fill:rgb(20.784314%,27.058824%,30.196078%);fill-opacity:1;" d="M 274.101562 71.082031 C 274.101562 71.53125 273.738281 71.894531 273.289062 71.894531 C 272.839844 71.894531 272.476562 71.53125 272.476562 71.082031 C 272.476562 70.632812 272.839844 70.269531 273.289062 70.269531 C 273.738281 70.269531 274.101562 70.632812 274.101562 71.082031 Z M 274.101562 71.082031 "/>
<path style=" stroke:none;fill-rule:nonzero;fill:rgb(20.784314%,27.058824%,30.196078%);fill-opacity:1;" d="M 62.75 75.640625 L 62.75 83.941406 C 62.75 83.976562 62.726562 84 62.695312 84 L 61.648438 84 C 61.617188 84 61.589844 83.976562 61.589844 83.941406 L 61.589844 75.640625 C 61.589844 75.609375 61.566406 75.585938 61.535156 75.585938 L 59.644531 75.585938 C 59.613281 75.585938 59.585938 75.558594 59.585938 75.527344 L 59.585938 74.726562 C 59.585938 74.695312 59.609375 74.667969 59.640625 74.667969 L 61.535156 74.671875 C 61.566406 74.671875 61.589844 74.644531 61.589844 74.613281 L 61.589844 70.449219 C 61.589844 70.417969 61.617188 70.390625 61.648438 70.390625 L 62.691406 70.390625 C 62.726562 70.390625 62.75 70.417969 62.75 70.449219 L 62.75 74.613281 C 62.75 74.644531 62.777344 74.667969 62.808594 74.667969 L 65.617188 74.671875 C 65.648438 74.671875 65.671875 74.695312 65.671875 74.726562 L 65.675781 75.527344 C 65.675781 75.558594 65.648438 75.585938 65.617188 75.585938 L 62.808594 75.585938 C 62.777344 75.585938 62.75 75.609375 62.75 75.640625 Z M 62.75 75.640625 "/>
<path style=" stroke:none;fill-rule:nonzero;fill:rgb(20.784314%,27.058824%,30.196078%);fill-opacity:1;" d="M 215.917969 75.699219 L 215.917969 83.957031 C 215.917969 83.984375 215.902344 84 215.875 84 L 214.796875 84 C 214.773438 84 214.757812 83.980469 214.757812 83.960938 L 214.757812 75.671875 C 214.757812 75.613281 214.726562 75.585938 214.671875 75.585938 L 212.835938 75.585938 C 212.78125 75.585938 212.753906 75.558594 212.753906 75.503906 L 212.75 74.75 C 212.75 74.695312 212.777344 74.667969 212.832031 74.667969 L 214.664062 74.671875 C 214.726562 74.671875 214.757812 74.640625 214.757812 74.578125 L 214.757812 70.464844 C 214.757812 70.425781 214.789062 70.394531 214.828125 70.394531 L 215.859375 70.394531 C 215.890625 70.394531 215.917969 70.417969 215.917969 70.453125 L 215.917969 74.625 C 215.917969 74.65625 215.933594 74.667969 215.960938 74.667969 L 218.789062 74.671875 C 218.824219 74.671875 218.839844 74.6875 218.839844 74.71875 C 218.839844 75.261719 218.839844 75.535156 218.839844 75.539062 C 218.839844 75.570312 218.824219 75.585938 218.796875 75.585938 C 217.933594 75.585938 217.011719 75.585938 216.035156 75.582031 C 215.957031 75.582031 215.917969 75.621094 215.917969 75.699219 Z M 215.917969 75.699219 "/>
<path style=" stroke:none;fill-rule:nonzero;fill:rgb(20.784314%,27.058824%,30.196078%);fill-opacity:1;" d="M 23.660156 81 C 23.882812 81.316406 24.046875 81.671875 24.316406 81.945312 C 25.832031 83.5 28.199219 83.640625 29.894531 82.195312 C 29.90625 82.183594 29.925781 82.179688 29.941406 82.183594 C 29.960938 82.183594 29.976562 82.195312 29.984375 82.207031 L 30.511719 82.953125 C 30.527344 82.96875 30.527344 82.988281 30.507812 83 C 28.894531 84.175781 27.199219 84.476562 25.417969 83.90625 C 24.390625 83.578125 23.367188 82.726562 22.820312 81.773438 C 21.425781 79.351562 22.246094 76.355469 24.746094 74.886719 C 25.472656 74.457031 26.296875 74.246094 27.210938 74.246094 C 29.421875 74.25 30.996094 75.699219 31.652344 77.726562 C 31.671875 77.789062 31.652344 77.828125 31.59375 77.851562 L 23.691406 80.90625 C 23.671875 80.910156 23.65625 80.925781 23.652344 80.945312 C 23.644531 80.964844 23.648438 80.984375 23.660156 81 Z M 23.625 77.53125 C 23.292969 78.246094 23.199219 79.058594 23.335938 79.972656 C 23.347656 80.046875 23.386719 80.074219 23.460938 80.046875 L 30.207031 77.398438 C 30.273438 77.371094 30.289062 77.328125 30.257812 77.265625 C 29.632812 76.089844 28.542969 75.175781 27.191406 75.21875 C 25.496094 75.273438 24.308594 76.046875 23.625 77.53125 Z M 23.625 77.53125 "/>
<path style=" stroke:none;fill-rule:nonzero;fill:rgb(20.784314%,27.058824%,30.196078%);fill-opacity:1;" d="M 90.804688 81.015625 C 91.578125 82.414062 92.707031 83.136719 94.1875 83.191406 C 95.203125 83.226562 96.144531 82.902344 97.011719 82.210938 C 97.027344 82.199219 97.050781 82.191406 97.074219 82.195312 C 97.097656 82.199219 97.117188 82.210938 97.128906 82.230469 L 97.605469 82.90625 C 97.636719 82.953125 97.632812 82.992188 97.585938 83.027344 C 95.53125 84.558594 92.730469 84.640625 90.820312 82.855469 C 89.992188 82.082031 89.503906 81.160156 89.347656 80.09375 C 89.175781 78.929688 89.339844 77.894531 89.832031 76.984375 C 90.726562 75.335938 92.386719 74.25 94.304688 74.246094 C 96.554688 74.238281 98.066406 75.671875 98.785156 77.71875 C 98.804688 77.78125 98.785156 77.824219 98.722656 77.851562 L 90.847656 80.890625 C 90.785156 80.917969 90.769531 80.957031 90.804688 81.015625 Z M 97.378906 77.269531 C 96.761719 76.117188 95.769531 75.265625 94.488281 75.222656 C 92.988281 75.167969 91.601562 75.898438 90.894531 77.21875 C 90.449219 78.046875 90.308594 78.96875 90.46875 79.980469 C 90.480469 80.050781 90.519531 80.070312 90.582031 80.046875 L 97.332031 77.398438 C 97.394531 77.371094 97.414062 77.328125 97.378906 77.269531 Z M 97.378906 77.269531 "/>
<path style=" stroke:none;fill-rule:nonzero;fill:rgb(20.784314%,27.058824%,30.196078%);fill-opacity:1;" d="M 143.703125 80.976562 C 144.4375 82.34375 145.519531 83.078125 146.949219 83.179688 C 148.050781 83.253906 149.035156 82.933594 149.910156 82.21875 C 149.929688 82.203125 149.953125 82.195312 149.980469 82.199219 C 150.007812 82.199219 150.03125 82.214844 150.046875 82.238281 L 150.519531 82.902344 C 150.554688 82.953125 150.546875 82.996094 150.5 83.03125 C 148.386719 84.589844 145.5 84.632812 143.628906 82.757812 C 142.941406 82.066406 142.507812 81.292969 142.324219 80.425781 C 141.839844 78.167969 142.773438 76.085938 144.769531 74.898438 C 146.363281 73.949219 148.597656 74.011719 150.027344 75.207031 C 150.800781 75.851562 151.355469 76.6875 151.695312 77.726562 C 151.714844 77.785156 151.695312 77.828125 151.636719 77.851562 L 143.730469 80.90625 C 143.71875 80.910156 143.707031 80.921875 143.703125 80.933594 C 143.695312 80.949219 143.699219 80.964844 143.703125 80.976562 Z M 144.566406 76.25 C 143.527344 77.199219 143.183594 78.558594 143.378906 79.976562 C 143.390625 80.050781 143.433594 80.074219 143.5 80.046875 L 150.296875 77.382812 C 150.324219 77.371094 150.335938 77.347656 150.320312 77.316406 C 149.804688 76.25 148.785156 75.328125 147.566406 75.238281 C 146.402344 75.148438 145.402344 75.484375 144.566406 76.25 Z M 144.566406 76.25 "/>
<path style=" stroke:none;fill-rule:nonzero;fill:rgb(20.784314%,27.058824%,30.196078%);fill-opacity:1;" d="M 293.914062 78.183594 C 294.480469 80.875 292.730469 83.523438 290 84.097656 C 287.273438 84.675781 284.601562 82.957031 284.035156 80.265625 C 283.464844 77.570312 285.21875 74.921875 287.945312 74.347656 C 290.675781 73.773438 293.34375 75.488281 293.914062 78.183594 Z M 288.835938 83.210938 C 290.972656 83.285156 292.765625 81.558594 292.835938 79.359375 C 292.910156 77.160156 291.238281 75.316406 289.101562 75.246094 C 286.964844 75.175781 285.175781 76.902344 285.101562 79.101562 C 285.027344 81.300781 286.703125 83.140625 288.835938 83.210938 Z M 288.835938 83.210938 "/>
<path style=" stroke:none;fill-rule:nonzero;fill:rgb(20.784314%,27.058824%,30.196078%);fill-opacity:1;" d="M 42.71875 76.523438 C 43.296875 75.316406 44.53125 74.566406 45.839844 74.351562 C 47.339844 74.109375 48.796875 74.558594 49.402344 76.027344 C 49.570312 76.425781 49.648438 76.941406 49.644531 77.570312 C 49.632812 79.671875 49.628906 81.796875 49.636719 83.945312 C 49.636719 83.976562 49.613281 84 49.582031 84 L 48.519531 83.996094 C 48.496094 83.996094 48.488281 83.984375 48.488281 83.964844 C 48.472656 81.992188 48.472656 79.996094 48.488281 77.976562 C 48.496094 76.726562 48.082031 75.464844 46.625 75.3125 C 45.003906 75.140625 43.53125 76.082031 42.957031 77.589844 C 42.757812 78.121094 42.667969 78.964844 42.691406 80.128906 C 42.71875 81.300781 42.71875 82.582031 42.695312 83.96875 C 42.695312 83.988281 42.683594 84 42.664062 84 L 41.613281 84 C 41.585938 84 41.570312 83.984375 41.570312 83.953125 L 41.570312 74.589844 C 41.570312 74.5625 41.585938 74.546875 41.617188 74.546875 L 42.511719 74.546875 C 42.542969 74.546875 42.5625 74.5625 42.5625 74.59375 L 42.644531 76.503906 C 42.648438 76.613281 42.671875 76.617188 42.71875 76.523438 Z M 42.71875 76.523438 "/>
<path style=" stroke:none;fill-rule:nonzero;fill:rgb(20.784314%,27.058824%,30.196078%);fill-opacity:1;" d="M 76.3125 76.675781 C 76.316406 76.765625 76.339844 76.769531 76.378906 76.691406 C 77.097656 75.261719 78.675781 74.382812 80.21875 74.289062 C 80.277344 74.285156 80.304688 74.3125 80.304688 74.371094 L 80.265625 75.335938 C 80.261719 75.394531 80.234375 75.421875 80.175781 75.421875 C 79.175781 75.4375 78.308594 75.761719 77.570312 76.398438 C 76.789062 77.078125 76.394531 77.980469 76.382812 79.109375 C 76.367188 80.734375 76.367188 82.351562 76.375 83.957031 C 76.375 83.980469 76.355469 84 76.332031 84 L 75.261719 84 C 75.246094 84 75.238281 83.988281 75.238281 83.972656 L 75.238281 74.589844 C 75.238281 74.5625 75.253906 74.546875 75.285156 74.546875 L 76.179688 74.546875 C 76.210938 74.546875 76.226562 74.5625 76.226562 74.59375 Z M 76.3125 76.675781 "/>
<path style=" stroke:none;fill-rule:nonzero;fill:rgb(20.784314%,27.058824%,30.196078%);fill-opacity:1;" d="M 176.886719 76.523438 C 177.210938 75.863281 177.695312 75.339844 178.339844 74.957031 C 180.046875 73.945312 182.75 73.910156 183.589844 76.074219 C 183.746094 76.476562 183.820312 77.03125 183.8125 77.75 C 183.796875 79.894531 183.792969 81.964844 183.804688 83.960938 C 183.804688 83.984375 183.792969 84 183.769531 84 L 182.683594 84 C 182.660156 84 182.648438 83.988281 182.648438 83.964844 C 182.644531 81.9375 182.644531 79.917969 182.648438 77.914062 C 182.65625 76.21875 181.855469 75.105469 180 75.320312 C 178.667969 75.476562 177.621094 76.339844 177.117188 77.582031 C 176.925781 78.058594 176.839844 78.910156 176.863281 80.148438 C 176.886719 81.375 176.886719 82.648438 176.863281 83.96875 C 176.863281 83.988281 176.851562 84 176.832031 84 L 175.785156 84 C 175.753906 84 175.738281 83.984375 175.738281 83.953125 L 175.738281 74.589844 C 175.738281 74.5625 175.753906 74.546875 175.785156 74.546875 L 176.679688 74.546875 C 176.710938 74.546875 176.726562 74.5625 176.726562 74.59375 L 176.808594 76.507812 C 176.8125 76.613281 176.839844 76.617188 176.886719 76.523438 Z M 176.886719 76.523438 "/>
<path style=" stroke:none;fill-rule:nonzero;fill:rgb(20.784314%,27.058824%,30.196078%);fill-opacity:1;" d="M 229.566406 76.648438 C 230.277344 75.257812 231.855469 74.382812 233.386719 74.289062 C 233.445312 74.285156 233.472656 74.3125 233.46875 74.375 L 233.429688 75.335938 C 233.429688 75.390625 233.398438 75.417969 233.34375 75.421875 C 231.710938 75.457031 230.148438 76.417969 229.699219 78.015625 C 229.574219 78.460938 229.519531 79.058594 229.527344 79.8125 C 229.546875 81.214844 229.546875 82.601562 229.53125 83.96875 C 229.53125 83.988281 229.519531 84 229.5 84 L 228.433594 84 C 228.414062 84 228.402344 83.988281 228.402344 83.96875 L 228.40625 74.589844 C 228.40625 74.5625 228.421875 74.546875 228.449219 74.546875 L 229.34375 74.546875 C 229.378906 74.546875 229.394531 74.5625 229.394531 74.59375 L 229.476562 76.628906 C 229.484375 76.753906 229.511719 76.757812 229.566406 76.648438 Z M 229.566406 76.648438 "/>
<path style=" stroke:none;fill-rule:nonzero;fill:rgb(20.784314%,27.058824%,30.196078%);fill-opacity:1;" d="M 7.863281 75.949219 C 6.472656 76.910156 5.863281 78.609375 6.261719 80.25 C 6.945312 83.0625 10.269531 84.058594 12.527344 82.402344 C 12.550781 82.382812 12.574219 82.386719 12.589844 82.40625 L 13.160156 83.039062 C 13.183594 83.0625 13.179688 83.082031 13.15625 83.101562 C 11.238281 84.578125 8.46875 84.558594 6.675781 82.988281 C 5.140625 81.648438 4.636719 79.660156 5.207031 77.753906 C 5.414062 77.0625 5.796875 76.433594 6.351562 75.863281 C 7.738281 74.4375 9.496094 74.015625 11.617188 74.589844 C 12.132812 74.734375 12.65625 75.011719 13.183594 75.429688 C 13.203125 75.445312 13.207031 75.464844 13.191406 75.488281 L 12.640625 76.1875 C 12.617188 76.214844 12.59375 76.214844 12.566406 76.195312 C 11.171875 75.125 9.308594 74.953125 7.863281 75.949219 Z M 7.863281 75.949219 "/>
<path style=" stroke:none;fill-rule:nonzero;fill:rgb(20.784314%,27.058824%,30.196078%);fill-opacity:1;" d="M 257.285156 83.652344 C 256.75 83.398438 256.246094 83 255.769531 82.457031 C 254.078125 80.523438 254.253906 77.480469 256.113281 75.722656 C 257.476562 74.4375 259.140625 74.046875 261.101562 74.550781 C 261.71875 74.710938 262.289062 75.003906 262.800781 75.429688 C 262.820312 75.445312 262.824219 75.472656 262.808594 75.492188 C 262.800781 75.503906 262.621094 75.734375 262.273438 76.191406 C 262.253906 76.214844 262.230469 76.214844 262.207031 76.199219 C 260.230469 74.714844 257.609375 75.058594 256.3125 77.21875 C 255.632812 78.355469 255.585938 79.851562 256.175781 81.042969 C 257.296875 83.300781 260.125 83.851562 262.140625 82.410156 C 262.15625 82.398438 262.171875 82.398438 262.1875 82.410156 C 262.296875 82.488281 262.503906 82.707031 262.808594 83.066406 C 262.820312 83.089844 262.820312 83.105469 262.796875 83.117188 C 260.976562 84.347656 259.140625 84.527344 257.285156 83.652344 Z M 257.285156 83.652344 "/>
<path style=" stroke:none;fill-rule:nonzero;fill:rgb(20.784314%,27.058824%,30.196078%);fill-opacity:1;" d="M 201.65625 82.144531 C 200.976562 83.277344 199.910156 83.964844 198.453125 84.210938 C 196.515625 84.539062 194.84375 83.398438 194.832031 81.375 C 194.820312 79.132812 194.816406 76.875 194.820312 74.601562 C 194.820312 74.566406 194.839844 74.546875 194.875 74.546875 L 195.910156 74.546875 C 195.9375 74.546875 195.949219 74.558594 195.949219 74.585938 C 195.960938 76.457031 195.960938 78.441406 195.945312 80.539062 C 195.941406 81.433594 196.085938 82.3125 196.828125 82.835938 C 197.136719 83.050781 197.472656 83.179688 197.84375 83.21875 C 198.980469 83.339844 199.949219 82.949219 200.757812 82.046875 C 201.511719 81.203125 201.6875 80.21875 201.683594 79.007812 C 201.675781 77.472656 201.671875 76.007812 201.679688 74.617188 C 201.679688 74.578125 201.710938 74.546875 201.75 74.546875 L 202.757812 74.546875 C 202.800781 74.546875 202.820312 74.566406 202.820312 74.605469 L 202.820312 83.964844 C 202.820312 83.988281 202.808594 84 202.785156 84 L 201.839844 84 C 201.8125 84 201.800781 83.988281 201.800781 83.960938 L 201.738281 82.164062 C 201.734375 82.0625 201.707031 82.058594 201.65625 82.144531 Z M 201.65625 82.144531 "/>
<path style=" stroke:none;fill-rule:nonzero;fill:rgb(20.784314%,27.058824%,30.196078%);fill-opacity:1;" d="M 243.441406 74.546875 L 244.417969 74.546875 C 244.460938 74.546875 244.5 74.582031 244.5 74.625 L 244.5 83.917969 C 244.5 83.960938 244.460938 84 244.417969 84 L 243.441406 84 C 243.398438 84 243.363281 83.960938 243.363281 83.917969 L 243.363281 74.625 C 243.363281 74.582031 243.398438 74.546875 243.441406 74.546875 Z M 243.441406 74.546875 "/>
<path style=" stroke:none;fill-rule:nonzero;fill:rgb(20.784314%,27.058824%,30.196078%);fill-opacity:1;" d="M 272.777344 74.546875 L 273.75 74.546875 C 273.796875 74.546875 273.832031 74.582031 273.832031 74.625 L 273.832031 83.917969 C 273.832031 83.960938 273.796875 84 273.75 84 L 272.777344 84 C 272.730469 84 272.695312 83.960938 272.695312 83.917969 L 272.695312 74.625 C 272.695312 74.582031 272.730469 74.546875 272.777344 74.546875 Z M 272.777344 74.546875 "/>
<path style=" stroke:none;fill-rule:nonzero;fill:rgb(88.235294%,86.27451%,85.098039%);fill-opacity:1;" d="M 23.625 77.53125 C 24.308594 76.046875 25.496094 75.273438 27.191406 75.21875 C 28.542969 75.175781 29.632812 76.089844 30.257812 77.265625 C 30.289062 77.328125 30.273438 77.371094 30.207031 77.398438 L 23.460938 80.046875 C 23.386719 80.074219 23.347656 80.046875 23.335938 79.972656 C 23.199219 79.058594 23.292969 78.246094 23.625 77.53125 Z M 23.625 77.53125 "/>
<path style=" stroke:none;fill-rule:nonzero;fill:rgb(88.235294%,86.27451%,85.098039%);fill-opacity:1;" d="M 94.488281 75.222656 C 95.769531 75.265625 96.761719 76.117188 97.378906 77.269531 C 97.414062 77.328125 97.394531 77.371094 97.332031 77.398438 L 90.582031 80.046875 C 90.519531 80.070312 90.480469 80.050781 90.46875 79.980469 C 90.308594 78.96875 90.449219 78.046875 90.894531 77.21875 C 91.601562 75.898438 92.988281 75.167969 94.488281 75.222656 Z M 94.488281 75.222656 "/>
<path style=" stroke:none;fill-rule:nonzero;fill:rgb(88.235294%,86.27451%,85.098039%);fill-opacity:1;" d="M 128.472656 82.921875 C 130.519531 82.121094 131.523438 79.804688 130.71875 77.75 C 129.910156 75.695312 127.601562 74.675781 125.558594 75.480469 C 123.511719 76.28125 122.507812 78.597656 123.3125 80.652344 C 124.117188 82.707031 126.429688 83.722656 128.472656 82.921875 Z M 128.472656 82.921875 "/>
<path style=" stroke:none;fill-rule:nonzero;fill:rgb(88.235294%,86.27451%,85.098039%);fill-opacity:1;" d="M 143.378906 79.976562 C 143.183594 78.558594 143.527344 77.199219 144.566406 76.25 C 145.402344 75.484375 146.402344 75.148438 147.566406 75.238281 C 148.785156 75.328125 149.804688 76.25 150.320312 77.316406 C 150.335938 77.347656 150.324219 77.371094 150.296875 77.382812 L 143.5 80.046875 C 143.433594 80.074219 143.390625 80.050781 143.378906 79.976562 Z M 143.378906 79.976562 "/>
<path style=" stroke:none;fill-rule:nonzero;fill:rgb(88.235294%,86.27451%,85.098039%);fill-opacity:1;" d="M 288.835938 83.210938 C 290.972656 83.285156 292.765625 81.558594 292.835938 79.359375 C 292.910156 77.160156 291.238281 75.316406 289.101562 75.246094 C 286.964844 75.175781 285.175781 76.902344 285.101562 79.101562 C 285.027344 81.300781 286.703125 83.140625 288.835938 83.210938 Z M 288.835938 83.210938 "/>
<path style=" stroke:none;fill-rule:nonzero;fill:rgb(20.784314%,27.058824%,30.196078%);fill-opacity:1;" d="M 149.503906 123.855469 C 150.664062 123.863281 151.613281 122.914062 151.621094 121.730469 C 151.628906 120.546875 150.695312 119.582031 149.535156 119.574219 C 148.371094 119.566406 147.421875 120.515625 147.414062 121.699219 C 147.40625 122.882812 148.339844 123.847656 149.503906 123.855469 Z M 149.503906 123.855469 "/>
</g>
</svg>
