<?xml version="1.0" encoding="UTF-8"?>
<svg xmlns="http://www.w3.org/2000/svg" xmlns:xlink="http://www.w3.org/1999/xlink" width="150px" height="64px" viewBox="0 0 150 64" version="1.1">
<g id="surface1">
<path style="fill:none;stroke-width:2;stroke-linecap:butt;stroke-linejoin:miter;stroke:rgb(54.509804%,56.862745%,57.647059%);stroke-opacity:1;stroke-miterlimit:4;" d="M 1731.328125 76.5 C 1731.234375 76.640625 1731.234375 76.828125 1731.375 76.96875 L 1734.9375 80.53125 C 1735.078125 80.671875 1735.265625 80.671875 1735.453125 80.53125 L 1784.15625 42.5625 C 1784.25 42.515625 1784.296875 42.421875 1784.296875 42.28125 C 1784.296875 42.1875 1784.296875 42.09375 1784.203125 42 L 1769.90625 27.703125 C 1769.8125 27.609375 1769.71875 27.5625 1769.578125 27.5625 C 1769.484375 27.609375 1769.390625 27.65625 1769.296875 27.75 L 1731.328125 76.5 " transform="matrix(0.0833333,0,0,0.0833333,0,0)"/>
<path style="fill:none;stroke-width:2;stroke-linecap:butt;stroke-linejoin:miter;stroke:rgb(54.509804%,56.862745%,57.647059%);stroke-opacity:1;stroke-miterlimit:4;" d="M 1521.796875 147.046875 C 1521.46875 147.65625 1521.328125 147.609375 1521.328125 146.953125 L 1521.28125 52.59375 C 1521.28125 52.3125 1521.046875 52.03125 1520.71875 52.03125 L 1500.65625 52.03125 C 1500.515625 52.03125 1500.375 52.078125 1500.234375 52.21875 C 1500.140625 52.3125 1500.09375 52.453125 1500.09375 52.59375 L 1500.09375 252.515625 C 1500.09375 252.796875 1500.28125 252.984375 1500.5625 252.984375 L 1520.765625 252.984375 C 1521.1875 252.984375 1521.375 252.796875 1521.375 252.375 C 1521.234375 226.171875 1521.234375 200.25 1521.375 174.609375 C 1521.46875 160.921875 1525.59375 148.734375 1533.796875 138.1875 C 1544.296875 124.640625 1560.65625 115.03125 1578.046875 114.1875 C 1598.859375 113.15625 1614.609375 122.953125 1620.1875 143.390625 C 1622.578125 152.25 1623.796875 161.578125 1623.796875 171.234375 C 1623.84375 198.375 1623.84375 225.515625 1623.796875 252.609375 C 1623.796875 252.84375 1623.984375 252.984375 1624.171875 252.984375 L 1644.46875 252.984375 C 1644.796875 252.984375 1644.984375 252.796875 1645.03125 252.46875 C 1645.078125 227.859375 1645.078125 203.8125 1644.9375 180.421875 C 1644.890625 167.671875 1643.578125 156.46875 1641 146.71875 C 1636.21875 128.390625 1624.921875 115.921875 1606.21875 111.046875 C 1592.578125 107.53125 1576.453125 107.203125 1562.8125 111.46875 C 1548.46875 115.875 1536.984375 123.984375 1528.265625 135.84375 C 1525.6875 139.359375 1523.765625 143.15625 1521.796875 147.046875 " transform="matrix(0.0833333,0,0,0.0833333,0,0)"/>
<path style="fill:none;stroke-width:2;stroke-linecap:butt;stroke-linejoin:miter;stroke:rgb(54.509804%,56.862745%,57.647059%);stroke-opacity:1;stroke-miterlimit:4;" d="M 1304.015625 206.34375 L 1417.828125 157.359375 C 1418.15625 157.21875 1418.25 156.984375 1418.15625 156.609375 C 1415.90625 149.578125 1412.765625 142.96875 1408.875 136.875 C 1402.78125 127.40625 1394.859375 119.953125 1385.15625 114.515625 C 1370.859375 106.546875 1352.765625 104.953125 1336.78125 108.1875 C 1294.453125 116.71875 1271.203125 157.03125 1279.96875 198.328125 C 1285.96875 226.453125 1308.09375 248.25 1336.921875 253.5 C 1366.03125 258.75 1398.328125 249.046875 1416.140625 224.53125 C 1416.28125 224.34375 1416.28125 224.109375 1416.09375 223.921875 L 1413.046875 220.40625 C 1413 220.3125 1412.859375 220.265625 1412.71875 220.265625 C 1412.625 220.265625 1412.484375 220.359375 1412.4375 220.453125 C 1408.78125 225.9375 1404.140625 230.765625 1398.515625 235.03125 C 1375.40625 252.46875 1343.90625 243 1323.375 226.734375 C 1315.734375 220.6875 1309.21875 214.078125 1303.875 206.8125 C 1303.828125 206.71875 1303.78125 206.625 1303.828125 206.53125 C 1303.828125 206.4375 1303.921875 206.34375 1304.015625 206.34375 " transform="matrix(0.0833333,0,0,0.0833333,0,0)"/>
<path style="fill:none;stroke-width:2;stroke-linecap:butt;stroke-linejoin:miter;stroke:rgb(54.509804%,56.862745%,57.647059%);stroke-opacity:1;stroke-miterlimit:4;" d="M 142.78125 230.203125 L 142.78125 252.65625 C 142.78125 252.84375 142.921875 252.984375 143.15625 252.984375 L 163.734375 252.984375 C 164.109375 252.984375 164.25 252.84375 164.25 252.46875 C 164.390625 215.296875 164.34375 185.109375 164.15625 161.90625 C 164.0625 153.234375 162.609375 145.03125 159.75 137.296875 C 154.21875 122.484375 141.890625 113.625 126.5625 110.53125 C 118.78125 108.984375 110.578125 108.28125 102 108.421875 C 79.359375 108.84375 57.375 116.203125 42.65625 132.65625 C 42.234375 133.078125 42.1875 133.59375 42.46875 134.15625 L 44.859375 138.9375 C 45.09375 139.40625 45.328125 139.40625 45.5625 138.890625 C 48.234375 133.546875 54.515625 128.4375 59.390625 125.390625 C 74.625 115.921875 90.796875 112.125 107.859375 114.09375 C 115.640625 114.984375 122.0625 117 127.078125 120.1875 C 140.015625 128.484375 142.96875 146.90625 142.6875 161.671875 C 142.6875 161.90625 142.5 162.140625 142.21875 162.140625 C 124.5 162.796875 107.4375 164.578125 91.125 167.4375 C 66.5625 171.703125 34.78125 184.21875 31.03125 212.296875 C 28.828125 228.609375 35.71875 242.859375 50.484375 250.21875 C 60.75 255.421875 73.59375 256.640625 84.890625 255.328125 C 107.015625 252.796875 126.1875 244.359375 142.453125 230.0625 C 142.5 230.015625 142.59375 230.015625 142.640625 230.0625 C 142.734375 230.0625 142.78125 230.15625 142.78125 230.203125 " transform="matrix(0.0833333,0,0,0.0833333,0,0)"/>
<path style="fill:none;stroke-width:2;stroke-linecap:butt;stroke-linejoin:miter;stroke:rgb(54.509804%,56.862745%,57.647059%);stroke-opacity:1;stroke-miterlimit:4;" d="M 278.578125 146.53125 L 278.578125 110.0625 C 278.578125 109.6875 278.390625 109.5 278.015625 109.5 L 258.046875 109.5 C 257.578125 109.5 257.34375 109.734375 257.34375 110.203125 L 257.34375 252.28125 C 257.34375 252.75 257.578125 252.984375 258.046875 252.984375 L 277.96875 252.984375 C 278.390625 252.984375 278.578125 252.796875 278.578125 252.421875 C 278.578125 227.484375 278.578125 201.84375 278.578125 175.5 C 278.625 157.5 285.234375 142.40625 298.40625 130.171875 C 312.328125 117.28125 331.875 111.140625 350.484375 115.59375 C 364.453125 118.96875 373.5 129.375 377.296875 142.96875 C 379.78125 151.734375 381 161.015625 381 170.765625 C 381.046875 198.84375 381.046875 226.078125 381.046875 252.515625 C 381.046875 252.84375 381.1875 252.984375 381.5625 252.984375 L 401.71875 252.984375 C 402.09375 252.984375 402.28125 252.796875 402.28125 252.421875 C 402.28125 231.328125 402.234375 208.125 402.28125 182.90625 C 402.28125 172.078125 401.296875 161.71875 399.421875 151.78125 C 395.109375 129.09375 381.796875 114.1875 358.640625 109.96875 C 348.65625 108.140625 339.140625 107.859375 330.09375 109.21875 C 307.921875 112.453125 288.703125 126.09375 279.28125 146.671875 C 278.8125 147.75 278.578125 147.703125 278.578125 146.53125 " transform="matrix(0.0833333,0,0,0.0833333,0,0)"/>
<path style="fill:none;stroke-width:2;stroke-linecap:butt;stroke-linejoin:miter;stroke:rgb(54.509804%,56.862745%,57.647059%);stroke-opacity:1;stroke-miterlimit:4;" d="M 511.3125 146.71875 L 511.3125 110.0625 C 511.3125 109.6875 511.171875 109.5 510.796875 109.5 L 490.546875 109.5 C 490.21875 109.5 490.078125 109.640625 490.078125 109.96875 L 490.078125 252.375 C 490.078125 252.796875 490.3125 252.984375 490.6875 252.984375 L 510.75 252.984375 C 511.125 252.984375 511.3125 252.796875 511.3125 252.421875 C 511.3125 226.3125 511.359375 200.765625 511.359375 175.6875 C 511.3125 157.640625 517.875 142.546875 531 130.359375 C 545.25 117.140625 565.078125 110.953125 584.109375 115.828125 C 597.65625 119.296875 606.515625 129.9375 610.171875 143.296875 C 612.5625 152.0625 613.78125 161.296875 613.78125 171 C 613.78125 199.5 613.828125 226.59375 613.828125 252.375 C 613.828125 252.796875 614.015625 252.984375 614.4375 252.984375 L 634.453125 252.984375 C 634.78125 252.984375 635.015625 252.75 635.015625 252.421875 C 635.0625 229.96875 635.0625 206.859375 634.96875 183.046875 C 634.875 158.15625 632.109375 127.96875 607.453125 115.3125 C 594.609375 108.703125 576.75 107.109375 562.875 109.21875 C 540.984375 112.5 520.828125 126.1875 512.015625 146.859375 C 511.546875 147.9375 511.3125 147.890625 511.3125 146.71875 " transform="matrix(0.0833333,0,0,0.0833333,0,0)"/>
<path style="fill:none;stroke-width:2;stroke-linecap:butt;stroke-linejoin:miter;stroke:rgb(54.509804%,56.862745%,57.647059%);stroke-opacity:1;stroke-miterlimit:4;" d="M 825 230.25 L 825.046875 252.75 C 825.046875 252.890625 825.140625 252.984375 825.28125 252.984375 L 846 252.984375 C 846.375 252.984375 846.5625 252.796875 846.5625 252.421875 C 846.515625 224.671875 846.515625 196.78125 846.5625 168.796875 C 846.5625 157.6875 845.8125 146.953125 841.78125 136.6875 C 836.0625 122.296875 824.296875 113.8125 809.203125 110.671875 C 801.234375 108.984375 792.9375 108.28125 784.21875 108.421875 C 761.578125 108.84375 739.125 116.296875 724.453125 133.125 C 724.359375 133.265625 724.359375 133.40625 724.40625 133.546875 L 727.125 138.9375 C 727.21875 139.171875 727.359375 139.171875 727.5 138.984375 C 731.625 133.265625 736.21875 128.765625 741.28125 125.625 C 756.796875 115.921875 773.0625 112.078125 790.125 114.09375 C 797.90625 114.984375 804.140625 116.953125 808.828125 119.90625 C 815.765625 124.265625 820.359375 131.15625 822.65625 140.671875 C 824.34375 147.703125 825.09375 154.640625 824.953125 161.53125 C 824.953125 161.859375 824.765625 162.046875 824.4375 162.046875 C 811.921875 162.703125 800.390625 163.6875 789.84375 164.90625 C 760.640625 168.421875 713.671875 178.921875 712.875 217.265625 C 712.734375 224.34375 714.234375 230.625 717.421875 236.109375 C 727.3125 253.21875 748.96875 257.390625 767.109375 255.328125 C 789.140625 252.84375 808.3125 244.453125 824.71875 230.0625 C 824.765625 230.015625 824.8125 230.015625 824.90625 230.0625 C 824.953125 230.0625 825 230.15625 825 230.25 " transform="matrix(0.0833333,0,0,0.0833333,0,0)"/>
<path style="fill:none;stroke-width:2;stroke-linecap:butt;stroke-linejoin:miter;stroke:rgb(54.509804%,56.862745%,57.647059%);stroke-opacity:1;stroke-miterlimit:4;" d="M 1202.296875 109.5 C 1202.203125 109.5 1202.0625 109.546875 1202.015625 109.640625 L 1146.421875 223.5 C 1146.375 223.59375 1146.28125 223.640625 1146.140625 223.640625 C 1146.046875 223.640625 1145.953125 223.59375 1145.859375 223.5 L 1090.265625 109.6875 C 1090.21875 109.546875 1090.125 109.5 1090.03125 109.5 L 1066.546875 109.5 C 1066.453125 109.5 1066.359375 109.546875 1066.3125 109.640625 C 1066.265625 109.734375 1066.265625 109.828125 1066.3125 109.921875 L 1137.28125 254.484375 C 1137.328125 254.578125 1137.421875 254.671875 1137.5625 254.671875 C 1137.65625 254.671875 1137.75 254.578125 1137.796875 254.484375 L 1208.8125 109.921875 C 1208.8125 109.828125 1208.8125 109.734375 1208.765625 109.640625 C 1208.71875 109.546875 1208.625 109.5 1208.53125 109.5 L 1202.296875 109.5 " transform="matrix(0.0833333,0,0,0.0833333,0,0)"/>
<path style="fill:none;stroke-width:2;stroke-linecap:butt;stroke-linejoin:miter;stroke:rgb(54.509804%,56.862745%,57.647059%);stroke-opacity:1;stroke-miterlimit:4;" d="M 1754.0625 109.828125 C 1754.0625 109.640625 1753.921875 109.5 1753.734375 109.5 L 1733.203125 109.5 C 1732.96875 109.5 1732.828125 109.640625 1732.828125 109.828125 L 1732.828125 252.65625 C 1732.828125 252.84375 1732.96875 252.984375 1733.203125 252.984375 L 1753.734375 252.984375 C 1753.921875 252.984375 1754.0625 252.84375 1754.0625 252.65625 L 1754.0625 109.828125 " transform="matrix(0.0833333,0,0,0.0833333,0,0)"/>
<path style="fill:none;stroke-width:2;stroke-linecap:butt;stroke-linejoin:miter;stroke:rgb(54.509804%,56.862745%,57.647059%);stroke-opacity:1;stroke-miterlimit:4;" d="M 1751.0625 416.671875 C 1751.15625 416.578125 1751.15625 416.4375 1751.109375 416.34375 C 1751.0625 416.203125 1750.921875 416.15625 1750.828125 416.15625 L 1743.984375 416.15625 C 1743.84375 416.15625 1743.75 416.203125 1743.703125 416.296875 L 1731.515625 434.953125 C 1731.46875 435.046875 1731.421875 435.140625 1731.515625 435.28125 C 1731.5625 435.375 1731.65625 435.421875 1731.796875 435.421875 L 1735.921875 435.46875 C 1736.0625 435.46875 1736.15625 435.421875 1736.203125 435.328125 L 1751.0625 416.671875 " transform="matrix(0.0833333,0,0,0.0833333,0,0)"/>
<path style="fill:none;stroke-width:2;stroke-linecap:butt;stroke-linejoin:miter;stroke:rgb(54.509804%,56.862745%,57.647059%);stroke-opacity:1;stroke-miterlimit:4;" d="M 785.671875 493.03125 L 785.625 503.765625 C 785.625 503.90625 785.71875 504 785.859375 504 L 792.375 504 C 792.515625 504 792.5625 503.953125 792.5625 503.8125 L 792.5625 421.265625 C 792.5625 421.078125 792.46875 420.984375 792.28125 420.984375 L 785.90625 421.03125 C 785.8125 421.03125 785.765625 421.078125 785.765625 421.171875 L 785.765625 457.96875 C 785.765625 458.484375 785.578125 458.578125 785.25 458.15625 C 783.515625 456.09375 782.015625 454.078125 779.859375 452.390625 C 767.390625 442.78125 749.765625 443.0625 738.9375 454.921875 C 729 465.75 728.859375 483.75 738.46875 495.1875 C 747.703125 506.109375 762.984375 507.984375 775.5 501.140625 C 779.4375 498.984375 782.578125 496.21875 785.015625 492.84375 C 785.4375 492.234375 785.671875 492.328125 785.671875 493.03125 " transform="matrix(0.0833333,0,0,0.0833333,0,0)"/>
<path style="fill:none;stroke-width:2;stroke-linecap:butt;stroke-linejoin:miter;stroke:rgb(54.509804%,56.862745%,57.647059%);stroke-opacity:1;stroke-miterlimit:4;" d="M 1468.59375 426.46875 C 1468.59375 423.796875 1466.4375 421.59375 1463.71875 421.59375 C 1461.046875 421.59375 1458.84375 423.796875 1458.84375 426.46875 C 1458.84375 429.1875 1461.046875 431.390625 1463.71875 431.390625 C 1466.4375 431.390625 1468.59375 429.1875 1468.59375 426.46875 " transform="matrix(0.0833333,0,0,0.0833333,0,0)"/>
<path style="fill:none;stroke-width:2;stroke-linecap:butt;stroke-linejoin:miter;stroke:rgb(54.509804%,56.862745%,57.647059%);stroke-opacity:1;stroke-miterlimit:4;" d="M 1644.609375 426.46875 C 1644.609375 423.796875 1642.40625 421.59375 1639.734375 421.59375 C 1637.015625 421.59375 1634.859375 423.796875 1634.859375 426.46875 C 1634.859375 429.1875 1637.015625 431.390625 1639.734375 431.390625 C 1642.40625 431.390625 1644.609375 429.1875 1644.609375 426.46875 " transform="matrix(0.0833333,0,0,0.0833333,0,0)"/>
<path style="fill:none;stroke-width:2;stroke-linecap:butt;stroke-linejoin:miter;stroke:rgb(54.509804%,56.862745%,57.647059%);stroke-opacity:1;stroke-miterlimit:4;" d="M 376.5 453.84375 C 376.5 453.65625 376.640625 453.515625 376.828125 453.515625 L 393.703125 453.515625 C 393.890625 453.515625 394.03125 453.375 394.03125 453.1875 L 394.03125 448.359375 C 394.03125 448.171875 393.890625 448.03125 393.703125 448.03125 L 376.828125 448.03125 C 376.640625 448.03125 376.5 447.84375 376.5 447.65625 L 376.5 422.671875 C 376.5 422.484375 376.359375 422.34375 376.171875 422.34375 L 369.890625 422.34375 C 369.703125 422.34375 369.5625 422.484375 369.5625 422.671875 L 369.5625 447.703125 C 369.5625 447.890625 369.375 448.03125 369.1875 448.03125 L 357.84375 448.03125 C 357.65625 448.03125 357.515625 448.171875 357.515625 448.359375 L 357.515625 453.1875 C 357.515625 453.375 357.65625 453.515625 357.84375 453.515625 L 369.1875 453.515625 C 369.375 453.515625 369.5625 453.65625 369.5625 453.84375 L 369.5625 503.671875 C 369.5625 503.859375 369.703125 504 369.890625 504 L 376.171875 504 C 376.359375 504 376.5 503.859375 376.5 503.671875 L 376.5 453.84375 " transform="matrix(0.0833333,0,0,0.0833333,0,0)"/>
<path style="fill:none;stroke-width:2;stroke-linecap:butt;stroke-linejoin:miter;stroke:rgb(54.509804%,56.862745%,57.647059%);stroke-opacity:1;stroke-miterlimit:4;" d="M 1296.1875 453.515625 C 1302.09375 453.515625 1307.578125 453.515625 1312.78125 453.515625 C 1312.96875 453.515625 1313.0625 453.421875 1313.0625 453.234375 C 1313.0625 453.234375 1313.0625 451.59375 1313.0625 448.3125 C 1313.0625 448.125 1312.921875 448.03125 1312.734375 448.03125 L 1295.765625 448.03125 C 1295.578125 448.03125 1295.53125 447.9375 1295.53125 447.75 L 1295.484375 422.71875 C 1295.484375 422.53125 1295.34375 422.34375 1295.15625 422.34375 L 1288.96875 422.34375 C 1288.734375 422.34375 1288.546875 422.53125 1288.546875 422.8125 L 1288.546875 447.46875 C 1288.546875 447.84375 1288.359375 448.03125 1287.984375 448.03125 L 1277.015625 448.03125 C 1276.6875 448.03125 1276.5 448.171875 1276.5 448.5 L 1276.5 453 C 1276.5 453.375 1276.6875 453.515625 1277.015625 453.515625 L 1288.03125 453.515625 C 1288.359375 453.515625 1288.546875 453.703125 1288.546875 454.03125 L 1288.546875 503.765625 C 1288.546875 503.90625 1288.640625 504 1288.78125 504 L 1295.25 504 C 1295.4375 504 1295.484375 503.90625 1295.484375 503.765625 L 1295.484375 454.171875 C 1295.484375 453.75 1295.71875 453.515625 1296.1875 453.515625 " transform="matrix(0.0833333,0,0,0.0833333,0,0)"/>
<path style="fill:none;stroke-width:2;stroke-linecap:butt;stroke-linejoin:miter;stroke:rgb(54.509804%,56.862745%,57.647059%);stroke-opacity:1;stroke-miterlimit:4;" d="M 141.984375 486 C 141.890625 485.90625 141.890625 485.8125 141.890625 485.671875 C 141.9375 485.578125 142.03125 485.484375 142.125 485.4375 L 189.5625 467.109375 C 189.890625 466.96875 190.03125 466.734375 189.9375 466.359375 C 186 454.21875 176.53125 445.5 163.265625 445.5 C 157.78125 445.453125 152.859375 446.765625 148.5 449.296875 C 133.5 458.15625 128.578125 476.109375 136.921875 490.640625 C 140.203125 496.359375 146.34375 501.46875 152.484375 503.4375 C 163.171875 506.859375 173.390625 505.078125 183.046875 498 C 183.140625 497.90625 183.1875 497.8125 183.09375 497.71875 L 179.90625 493.265625 C 179.859375 493.171875 179.765625 493.125 179.671875 493.078125 C 179.53125 493.078125 179.4375 493.125 179.34375 493.171875 C 169.171875 501.84375 155.015625 501 145.921875 491.671875 C 144.28125 490.03125 143.296875 487.921875 141.984375 486 " transform="matrix(0.0833333,0,0,0.0833333,0,0)"/>
<path style="fill:none;stroke-width:2;stroke-linecap:butt;stroke-linejoin:miter;stroke:rgb(54.509804%,56.862745%,57.647059%);stroke-opacity:1;stroke-miterlimit:4;" d="M 545.109375 485.34375 L 592.359375 467.109375 C 592.734375 466.96875 592.828125 466.6875 592.6875 466.3125 C 588.421875 454.03125 579.328125 445.453125 565.828125 445.5 C 554.296875 445.5 544.359375 452.015625 538.96875 461.90625 C 536.015625 467.34375 535.078125 473.578125 536.0625 480.5625 C 537 486.984375 539.953125 492.515625 544.921875 497.15625 C 556.40625 507.84375 573.1875 507.375 585.515625 498.140625 C 585.796875 497.953125 585.84375 497.71875 585.609375 497.4375 L 582.796875 493.359375 C 582.703125 493.265625 582.5625 493.171875 582.421875 493.171875 C 582.28125 493.171875 582.1875 493.171875 582.046875 493.265625 C 576.84375 497.390625 571.21875 499.359375 565.125 499.171875 C 556.265625 498.84375 549.46875 494.484375 544.828125 486.09375 C 544.640625 485.765625 544.734375 485.484375 545.109375 485.34375 " transform="matrix(0.0833333,0,0,0.0833333,0,0)"/>
<path style="fill:none;stroke-width:2;stroke-linecap:butt;stroke-linejoin:miter;stroke:rgb(54.509804%,56.862745%,57.647059%);stroke-opacity:1;stroke-miterlimit:4;" d="M 862.21875 485.859375 C 862.171875 485.765625 862.171875 485.671875 862.21875 485.625 C 862.265625 485.53125 862.3125 485.4375 862.40625 485.4375 L 909.796875 467.109375 C 910.171875 466.96875 910.3125 466.734375 910.171875 466.359375 C 908.109375 460.125 904.78125 455.109375 900.1875 451.21875 C 891.609375 444.046875 878.203125 443.671875 868.59375 449.390625 C 856.640625 456.515625 851.0625 468.984375 853.921875 482.578125 C 855.046875 487.734375 857.671875 492.421875 861.796875 496.546875 C 873 507.796875 890.296875 507.5625 903 498.1875 C 903.28125 497.953125 903.328125 497.71875 903.140625 497.390625 L 900.28125 493.40625 C 900.1875 493.3125 900.046875 493.21875 899.90625 493.171875 C 899.71875 493.171875 899.578125 493.21875 899.4375 493.3125 C 894.234375 497.625 888.28125 499.546875 881.71875 499.078125 C 873.09375 498.46875 866.625 494.0625 862.21875 485.859375 " transform="matrix(0.0833333,0,0,0.0833333,0,0)"/>
<path style="fill:none;stroke-width:2;stroke-linecap:butt;stroke-linejoin:miter;stroke:rgb(54.509804%,56.862745%,57.647059%);stroke-opacity:1;stroke-miterlimit:4;" d="M 1763.484375 469.078125 C 1760.0625 452.953125 1744.03125 442.640625 1727.671875 446.0625 C 1711.3125 449.53125 1700.8125 465.421875 1704.1875 481.59375 C 1707.609375 497.765625 1723.640625 508.03125 1740 504.609375 C 1756.359375 501.140625 1766.90625 485.25 1763.484375 469.078125 " transform="matrix(0.0833333,0,0,0.0833333,0,0)"/>
<path style="fill:none;stroke-width:2;stroke-linecap:butt;stroke-linejoin:miter;stroke:rgb(54.509804%,56.862745%,57.647059%);stroke-opacity:1;stroke-miterlimit:4;" d="M 256.3125 459.140625 C 256.03125 459.703125 255.890625 459.65625 255.84375 459.046875 L 255.375 447.5625 C 255.375 447.375 255.28125 447.28125 255.09375 447.28125 L 249.703125 447.28125 C 249.515625 447.28125 249.421875 447.375 249.421875 447.5625 L 249.421875 503.71875 C 249.421875 503.90625 249.515625 504 249.703125 504 L 255.984375 504 C 256.125 504 256.171875 503.953125 256.171875 503.8125 C 256.3125 495.515625 256.3125 487.828125 256.171875 480.796875 C 255.984375 473.8125 256.546875 468.703125 257.765625 465.515625 C 261.1875 456.515625 270.046875 450.84375 279.75 451.875 C 288.515625 452.8125 290.953125 460.359375 290.90625 467.859375 C 290.8125 480 290.8125 491.953125 290.90625 503.765625 C 290.90625 503.90625 291 504 291.140625 504 L 297.515625 504 C 297.65625 504 297.796875 503.859375 297.796875 503.671875 C 297.75 490.78125 297.796875 478.03125 297.890625 465.421875 C 297.890625 461.625 297.421875 458.53125 296.4375 456.140625 C 292.78125 447.375 284.0625 444.65625 275.0625 446.109375 C 267.1875 447.421875 259.78125 451.875 256.3125 459.140625 " transform="matrix(0.0833333,0,0,0.0833333,0,0)"/>
<path style="fill:none;stroke-width:2;stroke-linecap:butt;stroke-linejoin:miter;stroke:rgb(54.509804%,56.862745%,57.647059%);stroke-opacity:1;stroke-miterlimit:4;" d="M 457.875 460.03125 L 457.359375 447.5625 C 457.359375 447.375 457.265625 447.28125 457.078125 447.28125 L 451.6875 447.28125 C 451.5 447.28125 451.453125 447.375 451.453125 447.5625 L 451.40625 503.8125 C 451.40625 503.953125 451.453125 504 451.59375 504 L 457.96875 504 C 458.15625 504 458.25 503.90625 458.25 503.71875 C 458.203125 494.109375 458.203125 484.40625 458.296875 474.65625 C 458.34375 467.90625 460.734375 462.46875 465.421875 458.390625 C 469.875 454.546875 475.078125 452.625 481.03125 452.53125 C 481.40625 452.53125 481.59375 452.34375 481.59375 452.015625 L 481.828125 446.25 C 481.828125 445.875 481.6875 445.734375 481.3125 445.734375 C 472.078125 446.296875 462.5625 451.546875 458.25 460.125 C 458.015625 460.59375 457.921875 460.59375 457.875 460.03125 " transform="matrix(0.0833333,0,0,0.0833333,0,0)"/>
<path style="fill:none;stroke-width:2;stroke-linecap:butt;stroke-linejoin:miter;stroke:rgb(54.509804%,56.862745%,57.647059%);stroke-opacity:1;stroke-miterlimit:4;" d="M 1061.296875 459.140625 C 1061.0625 459.703125 1060.875 459.65625 1060.875 459.046875 L 1060.359375 447.5625 C 1060.359375 447.375 1060.265625 447.28125 1060.078125 447.28125 L 1054.6875 447.28125 C 1054.5 447.28125 1054.453125 447.375 1054.453125 447.5625 L 1054.40625 503.71875 C 1054.40625 503.90625 1054.5 504 1054.6875 504 L 1060.96875 504 C 1061.109375 504 1061.203125 503.953125 1061.203125 503.8125 C 1061.296875 495.890625 1061.296875 488.25 1061.15625 480.890625 C 1061.015625 473.484375 1061.53125 468.328125 1062.703125 465.515625 C 1065.703125 458.0625 1071.984375 452.859375 1080 451.921875 C 1091.15625 450.609375 1095.9375 457.3125 1095.890625 467.484375 C 1095.84375 479.53125 1095.84375 491.625 1095.890625 503.8125 C 1095.890625 503.90625 1095.9375 504 1096.078125 504 L 1102.59375 504 C 1102.734375 504 1102.828125 503.90625 1102.828125 503.765625 C 1102.78125 491.8125 1102.78125 479.390625 1102.875 466.5 C 1102.921875 462.1875 1102.453125 458.859375 1101.5625 456.46875 C 1096.5 443.4375 1080.28125 443.671875 1070.0625 449.71875 C 1066.171875 452.0625 1063.265625 455.15625 1061.296875 459.140625 " transform="matrix(0.0833333,0,0,0.0833333,0,0)"/>
<path style="fill:none;stroke-width:2;stroke-linecap:butt;stroke-linejoin:miter;stroke:rgb(54.509804%,56.862745%,57.647059%);stroke-opacity:1;stroke-miterlimit:4;" d="M 1377.421875 459.890625 C 1377.09375 460.546875 1376.90625 460.5 1376.859375 459.796875 L 1376.390625 447.5625 C 1376.34375 447.375 1376.25 447.28125 1376.0625 447.28125 L 1370.71875 447.28125 C 1370.53125 447.28125 1370.4375 447.375 1370.4375 447.5625 L 1370.4375 503.8125 C 1370.4375 503.953125 1370.484375 504 1370.578125 504 L 1377 504 C 1377.09375 504 1377.1875 503.953125 1377.1875 503.8125 C 1377.28125 495.609375 1377.28125 487.3125 1377.1875 478.875 C 1377.09375 474.375 1377.46875 470.765625 1378.21875 468.09375 C 1380.890625 458.53125 1390.265625 452.765625 1400.0625 452.53125 C 1400.390625 452.53125 1400.578125 452.34375 1400.578125 452.015625 L 1400.8125 446.25 C 1400.8125 445.875 1400.671875 445.734375 1400.296875 445.734375 C 1391.109375 446.296875 1381.640625 451.546875 1377.421875 459.890625 " transform="matrix(0.0833333,0,0,0.0833333,0,0)"/>
<path style="fill:none;stroke-width:2;stroke-linecap:butt;stroke-linejoin:miter;stroke:rgb(54.509804%,56.862745%,57.647059%);stroke-opacity:1;stroke-miterlimit:4;" d="M 37.546875 481.5 C 35.15625 471.65625 38.8125 461.4375 47.203125 455.71875 C 55.828125 449.71875 67.03125 450.75 75.421875 457.171875 C 75.5625 457.3125 75.703125 457.265625 75.84375 457.125 L 79.125 452.953125 C 79.21875 452.8125 79.21875 452.671875 79.078125 452.578125 C 75.9375 450.09375 72.796875 448.40625 69.703125 447.5625 C 56.953125 444.09375 46.453125 446.625 38.109375 455.15625 C 34.78125 458.578125 32.484375 462.375 31.265625 466.546875 C 27.796875 477.9375 30.84375 489.890625 40.03125 497.953125 C 50.8125 507.328125 67.40625 507.46875 78.9375 498.609375 C 79.078125 498.515625 79.078125 498.375 78.984375 498.234375 L 75.5625 494.4375 C 75.421875 494.296875 75.328125 494.296875 75.1875 494.390625 C 61.59375 504.328125 41.671875 498.375 37.546875 481.5 " transform="matrix(0.0833333,0,0,0.0833333,0,0)"/>
<path style="fill:none;stroke-width:2;stroke-linecap:butt;stroke-linejoin:miter;stroke:rgb(54.509804%,56.862745%,57.647059%);stroke-opacity:1;stroke-miterlimit:4;" d="M 1543.734375 501.890625 C 1554.84375 507.140625 1565.859375 506.109375 1576.78125 498.703125 C 1576.921875 498.609375 1576.921875 498.515625 1576.828125 498.421875 C 1575.046875 496.265625 1573.78125 494.953125 1573.125 494.4375 C 1573.03125 494.390625 1572.9375 494.390625 1572.84375 494.4375 C 1560.75 503.109375 1543.78125 499.78125 1537.03125 486.234375 C 1533.515625 479.109375 1533.796875 470.109375 1537.875 463.3125 C 1545.65625 450.328125 1561.40625 448.3125 1573.21875 457.171875 C 1573.40625 457.3125 1573.5 457.265625 1573.640625 457.125 C 1575.703125 454.40625 1576.78125 453 1576.828125 452.953125 C 1576.921875 452.8125 1576.921875 452.671875 1576.828125 452.578125 C 1573.734375 450.046875 1570.3125 448.265625 1566.609375 447.328125 C 1554.84375 444.28125 1544.859375 446.625 1536.703125 454.359375 C 1525.5 464.90625 1524.46875 483.140625 1534.640625 494.71875 C 1537.453125 498 1540.5 500.390625 1543.734375 501.890625 " transform="matrix(0.0833333,0,0,0.0833333,0,0)"/>
<path style="fill:none;stroke-width:2;stroke-linecap:butt;stroke-linejoin:miter;stroke:rgb(54.509804%,56.862745%,57.647059%);stroke-opacity:1;stroke-miterlimit:4;" d="M 1210.453125 492.984375 L 1210.78125 503.765625 C 1210.78125 503.90625 1210.875 504 1211.015625 504 L 1216.6875 504 C 1216.828125 504 1216.921875 503.90625 1216.921875 503.8125 L 1216.921875 447.65625 C 1216.921875 447.421875 1216.78125 447.28125 1216.546875 447.28125 L 1210.5 447.28125 C 1210.265625 447.28125 1210.078125 447.46875 1210.078125 447.703125 C 1210.03125 456.046875 1210.03125 464.8125 1210.078125 474.046875 C 1210.125 481.3125 1209.046875 487.21875 1204.546875 492.28125 C 1199.71875 497.671875 1193.859375 500.0625 1187.0625 499.3125 C 1184.859375 499.078125 1182.796875 498.328125 1180.96875 497.015625 C 1176.515625 493.875 1175.671875 488.625 1175.671875 483.234375 C 1175.765625 470.671875 1175.765625 458.765625 1175.71875 447.515625 C 1175.71875 447.375 1175.625 447.28125 1175.4375 447.28125 L 1169.25 447.28125 C 1169.015625 447.28125 1168.921875 447.421875 1168.921875 447.609375 C 1168.875 461.25 1168.921875 474.796875 1168.96875 488.25 C 1169.0625 500.390625 1179.09375 507.234375 1190.71875 505.265625 C 1199.4375 503.8125 1205.859375 499.640625 1209.9375 492.84375 C 1210.265625 492.328125 1210.40625 492.375 1210.453125 492.984375 " transform="matrix(0.0833333,0,0,0.0833333,0,0)"/>
<path style="fill:none;stroke-width:2;stroke-linecap:butt;stroke-linejoin:miter;stroke:rgb(54.509804%,56.862745%,57.647059%);stroke-opacity:1;stroke-miterlimit:4;" d="M 1467 447.75 C 1467 447.46875 1466.765625 447.28125 1466.484375 447.28125 L 1460.671875 447.28125 C 1460.390625 447.28125 1460.15625 447.46875 1460.15625 447.75 L 1460.15625 503.484375 C 1460.15625 503.765625 1460.390625 504 1460.671875 504 L 1466.484375 504 C 1466.765625 504 1467 503.765625 1467 503.484375 L 1467 447.75 " transform="matrix(0.0833333,0,0,0.0833333,0,0)"/>
<path style="fill:none;stroke-width:2;stroke-linecap:butt;stroke-linejoin:miter;stroke:rgb(54.509804%,56.862745%,57.647059%);stroke-opacity:1;stroke-miterlimit:4;" d="M 1642.96875 447.75 C 1642.96875 447.46875 1642.78125 447.28125 1642.5 447.28125 L 1636.640625 447.28125 C 1636.40625 447.28125 1636.171875 447.46875 1636.171875 447.75 L 1636.171875 503.484375 C 1636.171875 503.765625 1636.40625 504 1636.640625 504 L 1642.5 504 C 1642.78125 504 1642.96875 503.765625 1642.96875 503.484375 L 1642.96875 447.75 " transform="matrix(0.0833333,0,0,0.0833333,0,0)"/>
<path style="fill:none;stroke-width:2;stroke-linecap:butt;stroke-linejoin:miter;stroke:rgb(54.509804%,56.862745%,57.647059%);stroke-opacity:1;stroke-miterlimit:4;" d="M 897 743.15625 C 903.984375 743.203125 909.703125 737.484375 909.75 730.359375 C 909.796875 723.28125 904.171875 717.46875 897.1875 717.421875 C 890.25 717.375 884.53125 723.09375 884.484375 730.21875 C 884.4375 737.296875 890.0625 743.109375 897 743.15625 " transform="matrix(0.0833333,0,0,0.0833333,0,0)"/>
<path style="fill:none;stroke-width:2;stroke-linecap:butt;stroke-linejoin:miter;stroke:rgb(54.509804%,56.862745%,57.647059%);stroke-opacity:1;stroke-miterlimit:4;" d="M 1385.8125 139.3125 C 1370.484375 121.828125 1348.5 110.0625 1325.671875 117.28125 C 1315.359375 120.5625 1305.46875 127.921875 1298.90625 136.265625 C 1283.203125 156.1875 1287.1875 180.84375 1300.265625 201.140625 C 1300.453125 201.421875 1300.734375 201.515625 1301.0625 201.375 L 1397.203125 160.40625 C 1397.296875 160.359375 1397.34375 160.265625 1397.296875 160.171875 C 1394.8125 152.109375 1390.96875 145.171875 1385.8125 139.3125 " transform="matrix(0.0833333,0,0,0.0833333,0,0)"/>
<path style="fill:none;stroke-width:2;stroke-linecap:butt;stroke-linejoin:miter;stroke:rgb(54.509804%,56.862745%,57.647059%);stroke-opacity:1;stroke-miterlimit:4;" d="M 55.078125 198.09375 C 51.375 207.09375 50.90625 216.515625 53.578125 226.453125 C 57.796875 242.15625 71.71875 249.046875 87.28125 248.578125 C 108.28125 247.96875 127.5 237.796875 142.359375 222.9375 C 142.640625 222.703125 142.78125 222.328125 142.78125 221.953125 L 142.78125 167.8125 C 142.78125 167.4375 142.59375 167.296875 142.265625 167.296875 C 127.265625 167.71875 112.921875 169.03125 99.375 171.234375 C 81.9375 174.046875 62.015625 181.3125 55.078125 198.09375 " transform="matrix(0.0833333,0,0,0.0833333,0,0)"/>
<path style="fill:none;stroke-width:2;stroke-linecap:butt;stroke-linejoin:miter;stroke:rgb(54.509804%,56.862745%,57.647059%);stroke-opacity:1;stroke-miterlimit:4;" d="M 781.78125 171.1875 C 762.609375 174.1875 739.78125 182.953125 735.28125 204.28125 C 733.734375 211.921875 733.828125 219.140625 735.609375 225.984375 C 739.828125 241.828125 753.515625 248.953125 769.03125 248.578125 C 790.265625 248.109375 809.8125 237.890625 824.671875 222.890625 C 824.90625 222.609375 825.046875 222.328125 825.046875 221.953125 L 825 167.8125 C 825 167.4375 824.859375 167.25 824.484375 167.296875 C 809.296875 167.765625 795.046875 169.078125 781.78125 171.1875 " transform="matrix(0.0833333,0,0,0.0833333,0,0)"/>
<path style="fill:none;stroke-width:2;stroke-linecap:butt;stroke-linejoin:miter;stroke:rgb(54.509804%,56.862745%,57.647059%);stroke-opacity:1;stroke-miterlimit:4;" d="M 770.859375 497.53125 C 783.09375 492.703125 789.140625 478.828125 784.3125 466.5 C 779.484375 454.171875 765.609375 448.078125 753.328125 452.859375 C 741.09375 457.6875 735.046875 471.5625 739.875 483.890625 C 744.703125 496.21875 758.578125 502.3125 770.859375 497.53125 " transform="matrix(0.0833333,0,0,0.0833333,0,0)"/>
<path style="fill:none;stroke-width:2;stroke-linecap:butt;stroke-linejoin:miter;stroke:rgb(54.509804%,56.862745%,57.647059%);stroke-opacity:1;stroke-miterlimit:4;" d="M 141.75 465.1875 C 139.78125 469.453125 139.171875 474.328125 140.015625 479.8125 C 140.0625 480.28125 140.34375 480.421875 140.765625 480.28125 L 181.21875 464.390625 C 181.640625 464.25 181.734375 463.96875 181.546875 463.59375 C 177.796875 456.5625 171.234375 451.03125 163.171875 451.3125 C 153 451.640625 145.828125 456.28125 141.75 465.1875 " transform="matrix(0.0833333,0,0,0.0833333,0,0)"/>
<path style="fill:none;stroke-width:2;stroke-linecap:butt;stroke-linejoin:miter;stroke:rgb(54.509804%,56.862745%,57.647059%);stroke-opacity:1;stroke-miterlimit:4;" d="M 584.296875 463.59375 C 580.59375 456.703125 574.640625 451.59375 566.953125 451.3125 C 557.90625 450.984375 549.609375 455.390625 545.390625 463.3125 C 542.71875 468.28125 541.828125 473.8125 542.8125 479.90625 C 542.90625 480.28125 543.09375 480.421875 543.515625 480.28125 L 583.96875 464.390625 C 584.390625 464.25 584.484375 463.96875 584.296875 463.59375 " transform="matrix(0.0833333,0,0,0.0833333,0,0)"/>
<path style="fill:none;stroke-width:2;stroke-linecap:butt;stroke-linejoin:miter;stroke:rgb(54.509804%,56.862745%,57.647059%);stroke-opacity:1;stroke-miterlimit:4;" d="M 867.375 457.5 C 861.140625 463.171875 859.078125 471.328125 860.296875 479.859375 C 860.34375 480.28125 860.578125 480.421875 861 480.28125 L 901.78125 464.296875 C 901.96875 464.203125 902.015625 464.109375 901.921875 463.921875 C 898.828125 457.5 892.6875 451.96875 885.421875 451.40625 C 878.390625 450.890625 872.390625 452.90625 867.375 457.5 " transform="matrix(0.0833333,0,0,0.0833333,0,0)"/>
<path style="fill:none;stroke-width:2;stroke-linecap:butt;stroke-linejoin:miter;stroke:rgb(54.509804%,56.862745%,57.647059%);stroke-opacity:1;stroke-miterlimit:4;" d="M 1733.015625 499.265625 C 1745.859375 499.6875 1756.59375 489.328125 1757.015625 476.15625 C 1757.484375 462.9375 1747.453125 451.921875 1734.609375 451.5 C 1721.8125 451.078125 1711.03125 461.390625 1710.609375 474.609375 C 1710.1875 487.828125 1720.21875 498.84375 1733.015625 499.265625 " transform="matrix(0.0833333,0,0,0.0833333,0,0)"/>
<path style=" stroke:none;fill-rule:nonzero;fill:rgb(88.235294%,86.27451%,85.098039%);fill-opacity:1;" d="M 0 0 L 150 0 L 150 64 L 0 64 Z M 144.277344 6.375 C 144.269531 6.386719 144.269531 6.402344 144.28125 6.414062 L 144.578125 6.710938 C 144.589844 6.722656 144.605469 6.722656 144.621094 6.710938 L 148.679688 3.546875 C 148.6875 3.542969 148.691406 3.535156 148.691406 3.523438 C 148.691406 3.515625 148.691406 3.507812 148.683594 3.5 L 147.492188 2.308594 C 147.484375 2.300781 147.476562 2.296875 147.464844 2.296875 C 147.457031 2.300781 147.449219 2.304688 147.441406 2.3125 Z M 126.816406 12.253906 C 126.789062 12.304688 126.777344 12.300781 126.777344 12.246094 L 126.773438 4.382812 C 126.773438 4.359375 126.753906 4.335938 126.726562 4.335938 L 125.054688 4.335938 C 125.042969 4.335938 125.03125 4.339844 125.019531 4.351562 C 125.011719 4.359375 125.007812 4.371094 125.007812 4.382812 L 125.007812 21.042969 C 125.007812 21.066406 125.023438 21.082031 125.046875 21.082031 L 126.730469 21.082031 C 126.765625 21.082031 126.78125 21.066406 126.78125 21.03125 C 126.769531 18.847656 126.769531 16.6875 126.78125 14.550781 C 126.789062 13.410156 127.132812 12.394531 127.816406 11.515625 C 128.691406 10.386719 130.054688 9.585938 131.503906 9.515625 C 133.238281 9.429688 134.550781 10.246094 135.015625 11.949219 C 135.214844 12.6875 135.316406 13.464844 135.316406 14.269531 C 135.320312 16.53125 135.320312 18.792969 135.316406 21.050781 C 135.316406 21.070312 135.332031 21.082031 135.347656 21.082031 L 137.039062 21.082031 C 137.066406 21.082031 137.082031 21.066406 137.085938 21.039062 C 137.089844 18.988281 137.089844 16.984375 137.078125 15.035156 C 137.074219 13.972656 136.964844 13.039062 136.75 12.226562 C 136.351562 10.699219 135.410156 9.660156 133.851562 9.253906 C 132.714844 8.960938 131.371094 8.933594 130.234375 9.289062 C 129.039062 9.65625 128.082031 10.332031 127.355469 11.320312 C 127.140625 11.613281 126.980469 11.929688 126.816406 12.253906 Z M 108.667969 17.195312 L 118.152344 13.113281 C 118.179688 13.101562 118.1875 13.082031 118.179688 13.050781 C 117.992188 12.464844 117.730469 11.914062 117.40625 11.40625 C 116.898438 10.617188 116.238281 9.996094 115.429688 9.542969 C 114.238281 8.878906 112.730469 8.746094 111.398438 9.015625 C 107.871094 9.726562 105.933594 13.085938 106.664062 16.527344 C 107.164062 18.871094 109.007812 20.6875 111.410156 21.125 C 113.835938 21.5625 116.527344 20.753906 118.011719 18.710938 C 118.023438 18.695312 118.023438 18.675781 118.007812 18.660156 L 117.753906 18.367188 C 117.75 18.359375 117.738281 18.355469 117.726562 18.355469 C 117.71875 18.355469 117.707031 18.363281 117.703125 18.371094 C 117.398438 18.828125 117.011719 19.230469 116.542969 19.585938 C 114.617188 21.039062 111.992188 20.25 110.28125 18.894531 C 109.644531 18.390625 109.101562 17.839844 108.65625 17.234375 C 108.652344 17.226562 108.648438 17.21875 108.652344 17.210938 C 108.652344 17.203125 108.660156 17.195312 108.667969 17.195312 Z M 11.898438 19.183594 L 11.898438 21.054688 C 11.898438 21.070312 11.910156 21.082031 11.929688 21.082031 L 13.644531 21.082031 C 13.675781 21.082031 13.6875 21.070312 13.6875 21.039062 C 13.699219 17.941406 13.695312 15.425781 13.679688 13.492188 C 13.671875 12.769531 13.550781 12.085938 13.3125 11.441406 C 12.851562 10.207031 11.824219 9.46875 10.546875 9.210938 C 9.898438 9.082031 9.214844 9.023438 8.5 9.035156 C 6.613281 9.070312 4.78125 9.683594 3.554688 11.054688 C 3.519531 11.089844 3.515625 11.132812 3.539062 11.179688 L 3.738281 11.578125 C 3.757812 11.617188 3.777344 11.617188 3.796875 11.574219 C 4.019531 11.128906 4.542969 10.703125 4.949219 10.449219 C 6.21875 9.660156 7.566406 9.34375 8.988281 9.507812 C 9.636719 9.582031 10.171875 9.75 10.589844 10.015625 C 11.667969 10.707031 11.914062 12.242188 11.890625 13.472656 C 11.890625 13.492188 11.875 13.511719 11.851562 13.511719 C 10.375 13.566406 8.953125 13.714844 7.59375 13.953125 C 5.546875 14.308594 2.898438 15.351562 2.585938 17.691406 C 2.402344 19.050781 2.976562 20.238281 4.207031 20.851562 C 5.0625 21.285156 6.132812 21.386719 7.074219 21.277344 C 8.917969 21.066406 10.515625 20.363281 11.871094 19.171875 C 11.875 19.167969 11.882812 19.167969 11.886719 19.171875 C 11.894531 19.171875 11.898438 19.179688 11.898438 19.183594 Z M 23.214844 12.210938 L 23.214844 9.171875 C 23.214844 9.140625 23.199219 9.125 23.167969 9.125 L 21.503906 9.125 C 21.464844 9.125 21.445312 9.144531 21.445312 9.183594 L 21.445312 21.023438 C 21.445312 21.0625 21.464844 21.082031 21.503906 21.082031 L 23.164062 21.082031 C 23.199219 21.082031 23.214844 21.066406 23.214844 21.035156 C 23.214844 18.957031 23.214844 16.820312 23.214844 14.625 C 23.21875 13.125 23.769531 11.867188 24.867188 10.847656 C 26.027344 9.773438 27.65625 9.261719 29.207031 9.632812 C 30.371094 9.914062 31.125 10.78125 31.441406 11.914062 C 31.648438 12.644531 31.75 13.417969 31.75 14.230469 C 31.753906 16.570312 31.753906 18.839844 31.753906 21.042969 C 31.753906 21.070312 31.765625 21.082031 31.796875 21.082031 L 33.476562 21.082031 C 33.507812 21.082031 33.523438 21.066406 33.523438 21.035156 C 33.523438 19.277344 33.519531 17.34375 33.523438 15.242188 C 33.523438 14.339844 33.441406 13.476562 33.285156 12.648438 C 32.925781 10.757812 31.816406 9.515625 29.886719 9.164062 C 29.054688 9.011719 28.261719 8.988281 27.507812 9.101562 C 25.660156 9.371094 24.058594 10.507812 23.273438 12.222656 C 23.234375 12.3125 23.214844 12.308594 23.214844 12.210938 Z M 42.609375 12.226562 L 42.609375 9.171875 C 42.609375 9.140625 42.597656 9.125 42.566406 9.125 L 40.878906 9.125 C 40.851562 9.125 40.839844 9.136719 40.839844 9.164062 L 40.839844 21.03125 C 40.839844 21.066406 40.859375 21.082031 40.890625 21.082031 L 42.5625 21.082031 C 42.59375 21.082031 42.609375 21.066406 42.609375 21.035156 C 42.609375 18.859375 42.613281 16.730469 42.613281 14.640625 C 42.609375 13.136719 43.15625 11.878906 44.25 10.863281 C 45.4375 9.761719 47.089844 9.246094 48.675781 9.652344 C 49.804688 9.941406 50.542969 10.828125 50.847656 11.941406 C 51.046875 12.671875 51.148438 13.441406 51.148438 14.25 C 51.148438 16.625 51.152344 18.882812 51.152344 21.03125 C 51.152344 21.066406 51.167969 21.082031 51.203125 21.082031 L 52.871094 21.082031 C 52.898438 21.082031 52.917969 21.0625 52.917969 21.035156 C 52.921875 19.164062 52.921875 17.238281 52.914062 15.253906 C 52.90625 13.179688 52.675781 10.664062 50.621094 9.609375 C 49.550781 9.058594 48.0625 8.925781 46.90625 9.101562 C 45.082031 9.375 43.402344 10.515625 42.667969 12.238281 C 42.628906 12.328125 42.609375 12.324219 42.609375 12.226562 Z M 68.75 19.1875 L 68.753906 21.0625 C 68.753906 21.074219 68.761719 21.082031 68.773438 21.082031 L 70.5 21.082031 C 70.53125 21.082031 70.546875 21.066406 70.546875 21.035156 C 70.542969 18.722656 70.542969 16.398438 70.546875 14.066406 C 70.546875 13.140625 70.484375 12.246094 70.148438 11.390625 C 69.671875 10.191406 68.691406 9.484375 67.433594 9.222656 C 66.769531 9.082031 66.078125 9.023438 65.351562 9.035156 C 63.464844 9.070312 61.59375 9.691406 60.371094 11.09375 C 60.363281 11.105469 60.363281 11.117188 60.367188 11.128906 L 60.59375 11.578125 C 60.601562 11.597656 60.613281 11.597656 60.625 11.582031 C 60.96875 11.105469 61.351562 10.730469 61.773438 10.46875 C 63.066406 9.660156 64.421875 9.339844 65.84375 9.507812 C 66.492188 9.582031 67.011719 9.746094 67.402344 9.992188 C 67.980469 10.355469 68.363281 10.929688 68.554688 11.722656 C 68.695312 12.308594 68.757812 12.886719 68.746094 13.460938 C 68.746094 13.488281 68.730469 13.503906 68.703125 13.503906 C 67.660156 13.558594 66.699219 13.640625 65.820312 13.742188 C 63.386719 14.035156 59.472656 14.910156 59.40625 18.105469 C 59.394531 18.695312 59.519531 19.21875 59.785156 19.675781 C 60.609375 21.101562 62.414062 21.449219 63.925781 21.277344 C 65.761719 21.070312 67.359375 20.371094 68.726562 19.171875 C 68.730469 19.167969 68.734375 19.167969 68.742188 19.171875 C 68.746094 19.171875 68.75 19.179688 68.75 19.1875 Z M 100.191406 9.125 C 100.183594 9.125 100.171875 9.128906 100.167969 9.136719 L 95.535156 18.625 C 95.53125 18.632812 95.523438 18.636719 95.511719 18.636719 C 95.503906 18.636719 95.496094 18.632812 95.488281 18.625 L 90.855469 9.140625 C 90.851562 9.128906 90.84375 9.125 90.835938 9.125 L 88.878906 9.125 C 88.871094 9.125 88.863281 9.128906 88.859375 9.136719 C 88.855469 9.144531 88.855469 9.152344 88.859375 9.160156 L 94.773438 21.207031 C 94.777344 21.214844 94.785156 21.222656 94.796875 21.222656 C 94.804688 21.222656 94.8125 21.214844 94.816406 21.207031 L 100.734375 9.160156 C 100.734375 9.152344 100.734375 9.144531 100.730469 9.136719 C 100.726562 9.128906 100.71875 9.125 100.710938 9.125 Z M 146.171875 9.152344 C 146.171875 9.136719 146.160156 9.125 146.144531 9.125 L 144.433594 9.125 C 144.414062 9.125 144.402344 9.136719 144.402344 9.152344 L 144.402344 21.054688 C 144.402344 21.070312 144.414062 21.082031 144.433594 21.082031 L 146.144531 21.082031 C 146.160156 21.082031 146.171875 21.070312 146.171875 21.054688 Z M 145.921875 34.722656 C 145.929688 34.714844 145.929688 34.703125 145.925781 34.695312 C 145.921875 34.683594 145.910156 34.679688 145.902344 34.679688 L 145.332031 34.679688 C 145.320312 34.679688 145.3125 34.683594 145.308594 34.691406 L 144.292969 36.246094 C 144.289062 36.253906 144.285156 36.261719 144.292969 36.273438 C 144.296875 36.28125 144.304688 36.285156 144.316406 36.285156 L 144.660156 36.289062 C 144.671875 36.289062 144.679688 36.285156 144.683594 36.277344 Z M 65.472656 41.085938 L 65.46875 41.980469 C 65.46875 41.992188 65.476562 42 65.488281 42 L 66.03125 42 C 66.042969 42 66.046875 41.996094 66.046875 41.984375 L 66.046875 35.105469 C 66.046875 35.089844 66.039062 35.082031 66.023438 35.082031 L 65.492188 35.085938 C 65.484375 35.085938 65.480469 35.089844 65.480469 35.097656 L 65.480469 38.164062 C 65.480469 38.207031 65.464844 38.214844 65.4375 38.179688 C 65.292969 38.007812 65.167969 37.839844 64.988281 37.699219 C 63.949219 36.898438 62.480469 36.921875 61.578125 37.910156 C 60.75 38.8125 60.738281 40.3125 61.539062 41.265625 C 62.308594 42.175781 63.582031 42.332031 64.625 41.761719 C 64.953125 41.582031 65.214844 41.351562 65.417969 41.070312 C 65.453125 41.019531 65.472656 41.027344 65.472656 41.085938 Z M 122.382812 35.539062 C 122.382812 35.316406 122.203125 35.132812 121.976562 35.132812 C 121.753906 35.132812 121.570312 35.316406 121.570312 35.539062 C 121.570312 35.765625 121.753906 35.949219 121.976562 35.949219 C 122.203125 35.949219 122.382812 35.765625 122.382812 35.539062 Z M 137.050781 35.539062 C 137.050781 35.316406 136.867188 35.132812 136.644531 35.132812 C 136.417969 35.132812 136.238281 35.316406 136.238281 35.539062 C 136.238281 35.765625 136.417969 35.949219 136.644531 35.949219 C 136.867188 35.949219 137.050781 35.765625 137.050781 35.539062 Z M 31.375 37.820312 C 31.375 37.804688 31.386719 37.792969 31.402344 37.792969 L 32.808594 37.792969 C 32.824219 37.792969 32.835938 37.78125 32.835938 37.765625 L 32.835938 37.363281 C 32.835938 37.347656 32.824219 37.335938 32.808594 37.335938 L 31.402344 37.335938 C 31.386719 37.335938 31.375 37.320312 31.375 37.304688 L 31.375 35.222656 C 31.375 35.207031 31.363281 35.195312 31.347656 35.195312 L 30.824219 35.195312 C 30.808594 35.195312 30.796875 35.207031 30.796875 35.222656 L 30.796875 37.308594 C 30.796875 37.324219 30.78125 37.335938 30.765625 37.335938 L 29.820312 37.335938 C 29.804688 37.335938 29.792969 37.347656 29.792969 37.363281 L 29.792969 37.765625 C 29.792969 37.78125 29.804688 37.792969 29.820312 37.792969 L 30.765625 37.792969 C 30.78125 37.792969 30.796875 37.804688 30.796875 37.820312 L 30.796875 41.972656 C 30.796875 41.988281 30.808594 42 30.824219 42 L 31.347656 42 C 31.363281 42 31.375 41.988281 31.375 41.972656 Z M 108.015625 37.792969 C 108.507812 37.792969 108.964844 37.792969 109.398438 37.792969 C 109.414062 37.792969 109.421875 37.785156 109.421875 37.769531 C 109.421875 37.769531 109.421875 37.632812 109.421875 37.359375 C 109.421875 37.34375 109.410156 37.335938 109.394531 37.335938 L 107.980469 37.335938 C 107.964844 37.335938 107.960938 37.328125 107.960938 37.3125 L 107.957031 35.226562 C 107.957031 35.210938 107.945312 35.195312 107.929688 35.195312 L 107.414062 35.195312 C 107.394531 35.195312 107.378906 35.210938 107.378906 35.234375 L 107.378906 37.289062 C 107.378906 37.320312 107.363281 37.335938 107.332031 37.335938 L 106.417969 37.335938 C 106.390625 37.335938 106.375 37.347656 106.375 37.375 L 106.375 37.75 C 106.375 37.78125 106.390625 37.792969 106.417969 37.792969 L 107.335938 37.792969 C 107.363281 37.792969 107.378906 37.808594 107.378906 37.835938 L 107.378906 41.980469 C 107.378906 41.992188 107.386719 42 107.398438 42 L 107.9375 42 C 107.953125 42 107.957031 41.992188 107.957031 41.980469 L 107.957031 37.847656 C 107.957031 37.8125 107.976562 37.792969 108.015625 37.792969 Z M 11.832031 40.5 C 11.824219 40.492188 11.824219 40.484375 11.824219 40.472656 C 11.828125 40.464844 11.835938 40.457031 11.84375 40.453125 L 15.796875 38.925781 C 15.824219 38.914062 15.835938 38.894531 15.828125 38.863281 C 15.5 37.851562 14.710938 37.125 13.605469 37.125 C 13.148438 37.121094 12.738281 37.230469 12.375 37.441406 C 11.125 38.179688 10.714844 39.675781 11.410156 40.886719 C 11.683594 41.363281 12.195312 41.789062 12.707031 41.953125 C 13.597656 42.238281 14.449219 42.089844 15.253906 41.5 C 15.261719 41.492188 15.265625 41.484375 15.257812 41.476562 L 14.992188 41.105469 C 14.988281 41.097656 14.980469 41.09375 14.972656 41.089844 C 14.960938 41.089844 14.953125 41.09375 14.945312 41.097656 C 14.097656 41.820312 12.917969 41.75 12.160156 40.972656 C 12.023438 40.835938 11.941406 40.660156 11.832031 40.5 Z M 45.425781 40.445312 L 49.363281 38.925781 C 49.394531 38.914062 49.402344 38.890625 49.390625 38.859375 C 49.035156 37.835938 48.277344 37.121094 47.152344 37.125 C 46.191406 37.125 45.363281 37.667969 44.914062 38.492188 C 44.667969 38.945312 44.589844 39.464844 44.671875 40.046875 C 44.75 40.582031 44.996094 41.042969 45.410156 41.429688 C 46.367188 42.320312 47.765625 42.28125 48.792969 41.511719 C 48.816406 41.496094 48.820312 41.476562 48.800781 41.453125 L 48.566406 41.113281 C 48.558594 41.105469 48.546875 41.097656 48.535156 41.097656 C 48.523438 41.097656 48.515625 41.097656 48.503906 41.105469 C 48.070312 41.449219 47.601562 41.613281 47.09375 41.597656 C 46.355469 41.570312 45.789062 41.207031 45.402344 40.507812 C 45.386719 40.480469 45.394531 40.457031 45.425781 40.445312 Z M 71.851562 40.488281 C 71.847656 40.480469 71.847656 40.472656 71.851562 40.46875 C 71.855469 40.460938 71.859375 40.453125 71.867188 40.453125 L 75.816406 38.925781 C 75.847656 38.914062 75.859375 38.894531 75.847656 38.863281 C 75.675781 38.34375 75.398438 37.925781 75.015625 37.601562 C 74.300781 37.003906 73.183594 36.972656 72.382812 37.449219 C 71.386719 38.042969 70.921875 39.082031 71.160156 40.214844 C 71.253906 40.644531 71.472656 41.035156 71.816406 41.378906 C 72.75 42.316406 74.191406 42.296875 75.25 41.515625 C 75.273438 41.496094 75.277344 41.476562 75.261719 41.449219 L 75.023438 41.117188 C 75.015625 41.109375 75.003906 41.101562 74.992188 41.097656 C 74.976562 41.097656 74.964844 41.101562 74.953125 41.109375 C 74.519531 41.46875 74.023438 41.628906 73.476562 41.589844 C 72.757812 41.539062 72.21875 41.171875 71.851562 40.488281 Z M 146.957031 39.089844 C 146.671875 37.746094 145.335938 36.886719 143.972656 37.171875 C 142.609375 37.460938 141.734375 38.785156 142.015625 40.132812 C 142.300781 41.480469 143.636719 42.335938 145 42.050781 C 146.363281 41.761719 147.242188 40.4375 146.957031 39.089844 Z M 21.359375 38.261719 C 21.335938 38.308594 21.324219 38.304688 21.320312 38.253906 L 21.28125 37.296875 C 21.28125 37.28125 21.273438 37.273438 21.257812 37.273438 L 20.808594 37.273438 C 20.792969 37.273438 20.785156 37.28125 20.785156 37.296875 L 20.785156 41.976562 C 20.785156 41.992188 20.792969 42 20.808594 42 L 21.332031 42 C 21.34375 42 21.347656 41.996094 21.347656 41.984375 C 21.359375 41.292969 21.359375 40.652344 21.347656 40.066406 C 21.332031 39.484375 21.378906 39.058594 21.480469 38.792969 C 21.765625 38.042969 22.503906 37.570312 23.3125 37.65625 C 24.042969 37.734375 24.246094 38.363281 24.242188 38.988281 C 24.234375 40 24.234375 40.996094 24.242188 41.980469 C 24.242188 41.992188 24.25 42 24.261719 42 L 24.792969 42 C 24.804688 42 24.816406 41.988281 24.816406 41.972656 C 24.8125 40.898438 24.816406 39.835938 24.824219 38.785156 C 24.824219 38.46875 24.785156 38.210938 24.703125 38.011719 C 24.398438 37.28125 23.671875 37.054688 22.921875 37.175781 C 22.265625 37.285156 21.648438 37.65625 21.359375 38.261719 Z M 38.15625 38.335938 L 38.113281 37.296875 C 38.113281 37.28125 38.105469 37.273438 38.089844 37.273438 L 37.640625 37.273438 C 37.625 37.273438 37.621094 37.28125 37.621094 37.296875 L 37.617188 41.984375 C 37.617188 41.996094 37.621094 42 37.632812 42 L 38.164062 42 C 38.179688 42 38.1875 41.992188 38.1875 41.976562 C 38.183594 41.175781 38.183594 40.367188 38.191406 39.554688 C 38.195312 38.992188 38.394531 38.539062 38.785156 38.199219 C 39.15625 37.878906 39.589844 37.71875 40.085938 37.710938 C 40.117188 37.710938 40.132812 37.695312 40.132812 37.667969 L 40.152344 37.1875 C 40.152344 37.15625 40.140625 37.144531 40.109375 37.144531 C 39.339844 37.191406 38.546875 37.628906 38.1875 38.34375 C 38.167969 38.382812 38.160156 38.382812 38.15625 38.335938 Z M 88.441406 38.261719 C 88.421875 38.308594 88.40625 38.304688 88.40625 38.253906 L 88.363281 37.296875 C 88.363281 37.28125 88.355469 37.273438 88.339844 37.273438 L 87.890625 37.273438 C 87.875 37.273438 87.871094 37.28125 87.871094 37.296875 L 87.867188 41.976562 C 87.867188 41.992188 87.875 42 87.890625 42 L 88.414062 42 C 88.425781 42 88.433594 41.996094 88.433594 41.984375 C 88.441406 41.324219 88.441406 40.6875 88.429688 40.074219 C 88.417969 39.457031 88.460938 39.027344 88.558594 38.792969 C 88.808594 38.171875 89.332031 37.738281 90 37.660156 C 90.929688 37.550781 91.328125 38.109375 91.324219 38.957031 C 91.320312 39.960938 91.320312 40.96875 91.324219 41.984375 C 91.324219 41.992188 91.328125 42 91.339844 42 L 91.882812 42 C 91.894531 42 91.902344 41.992188 91.902344 41.980469 C 91.898438 40.984375 91.898438 39.949219 91.90625 38.875 C 91.910156 38.515625 91.871094 38.238281 91.796875 38.039062 C 91.375 36.953125 90.023438 36.972656 89.171875 37.476562 C 88.847656 37.671875 88.605469 37.929688 88.441406 38.261719 Z M 114.785156 38.324219 C 114.757812 38.378906 114.742188 38.375 114.738281 38.316406 L 114.699219 37.296875 C 114.695312 37.28125 114.6875 37.273438 114.671875 37.273438 L 114.226562 37.273438 C 114.210938 37.273438 114.203125 37.28125 114.203125 37.296875 L 114.203125 41.984375 C 114.203125 41.996094 114.207031 42 114.214844 42 L 114.75 42 C 114.757812 42 114.765625 41.996094 114.765625 41.984375 C 114.773438 41.300781 114.773438 40.609375 114.765625 39.90625 C 114.757812 39.53125 114.789062 39.230469 114.851562 39.007812 C 115.074219 38.210938 115.855469 37.730469 116.671875 37.710938 C 116.699219 37.710938 116.714844 37.695312 116.714844 37.667969 L 116.734375 37.1875 C 116.734375 37.15625 116.722656 37.144531 116.691406 37.144531 C 115.925781 37.191406 115.136719 37.628906 114.785156 38.324219 Z M 3.128906 40.125 C 2.929688 39.304688 3.234375 38.453125 3.933594 37.976562 C 4.652344 37.476562 5.585938 37.5625 6.285156 38.097656 C 6.296875 38.109375 6.308594 38.105469 6.320312 38.09375 L 6.59375 37.746094 C 6.601562 37.734375 6.601562 37.722656 6.589844 37.714844 C 6.328125 37.507812 6.066406 37.367188 5.808594 37.296875 C 4.746094 37.007812 3.871094 37.21875 3.175781 37.929688 C 2.898438 38.214844 2.707031 38.53125 2.605469 38.878906 C 2.316406 39.828125 2.570312 40.824219 3.335938 41.496094 C 4.234375 42.277344 5.617188 42.289062 6.578125 41.550781 C 6.589844 41.542969 6.589844 41.53125 6.582031 41.519531 L 6.296875 41.203125 C 6.285156 41.191406 6.277344 41.191406 6.265625 41.199219 C 5.132812 42.027344 3.472656 41.53125 3.128906 40.125 Z M 128.644531 41.824219 C 129.570312 42.261719 130.488281 42.175781 131.398438 41.558594 C 131.410156 41.550781 131.410156 41.542969 131.402344 41.535156 C 131.253906 41.355469 131.148438 41.246094 131.09375 41.203125 C 131.085938 41.199219 131.078125 41.199219 131.070312 41.203125 C 130.0625 41.925781 128.648438 41.648438 128.085938 40.519531 C 127.792969 39.925781 127.816406 39.175781 128.15625 38.609375 C 128.804688 37.527344 130.117188 37.359375 131.101562 38.097656 C 131.117188 38.109375 131.125 38.105469 131.136719 38.09375 C 131.308594 37.867188 131.398438 37.75 131.402344 37.746094 C 131.410156 37.734375 131.410156 37.722656 131.402344 37.714844 C 131.144531 37.503906 130.859375 37.355469 130.550781 37.277344 C 129.570312 37.023438 128.738281 37.21875 128.058594 37.863281 C 127.125 38.742188 127.039062 40.261719 127.886719 41.226562 C 128.121094 41.5 128.375 41.699219 128.644531 41.824219 Z M 100.871094 41.082031 L 100.898438 41.980469 C 100.898438 41.992188 100.90625 42 100.917969 42 L 101.390625 42 C 101.402344 42 101.410156 41.992188 101.410156 41.984375 L 101.410156 37.304688 C 101.410156 37.285156 101.398438 37.273438 101.378906 37.273438 L 100.875 37.273438 C 100.855469 37.273438 100.839844 37.289062 100.839844 37.308594 C 100.835938 38.003906 100.835938 38.734375 100.839844 39.503906 C 100.84375 40.109375 100.753906 40.601562 100.378906 41.023438 C 99.976562 41.472656 99.488281 41.671875 98.921875 41.609375 C 98.738281 41.589844 98.566406 41.527344 98.414062 41.417969 C 98.042969 41.15625 97.972656 40.71875 97.972656 40.269531 C 97.980469 39.222656 97.980469 38.230469 97.976562 37.292969 C 97.976562 37.28125 97.96875 37.273438 97.953125 37.273438 L 97.4375 37.273438 C 97.417969 37.273438 97.410156 37.285156 97.410156 37.300781 C 97.40625 38.4375 97.410156 39.566406 97.414062 40.6875 C 97.421875 41.699219 98.257812 42.269531 99.226562 42.105469 C 99.953125 41.984375 100.488281 41.636719 100.828125 41.070312 C 100.855469 41.027344 100.867188 41.03125 100.871094 41.082031 Z M 122.25 37.3125 C 122.25 37.289062 122.230469 37.273438 122.207031 37.273438 L 121.722656 37.273438 C 121.699219 37.273438 121.679688 37.289062 121.679688 37.3125 L 121.679688 41.957031 C 121.679688 41.980469 121.699219 42 121.722656 42 L 122.207031 42 C 122.230469 42 122.25 41.980469 122.25 41.957031 Z M 136.914062 37.3125 C 136.914062 37.289062 136.898438 37.273438 136.875 37.273438 L 136.386719 37.273438 C 136.367188 37.273438 136.347656 37.289062 136.347656 37.3125 L 136.347656 41.957031 C 136.347656 41.980469 136.367188 42 136.386719 42 L 136.875 42 C 136.898438 42 136.914062 41.980469 136.914062 41.957031 Z M 74.75 61.929688 C 75.332031 61.933594 75.808594 61.457031 75.8125 60.863281 C 75.816406 60.273438 75.347656 59.789062 74.765625 59.785156 C 74.1875 59.78125 73.710938 60.257812 73.707031 60.851562 C 73.703125 61.441406 74.171875 61.925781 74.75 61.929688 Z M 74.75 61.929688 "/>
<path style=" stroke:none;fill-rule:nonzero;fill:rgb(20.784314%,27.058824%,30.196078%);fill-opacity:1;" d="M 144.277344 6.375 L 147.441406 2.3125 C 147.449219 2.304688 147.457031 2.300781 147.464844 2.296875 C 147.476562 2.296875 147.484375 2.300781 147.492188 2.308594 L 148.683594 3.5 C 148.691406 3.507812 148.691406 3.515625 148.691406 3.523438 C 148.691406 3.535156 148.6875 3.542969 148.679688 3.546875 L 144.621094 6.710938 C 144.605469 6.722656 144.589844 6.722656 144.578125 6.710938 L 144.28125 6.414062 C 144.269531 6.402344 144.269531 6.386719 144.277344 6.375 Z M 144.277344 6.375 "/>
<path style=" stroke:none;fill-rule:nonzero;fill:rgb(20.784314%,27.058824%,30.196078%);fill-opacity:1;" d="M 126.816406 12.253906 C 126.980469 11.929688 127.140625 11.613281 127.355469 11.320312 C 128.082031 10.332031 129.039062 9.65625 130.234375 9.289062 C 131.371094 8.933594 132.714844 8.960938 133.851562 9.253906 C 135.410156 9.660156 136.351562 10.699219 136.75 12.226562 C 136.964844 13.039062 137.074219 13.972656 137.078125 15.035156 C 137.089844 16.984375 137.089844 18.988281 137.085938 21.039062 C 137.082031 21.066406 137.066406 21.082031 137.039062 21.082031 L 135.347656 21.082031 C 135.332031 21.082031 135.316406 21.070312 135.316406 21.050781 C 135.320312 18.792969 135.320312 16.53125 135.316406 14.269531 C 135.316406 13.464844 135.214844 12.6875 135.015625 11.949219 C 134.550781 10.246094 133.238281 9.429688 131.503906 9.515625 C 130.054688 9.585938 128.691406 10.386719 127.816406 11.515625 C 127.132812 12.394531 126.789062 13.410156 126.78125 14.550781 C 126.769531 16.6875 126.769531 18.847656 126.78125 21.03125 C 126.78125 21.066406 126.765625 21.082031 126.730469 21.082031 L 125.046875 21.082031 C 125.023438 21.082031 125.007812 21.066406 125.007812 21.042969 L 125.007812 4.382812 C 125.007812 4.371094 125.011719 4.359375 125.019531 4.351562 C 125.03125 4.339844 125.042969 4.335938 125.054688 4.335938 L 126.726562 4.335938 C 126.753906 4.335938 126.773438 4.359375 126.773438 4.382812 L 126.777344 12.246094 C 126.777344 12.300781 126.789062 12.304688 126.816406 12.253906 Z M 126.816406 12.253906 "/>
<path style=" stroke:none;fill-rule:nonzero;fill:rgb(20.784314%,27.058824%,30.196078%);fill-opacity:1;" d="M 108.667969 17.195312 C 108.660156 17.195312 108.652344 17.203125 108.652344 17.210938 C 108.648438 17.21875 108.652344 17.226562 108.65625 17.234375 C 109.101562 17.839844 109.644531 18.390625 110.28125 18.894531 C 111.992188 20.25 114.617188 21.039062 116.542969 19.585938 C 117.011719 19.230469 117.398438 18.828125 117.703125 18.371094 C 117.707031 18.363281 117.71875 18.355469 117.726562 18.355469 C 117.738281 18.355469 117.75 18.359375 117.753906 18.367188 L 118.007812 18.660156 C 118.023438 18.675781 118.023438 18.695312 118.011719 18.710938 C 116.527344 20.753906 113.835938 21.5625 111.410156 21.125 C 109.007812 20.6875 107.164062 18.871094 106.664062 16.527344 C 105.933594 13.085938 107.871094 9.726562 111.398438 9.015625 C 112.730469 8.746094 114.238281 8.878906 115.429688 9.542969 C 116.238281 9.996094 116.898438 10.617188 117.40625 11.40625 C 117.730469 11.914062 117.992188 12.464844 118.179688 13.050781 C 118.1875 13.082031 118.179688 13.101562 118.152344 13.113281 Z M 115.484375 11.609375 C 114.207031 10.152344 112.375 9.171875 110.472656 9.773438 C 109.613281 10.046875 108.789062 10.660156 108.242188 11.355469 C 106.933594 13.015625 107.265625 15.070312 108.355469 16.761719 C 108.371094 16.785156 108.394531 16.792969 108.421875 16.78125 L 116.433594 13.367188 C 116.441406 13.363281 116.445312 13.355469 116.441406 13.347656 C 116.234375 12.675781 115.914062 12.097656 115.484375 11.609375 Z M 115.484375 11.609375 "/>
<path style=" stroke:none;fill-rule:nonzero;fill:rgb(20.784314%,27.058824%,30.196078%);fill-opacity:1;" d="M 11.898438 19.183594 C 11.898438 19.179688 11.894531 19.171875 11.886719 19.171875 C 11.882812 19.167969 11.875 19.167969 11.871094 19.171875 C 10.515625 20.363281 8.917969 21.066406 7.074219 21.277344 C 6.132812 21.386719 5.0625 21.285156 4.207031 20.851562 C 2.976562 20.238281 2.402344 19.050781 2.585938 17.691406 C 2.898438 15.351562 5.546875 14.308594 7.59375 13.953125 C 8.953125 13.714844 10.375 13.566406 11.851562 13.511719 C 11.875 13.511719 11.890625 13.492188 11.890625 13.472656 C 11.914062 12.242188 11.667969 10.707031 10.589844 10.015625 C 10.171875 9.75 9.636719 9.582031 8.988281 9.507812 C 7.566406 9.34375 6.21875 9.660156 4.949219 10.449219 C 4.542969 10.703125 4.019531 11.128906 3.796875 11.574219 C 3.777344 11.617188 3.757812 11.617188 3.738281 11.578125 L 3.539062 11.179688 C 3.515625 11.132812 3.519531 11.089844 3.554688 11.054688 C 4.78125 9.683594 6.613281 9.070312 8.5 9.035156 C 9.214844 9.023438 9.898438 9.082031 10.546875 9.210938 C 11.824219 9.46875 12.851562 10.207031 13.3125 11.441406 C 13.550781 12.085938 13.671875 12.769531 13.679688 13.492188 C 13.695312 15.425781 13.699219 17.941406 13.6875 21.039062 C 13.6875 21.070312 13.675781 21.082031 13.644531 21.082031 L 11.929688 21.082031 C 11.910156 21.082031 11.898438 21.070312 11.898438 21.054688 Z M 4.589844 16.507812 C 4.28125 17.257812 4.242188 18.042969 4.464844 18.871094 C 4.816406 20.179688 5.976562 20.753906 7.273438 20.714844 C 9.023438 20.664062 10.625 19.816406 11.863281 18.578125 C 11.886719 18.558594 11.898438 18.527344 11.898438 18.496094 L 11.898438 13.984375 C 11.898438 13.953125 11.882812 13.941406 11.855469 13.941406 C 10.605469 13.976562 9.410156 14.085938 8.28125 14.269531 C 6.828125 14.503906 5.167969 15.109375 4.589844 16.507812 Z M 4.589844 16.507812 "/>
<path style=" stroke:none;fill-rule:nonzero;fill:rgb(20.784314%,27.058824%,30.196078%);fill-opacity:1;" d="M 23.214844 12.210938 C 23.214844 12.308594 23.234375 12.3125 23.273438 12.222656 C 24.058594 10.507812 25.660156 9.371094 27.507812 9.101562 C 28.261719 8.988281 29.054688 9.011719 29.886719 9.164062 C 31.816406 9.515625 32.925781 10.757812 33.285156 12.648438 C 33.441406 13.476562 33.523438 14.339844 33.523438 15.242188 C 33.519531 17.34375 33.523438 19.277344 33.523438 21.035156 C 33.523438 21.066406 33.507812 21.082031 33.476562 21.082031 L 31.796875 21.082031 C 31.765625 21.082031 31.753906 21.070312 31.753906 21.042969 C 31.753906 18.839844 31.753906 16.570312 31.75 14.230469 C 31.75 13.417969 31.648438 12.644531 31.441406 11.914062 C 31.125 10.78125 30.371094 9.914062 29.207031 9.632812 C 27.65625 9.261719 26.027344 9.773438 24.867188 10.847656 C 23.769531 11.867188 23.21875 13.125 23.214844 14.625 C 23.214844 16.820312 23.214844 18.957031 23.214844 21.035156 C 23.214844 21.066406 23.199219 21.082031 23.164062 21.082031 L 21.503906 21.082031 C 21.464844 21.082031 21.445312 21.0625 21.445312 21.023438 L 21.445312 9.183594 C 21.445312 9.144531 21.464844 9.125 21.503906 9.125 L 23.167969 9.125 C 23.199219 9.125 23.214844 9.140625 23.214844 9.171875 Z M 23.214844 12.210938 "/>
<path style=" stroke:none;fill-rule:nonzero;fill:rgb(20.784314%,27.058824%,30.196078%);fill-opacity:1;" d="M 42.609375 12.226562 C 42.609375 12.324219 42.628906 12.328125 42.667969 12.238281 C 43.402344 10.515625 45.082031 9.375 46.90625 9.101562 C 48.0625 8.925781 49.550781 9.058594 50.621094 9.609375 C 52.675781 10.664062 52.90625 13.179688 52.914062 15.253906 C 52.921875 17.238281 52.921875 19.164062 52.917969 21.035156 C 52.917969 21.0625 52.898438 21.082031 52.871094 21.082031 L 51.203125 21.082031 C 51.167969 21.082031 51.152344 21.066406 51.152344 21.03125 C 51.152344 18.882812 51.148438 16.625 51.148438 14.25 C 51.148438 13.441406 51.046875 12.671875 50.847656 11.941406 C 50.542969 10.828125 49.804688 9.941406 48.675781 9.652344 C 47.089844 9.246094 45.4375 9.761719 44.25 10.863281 C 43.15625 11.878906 42.609375 13.136719 42.613281 14.640625 C 42.613281 16.730469 42.609375 18.859375 42.609375 21.035156 C 42.609375 21.066406 42.59375 21.082031 42.5625 21.082031 L 40.890625 21.082031 C 40.859375 21.082031 40.839844 21.066406 40.839844 21.03125 L 40.839844 9.164062 C 40.839844 9.136719 40.851562 9.125 40.878906 9.125 L 42.566406 9.125 C 42.597656 9.125 42.609375 9.140625 42.609375 9.171875 Z M 42.609375 12.226562 "/>
<path style=" stroke:none;fill-rule:nonzero;fill:rgb(20.784314%,27.058824%,30.196078%);fill-opacity:1;" d="M 68.75 19.1875 C 68.75 19.179688 68.746094 19.171875 68.742188 19.171875 C 68.734375 19.167969 68.730469 19.167969 68.726562 19.171875 C 67.359375 20.371094 65.761719 21.070312 63.925781 21.277344 C 62.414062 21.449219 60.609375 21.101562 59.785156 19.675781 C 59.519531 19.21875 59.394531 18.695312 59.40625 18.105469 C 59.472656 14.910156 63.386719 14.035156 65.820312 13.742188 C 66.699219 13.640625 67.660156 13.558594 68.703125 13.503906 C 68.730469 13.503906 68.746094 13.488281 68.746094 13.460938 C 68.757812 12.886719 68.695312 12.308594 68.554688 11.722656 C 68.363281 10.929688 67.980469 10.355469 67.402344 9.992188 C 67.011719 9.746094 66.492188 9.582031 65.84375 9.507812 C 64.421875 9.339844 63.066406 9.660156 61.773438 10.46875 C 61.351562 10.730469 60.96875 11.105469 60.625 11.582031 C 60.613281 11.597656 60.601562 11.597656 60.59375 11.578125 L 60.367188 11.128906 C 60.363281 11.117188 60.363281 11.105469 60.371094 11.09375 C 61.59375 9.691406 63.464844 9.070312 65.351562 9.035156 C 66.078125 9.023438 66.769531 9.082031 67.433594 9.222656 C 68.691406 9.484375 69.671875 10.191406 70.148438 11.390625 C 70.484375 12.246094 70.546875 13.140625 70.546875 14.066406 C 70.542969 16.398438 70.542969 18.722656 70.546875 21.035156 C 70.546875 21.066406 70.53125 21.082031 70.5 21.082031 L 68.773438 21.082031 C 68.761719 21.082031 68.753906 21.074219 68.753906 21.0625 Z M 65.148438 14.265625 C 63.550781 14.515625 61.648438 15.246094 61.273438 17.023438 C 61.144531 17.660156 61.152344 18.261719 61.300781 18.832031 C 61.652344 20.152344 62.792969 20.746094 64.085938 20.714844 C 65.855469 20.675781 67.484375 19.824219 68.722656 18.574219 C 68.742188 18.550781 68.753906 18.527344 68.753906 18.496094 L 68.75 13.984375 C 68.75 13.953125 68.738281 13.9375 68.707031 13.941406 C 67.441406 13.980469 66.253906 14.089844 65.148438 14.265625 Z M 65.148438 14.265625 "/>
<path style=" stroke:none;fill-rule:nonzero;fill:rgb(20.784314%,27.058824%,30.196078%);fill-opacity:1;" d="M 100.191406 9.125 L 100.710938 9.125 C 100.71875 9.125 100.726562 9.128906 100.730469 9.136719 C 100.734375 9.144531 100.734375 9.152344 100.734375 9.160156 L 94.816406 21.207031 C 94.8125 21.214844 94.804688 21.222656 94.796875 21.222656 C 94.785156 21.222656 94.777344 21.214844 94.773438 21.207031 L 88.859375 9.160156 C 88.855469 9.152344 88.855469 9.144531 88.859375 9.136719 C 88.863281 9.128906 88.871094 9.125 88.878906 9.125 L 90.835938 9.125 C 90.84375 9.125 90.851562 9.128906 90.855469 9.140625 L 95.488281 18.625 C 95.496094 18.632812 95.503906 18.636719 95.511719 18.636719 C 95.523438 18.636719 95.53125 18.632812 95.535156 18.625 L 100.167969 9.136719 C 100.171875 9.128906 100.183594 9.125 100.191406 9.125 Z M 100.191406 9.125 "/>
<path style=" stroke:none;fill-rule:nonzero;fill:rgb(20.784314%,27.058824%,30.196078%);fill-opacity:1;" d="M 144.433594 9.125 L 146.144531 9.125 C 146.160156 9.125 146.171875 9.136719 146.171875 9.152344 L 146.171875 21.054688 C 146.171875 21.070312 146.160156 21.082031 146.144531 21.082031 L 144.433594 21.082031 C 144.414062 21.082031 144.402344 21.070312 144.402344 21.054688 L 144.402344 9.152344 C 144.402344 9.136719 144.414062 9.125 144.433594 9.125 Z M 144.433594 9.125 "/>
<path style=" stroke:none;fill-rule:nonzero;fill:rgb(88.235294%,86.27451%,85.098039%);fill-opacity:1;" d="M 110.472656 9.773438 C 112.375 9.171875 114.207031 10.152344 115.484375 11.609375 C 115.914062 12.097656 116.234375 12.675781 116.441406 13.347656 C 116.445312 13.355469 116.441406 13.363281 116.433594 13.367188 L 108.421875 16.78125 C 108.394531 16.792969 108.371094 16.785156 108.355469 16.761719 C 107.265625 15.070312 106.933594 13.015625 108.242188 11.355469 C 108.789062 10.660156 109.613281 10.046875 110.472656 9.773438 Z M 110.472656 9.773438 "/>
<path style=" stroke:none;fill-rule:nonzero;fill:rgb(88.235294%,86.27451%,85.098039%);fill-opacity:1;" d="M 4.589844 16.507812 C 5.167969 15.109375 6.828125 14.503906 8.28125 14.269531 C 9.410156 14.085938 10.605469 13.976562 11.855469 13.941406 C 11.882812 13.941406 11.898438 13.953125 11.898438 13.984375 L 11.898438 18.496094 C 11.898438 18.527344 11.886719 18.558594 11.863281 18.578125 C 10.625 19.816406 9.023438 20.664062 7.273438 20.714844 C 5.976562 20.753906 4.816406 20.179688 4.464844 18.871094 C 4.242188 18.042969 4.28125 17.257812 4.589844 16.507812 Z M 4.589844 16.507812 "/>
<path style=" stroke:none;fill-rule:nonzero;fill:rgb(88.235294%,86.27451%,85.098039%);fill-opacity:1;" d="M 61.273438 17.023438 C 61.648438 15.246094 63.550781 14.515625 65.148438 14.265625 C 66.253906 14.089844 67.441406 13.980469 68.707031 13.941406 C 68.738281 13.9375 68.75 13.953125 68.75 13.984375 L 68.753906 18.496094 C 68.753906 18.527344 68.742188 18.550781 68.722656 18.574219 C 67.484375 19.824219 65.855469 20.675781 64.085938 20.714844 C 62.792969 20.746094 61.652344 20.152344 61.300781 18.832031 C 61.152344 18.261719 61.144531 17.660156 61.273438 17.023438 Z M 61.273438 17.023438 "/>
<path style=" stroke:none;fill-rule:nonzero;fill:rgb(20.784314%,27.058824%,30.196078%);fill-opacity:1;" d="M 145.921875 34.722656 L 144.683594 36.277344 C 144.679688 36.285156 144.671875 36.289062 144.660156 36.289062 L 144.316406 36.285156 C 144.304688 36.285156 144.296875 36.28125 144.292969 36.273438 C 144.285156 36.261719 144.289062 36.253906 144.292969 36.246094 L 145.308594 34.691406 C 145.3125 34.683594 145.320312 34.679688 145.332031 34.679688 L 145.902344 34.679688 C 145.910156 34.679688 145.921875 34.683594 145.925781 34.695312 C 145.929688 34.703125 145.929688 34.714844 145.921875 34.722656 Z M 145.921875 34.722656 "/>
<path style=" stroke:none;fill-rule:nonzero;fill:rgb(20.784314%,27.058824%,30.196078%);fill-opacity:1;" d="M 65.472656 41.085938 C 65.472656 41.027344 65.453125 41.019531 65.417969 41.070312 C 65.214844 41.351562 64.953125 41.582031 64.625 41.761719 C 63.582031 42.332031 62.308594 42.175781 61.539062 41.265625 C 60.738281 40.3125 60.75 38.8125 61.578125 37.910156 C 62.480469 36.921875 63.949219 36.898438 64.988281 37.699219 C 65.167969 37.839844 65.292969 38.007812 65.4375 38.179688 C 65.464844 38.214844 65.480469 38.207031 65.480469 38.164062 L 65.480469 35.097656 C 65.480469 35.089844 65.484375 35.085938 65.492188 35.085938 L 66.023438 35.082031 C 66.039062 35.082031 66.046875 35.089844 66.046875 35.105469 L 66.046875 41.984375 C 66.046875 41.996094 66.042969 42 66.03125 42 L 65.488281 42 C 65.476562 42 65.46875 41.992188 65.46875 41.980469 Z M 64.238281 41.460938 C 65.257812 41.058594 65.761719 39.902344 65.359375 38.875 C 64.957031 37.847656 63.800781 37.339844 62.777344 37.738281 C 61.757812 38.140625 61.253906 39.296875 61.65625 40.324219 C 62.058594 41.351562 63.214844 41.859375 64.238281 41.460938 Z M 64.238281 41.460938 "/>
<path style=" stroke:none;fill-rule:nonzero;fill:rgb(20.784314%,27.058824%,30.196078%);fill-opacity:1;" d="M 122.382812 35.539062 C 122.382812 35.765625 122.203125 35.949219 121.976562 35.949219 C 121.753906 35.949219 121.570312 35.765625 121.570312 35.539062 C 121.570312 35.316406 121.753906 35.132812 121.976562 35.132812 C 122.203125 35.132812 122.382812 35.316406 122.382812 35.539062 Z M 122.382812 35.539062 "/>
<path style=" stroke:none;fill-rule:nonzero;fill:rgb(20.784314%,27.058824%,30.196078%);fill-opacity:1;" d="M 137.050781 35.539062 C 137.050781 35.765625 136.867188 35.949219 136.644531 35.949219 C 136.417969 35.949219 136.238281 35.765625 136.238281 35.539062 C 136.238281 35.316406 136.417969 35.132812 136.644531 35.132812 C 136.867188 35.132812 137.050781 35.316406 137.050781 35.539062 Z M 137.050781 35.539062 "/>
<path style=" stroke:none;fill-rule:nonzero;fill:rgb(20.784314%,27.058824%,30.196078%);fill-opacity:1;" d="M 31.375 37.820312 L 31.375 41.972656 C 31.375 41.988281 31.363281 42 31.347656 42 L 30.824219 42 C 30.808594 42 30.796875 41.988281 30.796875 41.972656 L 30.796875 37.820312 C 30.796875 37.804688 30.78125 37.792969 30.765625 37.792969 L 29.820312 37.792969 C 29.804688 37.792969 29.792969 37.78125 29.792969 37.765625 L 29.792969 37.363281 C 29.792969 37.347656 29.804688 37.335938 29.820312 37.335938 L 30.765625 37.335938 C 30.78125 37.335938 30.796875 37.324219 30.796875 37.308594 L 30.796875 35.222656 C 30.796875 35.207031 30.808594 35.195312 30.824219 35.195312 L 31.347656 35.195312 C 31.363281 35.195312 31.375 35.207031 31.375 35.222656 L 31.375 37.304688 C 31.375 37.320312 31.386719 37.335938 31.402344 37.335938 L 32.808594 37.335938 C 32.824219 37.335938 32.835938 37.347656 32.835938 37.363281 L 32.835938 37.765625 C 32.835938 37.78125 32.824219 37.792969 32.808594 37.792969 L 31.402344 37.792969 C 31.386719 37.792969 31.375 37.804688 31.375 37.820312 Z M 31.375 37.820312 "/>
<path style=" stroke:none;fill-rule:nonzero;fill:rgb(20.784314%,27.058824%,30.196078%);fill-opacity:1;" d="M 107.957031 37.847656 L 107.957031 41.980469 C 107.957031 41.992188 107.953125 42 107.9375 42 L 107.398438 42 C 107.386719 42 107.378906 41.992188 107.378906 41.980469 L 107.378906 37.835938 C 107.378906 37.808594 107.363281 37.792969 107.335938 37.792969 L 106.417969 37.792969 C 106.390625 37.792969 106.375 37.78125 106.375 37.75 L 106.375 37.375 C 106.375 37.347656 106.390625 37.335938 106.417969 37.335938 L 107.332031 37.335938 C 107.363281 37.335938 107.378906 37.320312 107.378906 37.289062 L 107.378906 35.234375 C 107.378906 35.210938 107.394531 35.195312 107.414062 35.195312 L 107.929688 35.195312 C 107.945312 35.195312 107.957031 35.210938 107.957031 35.226562 L 107.960938 37.3125 C 107.960938 37.328125 107.964844 37.335938 107.980469 37.335938 L 109.394531 37.335938 C 109.410156 37.335938 109.421875 37.34375 109.421875 37.359375 C 109.421875 37.632812 109.421875 37.769531 109.421875 37.769531 C 109.421875 37.785156 109.414062 37.792969 109.398438 37.792969 C 108.964844 37.792969 108.507812 37.792969 108.015625 37.792969 C 107.976562 37.792969 107.957031 37.8125 107.957031 37.847656 Z M 107.957031 37.847656 "/>
<path style=" stroke:none;fill-rule:nonzero;fill:rgb(20.784314%,27.058824%,30.196078%);fill-opacity:1;" d="M 11.832031 40.5 C 11.941406 40.660156 12.023438 40.835938 12.160156 40.972656 C 12.917969 41.75 14.097656 41.820312 14.945312 41.097656 C 14.953125 41.09375 14.960938 41.089844 14.972656 41.089844 C 14.980469 41.09375 14.988281 41.097656 14.992188 41.105469 L 15.257812 41.476562 C 15.265625 41.484375 15.261719 41.492188 15.253906 41.5 C 14.449219 42.089844 13.597656 42.238281 12.707031 41.953125 C 12.195312 41.789062 11.683594 41.363281 11.410156 40.886719 C 10.714844 39.675781 11.125 38.179688 12.375 37.441406 C 12.738281 37.230469 13.148438 37.121094 13.605469 37.125 C 14.710938 37.125 15.5 37.851562 15.828125 38.863281 C 15.835938 38.894531 15.824219 38.914062 15.796875 38.925781 L 11.84375 40.453125 C 11.835938 40.457031 11.828125 40.464844 11.824219 40.472656 C 11.824219 40.484375 11.824219 40.492188 11.832031 40.5 Z M 11.8125 38.765625 C 11.648438 39.121094 11.597656 39.527344 11.667969 39.984375 C 11.671875 40.023438 11.695312 40.035156 11.730469 40.023438 L 15.101562 38.699219 C 15.136719 38.6875 15.144531 38.664062 15.128906 38.632812 C 14.816406 38.046875 14.269531 37.585938 13.597656 37.609375 C 12.75 37.636719 12.152344 38.023438 11.8125 38.765625 Z M 11.8125 38.765625 "/>
<path style=" stroke:none;fill-rule:nonzero;fill:rgb(20.784314%,27.058824%,30.196078%);fill-opacity:1;" d="M 45.402344 40.507812 C 45.789062 41.207031 46.355469 41.570312 47.09375 41.597656 C 47.601562 41.613281 48.070312 41.449219 48.503906 41.105469 C 48.515625 41.097656 48.523438 41.097656 48.535156 41.097656 C 48.546875 41.097656 48.558594 41.105469 48.566406 41.113281 L 48.800781 41.453125 C 48.820312 41.476562 48.816406 41.496094 48.792969 41.511719 C 47.765625 42.28125 46.367188 42.320312 45.410156 41.429688 C 44.996094 41.042969 44.75 40.582031 44.671875 40.046875 C 44.589844 39.464844 44.667969 38.945312 44.914062 38.492188 C 45.363281 37.667969 46.191406 37.125 47.152344 37.125 C 48.277344 37.121094 49.035156 37.835938 49.390625 38.859375 C 49.402344 38.890625 49.394531 38.914062 49.363281 38.925781 L 45.425781 40.445312 C 45.394531 40.457031 45.386719 40.480469 45.402344 40.507812 Z M 48.691406 38.632812 C 48.382812 38.058594 47.886719 37.632812 47.246094 37.609375 C 46.492188 37.582031 45.800781 37.949219 45.449219 38.609375 C 45.226562 39.023438 45.152344 39.484375 45.234375 39.992188 C 45.242188 40.023438 45.257812 40.035156 45.292969 40.023438 L 48.664062 38.699219 C 48.699219 38.6875 48.707031 38.664062 48.691406 38.632812 Z M 48.691406 38.632812 "/>
<path style=" stroke:none;fill-rule:nonzero;fill:rgb(20.784314%,27.058824%,30.196078%);fill-opacity:1;" d="M 71.851562 40.488281 C 72.21875 41.171875 72.757812 41.539062 73.476562 41.589844 C 74.023438 41.628906 74.519531 41.46875 74.953125 41.109375 C 74.964844 41.101562 74.976562 41.097656 74.992188 41.097656 C 75.003906 41.101562 75.015625 41.109375 75.023438 41.117188 L 75.261719 41.449219 C 75.277344 41.476562 75.273438 41.496094 75.25 41.515625 C 74.191406 42.296875 72.75 42.316406 71.816406 41.378906 C 71.472656 41.035156 71.253906 40.644531 71.160156 40.214844 C 70.921875 39.082031 71.386719 38.042969 72.382812 37.449219 C 73.183594 36.972656 74.300781 37.003906 75.015625 37.601562 C 75.398438 37.925781 75.675781 38.34375 75.847656 38.863281 C 75.859375 38.894531 75.847656 38.914062 75.816406 38.925781 L 71.867188 40.453125 C 71.859375 40.453125 71.855469 40.460938 71.851562 40.46875 C 71.847656 40.472656 71.847656 40.480469 71.851562 40.488281 Z M 72.28125 38.125 C 71.761719 38.597656 71.589844 39.277344 71.691406 39.988281 C 71.695312 40.023438 71.714844 40.035156 71.75 40.023438 L 75.148438 38.691406 C 75.164062 38.683594 75.167969 38.675781 75.160156 38.660156 C 74.902344 38.125 74.390625 37.664062 73.785156 37.617188 C 73.199219 37.574219 72.699219 37.742188 72.28125 38.125 Z M 72.28125 38.125 "/>
<path style=" stroke:none;fill-rule:nonzero;fill:rgb(20.784314%,27.058824%,30.196078%);fill-opacity:1;" d="M 146.957031 39.089844 C 147.242188 40.4375 146.363281 41.761719 145 42.050781 C 143.636719 42.335938 142.300781 41.480469 142.015625 40.132812 C 141.734375 38.785156 142.609375 37.460938 143.972656 37.171875 C 145.335938 36.886719 146.671875 37.746094 146.957031 39.089844 Z M 144.417969 41.605469 C 145.488281 41.640625 146.382812 40.777344 146.417969 39.679688 C 146.457031 38.578125 145.621094 37.660156 144.550781 37.625 C 143.484375 37.589844 142.585938 38.449219 142.550781 39.550781 C 142.515625 40.652344 143.351562 41.570312 144.417969 41.605469 Z M 144.417969 41.605469 "/>
<path style=" stroke:none;fill-rule:nonzero;fill:rgb(20.784314%,27.058824%,30.196078%);fill-opacity:1;" d="M 21.359375 38.261719 C 21.648438 37.65625 22.265625 37.285156 22.921875 37.175781 C 23.671875 37.054688 24.398438 37.28125 24.703125 38.011719 C 24.785156 38.210938 24.824219 38.46875 24.824219 38.785156 C 24.816406 39.835938 24.8125 40.898438 24.816406 41.972656 C 24.816406 41.988281 24.804688 42 24.792969 42 L 24.261719 42 C 24.25 42 24.242188 41.992188 24.242188 41.980469 C 24.234375 40.996094 24.234375 40 24.242188 38.988281 C 24.246094 38.363281 24.042969 37.734375 23.3125 37.65625 C 22.503906 37.570312 21.765625 38.042969 21.480469 38.792969 C 21.378906 39.058594 21.332031 39.484375 21.347656 40.066406 C 21.359375 40.652344 21.359375 41.292969 21.347656 41.984375 C 21.347656 41.996094 21.34375 42 21.332031 42 L 20.808594 42 C 20.792969 42 20.785156 41.992188 20.785156 41.976562 L 20.785156 37.296875 C 20.785156 37.28125 20.792969 37.273438 20.808594 37.273438 L 21.257812 37.273438 C 21.273438 37.273438 21.28125 37.28125 21.28125 37.296875 L 21.320312 38.253906 C 21.324219 38.304688 21.335938 38.308594 21.359375 38.261719 Z M 21.359375 38.261719 "/>
<path style=" stroke:none;fill-rule:nonzero;fill:rgb(20.784314%,27.058824%,30.196078%);fill-opacity:1;" d="M 38.15625 38.335938 C 38.160156 38.382812 38.167969 38.382812 38.1875 38.34375 C 38.546875 37.628906 39.339844 37.191406 40.109375 37.144531 C 40.140625 37.144531 40.152344 37.15625 40.152344 37.1875 L 40.132812 37.667969 C 40.132812 37.695312 40.117188 37.710938 40.085938 37.710938 C 39.589844 37.71875 39.15625 37.878906 38.785156 38.199219 C 38.394531 38.539062 38.195312 38.992188 38.191406 39.554688 C 38.183594 40.367188 38.183594 41.175781 38.1875 41.976562 C 38.1875 41.992188 38.179688 42 38.164062 42 L 37.632812 42 C 37.621094 42 37.617188 41.996094 37.617188 41.984375 L 37.621094 37.296875 C 37.621094 37.28125 37.625 37.273438 37.640625 37.273438 L 38.089844 37.273438 C 38.105469 37.273438 38.113281 37.28125 38.113281 37.296875 Z M 38.15625 38.335938 "/>
<path style=" stroke:none;fill-rule:nonzero;fill:rgb(20.784314%,27.058824%,30.196078%);fill-opacity:1;" d="M 88.441406 38.261719 C 88.605469 37.929688 88.847656 37.671875 89.171875 37.476562 C 90.023438 36.972656 91.375 36.953125 91.796875 38.039062 C 91.871094 38.238281 91.910156 38.515625 91.90625 38.875 C 91.898438 39.949219 91.898438 40.984375 91.902344 41.980469 C 91.902344 41.992188 91.894531 42 91.882812 42 L 91.339844 42 C 91.328125 42 91.324219 41.992188 91.324219 41.984375 C 91.320312 40.96875 91.320312 39.960938 91.324219 38.957031 C 91.328125 38.109375 90.929688 37.550781 90 37.660156 C 89.332031 37.738281 88.808594 38.171875 88.558594 38.792969 C 88.460938 39.027344 88.417969 39.457031 88.429688 40.074219 C 88.441406 40.6875 88.441406 41.324219 88.433594 41.984375 C 88.433594 41.996094 88.425781 42 88.414062 42 L 87.890625 42 C 87.875 42 87.867188 41.992188 87.867188 41.976562 L 87.871094 37.296875 C 87.871094 37.28125 87.875 37.273438 87.890625 37.273438 L 88.339844 37.273438 C 88.355469 37.273438 88.363281 37.28125 88.363281 37.296875 L 88.40625 38.253906 C 88.40625 38.304688 88.421875 38.308594 88.441406 38.261719 Z M 88.441406 38.261719 "/>
<path style=" stroke:none;fill-rule:nonzero;fill:rgb(20.784314%,27.058824%,30.196078%);fill-opacity:1;" d="M 114.785156 38.324219 C 115.136719 37.628906 115.925781 37.191406 116.691406 37.144531 C 116.722656 37.144531 116.734375 37.15625 116.734375 37.1875 L 116.714844 37.667969 C 116.714844 37.695312 116.699219 37.710938 116.671875 37.710938 C 115.855469 37.730469 115.074219 38.210938 114.851562 39.007812 C 114.789062 39.230469 114.757812 39.53125 114.765625 39.90625 C 114.773438 40.609375 114.773438 41.300781 114.765625 41.984375 C 114.765625 41.996094 114.757812 42 114.75 42 L 114.214844 42 C 114.207031 42 114.203125 41.996094 114.203125 41.984375 L 114.203125 37.296875 C 114.203125 37.28125 114.210938 37.273438 114.226562 37.273438 L 114.671875 37.273438 C 114.6875 37.273438 114.695312 37.28125 114.699219 37.296875 L 114.738281 38.316406 C 114.742188 38.375 114.757812 38.378906 114.785156 38.324219 Z M 114.785156 38.324219 "/>
<path style=" stroke:none;fill-rule:nonzero;fill:rgb(20.784314%,27.058824%,30.196078%);fill-opacity:1;" d="M 3.933594 37.976562 C 3.234375 38.453125 2.929688 39.304688 3.128906 40.125 C 3.472656 41.53125 5.132812 42.027344 6.265625 41.199219 C 6.277344 41.191406 6.285156 41.191406 6.296875 41.203125 L 6.582031 41.519531 C 6.589844 41.53125 6.589844 41.542969 6.578125 41.550781 C 5.617188 42.289062 4.234375 42.277344 3.335938 41.496094 C 2.570312 40.824219 2.316406 39.828125 2.605469 38.878906 C 2.707031 38.53125 2.898438 38.214844 3.175781 37.929688 C 3.871094 37.21875 4.746094 37.007812 5.808594 37.296875 C 6.066406 37.367188 6.328125 37.507812 6.589844 37.714844 C 6.601562 37.722656 6.601562 37.734375 6.59375 37.746094 L 6.320312 38.09375 C 6.308594 38.105469 6.296875 38.109375 6.285156 38.097656 C 5.585938 37.5625 4.652344 37.476562 3.933594 37.976562 Z M 3.933594 37.976562 "/>
<path style=" stroke:none;fill-rule:nonzero;fill:rgb(20.784314%,27.058824%,30.196078%);fill-opacity:1;" d="M 128.644531 41.824219 C 128.375 41.699219 128.121094 41.5 127.886719 41.226562 C 127.039062 40.261719 127.125 38.742188 128.058594 37.863281 C 128.738281 37.21875 129.570312 37.023438 130.550781 37.277344 C 130.859375 37.355469 131.144531 37.503906 131.402344 37.714844 C 131.410156 37.722656 131.410156 37.734375 131.402344 37.746094 C 131.398438 37.75 131.308594 37.867188 131.136719 38.09375 C 131.125 38.105469 131.117188 38.109375 131.101562 38.097656 C 130.117188 37.359375 128.804688 37.527344 128.15625 38.609375 C 127.816406 39.175781 127.792969 39.925781 128.085938 40.519531 C 128.648438 41.648438 130.0625 41.925781 131.070312 41.203125 C 131.078125 41.199219 131.085938 41.199219 131.09375 41.203125 C 131.148438 41.246094 131.253906 41.355469 131.402344 41.535156 C 131.410156 41.542969 131.410156 41.550781 131.398438 41.558594 C 130.488281 42.175781 129.570312 42.261719 128.644531 41.824219 Z M 128.644531 41.824219 "/>
<path style=" stroke:none;fill-rule:nonzero;fill:rgb(20.784314%,27.058824%,30.196078%);fill-opacity:1;" d="M 100.828125 41.070312 C 100.488281 41.636719 99.953125 41.984375 99.226562 42.105469 C 98.257812 42.269531 97.421875 41.699219 97.414062 40.6875 C 97.410156 39.566406 97.40625 38.4375 97.410156 37.300781 C 97.410156 37.285156 97.417969 37.273438 97.4375 37.273438 L 97.953125 37.273438 C 97.96875 37.273438 97.976562 37.28125 97.976562 37.292969 C 97.980469 38.230469 97.980469 39.222656 97.972656 40.269531 C 97.972656 40.71875 98.042969 41.15625 98.414062 41.417969 C 98.566406 41.527344 98.738281 41.589844 98.921875 41.609375 C 99.488281 41.671875 99.976562 41.472656 100.378906 41.023438 C 100.753906 40.601562 100.84375 40.109375 100.839844 39.503906 C 100.835938 38.734375 100.835938 38.003906 100.839844 37.308594 C 100.839844 37.289062 100.855469 37.273438 100.875 37.273438 L 101.378906 37.273438 C 101.398438 37.273438 101.410156 37.285156 101.410156 37.304688 L 101.410156 41.984375 C 101.410156 41.992188 101.402344 42 101.390625 42 L 100.917969 42 C 100.90625 42 100.898438 41.992188 100.898438 41.980469 L 100.871094 41.082031 C 100.867188 41.03125 100.855469 41.027344 100.828125 41.070312 Z M 100.828125 41.070312 "/>
<path style=" stroke:none;fill-rule:nonzero;fill:rgb(20.784314%,27.058824%,30.196078%);fill-opacity:1;" d="M 121.722656 37.273438 L 122.207031 37.273438 C 122.230469 37.273438 122.25 37.289062 122.25 37.3125 L 122.25 41.957031 C 122.25 41.980469 122.230469 42 122.207031 42 L 121.722656 42 C 121.699219 42 121.679688 41.980469 121.679688 41.957031 L 121.679688 37.3125 C 121.679688 37.289062 121.699219 37.273438 121.722656 37.273438 Z M 121.722656 37.273438 "/>
<path style=" stroke:none;fill-rule:nonzero;fill:rgb(20.784314%,27.058824%,30.196078%);fill-opacity:1;" d="M 136.386719 37.273438 L 136.875 37.273438 C 136.898438 37.273438 136.914062 37.289062 136.914062 37.3125 L 136.914062 41.957031 C 136.914062 41.980469 136.898438 42 136.875 42 L 136.386719 42 C 136.367188 42 136.347656 41.980469 136.347656 41.957031 L 136.347656 37.3125 C 136.347656 37.289062 136.367188 37.273438 136.386719 37.273438 Z M 136.386719 37.273438 "/>
<path style=" stroke:none;fill-rule:nonzero;fill:rgb(88.235294%,86.27451%,85.098039%);fill-opacity:1;" d="M 11.8125 38.765625 C 12.152344 38.023438 12.75 37.636719 13.597656 37.609375 C 14.269531 37.585938 14.816406 38.046875 15.128906 38.632812 C 15.144531 38.664062 15.136719 38.6875 15.101562 38.699219 L 11.730469 40.023438 C 11.695312 40.035156 11.671875 40.023438 11.667969 39.984375 C 11.597656 39.527344 11.648438 39.121094 11.8125 38.765625 Z M 11.8125 38.765625 "/>
<path style=" stroke:none;fill-rule:nonzero;fill:rgb(88.235294%,86.27451%,85.098039%);fill-opacity:1;" d="M 47.246094 37.609375 C 47.886719 37.632812 48.382812 38.058594 48.691406 38.632812 C 48.707031 38.664062 48.699219 38.6875 48.664062 38.699219 L 45.292969 40.023438 C 45.257812 40.035156 45.242188 40.023438 45.234375 39.992188 C 45.152344 39.484375 45.226562 39.023438 45.449219 38.609375 C 45.800781 37.949219 46.492188 37.582031 47.246094 37.609375 Z M 47.246094 37.609375 "/>
<path style=" stroke:none;fill-rule:nonzero;fill:rgb(88.235294%,86.27451%,85.098039%);fill-opacity:1;" d="M 64.238281 41.460938 C 65.257812 41.058594 65.761719 39.902344 65.359375 38.875 C 64.957031 37.847656 63.800781 37.339844 62.777344 37.738281 C 61.757812 38.140625 61.253906 39.296875 61.65625 40.324219 C 62.058594 41.351562 63.214844 41.859375 64.238281 41.460938 Z M 64.238281 41.460938 "/>
<path style=" stroke:none;fill-rule:nonzero;fill:rgb(88.235294%,86.27451%,85.098039%);fill-opacity:1;" d="M 71.691406 39.988281 C 71.589844 39.277344 71.761719 38.597656 72.28125 38.125 C 72.699219 37.742188 73.199219 37.574219 73.785156 37.617188 C 74.390625 37.664062 74.902344 38.125 75.160156 38.660156 C 75.167969 38.675781 75.164062 38.683594 75.148438 38.691406 L 71.75 40.023438 C 71.714844 40.035156 71.695312 40.023438 71.691406 39.988281 Z M 71.691406 39.988281 "/>
<path style=" stroke:none;fill-rule:nonzero;fill:rgb(88.235294%,86.27451%,85.098039%);fill-opacity:1;" d="M 144.417969 41.605469 C 145.488281 41.640625 146.382812 40.777344 146.417969 39.679688 C 146.457031 38.578125 145.621094 37.660156 144.550781 37.625 C 143.484375 37.589844 142.585938 38.449219 142.550781 39.550781 C 142.515625 40.652344 143.351562 41.570312 144.417969 41.605469 Z M 144.417969 41.605469 "/>
<path style=" stroke:none;fill-rule:nonzero;fill:rgb(20.784314%,27.058824%,30.196078%);fill-opacity:1;" d="M 74.75 61.929688 C 75.332031 61.933594 75.808594 61.457031 75.8125 60.863281 C 75.816406 60.273438 75.347656 59.789062 74.765625 59.785156 C 74.1875 59.78125 73.710938 60.257812 73.707031 60.851562 C 73.703125 61.441406 74.171875 61.925781 74.75 61.929688 Z M 74.75 61.929688 "/>
</g>
</svg>
