<?xml version="1.0" encoding="UTF-8" standalone="no"?>
<!DOCTYPE svg PUBLIC "-//W3C//DTD SVG 1.1//EN" "http://www.w3.org/Graphics/SVG/1.1/DTD/svg11.dtd">
<svg xmlns="http://www.w3.org/2000/svg" version="1.1" viewBox="0.00 0.00 226.00 228.00">
<g stroke-width="2.00" fill="none" stroke-linecap="butt">
<path stroke="#d7cec5" vector-effect="non-scaling-stroke" d="
  M 206.55 121.14
  Q 207.39 113.79 206.88 107.47
  Q 203.02 59.20 164.27 33.40
  C 147.79 22.43 125.56 16.67 105.51 18.41
  C 32.65 24.74 -5.47 107.06 36.80 166.59
  A 0.79 0.78 41.3 0 1 36.86 167.42
  L 19.95 198.93
  Q 19.40 199.97 20.55 199.74
  Q 41.21 195.60 60.76 191.87
  Q 63.10 191.42 64.80 192.41
  C 84.40 203.79 107.44 208.84 129.76 204.34
  C 171.53 195.92 201.74 163.35 206.55 121.14"
/>
<path stroke="#d7cec5" vector-effect="non-scaling-stroke" d="
  M 189.48 112.01
  A 76.47 76.47 0.0 0 0 113.01 35.54
  A 76.47 76.47 0.0 0 0 36.54 112.01
  A 76.47 76.47 0.0 0 0 113.01 188.48
  A 76.47 76.47 0.0 0 0 189.48 112.01"
/>
<path stroke="#d7cec5" vector-effect="non-scaling-stroke" d="
  M 67.13 86.62
  Q 71.16 108.99 84.48 128.25
  C 98.28 148.21 118.88 160.64 143.25 163.02
  C 148.30 163.51 152.04 160.90 154.44 156.68
  C 157.87 150.64 161.75 144.74 156.83 138.52
  Q 155.20 136.46 150.46 133.87
  C 145.04 130.91 140.14 126.88 133.59 129.54
  C 130.59 130.76 128.67 133.55 125.66 134.57
  C 116.36 137.71 102.70 123.98 97.71 117.53
  Q 94.06 112.80 95.41 107.38
  C 96.60 102.55 100.92 100.34 100.93 94.80
  C 100.93 90.74 98.46 85.11 97.10 81.23
  Q 94.96 75.11 92.64 72.98
  C 89.01 69.64 84.10 69.53 79.60 71.61
  C 72.58 74.85 65.48 77.53 67.13 86.62"
/>
</g>
<path fill="#e1dcd9" d="
  M 0.00 0.00
  L 226.00 0.00
  L 226.00 228.00
  L 0.00 228.00
  L 0.00 0.00
  Z
  M 206.55 121.14
  Q 207.39 113.79 206.88 107.47
  Q 203.02 59.20 164.27 33.40
  C 147.79 22.43 125.56 16.67 105.51 18.41
  C 32.65 24.74 -5.47 107.06 36.80 166.59
  A 0.79 0.78 41.3 0 1 36.86 167.42
  L 19.95 198.93
  Q 19.40 199.97 20.55 199.74
  Q 41.21 195.60 60.76 191.87
  Q 63.10 191.42 64.80 192.41
  C 84.40 203.79 107.44 208.84 129.76 204.34
  C 171.53 195.92 201.74 163.35 206.55 121.14
  Z"
/>
<path fill="#ccbfb0" d="
  M 206.55 121.14
  C 201.74 163.35 171.53 195.92 129.76 204.34
  C 107.44 208.84 84.40 203.79 64.80 192.41
  Q 63.10 191.42 60.76 191.87
  Q 41.21 195.60 20.55 199.74
  Q 19.40 199.97 19.95 198.93
  L 36.86 167.42
  A 0.79 0.78 41.3 0 0 36.80 166.59
  C -5.47 107.06 32.65 24.74 105.51 18.41
  C 125.56 16.67 147.79 22.43 164.27 33.40
  Q 203.02 59.20 206.88 107.47
  Q 207.39 113.79 206.55 121.14
  Z
  M 189.48 112.01
  A 76.47 76.47 0.0 0 0 113.01 35.54
  A 76.47 76.47 0.0 0 0 36.54 112.01
  A 76.47 76.47 0.0 0 0 113.01 188.48
  A 76.47 76.47 0.0 0 0 189.48 112.01
  Z"
/>
<path fill="#e1dcd9" d="
  M 189.48 112.01
  A 76.47 76.47 0.0 0 1 113.01 188.48
  A 76.47 76.47 0.0 0 1 36.54 112.01
  A 76.47 76.47 0.0 0 1 113.01 35.54
  A 76.47 76.47 0.0 0 1 189.48 112.01
  Z
  M 67.13 86.62
  Q 71.16 108.99 84.48 128.25
  C 98.28 148.21 118.88 160.64 143.25 163.02
  C 148.30 163.51 152.04 160.90 154.44 156.68
  C 157.87 150.64 161.75 144.74 156.83 138.52
  Q 155.20 136.46 150.46 133.87
  C 145.04 130.91 140.14 126.88 133.59 129.54
  C 130.59 130.76 128.67 133.55 125.66 134.57
  C 116.36 137.71 102.70 123.98 97.71 117.53
  Q 94.06 112.80 95.41 107.38
  C 96.60 102.55 100.92 100.34 100.93 94.80
  C 100.93 90.74 98.46 85.11 97.10 81.23
  Q 94.96 75.11 92.64 72.98
  C 89.01 69.64 84.10 69.53 79.60 71.61
  C 72.58 74.85 65.48 77.53 67.13 86.62
  Z"
/>
<path fill="#ccbfb0" d="
  M 67.13 86.62
  C 65.48 77.53 72.58 74.85 79.60 71.61
  C 84.10 69.53 89.01 69.64 92.64 72.98
  Q 94.96 75.11 97.10 81.23
  C 98.46 85.11 100.93 90.74 100.93 94.80
  C 100.92 100.34 96.60 102.55 95.41 107.38
  Q 94.06 112.80 97.71 117.53
  C 102.70 123.98 116.36 137.71 125.66 134.57
  C 128.67 133.55 130.59 130.76 133.59 129.54
  C 140.14 126.88 145.04 130.91 150.46 133.87
  Q 155.20 136.46 156.83 138.52
  C 161.75 144.74 157.87 150.64 154.44 156.68
  C 152.04 160.90 148.30 163.51 143.25 163.02
  C 118.88 160.64 98.28 148.21 84.48 128.25
  Q 71.16 108.99 67.13 86.62
  Z"
/>
</svg>
