<?xml version="1.0" encoding="UTF-8" standalone="no"?>
<!DOCTYPE svg PUBLIC "-//W3C//DTD SVG 1.1//EN" "http://www.w3.org/Graphics/SVG/1.1/DTD/svg11.dtd">
<svg xmlns="http://www.w3.org/2000/svg" version="1.1" viewBox="0.00 0.00 218.00 292.00">
<g stroke-width="2.00" fill="none" stroke-linecap="butt">
<path stroke="#d7cec5" vector-effect="non-scaling-stroke" d="
  M 183.37 170.33
  Q 193.14 151.03 198.07 131.50
  Q 203.68 109.29 198.43 87.21
  C 187.23 40.11 140.63 10.07 93.24 18.32
  C 64.78 23.28 40.02 41.17 26.80 66.95
  Q 13.36 93.16 18.40 123.48
  C 21.34 141.16 28.18 158.06 36.40 173.89
  C 54.25 208.23 77.39 239.83 102.90 268.84
  Q 106.68 273.14 111.55 271.39
  C 113.58 270.66 115.17 268.53 116.62 266.88
  C 142.33 237.39 166.11 204.43 183.37 170.33"
/>
<path stroke="#d7cec5" vector-effect="non-scaling-stroke" d="
  M 184.72 128.97
  C 197.15 81.91 164.82 35.36 116.37 30.74
  C 66.78 26.01 24.07 68.62 31.25 118.74
  Q 32.53 127.65 35.27 136.23
  C 43.32 161.46 57.01 185.29 71.94 207.04
  Q 89.02 231.93 108.66 254.86
  A 0.39 0.39 0.0 0 0 109.26 254.85
  Q 113.02 250.03 116.99 245.26
  C 138.55 219.27 158.30 190.99 173.04 160.53
  Q 180.41 145.31 184.72 128.97"
/>
<path stroke="#d7cec5" vector-effect="non-scaling-stroke" d="
  M 146.01 108.27
  A 37.05 37.05 0.0 0 0 108.96 71.22
  A 37.05 37.05 0.0 0 0 71.91 108.27
  A 37.05 37.05 0.0 0 0 108.96 145.32
  A 37.05 37.05 0.0 0 0 146.01 108.27"
/>
<path stroke="#d7cec5" vector-effect="non-scaling-stroke" d="
  M 132.57 108.30
  A 23.61 23.61 0.0 0 0 108.96 84.69
  A 23.61 23.61 0.0 0 0 85.35 108.30
  A 23.61 23.61 0.0 0 0 108.96 131.91
  A 23.61 23.61 0.0 0 0 132.57 108.30"
/>
</g>
<path fill="#e1dcd9" d="
  M 0.00 0.00
  L 218.00 0.00
  L 218.00 292.00
  L 0.00 292.00
  L 0.00 0.00
  Z
  M 183.37 170.33
  Q 193.14 151.03 198.07 131.50
  Q 203.68 109.29 198.43 87.21
  C 187.23 40.11 140.63 10.07 93.24 18.32
  C 64.78 23.28 40.02 41.17 26.80 66.95
  Q 13.36 93.16 18.40 123.48
  C 21.34 141.16 28.18 158.06 36.40 173.89
  C 54.25 208.23 77.39 239.83 102.90 268.84
  Q 106.68 273.14 111.55 271.39
  C 113.58 270.66 115.17 268.53 116.62 266.88
  C 142.33 237.39 166.11 204.43 183.37 170.33
  Z"
/>
<path fill="#ccbfb0" d="
  M 183.37 170.33
  C 166.11 204.43 142.33 237.39 116.62 266.88
  C 115.17 268.53 113.58 270.66 111.55 271.39
  Q 106.68 273.14 102.90 268.84
  C 77.39 239.83 54.25 208.23 36.40 173.89
  C 28.18 158.06 21.34 141.16 18.40 123.48
  Q 13.36 93.16 26.80 66.95
  C 40.02 41.17 64.78 23.28 93.24 18.32
  C 140.63 10.07 187.23 40.11 198.43 87.21
  Q 203.68 109.29 198.07 131.50
  Q 193.14 151.03 183.37 170.33
  Z
  M 184.72 128.97
  C 197.15 81.91 164.82 35.36 116.37 30.74
  C 66.78 26.01 24.07 68.62 31.25 118.74
  Q 32.53 127.65 35.27 136.23
  C 43.32 161.46 57.01 185.29 71.94 207.04
  Q 89.02 231.93 108.66 254.86
  A 0.39 0.39 0.0 0 0 109.26 254.85
  Q 113.02 250.03 116.99 245.26
  C 138.55 219.27 158.30 190.99 173.04 160.53
  Q 180.41 145.31 184.72 128.97
  Z"
/>
<path fill="#e1dcd9" d="
  M 116.37 30.74
  C 164.82 35.36 197.15 81.91 184.72 128.97
  Q 180.41 145.31 173.04 160.53
  C 158.30 190.99 138.55 219.27 116.99 245.26
  Q 113.02 250.03 109.26 254.85
  A 0.39 0.39 0.0 0 1 108.66 254.86
  Q 89.02 231.93 71.94 207.04
  C 57.01 185.29 43.32 161.46 35.27 136.23
  Q 32.53 127.65 31.25 118.74
  C 24.07 68.62 66.78 26.01 116.37 30.74
  Z
  M 146.01 108.27
  A 37.05 37.05 0.0 0 0 108.96 71.22
  A 37.05 37.05 0.0 0 0 71.91 108.27
  A 37.05 37.05 0.0 0 0 108.96 145.32
  A 37.05 37.05 0.0 0 0 146.01 108.27
  Z"
/>
<path fill="#ccbfb0" d="
  M 146.01 108.27
  A 37.05 37.05 0.0 0 1 108.96 145.32
  A 37.05 37.05 0.0 0 1 71.91 108.27
  A 37.05 37.05 0.0 0 1 108.96 71.22
  A 37.05 37.05 0.0 0 1 146.01 108.27
  Z
  M 132.57 108.30
  A 23.61 23.61 0.0 0 0 108.96 84.69
  A 23.61 23.61 0.0 0 0 85.35 108.30
  A 23.61 23.61 0.0 0 0 108.96 131.91
  A 23.61 23.61 0.0 0 0 132.57 108.30
  Z"
/>
<circle fill="#e1dcd9" cx="108.96" cy="108.30" r="23.61"/>
</svg>
