<?xml version="1.0" encoding="UTF-8" standalone="no"?>
<!DOCTYPE svg PUBLIC "-//W3C//DTD SVG 1.1//EN" "http://www.w3.org/Graphics/SVG/1.1/DTD/svg11.dtd">
<svg xmlns="http://www.w3.org/2000/svg" version="1.1" viewBox="0.00 0.00 1800.00 768.00">
<g stroke-width="2.00" fill="none" stroke-linecap="butt">
<path stroke="#8b9193" vector-effect="non-scaling-stroke" d="
  M 1731.34 76.48
  A 0.39 0.39 0.0 0 0 1731.37 76.99
  L 1734.92 80.52
  A 0.39 0.39 0.0 0 0 1735.43 80.55
  L 1784.16 42.58
  A 0.39 0.39 0.0 0 0 1784.20 42.00
  L 1769.90 27.69
  A 0.39 0.39 0.0 0 0 1769.32 27.73
  L 1731.34 76.48"
/>
<path stroke="#8b9193" vector-effect="non-scaling-stroke" d="
  M 1521.79 147.06
  Q 1521.33 147.95 1521.33 146.95
  L 1521.29 52.61
  A 0.57 0.56 -90.0 0 0 1520.73 52.04
  L 1500.65 52.04
  A 0.56 0.56 0.0 0 0 1500.08 52.60
  L 1500.08 252.53
  A 0.47 0.47 0.0 0 0 1500.55 253.00
  L 1520.75 253.00
  Q 1521.39 253.00 1521.38 252.36
  Q 1521.14 213.05 1521.37 174.60
  Q 1521.49 154.05 1533.81 138.17
  C 1544.29 124.66 1560.65 115.05 1578.07 114.19
  C 1598.87 113.17 1614.62 122.93 1620.17 143.39
  Q 1623.79 156.71 1623.80 171.25
  Q 1623.84 211.97 1623.79 252.60
  A 0.40 0.40 0.0 0 0 1624.19 253.00
  L 1644.46 253.00
  Q 1645.00 253.00 1645.01 252.45
  Q 1645.13 215.53 1644.94 180.42
  Q 1644.84 161.32 1641.02 146.73
  C 1636.23 128.40 1624.91 115.90 1606.21 111.07
  C 1592.60 107.55 1576.47 107.22 1562.79 111.45
  Q 1541.33 118.08 1528.27 135.85
  C 1525.68 139.38 1523.77 143.17 1521.79 147.06"
/>
<path stroke="#8b9193" vector-effect="non-scaling-stroke" d="
  M 1304.00 206.33
  L 1417.81 157.38
  Q 1418.32 157.16 1418.15 156.63
  Q 1414.75 146.03 1408.86 136.88
  Q 1399.71 122.65 1385.14 114.52
  C 1370.86 106.56 1352.78 104.96 1336.80 108.19
  C 1294.45 116.74 1271.19 157.01 1279.97 198.31
  C 1285.96 226.47 1308.10 248.27 1336.94 253.49
  C 1366.03 258.76 1398.34 249.03 1416.12 224.55
  Q 1416.36 224.23 1416.10 223.93
  L 1413.07 220.41
  A 0.40 0.40 0.0 0 0 1412.43 220.45
  Q 1406.96 228.65 1398.50 235.03
  C 1375.39 252.47 1343.92 242.99 1323.38 226.75
  Q 1311.91 217.68 1303.87 206.81
  A 0.32 0.31 60.8 0 1 1304.00 206.33"
/>
<path stroke="#8b9193" vector-effect="non-scaling-stroke" d="
  M 142.77 230.22
  L 142.77 252.64
  A 0.37 0.36 0.0 0 0 143.14 253.00
  L 163.74 253.00
  Q 164.26 253.00 164.26 252.48
  Q 164.47 196.71 164.16 161.90
  Q 164.04 148.89 159.73 137.28
  C 154.24 122.50 141.91 113.62 126.58 110.54
  Q 114.90 108.20 101.99 108.43
  C 79.34 108.85 57.37 116.18 42.67 132.64
  Q 42.05 133.33 42.46 134.16
  L 44.84 138.92
  Q 45.21 139.66 45.58 138.91
  C 48.22 133.54 54.51 128.45 59.39 125.41
  Q 82.24 111.16 107.86 114.08
  Q 119.56 115.42 127.07 120.21
  C 140.02 128.49 142.98 146.89 142.70 161.65
  A 0.49 0.48 -90.0 0 1 142.23 162.13
  Q 115.62 163.14 91.14 167.42
  C 66.57 171.72 34.79 184.23 31.01 212.29
  C 28.82 228.61 35.70 242.84 50.47 250.24
  C 60.77 255.41 73.59 256.64 84.89 255.34
  Q 118.05 251.52 142.45 230.07
  A 0.20 0.19 69.7 0 1 142.77 230.22"
/>
<path stroke="#8b9193" vector-effect="non-scaling-stroke" d="
  M 278.57 146.54
  L 278.58 110.04
  Q 278.58 109.49 278.02 109.49
  L 258.05 109.49
  Q 257.34 109.49 257.34 110.20
  L 257.33 252.29
  Q 257.33 253.00 258.04 253.00
  L 277.99 253.00
  Q 278.59 253.00 278.59 252.40
  Q 278.55 215.03 278.59 175.50
  Q 278.62 148.51 298.40 130.19
  C 312.32 117.30 331.86 111.14 350.49 115.60
  C 364.47 118.96 373.49 129.38 377.30 142.98
  Q 380.99 156.13 381.01 170.75
  Q 381.08 212.87 381.04 252.50
  Q 381.04 253.00 381.54 253.00
  L 401.74 253.00
  Q 402.30 253.00 402.30 252.44
  Q 402.25 220.75 402.26 182.92
  Q 402.26 166.66 399.43 151.77
  C 395.13 129.08 381.82 114.17 358.65 109.95
  Q 343.63 107.21 330.11 109.20
  C 307.94 112.46 288.68 126.09 279.29 146.69
  Q 278.57 148.28 278.57 146.54"
/>
<path stroke="#8b9193" vector-effect="non-scaling-stroke" d="
  M 511.33 146.70
  L 511.33 110.04
  Q 511.33 109.49 510.79 109.49
  L 490.55 109.49
  Q 490.08 109.49 490.08 109.95
  L 490.09 252.37
  Q 490.09 253.00 490.71 253.00
  L 510.75 253.00
  Q 511.32 253.00 511.32 252.43
  Q 511.34 213.26 511.34 175.71
  Q 511.33 148.62 530.98 130.37
  C 545.26 117.12 565.07 110.93 584.09 115.82
  C 597.64 119.31 606.50 129.94 610.16 143.29
  Q 613.76 156.45 613.77 171.01
  Q 613.81 213.72 613.82 252.36
  Q 613.82 253.00 614.46 253.00
  L 634.45 253.00
  A 0.56 0.56 0.0 0 0 635.01 252.44
  Q 635.12 218.76 634.97 183.03
  C 634.86 158.16 632.09 127.97 607.44 115.30
  C 594.59 108.69 576.77 107.12 562.88 109.21
  C 540.98 112.52 520.84 126.18 512.03 146.84
  Q 511.33 148.49 511.33 146.70"
/>
<path stroke="#8b9193" vector-effect="non-scaling-stroke" d="
  M 825.02 230.23
  L 825.03 252.74
  A 0.26 0.26 0.0 0 0 825.29 253.00
  L 845.98 253.00
  Q 846.56 253.00 846.56 252.43
  Q 846.52 210.80 846.56 168.80
  C 846.57 157.67 845.80 146.95 841.76 136.69
  C 836.07 122.28 824.28 113.79 809.20 110.65
  Q 797.28 108.18 784.23 108.42
  C 761.57 108.84 739.11 116.29 724.47 133.14
  Q 724.30 133.33 724.42 133.56
  L 727.12 138.96
  Q 727.28 139.27 727.48 138.99
  Q 733.67 130.37 741.27 125.62
  Q 764.57 111.07 790.11 114.09
  Q 801.78 115.46 808.84 119.90
  Q 819.23 126.43 822.64 140.67
  Q 825.17 151.21 824.94 161.52
  Q 824.93 162.02 824.44 162.05
  Q 805.63 163.04 789.86 164.92
  C 760.63 168.41 713.67 178.94 712.87 217.26
  Q 712.65 227.90 717.41 236.11
  C 727.33 253.22 748.95 257.38 767.13 255.33
  Q 800.12 251.61 824.70 230.08
  A 0.20 0.19 70.0 0 1 825.02 230.23"
/>
<path stroke="#8b9193" vector-effect="non-scaling-stroke" d="
  M 1202.30 109.49
  A 0.30 0.30 0.0 0 0 1202.03 109.66
  L 1146.42 223.48
  A 0.30 0.30 0.0 0 1 1145.88 223.48
  L 1090.28 109.67
  A 0.30 0.30 0.0 0 0 1090.01 109.50
  L 1066.56 109.49
  A 0.30 0.30 0.0 0 0 1066.29 109.92
  L 1137.27 254.48
  A 0.30 0.30 0.0 0 0 1137.81 254.48
  L 1208.79 109.92
  A 0.30 0.30 0.0 0 0 1208.52 109.49
  L 1202.30 109.49"
/>
<path stroke="#8b9193" vector-effect="non-scaling-stroke" d="
  M 1754.07 109.84
  A 0.35 0.35 0.0 0 0 1753.72 109.49
  L 1733.18 109.49
  A 0.35 0.35 0.0 0 0 1732.83 109.84
  L 1732.83 252.64
  A 0.35 0.35 0.0 0 0 1733.18 252.99
  L 1753.72 252.99
  A 0.35 0.35 0.0 0 0 1754.07 252.64
  L 1754.07 109.84"
/>
<path stroke="#8b9193" vector-effect="non-scaling-stroke" d="
  M 1751.07 416.66
  A 0.32 0.32 0.0 0 0 1750.82 416.14
  L 1743.97 416.14
  A 0.32 0.32 0.0 0 0 1743.71 416.28
  L 1731.51 434.94
  A 0.32 0.32 0.0 0 0 1731.78 435.43
  L 1735.94 435.45
  A 0.32 0.32 0.0 0 0 1736.20 435.33
  L 1751.07 416.66"
/>
<path stroke="#8b9193" vector-effect="non-scaling-stroke" d="
  M 785.65 493.04
  L 785.62 503.77
  Q 785.62 504.00 785.85 504.00
  L 792.38 503.99
  Q 792.55 503.99 792.55 503.82
  L 792.55 421.26
  Q 792.55 420.99 792.29 420.99
  L 785.92 421.02
  Q 785.76 421.02 785.76 421.18
  L 785.76 457.96
  Q 785.76 458.76 785.24 458.15
  C 783.51 456.11 782.02 454.07 779.87 452.41
  C 767.40 442.79 749.78 443.07 738.92 454.94
  C 728.99 465.77 728.88 483.76 738.49 495.17
  C 747.71 506.12 763.00 507.98 775.51 501.12
  Q 781.39 497.89 785.01 492.84
  Q 785.65 491.94 785.65 493.04"
/>
<path stroke="#8b9193" vector-effect="non-scaling-stroke" d="
  M 1468.61 426.49
  A 4.88 4.88 0.0 0 0 1463.73 421.61
  A 4.88 4.88 0.0 0 0 1458.85 426.49
  A 4.88 4.88 0.0 0 0 1463.73 431.37
  A 4.88 4.88 0.0 0 0 1468.61 426.49"
/>
<path stroke="#8b9193" vector-effect="non-scaling-stroke" d="
  M 1644.61 426.49
  A 4.88 4.88 0.0 0 0 1639.73 421.61
  A 4.88 4.88 0.0 0 0 1634.85 426.49
  A 4.88 4.88 0.0 0 0 1639.73 431.37
  A 4.88 4.88 0.0 0 0 1644.61 426.49"
/>
<path stroke="#8b9193" vector-effect="non-scaling-stroke" d="
  M 376.51 453.85
  A 0.34 0.34 0.0 0 1 376.85 453.51
  L 393.71 453.51
  A 0.34 0.34 0.0 0 0 394.05 453.17
  L 394.04 448.36
  A 0.34 0.34 0.0 0 0 393.70 448.02
  L 376.85 448.01
  A 0.34 0.34 0.0 0 1 376.51 447.67
  L 376.50 422.69
  A 0.34 0.34 0.0 0 0 376.16 422.35
  L 369.88 422.35
  A 0.34 0.34 0.0 0 0 369.54 422.69
  L 369.54 447.68
  A 0.34 0.34 0.0 0 1 369.20 448.02
  L 357.85 448.01
  A 0.34 0.34 0.0 0 0 357.51 448.35
  L 357.52 453.17
  A 0.34 0.34 0.0 0 0 357.86 453.51
  L 369.20 453.51
  A 0.34 0.34 0.0 0 1 369.54 453.85
  L 369.54 503.66
  A 0.34 0.34 0.0 0 0 369.88 504.00
  L 376.17 504.00
  A 0.34 0.34 0.0 0 0 376.51 503.66
  L 376.51 453.85"
/>
<path stroke="#8b9193" vector-effect="non-scaling-stroke" d="
  M 1296.20 453.50
  Q 1305.01 453.52 1312.77 453.51
  Q 1313.04 453.51 1313.04 453.24
  Q 1313.04 453.20 1313.04 448.32
  Q 1313.04 448.02 1312.74 448.02
  L 1295.76 448.01
  Q 1295.51 448.01 1295.51 447.76
  L 1295.50 422.71
  A 0.35 0.34 -90.0 0 0 1295.16 422.36
  L 1288.96 422.36
  A 0.43 0.42 90.0 0 0 1288.54 422.79
  L 1288.54 447.46
  Q 1288.54 448.02 1287.98 448.02
  L 1277.00 448.01
  Q 1276.51 448.01 1276.51 448.50
  L 1276.52 453.02
  Q 1276.52 453.52 1277.02 453.51
  L 1288.02 453.51
  Q 1288.54 453.51 1288.54 454.02
  L 1288.54 503.76
  A 0.23 0.23 0.0 0 0 1288.77 503.99
  L 1295.25 504.00
  Q 1295.50 504.00 1295.50 503.75
  L 1295.50 454.19
  Q 1295.50 453.50 1296.20 453.50"
/>
<path stroke="#8b9193" vector-effect="non-scaling-stroke" d="
  M 141.97 486.01
  A 0.38 0.38 0.0 0 1 142.14 485.43
  L 189.56 467.12
  Q 190.09 466.91 189.92 466.37
  C 185.98 454.20 176.52 445.51 163.26 445.48
  Q 155.03 445.46 148.48 449.31
  C 133.48 458.14 128.56 476.10 136.92 490.64
  C 140.21 496.36 146.34 501.47 152.50 503.44
  Q 168.54 508.58 183.04 498.01
  Q 183.21 497.88 183.08 497.71
  L 179.91 493.25
  A 0.38 0.38 0.0 0 0 179.36 493.18
  C 169.19 501.85 155.00 501.00 145.90 491.67
  C 144.29 490.02 143.29 487.91 141.97 486.01"
/>
<path stroke="#8b9193" vector-effect="non-scaling-stroke" d="
  M 545.09 485.35
  L 592.34 467.10
  Q 592.90 466.88 592.70 466.32
  C 588.41 454.03 579.32 445.44 565.82 445.48
  C 554.32 445.50 544.35 452.01 538.99 461.90
  Q 534.55 470.10 536.08 480.56
  Q 537.48 490.17 544.93 497.14
  C 556.39 507.84 573.18 507.36 585.52 498.16
  Q 585.93 497.85 585.63 497.44
  L 582.78 493.38
  A 0.51 0.50 53.1 0 0 582.06 493.27
  Q 574.26 499.47 565.12 499.15
  Q 551.81 498.67 544.82 486.10
  Q 544.53 485.57 545.09 485.35"
/>
<path stroke="#8b9193" vector-effect="non-scaling-stroke" d="
  M 862.23 485.86
  A 0.31 0.30 66.0 0 1 862.39 485.43
  L 909.81 467.11
  Q 910.36 466.90 910.17 466.35
  Q 907.11 457.03 900.17 451.24
  C 891.59 444.07 878.18 443.69 868.61 449.38
  C 856.64 456.51 851.05 469.00 853.94 482.56
  Q 855.59 490.34 861.78 496.55
  C 873.00 507.79 890.31 507.55 902.99 498.19
  Q 903.44 497.86 903.12 497.41
  L 900.28 493.42
  A 0.58 0.57 52.3 0 0 899.45 493.31
  Q 891.60 499.76 881.70 499.08
  Q 868.81 498.18 862.23 485.86"
/>
<path stroke="#8b9193" vector-effect="non-scaling-stroke" d="
  M 1763.4790 469.0941
  A 30.29 29.90 -11.9 0 0 1727.6745 446.0826
  A 30.29 29.90 -11.9 0 0 1704.2010 481.5859
  A 30.29 29.90 -11.9 0 0 1740.0055 504.5974
  A 30.29 29.90 -11.9 0 0 1763.4790 469.0941"
/>
<path stroke="#8b9193" vector-effect="non-scaling-stroke" d="
  M 256.32 459.13
  Q 255.90 459.99 255.86 459.03
  L 255.38 447.57
  Q 255.36 447.28 255.08 447.28
  L 249.70 447.28
  Q 249.43 447.28 249.43 447.55
  L 249.42 503.73
  Q 249.42 504.00 249.69 504.00
  L 255.99 504.00
  Q 256.17 504.00 256.17 503.82
  Q 256.38 491.33 256.16 480.78
  Q 255.93 470.31 257.75 465.53
  C 261.18 456.50 270.03 450.85 279.76 451.87
  C 288.50 452.79 290.97 460.37 290.92 467.85
  Q 290.79 486.04 290.92 503.78
  Q 290.92 503.98 291.12 503.98
  L 297.50 504.01
  A 0.33 0.32 -90.0 0 0 297.82 503.68
  Q 297.75 484.34 297.87 465.43
  Q 297.91 459.75 296.42 456.16
  C 292.79 447.36 284.04 444.66 275.05 446.12
  C 267.18 447.40 259.78 451.89 256.32 459.13"
/>
<path stroke="#8b9193" vector-effect="non-scaling-stroke" d="
  M 457.88 460.05
  L 457.37 447.57
  Q 457.36 447.28 457.07 447.28
  L 451.70 447.28
  Q 451.43 447.28 451.43 447.55
  L 451.42 503.83
  Q 451.42 503.99 451.58 503.99
  L 457.99 504.00
  A 0.26 0.26 0.0 0 0 458.25 503.74
  Q 458.17 489.28 458.30 474.65
  Q 458.39 464.51 465.43 458.40
  Q 472.07 452.65 481.05 452.54
  Q 481.57 452.53 481.59 452.01
  L 481.82 446.23
  Q 481.84 445.71 481.32 445.74
  C 472.06 446.29 462.58 451.57 458.27 460.14
  Q 457.91 460.85 457.88 460.05"
/>
<path stroke="#8b9193" vector-effect="non-scaling-stroke" d="
  M 1061.32 459.13
  Q 1060.90 459.99 1060.86 459.04
  L 1060.37 447.57
  Q 1060.36 447.28 1060.07 447.28
  L 1054.70 447.28
  Q 1054.43 447.28 1054.43 447.55
  L 1054.42 503.72
  Q 1054.42 504.00 1054.70 504.00
  L 1060.99 504.00
  Q 1061.18 504.00 1061.18 503.81
  Q 1061.38 491.92 1061.17 480.89
  Q 1060.97 469.76 1062.70 465.50
  C 1065.72 458.05 1072.00 452.85 1079.99 451.92
  C 1091.14 450.63 1095.94 457.32 1095.90 467.48
  Q 1095.84 485.53 1095.89 503.79
  Q 1095.89 503.99 1096.09 503.99
  L 1102.61 503.99
  Q 1102.83 503.99 1102.83 503.77
  Q 1102.73 485.81 1102.88 466.49
  Q 1102.93 460.05 1101.54 456.45
  C 1096.51 443.46 1080.28 443.68 1070.05 449.74
  Q 1064.23 453.19 1061.32 459.13"
/>
<path stroke="#8b9193" vector-effect="non-scaling-stroke" d="
  M 1377.41 459.90
  Q 1376.91 460.88 1376.87 459.78
  L 1376.37 447.57
  Q 1376.36 447.29 1376.07 447.29
  L 1370.70 447.28
  Q 1370.43 447.28 1370.43 447.55
  L 1370.42 503.81
  Q 1370.42 503.99 1370.60 503.99
  L 1376.99 504.00
  Q 1377.18 504.00 1377.18 503.81
  Q 1377.34 491.51 1377.17 478.88
  Q 1377.08 472.09 1378.20 468.10
  C 1380.88 458.51 1390.26 452.75 1400.07 452.52
  Q 1400.56 452.51 1400.58 452.02
  L 1400.82 446.24
  Q 1400.84 445.71 1400.32 445.74
  C 1391.13 446.29 1381.66 451.54 1377.41 459.90"
/>
<path stroke="#8b9193" vector-effect="non-scaling-stroke" d="
  M 37.57 481.51
  C 35.17 471.66 38.83 461.45 47.18 455.70
  C 55.84 449.72 67.03 450.75 75.41 457.18
  Q 75.65 457.36 75.84 457.12
  L 79.14 452.93
  Q 79.29 452.73 79.10 452.58
  Q 74.35 448.82 69.70 447.55
  Q 50.60 442.35 38.11 455.17
  Q 33.11 460.31 31.25 466.53
  C 27.82 477.95 30.84 489.89 40.05 497.93
  C 50.81 507.35 67.42 507.46 78.94 498.62
  Q 79.16 498.44 78.97 498.24
  L 75.55 494.44
  Q 75.38 494.25 75.17 494.41
  C 61.61 504.34 41.68 498.37 37.57 481.51"
/>
<path stroke="#8b9193" vector-effect="non-scaling-stroke" d="
  M 1543.72 501.91
  Q 1560.41 509.79 1576.79 498.71
  Q 1576.98 498.59 1576.84 498.41
  Q 1574.12 495.17 1573.13 494.46
  Q 1572.99 494.36 1572.85 494.46
  C 1560.76 503.11 1543.78 499.80 1537.05 486.25
  C 1533.51 479.12 1533.79 470.13 1537.87 463.32
  C 1545.66 450.34 1561.39 448.30 1573.24 457.19
  Q 1573.46 457.35 1573.63 457.14
  Q 1576.77 453.05 1576.85 452.95
  A 0.27 0.26 -52.0 0 0 1576.81 452.58
  Q 1572.18 448.75 1566.60 447.31
  Q 1548.95 442.78 1536.69 454.34
  C 1525.52 464.89 1524.48 483.13 1534.62 494.74
  Q 1538.90 499.64 1543.72 501.91"
/>
<path stroke="#8b9193" vector-effect="non-scaling-stroke" d="
  M 1210.43 492.98
  L 1210.80 503.77
  Q 1210.80 504.00 1211.03 504.00
  L 1216.71 503.99
  Q 1216.92 503.99 1216.92 503.79
  L 1216.92 447.64
  Q 1216.92 447.28 1216.55 447.28
  L 1210.49 447.28
  A 0.42 0.42 0.0 0 0 1210.08 447.70
  Q 1210.02 460.22 1210.09 474.04
  C 1210.13 481.32 1209.06 487.22 1204.55 492.27
  Q 1197.28 500.40 1187.07 499.32
  Q 1183.73 498.96 1180.97 497.02
  C 1176.51 493.88 1175.65 488.61 1175.68 483.23
  Q 1175.81 464.37 1175.70 447.52
  Q 1175.70 447.28 1175.46 447.28
  L 1169.25 447.29
  Q 1168.92 447.29 1168.92 447.62
  Q 1168.88 468.08 1168.99 488.24
  C 1169.06 500.39 1179.10 507.23 1190.72 505.27
  Q 1203.82 503.06 1209.94 492.86
  Q 1210.40 492.09 1210.43 492.98"
/>
<path stroke="#8b9193" vector-effect="non-scaling-stroke" d="
  M 1466.99 447.76
  A 0.49 0.49 0.0 0 0 1466.50 447.27
  L 1460.66 447.27
  A 0.49 0.49 0.0 0 0 1460.17 447.76
  L 1460.17 503.50
  A 0.49 0.49 0.0 0 0 1460.66 503.99
  L 1466.50 503.99
  A 0.49 0.49 0.0 0 0 1466.99 503.50
  L 1466.99 447.76"
/>
<path stroke="#8b9193" vector-effect="non-scaling-stroke" d="
  M 1642.99 447.76
  A 0.49 0.49 0.0 0 0 1642.50 447.27
  L 1636.66 447.27
  A 0.49 0.49 0.0 0 0 1636.17 447.76
  L 1636.17 503.50
  A 0.49 0.49 0.0 0 0 1636.66 503.99
  L 1642.50 503.99
  A 0.49 0.49 0.0 0 0 1642.99 503.50
  L 1642.99 447.76"
/>
<path stroke="#8b9193" vector-effect="non-scaling-stroke" d="
  M 897.0203 743.1397
  A 12.85 12.62 90.4 0 0 909.7297 730.3781
  A 12.85 12.62 90.4 0 0 897.1997 717.4403
  A 12.85 12.62 90.4 0 0 884.4903 730.2019
  A 12.85 12.62 90.4 0 0 897.0203 743.1397"
/>
<path stroke="#8b9193" vector-effect="non-scaling-stroke" d="
  M 1385.80 139.29
  C 1370.50 121.84 1348.48 110.06 1325.66 117.28
  C 1315.36 120.54 1305.48 127.92 1298.92 136.25
  C 1283.20 156.20 1287.19 180.84 1300.25 201.12
  Q 1300.55 201.58 1301.05 201.36
  L 1397.18 160.41
  Q 1397.36 160.33 1397.30 160.15
  Q 1393.54 148.11 1385.80 139.29"
/>
<path stroke="#8b9193" vector-effect="non-scaling-stroke" d="
  M 55.09 198.11
  Q 49.55 211.56 53.56 226.45
  C 57.78 242.15 71.72 249.04 87.26 248.58
  C 108.29 247.96 127.52 237.82 142.36 222.96
  Q 142.78 222.54 142.78 221.96
  L 142.77 167.79
  Q 142.77 167.28 142.27 167.30
  Q 119.73 167.96 99.36 171.24
  C 81.94 174.04 62.00 181.32 55.09 198.11"
/>
<path stroke="#8b9193" vector-effect="non-scaling-stroke" d="
  M 781.76 171.19
  C 762.62 174.21 739.76 182.96 735.30 204.30
  Q 732.92 215.75 735.63 225.99
  C 739.81 241.82 753.51 248.95 769.05 248.59
  C 790.27 248.11 809.79 237.89 824.65 222.88
  Q 825.03 222.50 825.03 221.97
  L 825.02 167.79
  Q 825.02 167.26 824.49 167.28
  Q 801.70 168.04 781.76 171.19"
/>
<path stroke="#8b9193" vector-effect="non-scaling-stroke" d="
  M 770.8397 497.5267
  A 23.98 23.86 68.6 0 0 784.3050 466.4940
  A 23.98 23.86 68.6 0 0 753.3403 452.8733
  A 23.98 23.86 68.6 0 0 739.8750 483.9060
  A 23.98 23.86 68.6 0 0 770.8397 497.5267"
/>
<path stroke="#8b9193" vector-effect="non-scaling-stroke" d="
  M 141.74 465.19
  Q 138.78 471.61 140.01 479.83
  Q 140.11 480.52 140.77 480.27
  L 181.24 464.39
  Q 181.83 464.16 181.54 463.60
  C 177.80 456.55 171.25 451.05 163.16 451.31
  Q 147.89 451.81 141.74 465.19"
/>
<path stroke="#8b9193" vector-effect="non-scaling-stroke" d="
  M 584.28 463.61
  C 580.58 456.70 574.62 451.60 566.94 451.33
  C 557.92 451.00 549.62 455.40 545.37 463.31
  Q 541.36 470.76 542.82 479.89
  Q 542.92 480.50 543.50 480.27
  L 583.99 464.39
  Q 584.57 464.16 584.28 463.61"
/>
<path stroke="#8b9193" vector-effect="non-scaling-stroke" d="
  M 867.39 457.49
  C 861.16 463.19 859.09 471.35 860.28 479.85
  Q 860.38 480.52 861.01 480.27
  L 901.77 464.29
  Q 902.05 464.18 901.92 463.90
  C 898.83 457.51 892.70 451.98 885.40 451.42
  Q 874.91 450.62 867.39 457.49"
/>
<path stroke="#8b9193" vector-effect="non-scaling-stroke" d="
  M 1733.0273 499.2769
  A 23.91 23.22 91.9 0 0 1757.0272 476.1499
  A 23.91 23.22 91.9 0 0 1734.6127 451.4831
  A 23.91 23.22 91.9 0 0 1710.6128 474.6101
  A 23.91 23.22 91.9 0 0 1733.0273 499.2769"
/>
</g>
<path fill="#e1dcd9" d="
  M 0.00 0.00
  L 1800.00 0.00
  L 1800.00 768.00
  L 0.00 768.00
  L 0.00 0.00
  Z
  M 1731.34 76.48
  A 0.39 0.39 0.0 0 0 1731.37 76.99
  L 1734.92 80.52
  A 0.39 0.39 0.0 0 0 1735.43 80.55
  L 1784.16 42.58
  A 0.39 0.39 0.0 0 0 1784.20 42.00
  L 1769.90 27.69
  A 0.39 0.39 0.0 0 0 1769.32 27.73
  L 1731.34 76.48
  Z
  M 1521.79 147.06
  Q 1521.33 147.95 1521.33 146.95
  L 1521.29 52.61
  A 0.57 0.56 -90.0 0 0 1520.73 52.04
  L 1500.65 52.04
  A 0.56 0.56 0.0 0 0 1500.08 52.60
  L 1500.08 252.53
  A 0.47 0.47 0.0 0 0 1500.55 253.00
  L 1520.75 253.00
  Q 1521.39 253.00 1521.38 252.36
  Q 1521.14 213.05 1521.37 174.60
  Q 1521.49 154.05 1533.81 138.17
  C 1544.29 124.66 1560.65 115.05 1578.07 114.19
  C 1598.87 113.17 1614.62 122.93 1620.17 143.39
  Q 1623.79 156.71 1623.80 171.25
  Q 1623.84 211.97 1623.79 252.60
  A 0.40 0.40 0.0 0 0 1624.19 253.00
  L 1644.46 253.00
  Q 1645.00 253.00 1645.01 252.45
  Q 1645.13 215.53 1644.94 180.42
  Q 1644.84 161.32 1641.02 146.73
  C 1636.23 128.40 1624.91 115.90 1606.21 111.07
  C 1592.60 107.55 1576.47 107.22 1562.79 111.45
  Q 1541.33 118.08 1528.27 135.85
  C 1525.68 139.38 1523.77 143.17 1521.79 147.06
  Z
  M 1304.00 206.33
  L 1417.81 157.38
  Q 1418.32 157.16 1418.15 156.63
  Q 1414.75 146.03 1408.86 136.88
  Q 1399.71 122.65 1385.14 114.52
  C 1370.86 106.56 1352.78 104.96 1336.80 108.19
  C 1294.45 116.74 1271.19 157.01 1279.97 198.31
  C 1285.96 226.47 1308.10 248.27 1336.94 253.49
  C 1366.03 258.76 1398.34 249.03 1416.12 224.55
  Q 1416.36 224.23 1416.10 223.93
  L 1413.07 220.41
  A 0.40 0.40 0.0 0 0 1412.43 220.45
  Q 1406.96 228.65 1398.50 235.03
  C 1375.39 252.47 1343.92 242.99 1323.38 226.75
  Q 1311.91 217.68 1303.87 206.81
  A 0.32 0.31 60.8 0 1 1304.00 206.33
  Z
  M 142.77 230.22
  L 142.77 252.64
  A 0.37 0.36 0.0 0 0 143.14 253.00
  L 163.74 253.00
  Q 164.26 253.00 164.26 252.48
  Q 164.47 196.71 164.16 161.90
  Q 164.04 148.89 159.73 137.28
  C 154.24 122.50 141.91 113.62 126.58 110.54
  Q 114.90 108.20 101.99 108.43
  C 79.34 108.85 57.37 116.18 42.67 132.64
  Q 42.05 133.33 42.46 134.16
  L 44.84 138.92
  Q 45.21 139.66 45.58 138.91
  C 48.22 133.54 54.51 128.45 59.39 125.41
  Q 82.24 111.16 107.86 114.08
  Q 119.56 115.42 127.07 120.21
  C 140.02 128.49 142.98 146.89 142.70 161.65
  A 0.49 0.48 -90.0 0 1 142.23 162.13
  Q 115.62 163.14 91.14 167.42
  C 66.57 171.72 34.79 184.23 31.01 212.29
  C 28.82 228.61 35.70 242.84 50.47 250.24
  C 60.77 255.41 73.59 256.64 84.89 255.34
  Q 118.05 251.52 142.45 230.07
  A 0.20 0.19 69.7 0 1 142.77 230.22
  Z
  M 278.57 146.54
  L 278.58 110.04
  Q 278.58 109.49 278.02 109.49
  L 258.05 109.49
  Q 257.34 109.49 257.34 110.20
  L 257.33 252.29
  Q 257.33 253.00 258.04 253.00
  L 277.99 253.00
  Q 278.59 253.00 278.59 252.40
  Q 278.55 215.03 278.59 175.50
  Q 278.62 148.51 298.40 130.19
  C 312.32 117.30 331.86 111.14 350.49 115.60
  C 364.47 118.96 373.49 129.38 377.30 142.98
  Q 380.99 156.13 381.01 170.75
  Q 381.08 212.87 381.04 252.50
  Q 381.04 253.00 381.54 253.00
  L 401.74 253.00
  Q 402.30 253.00 402.30 252.44
  Q 402.25 220.75 402.26 182.92
  Q 402.26 166.66 399.43 151.77
  C 395.13 129.08 381.82 114.17 358.65 109.95
  Q 343.63 107.21 330.11 109.20
  C 307.94 112.46 288.68 126.09 279.29 146.69
  Q 278.57 148.28 278.57 146.54
  Z
  M 511.33 146.70
  L 511.33 110.04
  Q 511.33 109.49 510.79 109.49
  L 490.55 109.49
  Q 490.08 109.49 490.08 109.95
  L 490.09 252.37
  Q 490.09 253.00 490.71 253.00
  L 510.75 253.00
  Q 511.32 253.00 511.32 252.43
  Q 511.34 213.26 511.34 175.71
  Q 511.33 148.62 530.98 130.37
  C 545.26 117.12 565.07 110.93 584.09 115.82
  C 597.64 119.31 606.50 129.94 610.16 143.29
  Q 613.76 156.45 613.77 171.01
  Q 613.81 213.72 613.82 252.36
  Q 613.82 253.00 614.46 253.00
  L 634.45 253.00
  A 0.56 0.56 0.0 0 0 635.01 252.44
  Q 635.12 218.76 634.97 183.03
  C 634.86 158.16 632.09 127.97 607.44 115.30
  C 594.59 108.69 576.77 107.12 562.88 109.21
  C 540.98 112.52 520.84 126.18 512.03 146.84
  Q 511.33 148.49 511.33 146.70
  Z
  M 825.02 230.23
  L 825.03 252.74
  A 0.26 0.26 0.0 0 0 825.29 253.00
  L 845.98 253.00
  Q 846.56 253.00 846.56 252.43
  Q 846.52 210.80 846.56 168.80
  C 846.57 157.67 845.80 146.95 841.76 136.69
  C 836.07 122.28 824.28 113.79 809.20 110.65
  Q 797.28 108.18 784.23 108.42
  C 761.57 108.84 739.11 116.29 724.47 133.14
  Q 724.30 133.33 724.42 133.56
  L 727.12 138.96
  Q 727.28 139.27 727.48 138.99
  Q 733.67 130.37 741.27 125.62
  Q 764.57 111.07 790.11 114.09
  Q 801.78 115.46 808.84 119.90
  Q 819.23 126.43 822.64 140.67
  Q 825.17 151.21 824.94 161.52
  Q 824.93 162.02 824.44 162.05
  Q 805.63 163.04 789.86 164.92
  C 760.63 168.41 713.67 178.94 712.87 217.26
  Q 712.65 227.90 717.41 236.11
  C 727.33 253.22 748.95 257.38 767.13 255.33
  Q 800.12 251.61 824.70 230.08
  A 0.20 0.19 70.0 0 1 825.02 230.23
  Z
  M 1202.30 109.49
  A 0.30 0.30 0.0 0 0 1202.03 109.66
  L 1146.42 223.48
  A 0.30 0.30 0.0 0 1 1145.88 223.48
  L 1090.28 109.67
  A 0.30 0.30 0.0 0 0 1090.01 109.50
  L 1066.56 109.49
  A 0.30 0.30 0.0 0 0 1066.29 109.92
  L 1137.27 254.48
  A 0.30 0.30 0.0 0 0 1137.81 254.48
  L 1208.79 109.92
  A 0.30 0.30 0.0 0 0 1208.52 109.49
  L 1202.30 109.49
  Z
  M 1754.07 109.84
  A 0.35 0.35 0.0 0 0 1753.72 109.49
  L 1733.18 109.49
  A 0.35 0.35 0.0 0 0 1732.83 109.84
  L 1732.83 252.64
  A 0.35 0.35 0.0 0 0 1733.18 252.99
  L 1753.72 252.99
  A 0.35 0.35 0.0 0 0 1754.07 252.64
  L 1754.07 109.84
  Z
  M 1751.07 416.66
  A 0.32 0.32 0.0 0 0 1750.82 416.14
  L 1743.97 416.14
  A 0.32 0.32 0.0 0 0 1743.71 416.28
  L 1731.51 434.94
  A 0.32 0.32 0.0 0 0 1731.78 435.43
  L 1735.94 435.45
  A 0.32 0.32 0.0 0 0 1736.20 435.33
  L 1751.07 416.66
  Z
  M 785.65 493.04
  L 785.62 503.77
  Q 785.62 504.00 785.85 504.00
  L 792.38 503.99
  Q 792.55 503.99 792.55 503.82
  L 792.55 421.26
  Q 792.55 420.99 792.29 420.99
  L 785.92 421.02
  Q 785.76 421.02 785.76 421.18
  L 785.76 457.96
  Q 785.76 458.76 785.24 458.15
  C 783.51 456.11 782.02 454.07 779.87 452.41
  C 767.40 442.79 749.78 443.07 738.92 454.94
  C 728.99 465.77 728.88 483.76 738.49 495.17
  C 747.71 506.12 763.00 507.98 775.51 501.12
  Q 781.39 497.89 785.01 492.84
  Q 785.65 491.94 785.65 493.04
  Z
  M 1468.61 426.49
  A 4.88 4.88 0.0 0 0 1463.73 421.61
  A 4.88 4.88 0.0 0 0 1458.85 426.49
  A 4.88 4.88 0.0 0 0 1463.73 431.37
  A 4.88 4.88 0.0 0 0 1468.61 426.49
  Z
  M 1644.61 426.49
  A 4.88 4.88 0.0 0 0 1639.73 421.61
  A 4.88 4.88 0.0 0 0 1634.85 426.49
  A 4.88 4.88 0.0 0 0 1639.73 431.37
  A 4.88 4.88 0.0 0 0 1644.61 426.49
  Z
  M 376.51 453.85
  A 0.34 0.34 0.0 0 1 376.85 453.51
  L 393.71 453.51
  A 0.34 0.34 0.0 0 0 394.05 453.17
  L 394.04 448.36
  A 0.34 0.34 0.0 0 0 393.70 448.02
  L 376.85 448.01
  A 0.34 0.34 0.0 0 1 376.51 447.67
  L 376.50 422.69
  A 0.34 0.34 0.0 0 0 376.16 422.35
  L 369.88 422.35
  A 0.34 0.34 0.0 0 0 369.54 422.69
  L 369.54 447.68
  A 0.34 0.34 0.0 0 1 369.20 448.02
  L 357.85 448.01
  A 0.34 0.34 0.0 0 0 357.51 448.35
  L 357.52 453.17
  A 0.34 0.34 0.0 0 0 357.86 453.51
  L 369.20 453.51
  A 0.34 0.34 0.0 0 1 369.54 453.85
  L 369.54 503.66
  A 0.34 0.34 0.0 0 0 369.88 504.00
  L 376.17 504.00
  A 0.34 0.34 0.0 0 0 376.51 503.66
  L 376.51 453.85
  Z
  M 1296.20 453.50
  Q 1305.01 453.52 1312.77 453.51
  Q 1313.04 453.51 1313.04 453.24
  Q 1313.04 453.20 1313.04 448.32
  Q 1313.04 448.02 1312.74 448.02
  L 1295.76 448.01
  Q 1295.51 448.01 1295.51 447.76
  L 1295.50 422.71
  A 0.35 0.34 -90.0 0 0 1295.16 422.36
  L 1288.96 422.36
  A 0.43 0.42 90.0 0 0 1288.54 422.79
  L 1288.54 447.46
  Q 1288.54 448.02 1287.98 448.02
  L 1277.00 448.01
  Q 1276.51 448.01 1276.51 448.50
  L 1276.52 453.02
  Q 1276.52 453.52 1277.02 453.51
  L 1288.02 453.51
  Q 1288.54 453.51 1288.54 454.02
  L 1288.54 503.76
  A 0.23 0.23 0.0 0 0 1288.77 503.99
  L 1295.25 504.00
  Q 1295.50 504.00 1295.50 503.75
  L 1295.50 454.19
  Q 1295.50 453.50 1296.20 453.50
  Z
  M 141.97 486.01
  A 0.38 0.38 0.0 0 1 142.14 485.43
  L 189.56 467.12
  Q 190.09 466.91 189.92 466.37
  C 185.98 454.20 176.52 445.51 163.26 445.48
  Q 155.03 445.46 148.48 449.31
  C 133.48 458.14 128.56 476.10 136.92 490.64
  C 140.21 496.36 146.34 501.47 152.50 503.44
  Q 168.54 508.58 183.04 498.01
  Q 183.21 497.88 183.08 497.71
  L 179.91 493.25
  A 0.38 0.38 0.0 0 0 179.36 493.18
  C 169.19 501.85 155.00 501.00 145.90 491.67
  C 144.29 490.02 143.29 487.91 141.97 486.01
  Z
  M 545.09 485.35
  L 592.34 467.10
  Q 592.90 466.88 592.70 466.32
  C 588.41 454.03 579.32 445.44 565.82 445.48
  C 554.32 445.50 544.35 452.01 538.99 461.90
  Q 534.55 470.10 536.08 480.56
  Q 537.48 490.17 544.93 497.14
  C 556.39 507.84 573.18 507.36 585.52 498.16
  Q 585.93 497.85 585.63 497.44
  L 582.78 493.38
  A 0.51 0.50 53.1 0 0 582.06 493.27
  Q 574.26 499.47 565.12 499.15
  Q 551.81 498.67 544.82 486.10
  Q 544.53 485.57 545.09 485.35
  Z
  M 862.23 485.86
  A 0.31 0.30 66.0 0 1 862.39 485.43
  L 909.81 467.11
  Q 910.36 466.90 910.17 466.35
  Q 907.11 457.03 900.17 451.24
  C 891.59 444.07 878.18 443.69 868.61 449.38
  C 856.64 456.51 851.05 469.00 853.94 482.56
  Q 855.59 490.34 861.78 496.55
  C 873.00 507.79 890.31 507.55 902.99 498.19
  Q 903.44 497.86 903.12 497.41
  L 900.28 493.42
  A 0.58 0.57 52.3 0 0 899.45 493.31
  Q 891.60 499.76 881.70 499.08
  Q 868.81 498.18 862.23 485.86
  Z
  M 1763.4790 469.0941
  A 30.29 29.90 -11.9 0 0 1727.6745 446.0826
  A 30.29 29.90 -11.9 0 0 1704.2010 481.5859
  A 30.29 29.90 -11.9 0 0 1740.0055 504.5974
  A 30.29 29.90 -11.9 0 0 1763.4790 469.0941
  Z
  M 256.32 459.13
  Q 255.90 459.99 255.86 459.03
  L 255.38 447.57
  Q 255.36 447.28 255.08 447.28
  L 249.70 447.28
  Q 249.43 447.28 249.43 447.55
  L 249.42 503.73
  Q 249.42 504.00 249.69 504.00
  L 255.99 504.00
  Q 256.17 504.00 256.17 503.82
  Q 256.38 491.33 256.16 480.78
  Q 255.93 470.31 257.75 465.53
  C 261.18 456.50 270.03 450.85 279.76 451.87
  C 288.50 452.79 290.97 460.37 290.92 467.85
  Q 290.79 486.04 290.92 503.78
  Q 290.92 503.98 291.12 503.98
  L 297.50 504.01
  A 0.33 0.32 -90.0 0 0 297.82 503.68
  Q 297.75 484.34 297.87 465.43
  Q 297.91 459.75 296.42 456.16
  C 292.79 447.36 284.04 444.66 275.05 446.12
  C 267.18 447.40 259.78 451.89 256.32 459.13
  Z
  M 457.88 460.05
  L 457.37 447.57
  Q 457.36 447.28 457.07 447.28
  L 451.70 447.28
  Q 451.43 447.28 451.43 447.55
  L 451.42 503.83
  Q 451.42 503.99 451.58 503.99
  L 457.99 504.00
  A 0.26 0.26 0.0 0 0 458.25 503.74
  Q 458.17 489.28 458.30 474.65
  Q 458.39 464.51 465.43 458.40
  Q 472.07 452.65 481.05 452.54
  Q 481.57 452.53 481.59 452.01
  L 481.82 446.23
  Q 481.84 445.71 481.32 445.74
  C 472.06 446.29 462.58 451.57 458.27 460.14
  Q 457.91 460.85 457.88 460.05
  Z
  M 1061.32 459.13
  Q 1060.90 459.99 1060.86 459.04
  L 1060.37 447.57
  Q 1060.36 447.28 1060.07 447.28
  L 1054.70 447.28
  Q 1054.43 447.28 1054.43 447.55
  L 1054.42 503.72
  Q 1054.42 504.00 1054.70 504.00
  L 1060.99 504.00
  Q 1061.18 504.00 1061.18 503.81
  Q 1061.38 491.92 1061.17 480.89
  Q 1060.97 469.76 1062.70 465.50
  C 1065.72 458.05 1072.00 452.85 1079.99 451.92
  C 1091.14 450.63 1095.94 457.32 1095.90 467.48
  Q 1095.84 485.53 1095.89 503.79
  Q 1095.89 503.99 1096.09 503.99
  L 1102.61 503.99
  Q 1102.83 503.99 1102.83 503.77
  Q 1102.73 485.81 1102.88 466.49
  Q 1102.93 460.05 1101.54 456.45
  C 1096.51 443.46 1080.28 443.68 1070.05 449.74
  Q 1064.23 453.19 1061.32 459.13
  Z
  M 1377.41 459.90
  Q 1376.91 460.88 1376.87 459.78
  L 1376.37 447.57
  Q 1376.36 447.29 1376.07 447.29
  L 1370.70 447.28
  Q 1370.43 447.28 1370.43 447.55
  L 1370.42 503.81
  Q 1370.42 503.99 1370.60 503.99
  L 1376.99 504.00
  Q 1377.18 504.00 1377.18 503.81
  Q 1377.34 491.51 1377.17 478.88
  Q 1377.08 472.09 1378.20 468.10
  C 1380.88 458.51 1390.26 452.75 1400.07 452.52
  Q 1400.56 452.51 1400.58 452.02
  L 1400.82 446.24
  Q 1400.84 445.71 1400.32 445.74
  C 1391.13 446.29 1381.66 451.54 1377.41 459.90
  Z
  M 37.57 481.51
  C 35.17 471.66 38.83 461.45 47.18 455.70
  C 55.84 449.72 67.03 450.75 75.41 457.18
  Q 75.65 457.36 75.84 457.12
  L 79.14 452.93
  Q 79.29 452.73 79.10 452.58
  Q 74.35 448.82 69.70 447.55
  Q 50.60 442.35 38.11 455.17
  Q 33.11 460.31 31.25 466.53
  C 27.82 477.95 30.84 489.89 40.05 497.93
  C 50.81 507.35 67.42 507.46 78.94 498.62
  Q 79.16 498.44 78.97 498.24
  L 75.55 494.44
  Q 75.38 494.25 75.17 494.41
  C 61.61 504.34 41.68 498.37 37.57 481.51
  Z
  M 1543.72 501.91
  Q 1560.41 509.79 1576.79 498.71
  Q 1576.98 498.59 1576.84 498.41
  Q 1574.12 495.17 1573.13 494.46
  Q 1572.99 494.36 1572.85 494.46
  C 1560.76 503.11 1543.78 499.80 1537.05 486.25
  C 1533.51 479.12 1533.79 470.13 1537.87 463.32
  C 1545.66 450.34 1561.39 448.30 1573.24 457.19
  Q 1573.46 457.35 1573.63 457.14
  Q 1576.77 453.05 1576.85 452.95
  A 0.27 0.26 -52.0 0 0 1576.81 452.58
  Q 1572.18 448.75 1566.60 447.31
  Q 1548.95 442.78 1536.69 454.34
  C 1525.52 464.89 1524.48 483.13 1534.62 494.74
  Q 1538.90 499.64 1543.72 501.91
  Z
  M 1210.43 492.98
  L 1210.80 503.77
  Q 1210.80 504.00 1211.03 504.00
  L 1216.71 503.99
  Q 1216.92 503.99 1216.92 503.79
  L 1216.92 447.64
  Q 1216.92 447.28 1216.55 447.28
  L 1210.49 447.28
  A 0.42 0.42 0.0 0 0 1210.08 447.70
  Q 1210.02 460.22 1210.09 474.04
  C 1210.13 481.32 1209.06 487.22 1204.55 492.27
  Q 1197.28 500.40 1187.07 499.32
  Q 1183.73 498.96 1180.97 497.02
  C 1176.51 493.88 1175.65 488.61 1175.68 483.23
  Q 1175.81 464.37 1175.70 447.52
  Q 1175.70 447.28 1175.46 447.28
  L 1169.25 447.29
  Q 1168.92 447.29 1168.92 447.62
  Q 1168.88 468.08 1168.99 488.24
  C 1169.06 500.39 1179.10 507.23 1190.72 505.27
  Q 1203.82 503.06 1209.94 492.86
  Q 1210.40 492.09 1210.43 492.98
  Z
  M 1466.99 447.76
  A 0.49 0.49 0.0 0 0 1466.50 447.27
  L 1460.66 447.27
  A 0.49 0.49 0.0 0 0 1460.17 447.76
  L 1460.17 503.50
  A 0.49 0.49 0.0 0 0 1460.66 503.99
  L 1466.50 503.99
  A 0.49 0.49 0.0 0 0 1466.99 503.50
  L 1466.99 447.76
  Z
  M 1642.99 447.76
  A 0.49 0.49 0.0 0 0 1642.50 447.27
  L 1636.66 447.27
  A 0.49 0.49 0.0 0 0 1636.17 447.76
  L 1636.17 503.50
  A 0.49 0.49 0.0 0 0 1636.66 503.99
  L 1642.50 503.99
  A 0.49 0.49 0.0 0 0 1642.99 503.50
  L 1642.99 447.76
  Z
  M 897.0203 743.1397
  A 12.85 12.62 90.4 0 0 909.7297 730.3781
  A 12.85 12.62 90.4 0 0 897.1997 717.4403
  A 12.85 12.62 90.4 0 0 884.4903 730.2019
  A 12.85 12.62 90.4 0 0 897.0203 743.1397
  Z"
/>
<path fill="#35454d" d="
  M 1731.34 76.48
  L 1769.32 27.73
  A 0.39 0.39 0.0 0 1 1769.90 27.69
  L 1784.20 42.00
  A 0.39 0.39 0.0 0 1 1784.16 42.58
  L 1735.43 80.55
  A 0.39 0.39 0.0 0 1 1734.92 80.52
  L 1731.37 76.99
  A 0.39 0.39 0.0 0 1 1731.34 76.48
  Z"
/>
<path fill="#35454d" d="
  M 1521.79 147.06
  C 1523.77 143.17 1525.68 139.38 1528.27 135.85
  Q 1541.33 118.08 1562.79 111.45
  C 1576.47 107.22 1592.60 107.55 1606.21 111.07
  C 1624.91 115.90 1636.23 128.40 1641.02 146.73
  Q 1644.84 161.32 1644.94 180.42
  Q 1645.13 215.53 1645.01 252.45
  Q 1645.00 253.00 1644.46 253.00
  L 1624.19 253.00
  A 0.40 0.40 0.0 0 1 1623.79 252.60
  Q 1623.84 211.97 1623.80 171.25
  Q 1623.79 156.71 1620.17 143.39
  C 1614.62 122.93 1598.87 113.17 1578.07 114.19
  C 1560.65 115.05 1544.29 124.66 1533.81 138.17
  Q 1521.49 154.05 1521.37 174.60
  Q 1521.14 213.05 1521.38 252.36
  Q 1521.39 253.00 1520.75 253.00
  L 1500.55 253.00
  A 0.47 0.47 0.0 0 1 1500.08 252.53
  L 1500.08 52.60
  A 0.56 0.56 0.0 0 1 1500.65 52.04
  L 1520.73 52.04
  A 0.57 0.56 -90.0 0 1 1521.29 52.61
  L 1521.33 146.95
  Q 1521.33 147.95 1521.79 147.06
  Z"
/>
<path fill="#35454d" d="
  M 1304.00 206.33
  A 0.32 0.31 60.8 0 0 1303.87 206.81
  Q 1311.91 217.68 1323.38 226.75
  C 1343.92 242.99 1375.39 252.47 1398.50 235.03
  Q 1406.96 228.65 1412.43 220.45
  A 0.40 0.40 0.0 0 1 1413.07 220.41
  L 1416.10 223.93
  Q 1416.36 224.23 1416.12 224.55
  C 1398.34 249.03 1366.03 258.76 1336.94 253.49
  C 1308.10 248.27 1285.96 226.47 1279.97 198.31
  C 1271.19 157.01 1294.45 116.74 1336.80 108.19
  C 1352.78 104.96 1370.86 106.56 1385.14 114.52
  Q 1399.71 122.65 1408.86 136.88
  Q 1414.75 146.03 1418.15 156.63
  Q 1418.32 157.16 1417.81 157.38
  L 1304.00 206.33
  Z
  M 1385.80 139.29
  C 1370.50 121.84 1348.48 110.06 1325.66 117.28
  C 1315.36 120.54 1305.48 127.92 1298.92 136.25
  C 1283.20 156.20 1287.19 180.84 1300.25 201.12
  Q 1300.55 201.58 1301.05 201.36
  L 1397.18 160.41
  Q 1397.36 160.33 1397.30 160.15
  Q 1393.54 148.11 1385.80 139.29
  Z"
/>
<path fill="#35454d" d="
  M 142.77 230.22
  A 0.20 0.19 69.7 0 0 142.45 230.07
  Q 118.05 251.52 84.89 255.34
  C 73.59 256.64 60.77 255.41 50.47 250.24
  C 35.70 242.84 28.82 228.61 31.01 212.29
  C 34.79 184.23 66.57 171.72 91.14 167.42
  Q 115.62 163.14 142.23 162.13
  A 0.49 0.48 -90.0 0 0 142.70 161.65
  C 142.98 146.89 140.02 128.49 127.07 120.21
  Q 119.56 115.42 107.86 114.08
  Q 82.24 111.16 59.39 125.41
  C 54.51 128.45 48.22 133.54 45.58 138.91
  Q 45.21 139.66 44.84 138.92
  L 42.46 134.16
  Q 42.05 133.33 42.67 132.64
  C 57.37 116.18 79.34 108.85 101.99 108.43
  Q 114.90 108.20 126.58 110.54
  C 141.91 113.62 154.24 122.50 159.73 137.28
  Q 164.04 148.89 164.16 161.90
  Q 164.47 196.71 164.26 252.48
  Q 164.26 253.00 163.74 253.00
  L 143.14 253.00
  A 0.37 0.36 -0.0 0 1 142.77 252.64
  L 142.77 230.22
  Z
  M 55.09 198.11
  Q 49.55 211.56 53.56 226.45
  C 57.78 242.15 71.72 249.04 87.26 248.58
  C 108.29 247.96 127.52 237.82 142.36 222.96
  Q 142.78 222.54 142.78 221.96
  L 142.77 167.79
  Q 142.77 167.28 142.27 167.30
  Q 119.73 167.96 99.36 171.24
  C 81.94 174.04 62.00 181.32 55.09 198.11
  Z"
/>
<path fill="#35454d" d="
  M 278.57 146.54
  Q 278.57 148.28 279.29 146.69
  C 288.68 126.09 307.94 112.46 330.11 109.20
  Q 343.63 107.21 358.65 109.95
  C 381.82 114.17 395.13 129.08 399.43 151.77
  Q 402.26 166.66 402.26 182.92
  Q 402.25 220.75 402.30 252.44
  Q 402.30 253.00 401.74 253.00
  L 381.54 253.00
  Q 381.04 253.00 381.04 252.50
  Q 381.08 212.87 381.01 170.75
  Q 380.99 156.13 377.30 142.98
  C 373.49 129.38 364.47 118.96 350.49 115.60
  C 331.86 111.14 312.32 117.30 298.40 130.19
  Q 278.62 148.51 278.59 175.50
  Q 278.55 215.03 278.59 252.40
  Q 278.59 253.00 277.99 253.00
  L 258.04 253.00
  Q 257.33 253.00 257.33 252.29
  L 257.34 110.20
  Q 257.34 109.49 258.05 109.49
  L 278.02 109.49
  Q 278.58 109.49 278.58 110.04
  L 278.57 146.54
  Z"
/>
<path fill="#35454d" d="
  M 511.33 146.70
  Q 511.33 148.49 512.03 146.84
  C 520.84 126.18 540.98 112.52 562.88 109.21
  C 576.77 107.12 594.59 108.69 607.44 115.30
  C 632.09 127.97 634.86 158.16 634.97 183.03
  Q 635.12 218.76 635.01 252.44
  A 0.56 0.56 0.0 0 1 634.45 253.00
  L 614.46 253.00
  Q 613.82 253.00 613.82 252.36
  Q 613.81 213.72 613.77 171.01
  Q 613.76 156.45 610.16 143.29
  C 606.50 129.94 597.64 119.31 584.09 115.82
  C 565.07 110.93 545.26 117.12 530.98 130.37
  Q 511.33 148.62 511.34 175.71
  Q 511.34 213.26 511.32 252.43
  Q 511.32 253.00 510.75 253.00
  L 490.71 253.00
  Q 490.09 253.00 490.09 252.37
  L 490.08 109.95
  Q 490.08 109.49 490.55 109.49
  L 510.79 109.49
  Q 511.33 109.49 511.33 110.04
  L 511.33 146.70
  Z"
/>
<path fill="#35454d" d="
  M 825.02 230.23
  A 0.20 0.19 70.0 0 0 824.70 230.08
  Q 800.12 251.61 767.13 255.33
  C 748.95 257.38 727.33 253.22 717.41 236.11
  Q 712.65 227.90 712.87 217.26
  C 713.67 178.94 760.63 168.41 789.86 164.92
  Q 805.63 163.04 824.44 162.05
  Q 824.93 162.02 824.94 161.52
  Q 825.17 151.21 822.64 140.67
  Q 819.23 126.43 808.84 119.90
  Q 801.78 115.46 790.11 114.09
  Q 764.57 111.07 741.27 125.62
  Q 733.67 130.37 727.48 138.99
  Q 727.28 139.27 727.12 138.96
  L 724.42 133.56
  Q 724.30 133.33 724.47 133.14
  C 739.11 116.29 761.57 108.84 784.23 108.42
  Q 797.28 108.18 809.20 110.65
  C 824.28 113.79 836.07 122.28 841.76 136.69
  C 845.80 146.95 846.57 157.67 846.56 168.80
  Q 846.52 210.80 846.56 252.43
  Q 846.56 253.00 845.98 253.00
  L 825.29 253.00
  A 0.26 0.26 0.0 0 1 825.03 252.74
  L 825.02 230.23
  Z
  M 781.76 171.19
  C 762.62 174.21 739.76 182.96 735.30 204.30
  Q 732.92 215.75 735.63 225.99
  C 739.81 241.82 753.51 248.95 769.05 248.59
  C 790.27 248.11 809.79 237.89 824.65 222.88
  Q 825.03 222.50 825.03 221.97
  L 825.02 167.79
  Q 825.02 167.26 824.49 167.28
  Q 801.70 168.04 781.76 171.19
  Z"
/>
<path fill="#35454d" d="
  M 1202.30 109.49
  L 1208.52 109.49
  A 0.30 0.30 0.0 0 1 1208.79 109.92
  L 1137.81 254.48
  A 0.30 0.30 0.0 0 1 1137.27 254.48
  L 1066.29 109.92
  A 0.30 0.30 0.0 0 1 1066.56 109.49
  L 1090.01 109.50
  A 0.30 0.30 0.0 0 1 1090.28 109.67
  L 1145.88 223.48
  A 0.30 0.30 0.0 0 0 1146.42 223.48
  L 1202.03 109.66
  A 0.30 0.30 0.0 0 1 1202.30 109.49
  Z"
/>
<rect fill="#35454d" x="1732.83" y="109.49" width="21.24" height="143.50" rx="0.35"/>
<path fill="#e1dcd9" d="
  M 1325.66 117.28
  C 1348.48 110.06 1370.50 121.84 1385.80 139.29
  Q 1393.54 148.11 1397.30 160.15
  Q 1397.36 160.33 1397.18 160.41
  L 1301.05 201.36
  Q 1300.55 201.58 1300.25 201.12
  C 1287.19 180.84 1283.20 156.20 1298.92 136.25
  C 1305.48 127.92 1315.36 120.54 1325.66 117.28
  Z"
/>
<path fill="#e1dcd9" d="
  M 55.09 198.11
  C 62.00 181.32 81.94 174.04 99.36 171.24
  Q 119.73 167.96 142.27 167.30
  Q 142.77 167.28 142.77 167.79
  L 142.78 221.96
  Q 142.78 222.54 142.36 222.96
  C 127.52 237.82 108.29 247.96 87.26 248.58
  C 71.72 249.04 57.78 242.15 53.56 226.45
  Q 49.55 211.56 55.09 198.11
  Z"
/>
<path fill="#e1dcd9" d="
  M 735.30 204.30
  C 739.76 182.96 762.62 174.21 781.76 171.19
  Q 801.70 168.04 824.49 167.28
  Q 825.02 167.26 825.02 167.79
  L 825.03 221.97
  Q 825.03 222.50 824.65 222.88
  C 809.79 237.89 790.27 248.11 769.05 248.59
  C 753.51 248.95 739.81 241.82 735.63 225.99
  Q 732.92 215.75 735.30 204.30
  Z"
/>
<path fill="#35454d" d="
  M 1751.07 416.66
  L 1736.20 435.33
  A 0.32 0.32 0.0 0 1 1735.94 435.45
  L 1731.78 435.43
  A 0.32 0.32 0.0 0 1 1731.51 434.94
  L 1743.71 416.28
  A 0.32 0.32 0.0 0 1 1743.97 416.14
  L 1750.82 416.14
  A 0.32 0.32 0.0 0 1 1751.07 416.66
  Z"
/>
<path fill="#35454d" d="
  M 785.65 493.04
  Q 785.65 491.94 785.01 492.84
  Q 781.39 497.89 775.51 501.12
  C 763.00 507.98 747.71 506.12 738.49 495.17
  C 728.88 483.76 728.99 465.77 738.92 454.94
  C 749.78 443.07 767.40 442.79 779.87 452.41
  C 782.02 454.07 783.51 456.11 785.24 458.15
  Q 785.76 458.76 785.76 457.96
  L 785.76 421.18
  Q 785.76 421.02 785.92 421.02
  L 792.29 420.99
  Q 792.55 420.99 792.55 421.26
  L 792.55 503.82
  Q 792.55 503.99 792.38 503.99
  L 785.85 504.00
  Q 785.62 504.00 785.62 503.77
  L 785.65 493.04
  Z
  M 770.8397 497.5267
  A 23.98 23.86 68.6 0 0 784.3050 466.4940
  A 23.98 23.86 68.6 0 0 753.3403 452.8733
  A 23.98 23.86 68.6 0 0 739.8750 483.9060
  A 23.98 23.86 68.6 0 0 770.8397 497.5267
  Z"
/>
<circle fill="#35454d" cx="1463.73" cy="426.49" r="4.88"/>
<circle fill="#35454d" cx="1639.73" cy="426.49" r="4.88"/>
<path fill="#35454d" d="
  M 376.51 453.85
  L 376.51 503.66
  A 0.34 0.34 0.0 0 1 376.17 504.00
  L 369.88 504.00
  A 0.34 0.34 0.0 0 1 369.54 503.66
  L 369.54 453.85
  A 0.34 0.34 0.0 0 0 369.20 453.51
  L 357.86 453.51
  A 0.34 0.34 0.0 0 1 357.52 453.17
  L 357.51 448.35
  A 0.34 0.34 0.0 0 1 357.85 448.01
  L 369.20 448.02
  A 0.34 0.34 0.0 0 0 369.54 447.68
  L 369.54 422.69
  A 0.34 0.34 0.0 0 1 369.88 422.35
  L 376.16 422.35
  A 0.34 0.34 0.0 0 1 376.50 422.69
  L 376.51 447.67
  A 0.34 0.34 0.0 0 0 376.85 448.01
  L 393.70 448.02
  A 0.34 0.34 0.0 0 1 394.04 448.36
  L 394.05 453.17
  A 0.34 0.34 0.0 0 1 393.71 453.51
  L 376.85 453.51
  A 0.34 0.34 0.0 0 0 376.51 453.85
  Z"
/>
<path fill="#35454d" d="
  M 1295.50 454.19
  L 1295.50 503.75
  Q 1295.50 504.00 1295.25 504.00
  L 1288.77 503.99
  A 0.23 0.23 0.0 0 1 1288.54 503.76
  L 1288.54 454.02
  Q 1288.54 453.51 1288.02 453.51
  L 1277.02 453.51
  Q 1276.52 453.52 1276.52 453.02
  L 1276.51 448.50
  Q 1276.51 448.01 1277.00 448.01
  L 1287.98 448.02
  Q 1288.54 448.02 1288.54 447.46
  L 1288.54 422.79
  A 0.43 0.42 -90.0 0 1 1288.96 422.36
  L 1295.16 422.36
  A 0.35 0.34 90.0 0 1 1295.50 422.71
  L 1295.51 447.76
  Q 1295.51 448.01 1295.76 448.01
  L 1312.74 448.02
  Q 1313.04 448.02 1313.04 448.32
  Q 1313.04 453.20 1313.04 453.24
  Q 1313.04 453.51 1312.77 453.51
  Q 1305.01 453.52 1296.20 453.50
  Q 1295.50 453.50 1295.50 454.19
  Z"
/>
<path fill="#35454d" d="
  M 141.97 486.01
  C 143.29 487.91 144.29 490.02 145.90 491.67
  C 155.00 501.00 169.19 501.85 179.36 493.18
  A 0.38 0.38 0.0 0 1 179.91 493.25
  L 183.08 497.71
  Q 183.21 497.88 183.04 498.01
  Q 168.54 508.58 152.50 503.44
  C 146.34 501.47 140.21 496.36 136.92 490.64
  C 128.56 476.10 133.48 458.14 148.48 449.31
  Q 155.03 445.46 163.26 445.48
  C 176.52 445.51 185.98 454.20 189.92 466.37
  Q 190.09 466.91 189.56 467.12
  L 142.14 485.43
  A 0.38 0.38 0.0 0 0 141.97 486.01
  Z
  M 141.74 465.19
  Q 138.78 471.61 140.01 479.83
  Q 140.11 480.52 140.77 480.27
  L 181.24 464.39
  Q 181.83 464.16 181.54 463.60
  C 177.80 456.55 171.25 451.05 163.16 451.31
  Q 147.89 451.81 141.74 465.19
  Z"
/>
<path fill="#35454d" d="
  M 544.82 486.10
  Q 551.81 498.67 565.12 499.15
  Q 574.26 499.47 582.06 493.27
  A 0.51 0.50 53.1 0 1 582.78 493.38
  L 585.63 497.44
  Q 585.93 497.85 585.52 498.16
  C 573.18 507.36 556.39 507.84 544.93 497.14
  Q 537.48 490.17 536.08 480.56
  Q 534.55 470.10 538.99 461.90
  C 544.35 452.01 554.32 445.50 565.82 445.48
  C 579.32 445.44 588.41 454.03 592.70 466.32
  Q 592.90 466.88 592.34 467.10
  L 545.09 485.35
  Q 544.53 485.57 544.82 486.10
  Z
  M 584.28 463.61
  C 580.58 456.70 574.62 451.60 566.94 451.33
  C 557.92 451.00 549.62 455.40 545.37 463.31
  Q 541.36 470.76 542.82 479.89
  Q 542.92 480.50 543.50 480.27
  L 583.99 464.39
  Q 584.57 464.16 584.28 463.61
  Z"
/>
<path fill="#35454d" d="
  M 862.23 485.86
  Q 868.81 498.18 881.70 499.08
  Q 891.60 499.76 899.45 493.31
  A 0.58 0.57 52.3 0 1 900.28 493.42
  L 903.12 497.41
  Q 903.44 497.86 902.99 498.19
  C 890.31 507.55 873.00 507.79 861.78 496.55
  Q 855.59 490.34 853.94 482.56
  C 851.05 469.00 856.64 456.51 868.61 449.38
  C 878.18 443.69 891.59 444.07 900.17 451.24
  Q 907.11 457.03 910.17 466.35
  Q 910.36 466.90 909.81 467.11
  L 862.39 485.43
  A 0.31 0.30 66.0 0 0 862.23 485.86
  Z
  M 867.39 457.49
  C 861.16 463.19 859.09 471.35 860.28 479.85
  Q 860.38 480.52 861.01 480.27
  L 901.77 464.29
  Q 902.05 464.18 901.92 463.90
  C 898.83 457.51 892.70 451.98 885.40 451.42
  Q 874.91 450.62 867.39 457.49
  Z"
/>
<path fill="#35454d" d="
  M 1763.4790 469.0941
  A 30.29 29.90 -11.9 0 1 1740.0055 504.5974
  A 30.29 29.90 -11.9 0 1 1704.2010 481.5859
  A 30.29 29.90 -11.9 0 1 1727.6745 446.0826
  A 30.29 29.90 -11.9 0 1 1763.4790 469.0941
  Z
  M 1733.0273 499.2769
  A 23.91 23.22 91.9 0 0 1757.0272 476.1499
  A 23.91 23.22 91.9 0 0 1734.6127 451.4831
  A 23.91 23.22 91.9 0 0 1710.6128 474.6101
  A 23.91 23.22 91.9 0 0 1733.0273 499.2769
  Z"
/>
<path fill="#35454d" d="
  M 256.32 459.13
  C 259.78 451.89 267.18 447.40 275.05 446.12
  C 284.04 444.66 292.79 447.36 296.42 456.16
  Q 297.91 459.75 297.87 465.43
  Q 297.75 484.34 297.82 503.68
  A 0.33 0.32 90.0 0 1 297.50 504.01
  L 291.12 503.98
  Q 290.92 503.98 290.92 503.78
  Q 290.79 486.04 290.92 467.85
  C 290.97 460.37 288.50 452.79 279.76 451.87
  C 270.03 450.85 261.18 456.50 257.75 465.53
  Q 255.93 470.31 256.16 480.78
  Q 256.38 491.33 256.17 503.82
  Q 256.17 504.00 255.99 504.00
  L 249.69 504.00
  Q 249.42 504.00 249.42 503.73
  L 249.43 447.55
  Q 249.43 447.28 249.70 447.28
  L 255.08 447.28
  Q 255.36 447.28 255.38 447.57
  L 255.86 459.03
  Q 255.90 459.99 256.32 459.13
  Z"
/>
<path fill="#35454d" d="
  M 457.88 460.05
  Q 457.91 460.85 458.27 460.14
  C 462.58 451.57 472.06 446.29 481.32 445.74
  Q 481.84 445.71 481.82 446.23
  L 481.59 452.01
  Q 481.57 452.53 481.05 452.54
  Q 472.07 452.65 465.43 458.40
  Q 458.39 464.51 458.30 474.65
  Q 458.17 489.28 458.25 503.74
  A 0.26 0.26 0.0 0 1 457.99 504.00
  L 451.58 503.99
  Q 451.42 503.99 451.42 503.83
  L 451.43 447.55
  Q 451.43 447.28 451.70 447.28
  L 457.07 447.28
  Q 457.36 447.28 457.37 447.57
  L 457.88 460.05
  Z"
/>
<path fill="#35454d" d="
  M 1061.32 459.13
  Q 1064.23 453.19 1070.05 449.74
  C 1080.28 443.68 1096.51 443.46 1101.54 456.45
  Q 1102.93 460.05 1102.88 466.49
  Q 1102.73 485.81 1102.83 503.77
  Q 1102.83 503.99 1102.61 503.99
  L 1096.09 503.99
  Q 1095.89 503.99 1095.89 503.79
  Q 1095.84 485.53 1095.90 467.48
  C 1095.94 457.32 1091.14 450.63 1079.99 451.92
  C 1072.00 452.85 1065.72 458.05 1062.70 465.50
  Q 1060.97 469.76 1061.17 480.89
  Q 1061.38 491.92 1061.18 503.81
  Q 1061.18 504.00 1060.99 504.00
  L 1054.70 504.00
  Q 1054.42 504.00 1054.42 503.72
  L 1054.43 447.55
  Q 1054.43 447.28 1054.70 447.28
  L 1060.07 447.28
  Q 1060.36 447.28 1060.37 447.57
  L 1060.86 459.04
  Q 1060.90 459.99 1061.32 459.13
  Z"
/>
<path fill="#35454d" d="
  M 1377.41 459.90
  C 1381.66 451.54 1391.13 446.29 1400.32 445.74
  Q 1400.84 445.71 1400.82 446.24
  L 1400.58 452.02
  Q 1400.56 452.51 1400.07 452.52
  C 1390.26 452.75 1380.88 458.51 1378.20 468.10
  Q 1377.08 472.09 1377.17 478.88
  Q 1377.34 491.51 1377.18 503.81
  Q 1377.18 504.00 1376.99 504.00
  L 1370.60 503.99
  Q 1370.42 503.99 1370.42 503.81
  L 1370.43 447.55
  Q 1370.43 447.28 1370.70 447.28
  L 1376.07 447.29
  Q 1376.36 447.29 1376.37 447.57
  L 1376.87 459.78
  Q 1376.91 460.88 1377.41 459.90
  Z"
/>
<path fill="#35454d" d="
  M 47.18 455.70
  C 38.83 461.45 35.17 471.66 37.57 481.51
  C 41.68 498.37 61.61 504.34 75.17 494.41
  Q 75.38 494.25 75.55 494.44
  L 78.97 498.24
  Q 79.16 498.44 78.94 498.62
  C 67.42 507.46 50.81 507.35 40.05 497.93
  C 30.84 489.89 27.82 477.95 31.25 466.53
  Q 33.11 460.31 38.11 455.17
  Q 50.60 442.35 69.70 447.55
  Q 74.35 448.82 79.10 452.58
  Q 79.29 452.73 79.14 452.93
  L 75.84 457.12
  Q 75.65 457.36 75.41 457.18
  C 67.03 450.75 55.84 449.72 47.18 455.70
  Z"
/>
<path fill="#35454d" d="
  M 1543.72 501.91
  Q 1538.90 499.64 1534.62 494.74
  C 1524.48 483.13 1525.52 464.89 1536.69 454.34
  Q 1548.95 442.78 1566.60 447.31
  Q 1572.18 448.75 1576.81 452.58
  A 0.27 0.26 -52.0 0 1 1576.85 452.95
  Q 1576.77 453.05 1573.63 457.14
  Q 1573.46 457.35 1573.24 457.19
  C 1561.39 448.30 1545.66 450.34 1537.87 463.32
  C 1533.79 470.13 1533.51 479.12 1537.05 486.25
  C 1543.78 499.80 1560.76 503.11 1572.85 494.46
  Q 1572.99 494.36 1573.13 494.46
  Q 1574.12 495.17 1576.84 498.41
  Q 1576.98 498.59 1576.79 498.71
  Q 1560.41 509.79 1543.72 501.91
  Z"
/>
<path fill="#35454d" d="
  M 1209.94 492.86
  Q 1203.82 503.06 1190.72 505.27
  C 1179.10 507.23 1169.06 500.39 1168.99 488.24
  Q 1168.88 468.08 1168.92 447.62
  Q 1168.92 447.29 1169.25 447.29
  L 1175.46 447.28
  Q 1175.70 447.28 1175.70 447.52
  Q 1175.81 464.37 1175.68 483.23
  C 1175.65 488.61 1176.51 493.88 1180.97 497.02
  Q 1183.73 498.96 1187.07 499.32
  Q 1197.28 500.40 1204.55 492.27
  C 1209.06 487.22 1210.13 481.32 1210.09 474.04
  Q 1210.02 460.22 1210.08 447.70
  A 0.42 0.42 0.0 0 1 1210.49 447.28
  L 1216.55 447.28
  Q 1216.92 447.28 1216.92 447.64
  L 1216.92 503.79
  Q 1216.92 503.99 1216.71 503.99
  L 1211.03 504.00
  Q 1210.80 504.00 1210.80 503.77
  L 1210.43 492.98
  Q 1210.40 492.09 1209.94 492.86
  Z"
/>
<rect fill="#35454d" x="1460.17" y="447.27" width="6.82" height="56.72" rx="0.49"/>
<rect fill="#35454d" x="1636.17" y="447.27" width="6.82" height="56.72" rx="0.49"/>
<path fill="#e1dcd9" d="
  M 141.74 465.19
  Q 147.89 451.81 163.16 451.31
  C 171.25 451.05 177.80 456.55 181.54 463.60
  Q 181.83 464.16 181.24 464.39
  L 140.77 480.27
  Q 140.11 480.52 140.01 479.83
  Q 138.78 471.61 141.74 465.19
  Z"
/>
<path fill="#e1dcd9" d="
  M 566.94 451.33
  C 574.62 451.60 580.58 456.70 584.28 463.61
  Q 584.57 464.16 583.99 464.39
  L 543.50 480.27
  Q 542.92 480.50 542.82 479.89
  Q 541.36 470.76 545.37 463.31
  C 549.62 455.40 557.92 451.00 566.94 451.33
  Z"
/>
<ellipse fill="#e1dcd9" cx="0.00" cy="0.00" transform="translate(762.09,475.20) rotate(68.6)" rx="23.98" ry="23.86"/>
<path fill="#e1dcd9" d="
  M 860.28 479.85
  C 859.09 471.35 861.16 463.19 867.39 457.49
  Q 874.91 450.62 885.40 451.42
  C 892.70 451.98 898.83 457.51 901.92 463.90
  Q 902.05 464.18 901.77 464.29
  L 861.01 480.27
  Q 860.38 480.52 860.28 479.85
  Z"
/>
<ellipse fill="#e1dcd9" cx="0.00" cy="0.00" transform="translate(1733.82,475.38) rotate(91.9)" rx="23.91" ry="23.22"/>
<ellipse fill="#35454d" cx="0.00" cy="0.00" transform="translate(897.11,730.29) rotate(90.4)" rx="12.85" ry="12.62"/>
</svg>
