<?xml version="1.0" encoding="UTF-8" standalone="no"?>
<!DOCTYPE svg PUBLIC "-//W3C//DTD SVG 1.1//EN" "http://www.w3.org/Graphics/SVG/1.1/DTD/svg11.dtd">
<svg xmlns="http://www.w3.org/2000/svg" version="1.1" viewBox="0.00 0.00 2050.00 1022.00">
<g stroke-width="2.00" fill="none" stroke-linecap="butt">
<path stroke="#8a9194" vector-effect="non-scaling-stroke" d="
  M 1833.58 198.09
  A 0.39 0.39 0.0 0 0 1833.62 197.51
  L 1820.43 184.30
  A 0.39 0.39 0.0 0 0 1819.85 184.34
  L 1784.74 229.41
  A 0.39 0.39 0.0 0 0 1784.77 229.92
  L 1787.97 233.19
  A 0.39 0.39 0.0 0 0 1788.48 233.23
  L 1833.58 198.09"
/>
<path stroke="#8a9194" vector-effect="non-scaling-stroke" d="
  M 1590.48 294.72
  L 1590.48 207.52
  A 0.71 0.70 -0.0 0 0 1589.77 206.82
  L 1571.33 206.85
  Q 1570.76 206.85 1570.76 207.42
  L 1570.76 392.54
  Q 1570.76 393.06 1571.29 393.06
  L 1589.98 393.08
  A 0.47 0.47 0.0 0 0 1590.45 392.61
  Q 1590.50 356.93 1590.53 321.25
  Q 1590.55 296.44 1608.44 279.69
  C 1621.38 267.58 1638.92 261.60 1656.50 265.56
  C 1681.10 271.09 1685.58 297.74 1685.56 318.76
  Q 1685.51 355.61 1685.45 392.50
  Q 1685.45 393.07 1686.02 393.07
  L 1704.49 393.07
  Q 1705.09 393.07 1705.09 392.46
  Q 1705.10 358.23 1704.94 324.00
  C 1704.86 307.02 1702.26 287.51 1691.61 274.91
  C 1681.37 262.78 1664.09 259.02 1648.73 259.06
  C 1627.37 259.12 1608.60 268.04 1596.04 285.67
  C 1594.13 288.34 1592.64 291.75 1590.93 294.83
  Q 1590.48 295.64 1590.48 294.72"
/>
<path stroke="#8a9194" vector-effect="non-scaling-stroke" d="
  M 1388.41 350.18
  A 0.27 0.27 0.0 0 1 1388.52 349.78
  L 1494.01 304.42
  Q 1494.35 304.28 1494.24 303.93
  C 1485.24 274.37 1460.79 255.61 1429.24 257.60
  C 1388.07 260.20 1360.78 293.84 1364.98 334.50
  C 1368.91 372.46 1400.66 397.05 1438.26 394.72
  C 1459.46 393.40 1479.45 383.96 1492.18 367.05
  Q 1492.62 366.46 1492.14 365.90
  L 1489.72 363.08
  Q 1489.24 362.52 1488.83 363.12
  C 1461.00 403.65 1410.88 381.31 1388.41 350.18"
/>
<path stroke="#8a9194" vector-effect="non-scaling-stroke" d="
  M 312.50 371.96
  A 0.32 0.31 70.6 0 1 313.01 372.21
  L 312.97 392.77
  A 0.30 0.29 -0.0 0 0 313.27 393.06
  L 332.43 393.07
  Q 332.89 393.07 332.89 392.61
  Q 333.01 351.93 332.83 311.25
  C 332.70 282.22 320.81 262.91 290.25 259.73
  C 264.98 257.10 237.42 261.88 219.83 281.95
  Q 219.61 282.19 219.76 282.49
  L 222.38 287.56
  A 0.20 0.19 -43.2 0 0 222.72 287.57
  Q 225.75 282.22 230.23 278.75
  Q 253.58 260.60 283.44 264.77
  C 308.16 268.23 312.31 286.86 312.98 308.14
  A 0.60 0.60 0.0 0 1 312.41 308.76
  C 282.14 310.40 218.42 313.33 209.82 352.63
  C 203.92 379.63 226.24 396.01 250.51 395.70
  Q 279.13 395.33 303.09 379.29
  C 306.15 377.23 309.40 374.50 312.50 371.96"
/>
<path stroke="#8a9194" vector-effect="non-scaling-stroke" d="
  M 438.25 294.26
  L 438.27 260.43
  A 0.38 0.38 0.0 0 0 437.89 260.05
  L 419.15 260.06
  Q 418.61 260.06 418.61 260.60
  L 418.62 392.60
  Q 418.62 393.07 419.10 393.07
  L 437.71 393.07
  Q 438.21 393.07 438.21 392.57
  Q 438.29 356.66 438.50 320.75
  Q 438.65 295.67 457.02 279.02
  C 469.91 267.34 487.54 261.55 504.27 265.52
  C 529.10 271.41 533.17 296.96 533.19 318.51
  Q 533.22 355.52 533.33 392.59
  Q 533.33 393.07 533.81 393.07
  L 552.44 393.07
  Q 552.90 393.07 552.90 392.61
  Q 552.99 362.05 553.02 331.50
  C 553.04 310.77 551.59 282.42 532.91 268.84
  C 520.14 259.55 498.87 257.14 483.75 260.17
  Q 452.71 266.38 438.90 294.42
  Q 438.25 295.74 438.25 294.26"
/>
<path stroke="#8a9194" vector-effect="non-scaling-stroke" d="
  M 654.43 294.72
  L 654.46 260.76
  Q 654.47 260.06 653.76 260.06
  L 635.35 260.05
  Q 634.76 260.05 634.76 260.65
  L 634.75 392.67
  A 0.42 0.42 0.0 0 0 635.17 393.09
  L 654.00 393.07
  A 0.44 0.44 0.0 0 0 654.44 392.63
  Q 654.43 359.83 654.46 326.94
  Q 654.48 313.86 655.94 307.68
  C 662.09 281.63 688.32 261.11 715.76 264.70
  C 744.99 268.52 749.38 295.89 749.41 320.00
  Q 749.44 356.42 749.45 392.76
  A 0.33 0.33 0.0 0 0 749.78 393.09
  L 768.48 393.06
  Q 769.08 393.06 769.09 392.45
  Q 769.13 357.34 768.90 322.26
  Q 768.78 303.78 763.51 288.74
  C 757.47 271.52 743.76 263.13 726.23 260.06
  C 696.17 254.80 668.31 267.39 654.81 294.81
  A 0.20 0.20 0.0 0 1 654.43 294.72"
/>
<path stroke="#8a9194" vector-effect="non-scaling-stroke" d="
  M 944.76 372.24
  L 944.73 392.52
  Q 944.73 393.06 945.27 393.06
  L 964.20 393.07
  Q 964.68 393.07 964.68 392.59
  Q 964.81 351.67 964.71 310.75
  C 964.65 281.20 951.40 262.36 920.56 259.57
  C 895.94 257.34 868.53 262.26 851.56 282.00
  Q 851.38 282.21 851.51 282.46
  L 854.26 287.76
  A 0.15 0.14 -46.1 0 0 854.52 287.75
  Q 856.30 284.14 859.02 281.52
  C 870.99 270.04 889.00 263.47 905.37 263.79
  C 922.67 264.12 936.98 269.27 942.13 287.15
  Q 944.82 296.50 944.62 308.26
  Q 944.61 308.76 944.12 308.78
  C 913.71 310.35 847.08 313.67 841.23 355.04
  C 839.23 369.16 844.78 383.14 857.76 389.77
  C 885.50 403.93 922.34 390.88 944.26 372.01
  A 0.30 0.30 0.0 0 1 944.76 372.24"
/>
<path stroke="#8a9194" vector-effect="non-scaling-stroke" d="
  M 1169.49 260.06
  A 0.43 0.43 0.0 0 0 1169.10 260.68
  L 1234.62 394.13
  A 0.43 0.43 0.0 0 0 1235.40 394.13
  L 1300.91 260.70
  A 0.43 0.43 0.0 0 0 1300.52 260.08
  L 1295.10 260.08
  A 0.43 0.43 0.0 0 0 1294.71 260.32
  L 1243.37 365.43
  A 0.43 0.43 0.0 0 1 1242.59 365.43
  L 1191.22 260.28
  A 0.43 0.43 0.0 0 0 1190.83 260.04
  L 1169.49 260.06"
/>
<path stroke="#8a9194" vector-effect="non-scaling-stroke" d="
  M 1805.74 260.62
  A 0.54 0.54 0.0 0 0 1805.20 260.08
  L 1786.62 260.08
  A 0.54 0.54 0.0 0 0 1786.08 260.62
  L 1786.08 392.52
  A 0.54 0.54 0.0 0 0 1786.62 393.06
  L 1805.20 393.06
  A 0.54 0.54 0.0 0 0 1805.74 392.52
  L 1805.74 260.62"
/>
<path stroke="#8a9194" vector-effect="non-scaling-stroke" d="
  M 1803.02 544.30
  A 0.33 0.33 0.0 0 0 1802.77 543.77
  L 1796.53 543.75
  A 0.33 0.33 0.0 0 0 1796.25 543.90
  L 1784.86 561.21
  A 0.33 0.33 0.0 0 0 1785.15 561.72
  L 1789.05 561.64
  A 0.33 0.33 0.0 0 0 1789.31 561.52
  L 1803.02 544.30"
/>
<path stroke="#8a9194" vector-effect="non-scaling-stroke" d="
  M 1541.31 553.38
  A 4.51 4.51 0.0 0 0 1536.80 548.87
  A 4.51 4.51 0.0 0 0 1532.29 553.38
  A 4.51 4.51 0.0 0 0 1536.80 557.89
  A 4.51 4.51 0.0 0 0 1541.31 553.38"
/>
<path stroke="#8a9194" vector-effect="non-scaling-stroke" d="
  M 1704.39 553.39
  A 4.52 4.52 0.0 0 0 1699.87 548.87
  A 4.52 4.52 0.0 0 0 1695.35 553.39
  A 4.52 4.52 0.0 0 0 1699.87 557.91
  A 4.52 4.52 0.0 0 0 1704.39 553.39"
/>
<path stroke="#8a9194" vector-effect="non-scaling-stroke" d="
  M 867.00 619.51
  C 867.78 620.59 869.30 621.18 870.37 622.03
  C 872.22 623.48 874.07 623.92 876.15 624.78
  C 880.54 626.60 888.83 627.03 893.15 624.86
  C 894.69 624.08 896.60 623.87 897.86 623.26
  Q 903.98 620.29 907.76 615.03
  Q 908.38 614.16 908.38 615.23
  L 908.41 624.90
  Q 908.41 625.24 908.75 625.24
  L 914.25 625.23
  Q 914.73 625.22 914.73 624.75
  L 914.76 549.58
  Q 914.76 549.30 914.48 549.30
  L 908.74 549.28
  Q 908.50 549.28 908.50 549.52
  L 908.49 582.25
  Q 908.49 583.42 907.84 582.45
  C 901.49 572.97 888.67 569.48 878.41 571.94
  C 859.26 576.53 853.40 597.32 862.02 613.50
  Q 863.52 616.30 866.43 618.74
  A 1.01 0.02 54.4 0 1 867.00 619.51"
/>
<path stroke="#8a9194" vector-effect="non-scaling-stroke" d="
  M 529.22 578.82
  A 0.33 0.33 0.0 0 1 529.55 578.49
  L 545.16 578.48
  A 0.33 0.33 0.0 0 0 545.49 578.15
  L 545.49 573.68
  A 0.33 0.33 0.0 0 0 545.16 573.35
  L 529.55 573.35
  A 0.33 0.33 0.0 0 1 529.22 573.02
  L 529.22 549.85
  A 0.33 0.33 0.0 0 0 528.89 549.52
  L 523.08 549.52
  A 0.33 0.33 0.0 0 0 522.75 549.85
  L 522.75 573.01
  A 0.33 0.33 0.0 0 1 522.42 573.34
  L 511.94 573.34
  A 0.33 0.33 0.0 0 0 511.61 573.67
  L 511.60 578.16
  A 0.33 0.33 0.0 0 0 511.93 578.49
  L 522.42 578.47
  A 0.33 0.33 0.0 0 1 522.75 578.80
  L 522.75 624.91
  A 0.33 0.33 0.0 0 0 523.08 625.24
  L 528.89 625.24
  A 0.33 0.33 0.0 0 0 529.22 624.91
  L 529.22 578.82"
/>
<path stroke="#8a9194" vector-effect="non-scaling-stroke" d="
  M 1374.52 572.95
  A 0.40 0.40 0.0 0 1 1374.12 573.35
  L 1363.72 573.27
  A 0.40 0.40 0.0 0 0 1363.31 573.68
  L 1363.35 578.10
  A 0.40 0.40 0.0 0 0 1363.75 578.50
  L 1374.11 578.47
  A 0.40 0.40 0.0 0 1 1374.51 578.87
  L 1374.51 624.84
  A 0.40 0.40 0.0 0 0 1374.91 625.24
  L 1380.60 625.23
  A 0.40 0.40 0.0 0 0 1381.00 624.83
  L 1380.99 578.86
  A 0.40 0.40 0.0 0 1 1381.39 578.46
  L 1396.85 578.47
  A 0.40 0.40 0.0 0 0 1397.25 578.07
  L 1397.26 573.77
  A 0.40 0.40 0.0 0 0 1396.86 573.37
  L 1381.36 573.36
  A 0.40 0.40 0.0 0 1 1380.96 572.96
  L 1381.01 549.93
  A 0.40 0.40 0.0 0 0 1380.61 549.53
  L 1374.91 549.52
  A 0.40 0.40 0.0 0 0 1374.51 549.92
  L 1374.52 572.95"
/>
<path stroke="#8a9194" vector-effect="non-scaling-stroke" d="
  M 310.71 617.29
  C 311.64 618.21 312.64 619.32 313.76 620.06
  C 315.32 621.10 316.41 622.48 318.15 623.14
  Q 320.18 623.91 322.22 624.72
  C 331.34 628.32 342.16 625.47 349.87 619.71
  Q 350.14 619.50 349.94 619.23
  L 347.04 615.28
  Q 346.85 615.03 346.60 615.22
  Q 336.10 623.50 323.69 619.38
  Q 321.22 618.56 318.78 616.52
  C 315.63 613.89 313.62 612.14 312.08 608.74
  Q 311.87 608.27 312.30 607.99
  C 315.03 606.20 318.47 605.68 320.84 604.73
  C 325.42 602.88 330.38 601.39 334.69 599.41
  C 337.24 598.23 339.92 596.59 342.67 596.06
  C 344.67 595.67 346.63 594.27 348.50 593.41
  C 349.44 592.97 350.42 593.32 351.20 592.95
  Q 353.67 591.78 356.03 591.11
  A 0.59 0.59 0.0 0 0 356.40 590.29
  C 355.20 587.83 354.29 585.14 352.93 583.00
  Q 344.09 569.15 327.20 571.28
  C 324.97 571.56 322.99 572.49 320.85 573.26
  C 312.20 576.37 306.27 583.96 304.13 592.72
  C 303.41 595.69 303.75 598.86 304.02 601.94
  C 304.14 603.29 304.81 604.66 304.87 606.15
  Q 304.95 608.20 305.31 609.23
  C 305.93 610.96 306.20 612.45 307.46 613.86
  Q 309.04 615.63 310.71 617.29"
/>
<path stroke="#8a9194" vector-effect="non-scaling-stroke" d="
  M 691.45 605.30
  Q 695.82 604.37 697.51 603.56
  C 700.69 602.04 704.32 601.10 707.24 599.76
  Q 710.44 598.29 713.67 596.86
  Q 714.12 596.66 714.60 596.59
  Q 715.10 596.52 715.99 596.19
  Q 722.78 593.66 729.24 591.04
  A 0.78 0.77 -22.8 0 0 729.66 590.02
  C 725.54 580.45 720.09 573.27 709.64 571.40
  Q 700.36 569.73 691.40 574.37
  C 680.04 580.26 673.72 595.00 678.31 607.66
  Q 679.09 609.82 679.87 611.98
  Q 681.08 615.37 685.92 619.51
  C 687.03 620.45 688.28 621.02 689.51 621.94
  C 691.53 623.45 693.41 623.82 695.62 624.75
  C 704.43 628.46 715.58 625.30 723.13 619.73
  Q 723.41 619.53 723.21 619.24
  L 720.44 615.35
  Q 720.24 615.07 719.97 615.28
  C 708.17 624.08 692.10 622.36 685.29 608.72
  A 0.61 0.61 0.0 0 1 685.66 607.86
  C 687.72 607.22 689.43 605.73 691.45 605.30"
/>
<path stroke="#8a9194" vector-effect="non-scaling-stroke" d="
  M 971.06 597.06
  C 971.17 607.39 974.99 617.46 984.51 622.66
  C 985.82 623.38 987.08 623.59 988.12 624.07
  C 997.63 628.49 1009.37 625.87 1017.37 619.66
  Q 1017.61 619.48 1017.43 619.23
  L 1014.63 615.35
  A 0.38 0.38 0.0 0 0 1014.09 615.27
  Q 1002.83 623.94 989.95 618.94
  Q 987.85 618.12 985.97 616.35
  C 983.28 613.82 981.27 612.24 979.50 608.89
  A 0.72 0.72 0.0 0 1 979.82 607.91
  L 984.89 605.42
  Q 985.30 605.22 985.76 605.18
  C 989.70 604.89 994.96 602.34 997.63 600.88
  C 999.11 600.08 1000.16 600.03 1001.30 599.59
  Q 1012.45 595.28 1022.84 591.31
  Q 1024.21 590.78 1023.62 589.44
  Q 1022.06 585.92 1020.40 583.15
  C 1013.62 571.80 1000.91 568.31 988.68 573.02
  Q 985.04 574.42 983.29 575.65
  C 978.19 579.22 972.84 585.68 972.07 592.02
  C 971.86 593.80 971.05 595.39 971.06 597.06"
/>
<path stroke="#8a9194" vector-effect="non-scaling-stroke" d="
  M 1764.33 614.88
  Q 1768.28 621.23 1775.32 623.92
  C 1776.12 624.22 1777.08 624.27 1778.07 624.74
  C 1782.49 626.83 1791.35 626.88 1795.77 624.73
  Q 1797.21 624.03 1798.70 623.36
  Q 1799.14 623.16 1799.62 623.15
  C 1801.93 623.10 1801.96 621.26 1803.44 621.04
  Q 1803.91 620.97 1804.28 620.67
  C 1821.60 607.03 1817.59 579.19 1795.88 572.35
  C 1790.63 570.70 1782.19 569.98 1777.41 572.92
  C 1776.35 573.57 1774.86 573.64 1774.00 574.08
  Q 1767.20 577.54 1764.13 582.52
  C 1759.28 590.42 1757.07 600.35 1761.25 609.20
  C 1761.90 610.56 1762.15 612.46 1763.20 613.57
  Q 1764.10 614.52 1764.33 614.88"
/>
<path stroke="#8a9194" vector-effect="non-scaling-stroke" d="
  M 444.73 578.67
  C 448.01 580.87 449.90 585.05 449.87 589.50
  Q 449.75 607.35 449.77 624.98
  Q 449.77 625.23 450.03 625.23
  L 455.97 625.24
  Q 456.23 625.24 456.23 624.99
  Q 456.30 608.19 456.22 591.21
  Q 456.19 584.10 454.96 580.98
  C 450.78 570.39 438.86 569.68 429.62 573.13
  Q 421.76 576.07 417.91 583.35
  Q 417.42 584.28 417.37 583.23
  L 416.90 572.94
  Q 416.89 572.73 416.69 572.72
  L 411.61 572.64
  A 0.25 0.25 0.0 0 0 411.35 572.89
  L 411.35 624.88
  A 0.37 0.36 -0.0 0 0 411.72 625.24
  L 417.45 625.23
  Q 417.72 625.23 417.72 624.96
  Q 417.69 612.47 417.73 599.77
  Q 417.75 593.21 418.73 590.33
  Q 420.31 585.67 424.19 582.20
  Q 425.50 581.04 426.86 579.97
  C 431.23 576.53 439.99 575.49 444.73 578.67"
/>
<path stroke="#8a9194" vector-effect="non-scaling-stroke" d="
  M 604.51 584.22
  L 604.01 572.99
  A 0.28 0.28 0.0 0 0 603.74 572.72
  L 598.70 572.65
  Q 598.50 572.65 598.50 572.85
  L 598.50 625.00
  A 0.25 0.24 0.0 0 0 598.75 625.24
  L 604.51 625.24
  Q 604.77 625.24 604.77 624.97
  Q 604.77 611.63 604.75 598.00
  Q 604.73 588.52 610.82 583.55
  Q 615.35 579.85 617.25 579.02
  Q 620.45 577.62 626.18 577.40
  Q 626.43 577.39 626.44 577.14
  L 626.70 571.47
  Q 626.71 571.23 626.48 571.25
  Q 612.17 572.25 604.82 584.30
  Q 604.53 584.77 604.51 584.22"
/>
<path stroke="#8a9194" vector-effect="non-scaling-stroke" d="
  M 1194.33 583.03
  Q 1195.73 586.22 1195.74 590.51
  Q 1195.78 607.73 1195.77 624.74
  A 0.50 0.49 90.0 0 0 1196.26 625.24
  L 1201.76 625.22
  Q 1202.25 625.22 1202.25 624.73
  Q 1202.28 606.27 1202.25 587.50
  C 1202.24 577.11 1194.38 570.79 1184.55 571.33
  C 1176.12 571.78 1168.16 575.38 1164.02 583.16
  Q 1163.43 584.27 1163.38 583.02
  L 1162.95 572.98
  Q 1162.94 572.76 1162.72 572.75
  L 1157.74 572.63
  A 0.37 0.36 -89.2 0 0 1157.37 573.00
  L 1157.37 625.04
  Q 1157.37 625.24 1157.57 625.24
  L 1163.46 625.23
  Q 1163.72 625.23 1163.72 624.98
  Q 1163.74 610.88 1163.73 596.50
  C 1163.72 587.21 1171.15 577.82 1181.00 576.69
  C 1186.35 576.08 1192.05 577.85 1194.33 583.03"
/>
<path stroke="#8a9194" vector-effect="non-scaling-stroke" d="
  M 1463.37 582.37
  Q 1464.28 581.61 1467.58 579.81
  Q 1469.80 578.60 1472.15 578.16
  Q 1474.88 577.64 1477.66 577.37
  Q 1478.20 577.32 1478.23 576.77
  L 1478.49 571.78
  Q 1478.52 571.32 1478.05 571.31
  Q 1475.30 571.27 1473.78 571.83
  Q 1470.83 572.90 1467.98 574.11
  Q 1460.47 577.28 1457.09 583.73
  Q 1456.21 585.42 1456.16 583.51
  L 1455.89 573.31
  A 0.59 0.59 0.0 0 0 1455.31 572.73
  L 1451.00 572.64
  Q 1450.37 572.62 1450.37 573.25
  L 1450.27 625.00
  A 0.23 0.23 0.0 0 0 1450.50 625.23
  L 1456.30 625.24
  Q 1456.58 625.24 1456.58 624.96
  Q 1456.53 613.05 1456.56 601.06
  Q 1456.57 594.27 1457.63 591.03
  Q 1459.34 585.76 1463.37 582.37"
/>
<path stroke="#8a9194" vector-effect="non-scaling-stroke" d="
  M 220.19 621.47
  Q 221.28 622.56 223.88 623.62
  Q 233.46 627.54 242.26 625.51
  Q 248.24 624.13 253.26 620.49
  Q 253.75 620.14 253.35 619.69
  L 250.64 616.63
  Q 250.28 616.23 249.84 616.53
  C 242.21 621.67 231.58 622.80 223.93 617.00
  C 218.62 612.97 215.46 608.84 214.63 601.98
  C 213.60 593.46 216.48 587.46 222.24 581.52
  Q 222.60 581.15 223.11 581.09
  Q 223.72 581.03 223.84 580.49
  Q 223.98 579.89 224.53 579.61
  Q 237.96 573.00 249.91 581.55
  Q 250.48 581.96 250.93 581.41
  L 253.47 578.27
  A 0.79 0.78 36.6 0 0 253.30 577.13
  Q 241.68 569.27 229.03 572.36
  C 206.97 577.75 200.50 606.07 217.99 620.25
  Q 218.48 620.65 219.37 620.96
  Q 219.84 621.13 220.19 621.47"
/>
<path stroke="#8a9194" vector-effect="non-scaling-stroke" d="
  M 1613.80 579.00
  Q 1626.46 573.54 1637.63 581.37
  Q 1638.47 581.95 1639.10 581.16
  L 1641.33 578.38
  Q 1641.95 577.60 1641.12 577.04
  C 1631.51 570.55 1619.46 569.49 1609.29 575.35
  Q 1605.67 577.44 1603.89 579.38
  C 1594.59 589.53 1593.80 602.37 1600.46 614.33
  C 1601.64 616.45 1603.52 617.97 1605.28 619.63
  Q 1607.36 621.60 1609.67 622.73
  C 1620.41 628.00 1631.67 627.37 1641.36 620.40
  A 0.40 0.39 -39.4 0 0 1641.42 619.82
  L 1638.60 616.62
  Q 1638.29 616.27 1637.90 616.52
  C 1618.60 628.92 1596.14 612.17 1603.91 590.27
  Q 1606.07 584.18 1612.69 579.95
  Q 1612.77 579.89 1613.04 579.80
  Q 1613.32 579.70 1613.38 579.48
  Q 1613.48 579.14 1613.80 579.00"
/>
<path stroke="#8a9194" vector-effect="non-scaling-stroke" d="
  M 1289.50 624.62
  Q 1289.65 624.62 1289.78 624.62
  Q 1290.00 624.63 1290.19 624.55
  Q 1297.76 621.55 1301.69 614.65
  A 0.23 0.22 59.4 0 1 1302.11 614.76
  L 1302.30 625.00
  Q 1302.30 625.24 1302.55 625.24
  L 1307.78 625.24
  Q 1308.01 625.24 1308.01 625.00
  L 1308.01 573.00
  A 0.27 0.27 0.0 0 0 1307.75 572.73
  L 1302.01 572.70
  Q 1301.74 572.70 1301.74 572.97
  Q 1301.70 583.23 1301.72 593.66
  Q 1301.75 604.16 1300.24 608.20
  Q 1296.83 617.35 1286.16 620.68
  C 1284.99 621.05 1284.21 621.69 1282.90 621.55
  C 1273.91 620.59 1269.49 615.86 1269.61 606.74
  Q 1269.83 589.76 1269.83 573.00
  A 0.32 0.32 0.0 0 0 1269.52 572.68
  L 1263.84 572.65
  Q 1263.53 572.65 1263.53 572.96
  Q 1263.47 590.35 1263.54 607.88
  Q 1263.57 613.12 1264.19 615.43
  C 1266.85 625.33 1276.87 627.86 1285.96 626.05
  Q 1287.72 625.69 1289.27 624.69
  Q 1289.38 624.62 1289.50 624.62"
/>
<path stroke="#8a9194" vector-effect="non-scaling-stroke" d="
  M 1539.78 573.03
  A 0.35 0.35 0.0 0 0 1539.43 572.68
  L 1533.85 572.68
  A 0.35 0.35 0.0 0 0 1533.50 573.03
  L 1533.50 624.89
  A 0.35 0.35 0.0 0 0 1533.85 625.24
  L 1539.43 625.24
  A 0.35 0.35 0.0 0 0 1539.78 624.89
  L 1539.78 573.03"
/>
<path stroke="#8a9194" vector-effect="non-scaling-stroke" d="
  M 1702.87 573.03
  A 0.35 0.35 0.0 0 0 1702.52 572.68
  L 1696.88 572.68
  A 0.35 0.35 0.0 0 0 1696.53 573.03
  L 1696.53 624.89
  A 0.35 0.35 0.0 0 0 1696.88 625.24
  L 1702.52 625.24
  A 0.35 0.35 0.0 0 0 1702.87 624.89
  L 1702.87 573.03"
/>
<path stroke="#8a9194" vector-effect="non-scaling-stroke" d="
  M 1023.23 835.33
  A 11.79 11.79 0.0 0 0 1011.44 823.54
  A 11.79 11.79 0.0 0 0 999.65 835.33
  A 11.79 11.79 0.0 0 0 1011.44 847.12
  A 11.79 11.79 0.0 0 0 1023.23 835.33"
/>
<path stroke="#8a9194" vector-effect="non-scaling-stroke" d="
  M 1474.84 306.61
  C 1466.77 280.98 1436.50 259.15 1409.45 267.05
  C 1399.24 270.03 1389.17 277.47 1382.80 286.07
  C 1369.35 304.21 1373.17 326.86 1385.08 344.99
  Q 1385.34 345.38 1385.77 345.20
  L 1474.48 307.39
  Q 1475.02 307.17 1474.84 306.61"
/>
<path stroke="#8a9194" vector-effect="non-scaling-stroke" d="
  M 275.50 316.75
  C 253.92 319.74 231.18 328.75 228.95 353.76
  C 227.42 370.98 235.71 386.19 254.01 388.55
  C 275.67 391.34 297.63 380.25 312.49 365.25
  A 1.77 1.75 67.5 0 0 312.99 364.02
  L 313.00 314.20
  Q 313.00 313.56 312.36 313.58
  C 299.49 313.89 286.84 315.18 275.50 316.75"
/>
<path stroke="#8a9194" vector-effect="non-scaling-stroke" d="
  M 864.22 340.70
  C 855.75 358.59 861.40 384.79 884.01 388.27
  C 906.43 391.72 929.23 380.80 944.46 364.98
  Q 944.75 364.67 944.75 364.25
  L 944.75 314.04
  Q 944.75 313.61 944.32 313.62
  Q 923.01 314.15 902.04 317.74
  C 887.89 320.16 870.84 326.71 864.22 340.70"
/>
<path stroke="#8a9194" vector-effect="non-scaling-stroke" d="
  M 895.25 618.81
  C 897.31 617.78 899.33 617.05 901.01 615.54
  C 907.04 610.12 909.50 602.22 908.35 594.01
  C 907.49 587.85 903.11 583.70 898.42 579.71
  Q 897.50 578.93 895.01 578.06
  Q 881.80 573.41 871.91 581.88
  Q 867.59 585.57 866.04 589.51
  C 863.44 596.06 863.82 604.87 868.24 610.82
  C 869.56 612.59 870.76 614.76 872.90 615.96
  C 873.92 616.54 874.60 617.51 875.51 617.99
  Q 884.94 622.87 894.97 619.13
  Q 895.07 619.09 895.10 619.02
  Q 895.19 618.84 895.25 618.81"
/>
<path stroke="#8a9194" vector-effect="non-scaling-stroke" d="
  M 318.64 600.00
  C 322.20 598.86 324.43 597.25 327.46 596.35
  Q 329.83 595.64 331.58 594.83
  Q 333.25 594.06 335.00 593.54
  C 338.04 592.64 340.93 590.90 343.24 590.21
  Q 346.55 589.22 348.34 588.27
  Q 348.85 588.00 348.51 587.54
  C 347.35 585.95 346.74 584.21 345.50 582.86
  Q 338.25 574.94 327.27 576.58
  C 325.45 576.86 322.05 578.00 320.63 579.03
  Q 314.86 583.24 313.35 585.74
  C 309.94 591.36 308.41 597.02 309.84 602.82
  A 0.82 0.82 0.0 0 0 310.95 603.38
  C 313.63 602.25 316.15 600.80 318.64 600.00"
/>
<path stroke="#8a9194" vector-effect="non-scaling-stroke" d="
  M 692.92 599.38
  C 694.69 599.45 697.45 597.75 699.09 596.99
  C 700.57 596.31 702.28 596.23 703.90 595.41
  C 707.08 593.78 710.04 593.12 713.17 591.75
  C 715.95 590.53 718.84 589.73 721.59 588.49
  Q 722.32 588.16 721.83 587.53
  C 720.71 586.09 719.89 584.36 718.74 583.09
  Q 709.73 573.11 696.81 577.77
  C 693.80 578.86 690.00 581.57 688.01 584.07
  Q 685.11 587.71 684.63 589.12
  Q 682.52 595.35 683.18 602.69
  A 0.67 0.67 0.0 0 0 683.92 603.30
  Q 685.06 603.18 686.36 602.46
  Q 689.37 600.81 692.64 599.77
  Q 692.76 599.74 692.81 599.66
  Q 692.87 599.55 692.87 599.42
  Q 692.88 599.37 692.92 599.38"
/>
<path stroke="#8a9194" vector-effect="non-scaling-stroke" d="
  M 996.37 595.87
  C 997.80 595.22 999.81 595.03 1001.48 594.31
  Q 1008.51 591.26 1015.74 588.54
  Q 1016.18 588.38 1015.99 587.95
  C 1014.30 584.07 1010.91 580.11 1007.75 578.58
  C 1000.07 574.84 991.85 575.75 985.33 581.19
  C 978.75 586.67 975.57 594.30 977.71 602.64
  A 0.95 0.95 0.0 0 0 979.11 603.23
  C 984.59 600.04 990.64 598.50 996.37 595.87"
/>
<path stroke="#8a9194" vector-effect="non-scaling-stroke" d="
  M 1775.60 617.55
  Q 1775.99 618.22 1776.73 618.56
  C 1782.84 621.32 1790.01 621.82 1796.16 618.77
  Q 1796.34 618.69 1796.51 618.78
  L 1796.73 618.89
  Q 1797.17 619.12 1797.50 618.75
  C 1800.35 615.55 1803.67 613.79 1805.92 609.50
  C 1810.91 599.98 1808.89 588.62 1801.03 581.70
  Q 1790.57 572.48 1777.24 578.79
  C 1776.09 579.33 1775.65 580.13 1774.63 580.69
  Q 1773.22 581.46 1772.68 582.02
  Q 1768.21 586.63 1766.89 590.50
  C 1764.84 596.49 1765.20 601.43 1766.89 607.24
  Q 1767.31 608.67 1768.47 610.21
  C 1770.43 612.83 1771.72 615.23 1774.93 616.90
  Q 1775.36 617.12 1775.60 617.55"
/>
</g>
<path fill="#e2dcd9" d="
  M 0.00 0.00
  L 2050.00 0.00
  L 2050.00 1022.00
  L 0.00 1022.00
  L 0.00 0.00
  Z
  M 1833.58 198.09
  A 0.39 0.39 0.0 0 0 1833.62 197.51
  L 1820.43 184.30
  A 0.39 0.39 0.0 0 0 1819.85 184.34
  L 1784.74 229.41
  A 0.39 0.39 0.0 0 0 1784.77 229.92
  L 1787.97 233.19
  A 0.39 0.39 0.0 0 0 1788.48 233.23
  L 1833.58 198.09
  Z
  M 1590.48 294.72
  L 1590.48 207.52
  A 0.71 0.70 -0.0 0 0 1589.77 206.82
  L 1571.33 206.85
  Q 1570.76 206.85 1570.76 207.42
  L 1570.76 392.54
  Q 1570.76 393.06 1571.29 393.06
  L 1589.98 393.08
  A 0.47 0.47 0.0 0 0 1590.45 392.61
  Q 1590.50 356.93 1590.53 321.25
  Q 1590.55 296.44 1608.44 279.69
  C 1621.38 267.58 1638.92 261.60 1656.50 265.56
  C 1681.10 271.09 1685.58 297.74 1685.56 318.76
  Q 1685.51 355.61 1685.45 392.50
  Q 1685.45 393.07 1686.02 393.07
  L 1704.49 393.07
  Q 1705.09 393.07 1705.09 392.46
  Q 1705.10 358.23 1704.94 324.00
  C 1704.86 307.02 1702.26 287.51 1691.61 274.91
  C 1681.37 262.78 1664.09 259.02 1648.73 259.06
  C 1627.37 259.12 1608.60 268.04 1596.04 285.67
  C 1594.13 288.34 1592.64 291.75 1590.93 294.83
  Q 1590.48 295.64 1590.48 294.72
  Z
  M 1388.41 350.18
  A 0.27 0.27 0.0 0 1 1388.52 349.78
  L 1494.01 304.42
  Q 1494.35 304.28 1494.24 303.93
  C 1485.24 274.37 1460.79 255.61 1429.24 257.60
  C 1388.07 260.20 1360.78 293.84 1364.98 334.50
  C 1368.91 372.46 1400.66 397.05 1438.26 394.72
  C 1459.46 393.40 1479.45 383.96 1492.18 367.05
  Q 1492.62 366.46 1492.14 365.90
  L 1489.72 363.08
  Q 1489.24 362.52 1488.83 363.12
  C 1461.00 403.65 1410.88 381.31 1388.41 350.18
  Z
  M 312.50 371.96
  A 0.32 0.31 70.6 0 1 313.01 372.21
  L 312.97 392.77
  A 0.30 0.29 -0.0 0 0 313.27 393.06
  L 332.43 393.07
  Q 332.89 393.07 332.89 392.61
  Q 333.01 351.93 332.83 311.25
  C 332.70 282.22 320.81 262.91 290.25 259.73
  C 264.98 257.10 237.42 261.88 219.83 281.95
  Q 219.61 282.19 219.76 282.49
  L 222.38 287.56
  A 0.20 0.19 -43.2 0 0 222.72 287.57
  Q 225.75 282.22 230.23 278.75
  Q 253.58 260.60 283.44 264.77
  C 308.16 268.23 312.31 286.86 312.98 308.14
  A 0.60 0.60 0.0 0 1 312.41 308.76
  C 282.14 310.40 218.42 313.33 209.82 352.63
  C 203.92 379.63 226.24 396.01 250.51 395.70
  Q 279.13 395.33 303.09 379.29
  C 306.15 377.23 309.40 374.50 312.50 371.96
  Z
  M 438.25 294.26
  L 438.27 260.43
  A 0.38 0.38 0.0 0 0 437.89 260.05
  L 419.15 260.06
  Q 418.61 260.06 418.61 260.60
  L 418.62 392.60
  Q 418.62 393.07 419.10 393.07
  L 437.71 393.07
  Q 438.21 393.07 438.21 392.57
  Q 438.29 356.66 438.50 320.75
  Q 438.65 295.67 457.02 279.02
  C 469.91 267.34 487.54 261.55 504.27 265.52
  C 529.10 271.41 533.17 296.96 533.19 318.51
  Q 533.22 355.52 533.33 392.59
  Q 533.33 393.07 533.81 393.07
  L 552.44 393.07
  Q 552.90 393.07 552.90 392.61
  Q 552.99 362.05 553.02 331.50
  C 553.04 310.77 551.59 282.42 532.91 268.84
  C 520.14 259.55 498.87 257.14 483.75 260.17
  Q 452.71 266.38 438.90 294.42
  Q 438.25 295.74 438.25 294.26
  Z
  M 654.43 294.72
  L 654.46 260.76
  Q 654.47 260.06 653.76 260.06
  L 635.35 260.05
  Q 634.76 260.05 634.76 260.65
  L 634.75 392.67
  A 0.42 0.42 0.0 0 0 635.17 393.09
  L 654.00 393.07
  A 0.44 0.44 0.0 0 0 654.44 392.63
  Q 654.43 359.83 654.46 326.94
  Q 654.48 313.86 655.94 307.68
  C 662.09 281.63 688.32 261.11 715.76 264.70
  C 744.99 268.52 749.38 295.89 749.41 320.00
  Q 749.44 356.42 749.45 392.76
  A 0.33 0.33 0.0 0 0 749.78 393.09
  L 768.48 393.06
  Q 769.08 393.06 769.09 392.45
  Q 769.13 357.34 768.90 322.26
  Q 768.78 303.78 763.51 288.74
  C 757.47 271.52 743.76 263.13 726.23 260.06
  C 696.17 254.80 668.31 267.39 654.81 294.81
  A 0.20 0.20 0.0 0 1 654.43 294.72
  Z
  M 944.76 372.24
  L 944.73 392.52
  Q 944.73 393.06 945.27 393.06
  L 964.20 393.07
  Q 964.68 393.07 964.68 392.59
  Q 964.81 351.67 964.71 310.75
  C 964.65 281.20 951.40 262.36 920.56 259.57
  C 895.94 257.34 868.53 262.26 851.56 282.00
  Q 851.38 282.21 851.51 282.46
  L 854.26 287.76
  A 0.15 0.14 -46.1 0 0 854.52 287.75
  Q 856.30 284.14 859.02 281.52
  C 870.99 270.04 889.00 263.47 905.37 263.79
  C 922.67 264.12 936.98 269.27 942.13 287.15
  Q 944.82 296.50 944.62 308.26
  Q 944.61 308.76 944.12 308.78
  C 913.71 310.35 847.08 313.67 841.23 355.04
  C 839.23 369.16 844.78 383.14 857.76 389.77
  C 885.50 403.93 922.34 390.88 944.26 372.01
  A 0.30 0.30 0.0 0 1 944.76 372.24
  Z
  M 1169.49 260.06
  A 0.43 0.43 0.0 0 0 1169.10 260.68
  L 1234.62 394.13
  A 0.43 0.43 0.0 0 0 1235.40 394.13
  L 1300.91 260.70
  A 0.43 0.43 0.0 0 0 1300.52 260.08
  L 1295.10 260.08
  A 0.43 0.43 0.0 0 0 1294.71 260.32
  L 1243.37 365.43
  A 0.43 0.43 0.0 0 1 1242.59 365.43
  L 1191.22 260.28
  A 0.43 0.43 0.0 0 0 1190.83 260.04
  L 1169.49 260.06
  Z
  M 1805.74 260.62
  A 0.54 0.54 0.0 0 0 1805.20 260.08
  L 1786.62 260.08
  A 0.54 0.54 0.0 0 0 1786.08 260.62
  L 1786.08 392.52
  A 0.54 0.54 0.0 0 0 1786.62 393.06
  L 1805.20 393.06
  A 0.54 0.54 0.0 0 0 1805.74 392.52
  L 1805.74 260.62
  Z
  M 1803.02 544.30
  A 0.33 0.33 0.0 0 0 1802.77 543.77
  L 1796.53 543.75
  A 0.33 0.33 0.0 0 0 1796.25 543.90
  L 1784.86 561.21
  A 0.33 0.33 0.0 0 0 1785.15 561.72
  L 1789.05 561.64
  A 0.33 0.33 0.0 0 0 1789.31 561.52
  L 1803.02 544.30
  Z
  M 1541.31 553.38
  A 4.51 4.51 0.0 0 0 1536.80 548.87
  A 4.51 4.51 0.0 0 0 1532.29 553.38
  A 4.51 4.51 0.0 0 0 1536.80 557.89
  A 4.51 4.51 0.0 0 0 1541.31 553.38
  Z
  M 1704.39 553.39
  A 4.52 4.52 0.0 0 0 1699.87 548.87
  A 4.52 4.52 0.0 0 0 1695.35 553.39
  A 4.52 4.52 0.0 0 0 1699.87 557.91
  A 4.52 4.52 0.0 0 0 1704.39 553.39
  Z
  M 867.00 619.51
  C 867.78 620.59 869.30 621.18 870.37 622.03
  C 872.22 623.48 874.07 623.92 876.15 624.78
  C 880.54 626.60 888.83 627.03 893.15 624.86
  C 894.69 624.08 896.60 623.87 897.86 623.26
  Q 903.98 620.29 907.76 615.03
  Q 908.38 614.16 908.38 615.23
  L 908.41 624.90
  Q 908.41 625.24 908.75 625.24
  L 914.25 625.23
  Q 914.73 625.22 914.73 624.75
  L 914.76 549.58
  Q 914.76 549.30 914.48 549.30
  L 908.74 549.28
  Q 908.50 549.28 908.50 549.52
  L 908.49 582.25
  Q 908.49 583.42 907.84 582.45
  C 901.49 572.97 888.67 569.48 878.41 571.94
  C 859.26 576.53 853.40 597.32 862.02 613.50
  Q 863.52 616.30 866.43 618.74
  A 1.01 0.02 54.4 0 1 867.00 619.51
  Z
  M 529.22 578.82
  A 0.33 0.33 0.0 0 1 529.55 578.49
  L 545.16 578.48
  A 0.33 0.33 0.0 0 0 545.49 578.15
  L 545.49 573.68
  A 0.33 0.33 0.0 0 0 545.16 573.35
  L 529.55 573.35
  A 0.33 0.33 0.0 0 1 529.22 573.02
  L 529.22 549.85
  A 0.33 0.33 0.0 0 0 528.89 549.52
  L 523.08 549.52
  A 0.33 0.33 0.0 0 0 522.75 549.85
  L 522.75 573.01
  A 0.33 0.33 0.0 0 1 522.42 573.34
  L 511.94 573.34
  A 0.33 0.33 0.0 0 0 511.61 573.67
  L 511.60 578.16
  A 0.33 0.33 0.0 0 0 511.93 578.49
  L 522.42 578.47
  A 0.33 0.33 0.0 0 1 522.75 578.80
  L 522.75 624.91
  A 0.33 0.33 0.0 0 0 523.08 625.24
  L 528.89 625.24
  A 0.33 0.33 0.0 0 0 529.22 624.91
  L 529.22 578.82
  Z
  M 1374.52 572.95
  A 0.40 0.40 0.0 0 1 1374.12 573.35
  L 1363.72 573.27
  A 0.40 0.40 0.0 0 0 1363.31 573.68
  L 1363.35 578.10
  A 0.40 0.40 0.0 0 0 1363.75 578.50
  L 1374.11 578.47
  A 0.40 0.40 0.0 0 1 1374.51 578.87
  L 1374.51 624.84
  A 0.40 0.40 0.0 0 0 1374.91 625.24
  L 1380.60 625.23
  A 0.40 0.40 0.0 0 0 1381.00 624.83
  L 1380.99 578.86
  A 0.40 0.40 0.0 0 1 1381.39 578.46
  L 1396.85 578.47
  A 0.40 0.40 0.0 0 0 1397.25 578.07
  L 1397.26 573.77
  A 0.40 0.40 0.0 0 0 1396.86 573.37
  L 1381.36 573.36
  A 0.40 0.40 0.0 0 1 1380.96 572.96
  L 1381.01 549.93
  A 0.40 0.40 0.0 0 0 1380.61 549.53
  L 1374.91 549.52
  A 0.40 0.40 0.0 0 0 1374.51 549.92
  L 1374.52 572.95
  Z
  M 310.71 617.29
  C 311.64 618.21 312.64 619.32 313.76 620.06
  C 315.32 621.10 316.41 622.48 318.15 623.14
  Q 320.18 623.91 322.22 624.72
  C 331.34 628.32 342.16 625.47 349.87 619.71
  Q 350.14 619.50 349.94 619.23
  L 347.04 615.28
  Q 346.85 615.03 346.60 615.22
  Q 336.10 623.50 323.69 619.38
  Q 321.22 618.56 318.78 616.52
  C 315.63 613.89 313.62 612.14 312.08 608.74
  Q 311.87 608.27 312.30 607.99
  C 315.03 606.20 318.47 605.68 320.84 604.73
  C 325.42 602.88 330.38 601.39 334.69 599.41
  C 337.24 598.23 339.92 596.59 342.67 596.06
  C 344.67 595.67 346.63 594.27 348.50 593.41
  C 349.44 592.97 350.42 593.32 351.20 592.95
  Q 353.67 591.78 356.03 591.11
  A 0.59 0.59 0.0 0 0 356.40 590.29
  C 355.20 587.83 354.29 585.14 352.93 583.00
  Q 344.09 569.15 327.20 571.28
  C 324.97 571.56 322.99 572.49 320.85 573.26
  C 312.20 576.37 306.27 583.96 304.13 592.72
  C 303.41 595.69 303.75 598.86 304.02 601.94
  C 304.14 603.29 304.81 604.66 304.87 606.15
  Q 304.95 608.20 305.31 609.23
  C 305.93 610.96 306.20 612.45 307.46 613.86
  Q 309.04 615.63 310.71 617.29
  Z
  M 691.45 605.30
  Q 695.82 604.37 697.51 603.56
  C 700.69 602.04 704.32 601.10 707.24 599.76
  Q 710.44 598.29 713.67 596.86
  Q 714.12 596.66 714.60 596.59
  Q 715.10 596.52 715.99 596.19
  Q 722.78 593.66 729.24 591.04
  A 0.78 0.77 -22.8 0 0 729.66 590.02
  C 725.54 580.45 720.09 573.27 709.64 571.40
  Q 700.36 569.73 691.40 574.37
  C 680.04 580.26 673.72 595.00 678.31 607.66
  Q 679.09 609.82 679.87 611.98
  Q 681.08 615.37 685.92 619.51
  C 687.03 620.45 688.28 621.02 689.51 621.94
  C 691.53 623.45 693.41 623.82 695.62 624.75
  C 704.43 628.46 715.58 625.30 723.13 619.73
  Q 723.41 619.53 723.21 619.24
  L 720.44 615.35
  Q 720.24 615.07 719.97 615.28
  C 708.17 624.08 692.10 622.36 685.29 608.72
  A 0.61 0.61 0.0 0 1 685.66 607.86
  C 687.72 607.22 689.43 605.73 691.45 605.30
  Z
  M 971.06 597.06
  C 971.17 607.39 974.99 617.46 984.51 622.66
  C 985.82 623.38 987.08 623.59 988.12 624.07
  C 997.63 628.49 1009.37 625.87 1017.37 619.66
  Q 1017.61 619.48 1017.43 619.23
  L 1014.63 615.35
  A 0.38 0.38 0.0 0 0 1014.09 615.27
  Q 1002.83 623.94 989.95 618.94
  Q 987.85 618.12 985.97 616.35
  C 983.28 613.82 981.27 612.24 979.50 608.89
  A 0.72 0.72 0.0 0 1 979.82 607.91
  L 984.89 605.42
  Q 985.30 605.22 985.76 605.18
  C 989.70 604.89 994.96 602.34 997.63 600.88
  C 999.11 600.08 1000.16 600.03 1001.30 599.59
  Q 1012.45 595.28 1022.84 591.31
  Q 1024.21 590.78 1023.62 589.44
  Q 1022.06 585.92 1020.40 583.15
  C 1013.62 571.80 1000.91 568.31 988.68 573.02
  Q 985.04 574.42 983.29 575.65
  C 978.19 579.22 972.84 585.68 972.07 592.02
  C 971.86 593.80 971.05 595.39 971.06 597.06
  Z
  M 1764.33 614.88
  Q 1768.28 621.23 1775.32 623.92
  C 1776.12 624.22 1777.08 624.27 1778.07 624.74
  C 1782.49 626.83 1791.35 626.88 1795.77 624.73
  Q 1797.21 624.03 1798.70 623.36
  Q 1799.14 623.16 1799.62 623.15
  C 1801.93 623.10 1801.96 621.26 1803.44 621.04
  Q 1803.91 620.97 1804.28 620.67
  C 1821.60 607.03 1817.59 579.19 1795.88 572.35
  C 1790.63 570.70 1782.19 569.98 1777.41 572.92
  C 1776.35 573.57 1774.86 573.64 1774.00 574.08
  Q 1767.20 577.54 1764.13 582.52
  C 1759.28 590.42 1757.07 600.35 1761.25 609.20
  C 1761.90 610.56 1762.15 612.46 1763.20 613.57
  Q 1764.10 614.52 1764.33 614.88
  Z
  M 444.73 578.67
  C 448.01 580.87 449.90 585.05 449.87 589.50
  Q 449.75 607.35 449.77 624.98
  Q 449.77 625.23 450.03 625.23
  L 455.97 625.24
  Q 456.23 625.24 456.23 624.99
  Q 456.30 608.19 456.22 591.21
  Q 456.19 584.10 454.96 580.98
  C 450.78 570.39 438.86 569.68 429.62 573.13
  Q 421.76 576.07 417.91 583.35
  Q 417.42 584.28 417.37 583.23
  L 416.90 572.94
  Q 416.89 572.73 416.69 572.72
  L 411.61 572.64
  A 0.25 0.25 0.0 0 0 411.35 572.89
  L 411.35 624.88
  A 0.37 0.36 -0.0 0 0 411.72 625.24
  L 417.45 625.23
  Q 417.72 625.23 417.72 624.96
  Q 417.69 612.47 417.73 599.77
  Q 417.75 593.21 418.73 590.33
  Q 420.31 585.67 424.19 582.20
  Q 425.50 581.04 426.86 579.97
  C 431.23 576.53 439.99 575.49 444.73 578.67
  Z
  M 604.51 584.22
  L 604.01 572.99
  A 0.28 0.28 0.0 0 0 603.74 572.72
  L 598.70 572.65
  Q 598.50 572.65 598.50 572.85
  L 598.50 625.00
  A 0.25 0.24 0.0 0 0 598.75 625.24
  L 604.51 625.24
  Q 604.77 625.24 604.77 624.97
  Q 604.77 611.63 604.75 598.00
  Q 604.73 588.52 610.82 583.55
  Q 615.35 579.85 617.25 579.02
  Q 620.45 577.62 626.18 577.40
  Q 626.43 577.39 626.44 577.14
  L 626.70 571.47
  Q 626.71 571.23 626.48 571.25
  Q 612.17 572.25 604.82 584.30
  Q 604.53 584.77 604.51 584.22
  Z
  M 1194.33 583.03
  Q 1195.73 586.22 1195.74 590.51
  Q 1195.78 607.73 1195.77 624.74
  A 0.50 0.49 90.0 0 0 1196.26 625.24
  L 1201.76 625.22
  Q 1202.25 625.22 1202.25 624.73
  Q 1202.28 606.27 1202.25 587.50
  C 1202.24 577.11 1194.38 570.79 1184.55 571.33
  C 1176.12 571.78 1168.16 575.38 1164.02 583.16
  Q 1163.43 584.27 1163.38 583.02
  L 1162.95 572.98
  Q 1162.94 572.76 1162.72 572.75
  L 1157.74 572.63
  A 0.37 0.36 -89.2 0 0 1157.37 573.00
  L 1157.37 625.04
  Q 1157.37 625.24 1157.57 625.24
  L 1163.46 625.23
  Q 1163.72 625.23 1163.72 624.98
  Q 1163.74 610.88 1163.73 596.50
  C 1163.72 587.21 1171.15 577.82 1181.00 576.69
  C 1186.35 576.08 1192.05 577.85 1194.33 583.03
  Z
  M 1463.37 582.37
  Q 1464.28 581.61 1467.58 579.81
  Q 1469.80 578.60 1472.15 578.16
  Q 1474.88 577.64 1477.66 577.37
  Q 1478.20 577.32 1478.23 576.77
  L 1478.49 571.78
  Q 1478.52 571.32 1478.05 571.31
  Q 1475.30 571.27 1473.78 571.83
  Q 1470.83 572.90 1467.98 574.11
  Q 1460.47 577.28 1457.09 583.73
  Q 1456.21 585.42 1456.16 583.51
  L 1455.89 573.31
  A 0.59 0.59 0.0 0 0 1455.31 572.73
  L 1451.00 572.64
  Q 1450.37 572.62 1450.37 573.25
  L 1450.27 625.00
  A 0.23 0.23 0.0 0 0 1450.50 625.23
  L 1456.30 625.24
  Q 1456.58 625.24 1456.58 624.96
  Q 1456.53 613.05 1456.56 601.06
  Q 1456.57 594.27 1457.63 591.03
  Q 1459.34 585.76 1463.37 582.37
  Z
  M 220.19 621.47
  Q 221.28 622.56 223.88 623.62
  Q 233.46 627.54 242.26 625.51
  Q 248.24 624.13 253.26 620.49
  Q 253.75 620.14 253.35 619.69
  L 250.64 616.63
  Q 250.28 616.23 249.84 616.53
  C 242.21 621.67 231.58 622.80 223.93 617.00
  C 218.62 612.97 215.46 608.84 214.63 601.98
  C 213.60 593.46 216.48 587.46 222.24 581.52
  Q 222.60 581.15 223.11 581.09
  Q 223.72 581.03 223.84 580.49
  Q 223.98 579.89 224.53 579.61
  Q 237.96 573.00 249.91 581.55
  Q 250.48 581.96 250.93 581.41
  L 253.47 578.27
  A 0.79 0.78 36.6 0 0 253.30 577.13
  Q 241.68 569.27 229.03 572.36
  C 206.97 577.75 200.50 606.07 217.99 620.25
  Q 218.48 620.65 219.37 620.96
  Q 219.84 621.13 220.19 621.47
  Z
  M 1613.80 579.00
  Q 1626.46 573.54 1637.63 581.37
  Q 1638.47 581.95 1639.10 581.16
  L 1641.33 578.38
  Q 1641.95 577.60 1641.12 577.04
  C 1631.51 570.55 1619.46 569.49 1609.29 575.35
  Q 1605.67 577.44 1603.89 579.38
  C 1594.59 589.53 1593.80 602.37 1600.46 614.33
  C 1601.64 616.45 1603.52 617.97 1605.28 619.63
  Q 1607.36 621.60 1609.67 622.73
  C 1620.41 628.00 1631.67 627.37 1641.36 620.40
  A 0.40 0.39 -39.4 0 0 1641.42 619.82
  L 1638.60 616.62
  Q 1638.29 616.27 1637.90 616.52
  C 1618.60 628.92 1596.14 612.17 1603.91 590.27
  Q 1606.07 584.18 1612.69 579.95
  Q 1612.77 579.89 1613.04 579.80
  Q 1613.32 579.70 1613.38 579.48
  Q 1613.48 579.14 1613.80 579.00
  Z
  M 1289.50 624.62
  Q 1289.65 624.62 1289.78 624.62
  Q 1290.00 624.63 1290.19 624.55
  Q 1297.76 621.55 1301.69 614.65
  A 0.23 0.22 59.4 0 1 1302.11 614.76
  L 1302.30 625.00
  Q 1302.30 625.24 1302.55 625.24
  L 1307.78 625.24
  Q 1308.01 625.24 1308.01 625.00
  L 1308.01 573.00
  A 0.27 0.27 0.0 0 0 1307.75 572.73
  L 1302.01 572.70
  Q 1301.74 572.70 1301.74 572.97
  Q 1301.70 583.23 1301.72 593.66
  Q 1301.75 604.16 1300.24 608.20
  Q 1296.83 617.35 1286.16 620.68
  C 1284.99 621.05 1284.21 621.69 1282.90 621.55
  C 1273.91 620.59 1269.49 615.86 1269.61 606.74
  Q 1269.83 589.76 1269.83 573.00
  A 0.32 0.32 0.0 0 0 1269.52 572.68
  L 1263.84 572.65
  Q 1263.53 572.65 1263.53 572.96
  Q 1263.47 590.35 1263.54 607.88
  Q 1263.57 613.12 1264.19 615.43
  C 1266.85 625.33 1276.87 627.86 1285.96 626.05
  Q 1287.72 625.69 1289.27 624.69
  Q 1289.38 624.62 1289.50 624.62
  Z
  M 1539.78 573.03
  A 0.35 0.35 0.0 0 0 1539.43 572.68
  L 1533.85 572.68
  A 0.35 0.35 0.0 0 0 1533.50 573.03
  L 1533.50 624.89
  A 0.35 0.35 0.0 0 0 1533.85 625.24
  L 1539.43 625.24
  A 0.35 0.35 0.0 0 0 1539.78 624.89
  L 1539.78 573.03
  Z
  M 1702.87 573.03
  A 0.35 0.35 0.0 0 0 1702.52 572.68
  L 1696.88 572.68
  A 0.35 0.35 0.0 0 0 1696.53 573.03
  L 1696.53 624.89
  A 0.35 0.35 0.0 0 0 1696.88 625.24
  L 1702.52 625.24
  A 0.35 0.35 0.0 0 0 1702.87 624.89
  L 1702.87 573.03
  Z
  M 1023.23 835.33
  A 11.79 11.79 0.0 0 0 1011.44 823.54
  A 11.79 11.79 0.0 0 0 999.65 835.33
  A 11.79 11.79 0.0 0 0 1011.44 847.12
  A 11.79 11.79 0.0 0 0 1023.23 835.33
  Z"
/>
<path fill="#31464e" d="
  M 1833.58 198.09
  L 1788.48 233.23
  A 0.39 0.39 0.0 0 1 1787.97 233.19
  L 1784.77 229.92
  A 0.39 0.39 0.0 0 1 1784.74 229.41
  L 1819.85 184.34
  A 0.39 0.39 0.0 0 1 1820.43 184.30
  L 1833.62 197.51
  A 0.39 0.39 0.0 0 1 1833.58 198.09
  Z"
/>
<path fill="#31464e" d="
  M 1590.93 294.83
  C 1592.64 291.75 1594.13 288.34 1596.04 285.67
  C 1608.60 268.04 1627.37 259.12 1648.73 259.06
  C 1664.09 259.02 1681.37 262.78 1691.61 274.91
  C 1702.26 287.51 1704.86 307.02 1704.94 324.00
  Q 1705.10 358.23 1705.09 392.46
  Q 1705.09 393.07 1704.49 393.07
  L 1686.02 393.07
  Q 1685.45 393.07 1685.45 392.50
  Q 1685.51 355.61 1685.56 318.76
  C 1685.58 297.74 1681.10 271.09 1656.50 265.56
  C 1638.92 261.60 1621.38 267.58 1608.44 279.69
  Q 1590.55 296.44 1590.53 321.25
  Q 1590.50 356.93 1590.45 392.61
  A 0.47 0.47 0.0 0 1 1589.98 393.08
  L 1571.29 393.06
  Q 1570.76 393.06 1570.76 392.54
  L 1570.76 207.42
  Q 1570.76 206.85 1571.33 206.85
  L 1589.77 206.82
  A 0.71 0.70 -0.0 0 1 1590.48 207.52
  L 1590.48 294.72
  Q 1590.48 295.64 1590.93 294.83
  Z"
/>
<path fill="#31464e" d="
  M 1388.41 350.18
  C 1410.88 381.31 1461.00 403.65 1488.83 363.12
  Q 1489.24 362.52 1489.72 363.08
  L 1492.14 365.90
  Q 1492.62 366.46 1492.18 367.05
  C 1479.45 383.96 1459.46 393.40 1438.26 394.72
  C 1400.66 397.05 1368.91 372.46 1364.98 334.50
  C 1360.78 293.84 1388.07 260.20 1429.24 257.60
  C 1460.79 255.61 1485.24 274.37 1494.24 303.93
  Q 1494.35 304.28 1494.01 304.42
  L 1388.52 349.78
  A 0.27 0.27 0.0 0 0 1388.41 350.18
  Z
  M 1474.84 306.61
  C 1466.77 280.98 1436.50 259.15 1409.45 267.05
  C 1399.24 270.03 1389.17 277.47 1382.80 286.07
  C 1369.35 304.21 1373.17 326.86 1385.08 344.99
  Q 1385.34 345.38 1385.77 345.20
  L 1474.48 307.39
  Q 1475.02 307.17 1474.84 306.61
  Z"
/>
<path fill="#31464e" d="
  M 312.50 371.96
  C 309.40 374.50 306.15 377.23 303.09 379.29
  Q 279.13 395.33 250.51 395.70
  C 226.24 396.01 203.92 379.63 209.82 352.63
  C 218.42 313.33 282.14 310.40 312.41 308.76
  A 0.60 0.60 0.0 0 0 312.98 308.14
  C 312.31 286.86 308.16 268.23 283.44 264.77
  Q 253.58 260.60 230.23 278.75
  Q 225.75 282.22 222.72 287.57
  A 0.20 0.19 -43.2 0 1 222.38 287.56
  L 219.76 282.49
  Q 219.61 282.19 219.83 281.95
  C 237.42 261.88 264.98 257.10 290.25 259.73
  C 320.81 262.91 332.70 282.22 332.83 311.25
  Q 333.01 351.93 332.89 392.61
  Q 332.89 393.07 332.43 393.07
  L 313.27 393.06
  A 0.30 0.29 -0.0 0 1 312.97 392.77
  L 313.01 372.21
  A 0.32 0.31 70.6 0 0 312.50 371.96
  Z
  M 275.50 316.75
  C 253.92 319.74 231.18 328.75 228.95 353.76
  C 227.42 370.98 235.71 386.19 254.01 388.55
  C 275.67 391.34 297.63 380.25 312.49 365.25
  A 1.77 1.75 67.5 0 0 312.99 364.02
  L 313.00 314.20
  Q 313.00 313.56 312.36 313.58
  C 299.49 313.89 286.84 315.18 275.50 316.75
  Z"
/>
<path fill="#31464e" d="
  M 438.25 294.26
  Q 438.25 295.74 438.90 294.42
  Q 452.71 266.38 483.75 260.17
  C 498.87 257.14 520.14 259.55 532.91 268.84
  C 551.59 282.42 553.04 310.77 553.02 331.50
  Q 552.99 362.05 552.90 392.61
  Q 552.90 393.07 552.44 393.07
  L 533.81 393.07
  Q 533.33 393.07 533.33 392.59
  Q 533.22 355.52 533.19 318.51
  C 533.17 296.96 529.10 271.41 504.27 265.52
  C 487.54 261.55 469.91 267.34 457.02 279.02
  Q 438.65 295.67 438.50 320.75
  Q 438.29 356.66 438.21 392.57
  Q 438.21 393.07 437.71 393.07
  L 419.10 393.07
  Q 418.62 393.07 418.62 392.60
  L 418.61 260.60
  Q 418.61 260.06 419.15 260.06
  L 437.89 260.05
  A 0.38 0.38 0.0 0 1 438.27 260.43
  L 438.25 294.26
  Z"
/>
<path fill="#31464e" d="
  M 654.43 294.72
  A 0.20 0.20 0.0 0 0 654.81 294.81
  C 668.31 267.39 696.17 254.80 726.23 260.06
  C 743.76 263.13 757.47 271.52 763.51 288.74
  Q 768.78 303.78 768.90 322.26
  Q 769.13 357.34 769.09 392.45
  Q 769.08 393.06 768.48 393.06
  L 749.78 393.09
  A 0.33 0.33 0.0 0 1 749.45 392.76
  Q 749.44 356.42 749.41 320.00
  C 749.38 295.89 744.99 268.52 715.76 264.70
  C 688.32 261.11 662.09 281.63 655.94 307.68
  Q 654.48 313.86 654.46 326.94
  Q 654.43 359.83 654.44 392.63
  A 0.44 0.44 0.0 0 1 654.00 393.07
  L 635.17 393.09
  A 0.42 0.42 0.0 0 1 634.75 392.67
  L 634.76 260.65
  Q 634.76 260.05 635.35 260.05
  L 653.76 260.06
  Q 654.47 260.06 654.46 260.76
  L 654.43 294.72
  Z"
/>
<path fill="#31464e" d="
  M 944.76 372.24
  A 0.30 0.30 0.0 0 0 944.26 372.01
  C 922.34 390.88 885.50 403.93 857.76 389.77
  C 844.78 383.14 839.23 369.16 841.23 355.04
  C 847.08 313.67 913.71 310.35 944.12 308.78
  Q 944.61 308.76 944.62 308.26
  Q 944.82 296.50 942.13 287.15
  C 936.98 269.27 922.67 264.12 905.37 263.79
  C 889.00 263.47 870.99 270.04 859.02 281.52
  Q 856.30 284.14 854.52 287.75
  A 0.15 0.14 -46.1 0 1 854.26 287.76
  L 851.51 282.46
  Q 851.38 282.21 851.56 282.00
  C 868.53 262.26 895.94 257.34 920.56 259.57
  C 951.40 262.36 964.65 281.20 964.71 310.75
  Q 964.81 351.67 964.68 392.59
  Q 964.68 393.07 964.20 393.07
  L 945.27 393.06
  Q 944.73 393.06 944.73 392.52
  L 944.76 372.24
  Z
  M 864.22 340.70
  C 855.75 358.59 861.40 384.79 884.01 388.27
  C 906.43 391.72 929.23 380.80 944.46 364.98
  Q 944.75 364.67 944.75 364.25
  L 944.75 314.04
  Q 944.75 313.61 944.32 313.62
  Q 923.01 314.15 902.04 317.74
  C 887.89 320.16 870.84 326.71 864.22 340.70
  Z"
/>
<path fill="#31464e" d="
  M 1169.49 260.06
  L 1190.83 260.04
  A 0.43 0.43 0.0 0 1 1191.22 260.28
  L 1242.59 365.43
  A 0.43 0.43 0.0 0 0 1243.37 365.43
  L 1294.71 260.32
  A 0.43 0.43 0.0 0 1 1295.10 260.08
  L 1300.52 260.08
  A 0.43 0.43 0.0 0 1 1300.91 260.70
  L 1235.40 394.13
  A 0.43 0.43 0.0 0 1 1234.62 394.13
  L 1169.10 260.68
  A 0.43 0.43 0.0 0 1 1169.49 260.06
  Z"
/>
<rect fill="#31464e" x="1786.08" y="260.08" width="19.66" height="132.98" rx="0.54"/>
<path fill="#e2dcd9" d="
  M 1409.45 267.05
  C 1436.50 259.15 1466.77 280.98 1474.84 306.61
  Q 1475.02 307.17 1474.48 307.39
  L 1385.77 345.20
  Q 1385.34 345.38 1385.08 344.99
  C 1373.17 326.86 1369.35 304.21 1382.80 286.07
  C 1389.17 277.47 1399.24 270.03 1409.45 267.05
  Z"
/>
<path fill="#e2dcd9" d="
  M 228.95 353.76
  C 231.18 328.75 253.92 319.74 275.50 316.75
  C 286.84 315.18 299.49 313.89 312.36 313.58
  Q 313.00 313.56 313.00 314.20
  L 312.99 364.02
  A 1.77 1.75 67.5 0 1 312.49 365.25
  C 297.63 380.25 275.67 391.34 254.01 388.55
  C 235.71 386.19 227.42 370.98 228.95 353.76
  Z"
/>
<path fill="#e2dcd9" d="
  M 864.22 340.70
  C 870.84 326.71 887.89 320.16 902.04 317.74
  Q 923.01 314.15 944.32 313.62
  Q 944.75 313.61 944.75 314.04
  L 944.75 364.25
  Q 944.75 364.67 944.46 364.98
  C 929.23 380.80 906.43 391.72 884.01 388.27
  C 861.40 384.79 855.75 358.59 864.22 340.70
  Z"
/>
<path fill="#31464e" d="
  M 1803.02 544.30
  L 1789.31 561.52
  A 0.33 0.33 0.0 0 1 1789.05 561.64
  L 1785.15 561.72
  A 0.33 0.33 0.0 0 1 1784.86 561.21
  L 1796.25 543.90
  A 0.33 0.33 0.0 0 1 1796.53 543.75
  L 1802.77 543.77
  A 0.33 0.33 0.0 0 1 1803.02 544.30
  Z"
/>
<circle fill="#31464e" cx="1536.80" cy="553.38" r="4.51"/>
<circle fill="#31464e" cx="1699.87" cy="553.39" r="4.52"/>
<path fill="#31464e" d="
  M 866.43 618.74
  Q 863.52 616.30 862.02 613.50
  C 853.40 597.32 859.26 576.53 878.41 571.94
  C 888.67 569.48 901.49 572.97 907.84 582.45
  Q 908.49 583.42 908.49 582.25
  L 908.50 549.52
  Q 908.50 549.28 908.74 549.28
  L 914.48 549.30
  Q 914.76 549.30 914.76 549.58
  L 914.73 624.75
  Q 914.73 625.22 914.25 625.23
  L 908.75 625.24
  Q 908.41 625.24 908.41 624.90
  L 908.38 615.23
  Q 908.38 614.16 907.76 615.03
  Q 903.98 620.29 897.86 623.26
  C 896.60 623.87 894.69 624.08 893.15 624.86
  C 888.83 627.03 880.54 626.60 876.15 624.78
  C 874.07 623.92 872.22 623.48 870.37 622.03
  C 869.30 621.18 867.78 620.59 867.00 619.51
  A 1.01 0.02 54.4 0 0 866.43 618.74
  Z
  M 895.25 618.81
  C 897.31 617.78 899.33 617.05 901.01 615.54
  C 907.04 610.12 909.50 602.22 908.35 594.01
  C 907.49 587.85 903.11 583.70 898.42 579.71
  Q 897.50 578.93 895.01 578.06
  Q 881.80 573.41 871.91 581.88
  Q 867.59 585.57 866.04 589.51
  C 863.44 596.06 863.82 604.87 868.24 610.82
  C 869.56 612.59 870.76 614.76 872.90 615.96
  C 873.92 616.54 874.60 617.51 875.51 617.99
  Q 884.94 622.87 894.97 619.13
  Q 895.07 619.09 895.10 619.02
  Q 895.19 618.84 895.25 618.81
  Z"
/>
<path fill="#31464e" d="
  M 529.22 578.82
  L 529.22 624.91
  A 0.33 0.33 0.0 0 1 528.89 625.24
  L 523.08 625.24
  A 0.33 0.33 0.0 0 1 522.75 624.91
  L 522.75 578.80
  A 0.33 0.33 0.0 0 0 522.42 578.47
  L 511.93 578.49
  A 0.33 0.33 0.0 0 1 511.60 578.16
  L 511.61 573.67
  A 0.33 0.33 0.0 0 1 511.94 573.34
  L 522.42 573.34
  A 0.33 0.33 0.0 0 0 522.75 573.01
  L 522.75 549.85
  A 0.33 0.33 0.0 0 1 523.08 549.52
  L 528.89 549.52
  A 0.33 0.33 0.0 0 1 529.22 549.85
  L 529.22 573.02
  A 0.33 0.33 0.0 0 0 529.55 573.35
  L 545.16 573.35
  A 0.33 0.33 0.0 0 1 545.49 573.68
  L 545.49 578.15
  A 0.33 0.33 0.0 0 1 545.16 578.48
  L 529.55 578.49
  A 0.33 0.33 0.0 0 0 529.22 578.82
  Z"
/>
<path fill="#31464e" d="
  M 1374.52 572.95
  L 1374.51 549.92
  A 0.40 0.40 0.0 0 1 1374.91 549.52
  L 1380.61 549.53
  A 0.40 0.40 0.0 0 1 1381.01 549.93
  L 1380.96 572.96
  A 0.40 0.40 0.0 0 0 1381.36 573.36
  L 1396.86 573.37
  A 0.40 0.40 0.0 0 1 1397.26 573.77
  L 1397.25 578.07
  A 0.40 0.40 0.0 0 1 1396.85 578.47
  L 1381.39 578.46
  A 0.40 0.40 0.0 0 0 1380.99 578.86
  L 1381.00 624.83
  A 0.40 0.40 0.0 0 1 1380.60 625.23
  L 1374.91 625.24
  A 0.40 0.40 0.0 0 1 1374.51 624.84
  L 1374.51 578.87
  A 0.40 0.40 0.0 0 0 1374.11 578.47
  L 1363.75 578.50
  A 0.40 0.40 0.0 0 1 1363.35 578.10
  L 1363.31 573.68
  A 0.40 0.40 0.0 0 1 1363.72 573.27
  L 1374.12 573.35
  A 0.40 0.40 0.0 0 0 1374.52 572.95
  Z"
/>
<path fill="#31464e" d="
  M 310.71 617.29
  Q 309.04 615.63 307.46 613.86
  C 306.20 612.45 305.93 610.96 305.31 609.23
  Q 304.95 608.20 304.87 606.15
  C 304.81 604.66 304.14 603.29 304.02 601.94
  C 303.75 598.86 303.41 595.69 304.13 592.72
  C 306.27 583.96 312.20 576.37 320.85 573.26
  C 322.99 572.49 324.97 571.56 327.20 571.28
  Q 344.09 569.15 352.93 583.00
  C 354.29 585.14 355.20 587.83 356.40 590.29
  A 0.59 0.59 0.0 0 1 356.03 591.11
  Q 353.67 591.78 351.20 592.95
  C 350.42 593.32 349.44 592.97 348.50 593.41
  C 346.63 594.27 344.67 595.67 342.67 596.06
  C 339.92 596.59 337.24 598.23 334.69 599.41
  C 330.38 601.39 325.42 602.88 320.84 604.73
  C 318.47 605.68 315.03 606.20 312.30 607.99
  Q 311.87 608.27 312.08 608.74
  C 313.62 612.14 315.63 613.89 318.78 616.52
  Q 321.22 618.56 323.69 619.38
  Q 336.10 623.50 346.60 615.22
  Q 346.85 615.03 347.04 615.28
  L 349.94 619.23
  Q 350.14 619.50 349.87 619.71
  C 342.16 625.47 331.34 628.32 322.22 624.72
  Q 320.18 623.91 318.15 623.14
  C 316.41 622.48 315.32 621.10 313.76 620.06
  C 312.64 619.32 311.64 618.21 310.71 617.29
  Z
  M 318.64 600.00
  C 322.20 598.86 324.43 597.25 327.46 596.35
  Q 329.83 595.64 331.58 594.83
  Q 333.25 594.06 335.00 593.54
  C 338.04 592.64 340.93 590.90 343.24 590.21
  Q 346.55 589.22 348.34 588.27
  Q 348.85 588.00 348.51 587.54
  C 347.35 585.95 346.74 584.21 345.50 582.86
  Q 338.25 574.94 327.27 576.58
  C 325.45 576.86 322.05 578.00 320.63 579.03
  Q 314.86 583.24 313.35 585.74
  C 309.94 591.36 308.41 597.02 309.84 602.82
  A 0.82 0.82 0.0 0 0 310.95 603.38
  C 313.63 602.25 316.15 600.80 318.64 600.00
  Z"
/>
<path fill="#31464e" d="
  M 691.45 605.30
  C 689.43 605.73 687.72 607.22 685.66 607.86
  A 0.61 0.61 0.0 0 0 685.29 608.72
  C 692.10 622.36 708.17 624.08 719.97 615.28
  Q 720.24 615.07 720.44 615.35
  L 723.21 619.24
  Q 723.41 619.53 723.13 619.73
  C 715.58 625.30 704.43 628.46 695.62 624.75
  C 693.41 623.82 691.53 623.45 689.51 621.94
  C 688.28 621.02 687.03 620.45 685.92 619.51
  Q 681.08 615.37 679.87 611.98
  Q 679.09 609.82 678.31 607.66
  C 673.72 595.00 680.04 580.26 691.40 574.37
  Q 700.36 569.73 709.64 571.40
  C 720.09 573.27 725.54 580.45 729.66 590.02
  A 0.78 0.77 -22.8 0 1 729.24 591.04
  Q 722.78 593.66 715.99 596.19
  Q 715.10 596.52 714.60 596.59
  Q 714.12 596.66 713.67 596.86
  Q 710.44 598.29 707.24 599.76
  C 704.32 601.10 700.69 602.04 697.51 603.56
  Q 695.82 604.37 691.45 605.30
  Z
  M 692.92 599.38
  C 694.69 599.45 697.45 597.75 699.09 596.99
  C 700.57 596.31 702.28 596.23 703.90 595.41
  C 707.08 593.78 710.04 593.12 713.17 591.75
  C 715.95 590.53 718.84 589.73 721.59 588.49
  Q 722.32 588.16 721.83 587.53
  C 720.71 586.09 719.89 584.36 718.74 583.09
  Q 709.73 573.11 696.81 577.77
  C 693.80 578.86 690.00 581.57 688.01 584.07
  Q 685.11 587.71 684.63 589.12
  Q 682.52 595.35 683.18 602.69
  A 0.67 0.67 0.0 0 0 683.92 603.30
  Q 685.06 603.18 686.36 602.46
  Q 689.37 600.81 692.64 599.77
  Q 692.76 599.74 692.81 599.66
  Q 692.87 599.55 692.87 599.42
  Q 692.88 599.37 692.92 599.38
  Z"
/>
<path fill="#31464e" d="
  M 984.51 622.66
  C 974.99 617.46 971.17 607.39 971.06 597.06
  C 971.05 595.39 971.86 593.80 972.07 592.02
  C 972.84 585.68 978.19 579.22 983.29 575.65
  Q 985.04 574.42 988.68 573.02
  C 1000.91 568.31 1013.62 571.80 1020.40 583.15
  Q 1022.06 585.92 1023.62 589.44
  Q 1024.21 590.78 1022.84 591.31
  Q 1012.45 595.28 1001.30 599.59
  C 1000.16 600.03 999.11 600.08 997.63 600.88
  C 994.96 602.34 989.70 604.89 985.76 605.18
  Q 985.30 605.22 984.89 605.42
  L 979.82 607.91
  A 0.72 0.72 0.0 0 0 979.50 608.89
  C 981.27 612.24 983.28 613.82 985.97 616.35
  Q 987.85 618.12 989.95 618.94
  Q 1002.83 623.94 1014.09 615.27
  A 0.38 0.38 0.0 0 1 1014.63 615.35
  L 1017.43 619.23
  Q 1017.61 619.48 1017.37 619.66
  C 1009.37 625.87 997.63 628.49 988.12 624.07
  C 987.08 623.59 985.82 623.38 984.51 622.66
  Z
  M 996.37 595.87
  C 997.80 595.22 999.81 595.03 1001.48 594.31
  Q 1008.51 591.26 1015.74 588.54
  Q 1016.18 588.38 1015.99 587.95
  C 1014.30 584.07 1010.91 580.11 1007.75 578.58
  C 1000.07 574.84 991.85 575.75 985.33 581.19
  C 978.75 586.67 975.57 594.30 977.71 602.64
  A 0.95 0.95 0.0 0 0 979.11 603.23
  C 984.59 600.04 990.64 598.50 996.37 595.87
  Z"
/>
<path fill="#31464e" d="
  M 1763.20 613.57
  C 1762.15 612.46 1761.90 610.56 1761.25 609.20
  C 1757.07 600.35 1759.28 590.42 1764.13 582.52
  Q 1767.20 577.54 1774.00 574.08
  C 1774.86 573.64 1776.35 573.57 1777.41 572.92
  C 1782.19 569.98 1790.63 570.70 1795.88 572.35
  C 1817.59 579.19 1821.60 607.03 1804.28 620.67
  Q 1803.91 620.97 1803.44 621.04
  C 1801.96 621.26 1801.93 623.10 1799.62 623.15
  Q 1799.14 623.16 1798.70 623.36
  Q 1797.21 624.03 1795.77 624.73
  C 1791.35 626.88 1782.49 626.83 1778.07 624.74
  C 1777.08 624.27 1776.12 624.22 1775.32 623.92
  Q 1768.28 621.23 1764.33 614.88
  Q 1764.10 614.52 1763.20 613.57
  Z
  M 1775.60 617.55
  Q 1775.99 618.22 1776.73 618.56
  C 1782.84 621.32 1790.01 621.82 1796.16 618.77
  Q 1796.34 618.69 1796.51 618.78
  L 1796.73 618.89
  Q 1797.17 619.12 1797.50 618.75
  C 1800.35 615.55 1803.67 613.79 1805.92 609.50
  C 1810.91 599.98 1808.89 588.62 1801.03 581.70
  Q 1790.57 572.48 1777.24 578.79
  C 1776.09 579.33 1775.65 580.13 1774.63 580.69
  Q 1773.22 581.46 1772.68 582.02
  Q 1768.21 586.63 1766.89 590.50
  C 1764.84 596.49 1765.20 601.43 1766.89 607.24
  Q 1767.31 608.67 1768.47 610.21
  C 1770.43 612.83 1771.72 615.23 1774.93 616.90
  Q 1775.36 617.12 1775.60 617.55
  Z"
/>
<path fill="#31464e" d="
  M 449.87 589.50
  C 449.90 585.05 448.01 580.87 444.73 578.67
  C 439.99 575.49 431.23 576.53 426.86 579.97
  Q 425.50 581.04 424.19 582.20
  Q 420.31 585.67 418.73 590.33
  Q 417.75 593.21 417.73 599.77
  Q 417.69 612.47 417.72 624.96
  Q 417.72 625.23 417.45 625.23
  L 411.72 625.24
  A 0.37 0.36 -0.0 0 1 411.35 624.88
  L 411.35 572.89
  A 0.25 0.25 0.0 0 1 411.61 572.64
  L 416.69 572.72
  Q 416.89 572.73 416.90 572.94
  L 417.37 583.23
  Q 417.42 584.28 417.91 583.35
  Q 421.76 576.07 429.62 573.13
  C 438.86 569.68 450.78 570.39 454.96 580.98
  Q 456.19 584.10 456.22 591.21
  Q 456.30 608.19 456.23 624.99
  Q 456.23 625.24 455.97 625.24
  L 450.03 625.23
  Q 449.77 625.23 449.77 624.98
  Q 449.75 607.35 449.87 589.50
  Z"
/>
<path fill="#31464e" d="
  M 604.82 584.30
  Q 612.17 572.25 626.48 571.25
  Q 626.71 571.23 626.70 571.47
  L 626.44 577.14
  Q 626.43 577.39 626.18 577.40
  Q 620.45 577.62 617.25 579.02
  Q 615.35 579.85 610.82 583.55
  Q 604.73 588.52 604.75 598.00
  Q 604.77 611.63 604.77 624.97
  Q 604.77 625.24 604.51 625.24
  L 598.75 625.24
  A 0.25 0.24 0.0 0 1 598.50 625.00
  L 598.50 572.85
  Q 598.50 572.65 598.70 572.65
  L 603.74 572.72
  A 0.28 0.28 0.0 0 1 604.01 572.99
  L 604.51 584.22
  Q 604.53 584.77 604.82 584.30
  Z"
/>
<path fill="#31464e" d="
  M 1194.33 583.03
  C 1192.05 577.85 1186.35 576.08 1181.00 576.69
  C 1171.15 577.82 1163.72 587.21 1163.73 596.50
  Q 1163.74 610.88 1163.72 624.98
  Q 1163.72 625.23 1163.46 625.23
  L 1157.57 625.24
  Q 1157.37 625.24 1157.37 625.04
  L 1157.37 573.00
  A 0.37 0.36 -89.2 0 1 1157.74 572.63
  L 1162.72 572.75
  Q 1162.94 572.76 1162.95 572.98
  L 1163.38 583.02
  Q 1163.43 584.27 1164.02 583.16
  C 1168.16 575.38 1176.12 571.78 1184.55 571.33
  C 1194.38 570.79 1202.24 577.11 1202.25 587.50
  Q 1202.28 606.27 1202.25 624.73
  Q 1202.25 625.22 1201.76 625.22
  L 1196.26 625.24
  A 0.50 0.49 -90.0 0 1 1195.77 624.74
  Q 1195.78 607.73 1195.74 590.51
  Q 1195.73 586.22 1194.33 583.03
  Z"
/>
<path fill="#31464e" d="
  M 1463.37 582.37
  Q 1459.34 585.76 1457.63 591.03
  Q 1456.57 594.27 1456.56 601.06
  Q 1456.53 613.05 1456.58 624.96
  Q 1456.58 625.24 1456.30 625.24
  L 1450.50 625.23
  A 0.23 0.23 0.0 0 1 1450.27 625.00
  L 1450.37 573.25
  Q 1450.37 572.62 1451.00 572.64
  L 1455.31 572.73
  A 0.59 0.59 0.0 0 1 1455.89 573.31
  L 1456.16 583.51
  Q 1456.21 585.42 1457.09 583.73
  Q 1460.47 577.28 1467.98 574.11
  Q 1470.83 572.90 1473.78 571.83
  Q 1475.30 571.27 1478.05 571.31
  Q 1478.52 571.32 1478.49 571.78
  L 1478.23 576.77
  Q 1478.20 577.32 1477.66 577.37
  Q 1474.88 577.64 1472.15 578.16
  Q 1469.80 578.60 1467.58 579.81
  Q 1464.28 581.61 1463.37 582.37
  Z"
/>
<path fill="#31464e" d="
  M 219.37 620.96
  Q 218.48 620.65 217.99 620.25
  C 200.50 606.07 206.97 577.75 229.03 572.36
  Q 241.68 569.27 253.30 577.13
  A 0.79 0.78 36.6 0 1 253.47 578.27
  L 250.93 581.41
  Q 250.48 581.96 249.91 581.55
  Q 237.96 573.00 224.53 579.61
  Q 223.98 579.89 223.84 580.49
  Q 223.72 581.03 223.11 581.09
  Q 222.60 581.15 222.24 581.52
  C 216.48 587.46 213.60 593.46 214.63 601.98
  C 215.46 608.84 218.62 612.97 223.93 617.00
  C 231.58 622.80 242.21 621.67 249.84 616.53
  Q 250.28 616.23 250.64 616.63
  L 253.35 619.69
  Q 253.75 620.14 253.26 620.49
  Q 248.24 624.13 242.26 625.51
  Q 233.46 627.54 223.88 623.62
  Q 221.28 622.56 220.19 621.47
  Q 219.84 621.13 219.37 620.96
  Z"
/>
<path fill="#31464e" d="
  M 1613.38 579.48
  Q 1613.32 579.70 1613.04 579.80
  Q 1612.77 579.89 1612.69 579.95
  Q 1606.07 584.18 1603.91 590.27
  C 1596.14 612.17 1618.60 628.92 1637.90 616.52
  Q 1638.29 616.27 1638.60 616.62
  L 1641.42 619.82
  A 0.40 0.39 -39.4 0 1 1641.36 620.40
  C 1631.67 627.37 1620.41 628.00 1609.67 622.73
  Q 1607.36 621.60 1605.28 619.63
  C 1603.52 617.97 1601.64 616.45 1600.46 614.33
  C 1593.80 602.37 1594.59 589.53 1603.89 579.38
  Q 1605.67 577.44 1609.29 575.35
  C 1619.46 569.49 1631.51 570.55 1641.12 577.04
  Q 1641.95 577.60 1641.33 578.38
  L 1639.10 581.16
  Q 1638.47 581.95 1637.63 581.37
  Q 1626.46 573.54 1613.80 579.00
  Q 1613.48 579.14 1613.38 579.48
  Z"
/>
<path fill="#31464e" d="
  M 1289.27 624.69
  Q 1287.72 625.69 1285.96 626.05
  C 1276.87 627.86 1266.85 625.33 1264.19 615.43
  Q 1263.57 613.12 1263.54 607.88
  Q 1263.47 590.35 1263.53 572.96
  Q 1263.53 572.65 1263.84 572.65
  L 1269.52 572.68
  A 0.32 0.32 0.0 0 1 1269.83 573.00
  Q 1269.83 589.76 1269.61 606.74
  C 1269.49 615.86 1273.91 620.59 1282.90 621.55
  C 1284.21 621.69 1284.99 621.05 1286.16 620.68
  Q 1296.83 617.35 1300.24 608.20
  Q 1301.75 604.16 1301.72 593.66
  Q 1301.70 583.23 1301.74 572.97
  Q 1301.74 572.70 1302.01 572.70
  L 1307.75 572.73
  A 0.27 0.27 0.0 0 1 1308.01 573.00
  L 1308.01 625.00
  Q 1308.01 625.24 1307.78 625.24
  L 1302.55 625.24
  Q 1302.30 625.24 1302.30 625.00
  L 1302.11 614.76
  A 0.23 0.22 59.4 0 0 1301.69 614.65
  Q 1297.76 621.55 1290.19 624.55
  Q 1290.00 624.63 1289.78 624.62
  Q 1289.65 624.62 1289.50 624.62
  Q 1289.38 624.62 1289.27 624.69
  Z"
/>
<rect fill="#31464e" x="1533.50" y="572.68" width="6.28" height="52.56" rx="0.35"/>
<rect fill="#31464e" x="1696.53" y="572.68" width="6.34" height="52.56" rx="0.35"/>
<path fill="#e2dcd9" d="
  M 318.64 600.00
  C 316.15 600.80 313.63 602.25 310.95 603.38
  A 0.82 0.82 0.0 0 1 309.84 602.82
  C 308.41 597.02 309.94 591.36 313.35 585.74
  Q 314.86 583.24 320.63 579.03
  C 322.05 578.00 325.45 576.86 327.27 576.58
  Q 338.25 574.94 345.50 582.86
  C 346.74 584.21 347.35 585.95 348.51 587.54
  Q 348.85 588.00 348.34 588.27
  Q 346.55 589.22 343.24 590.21
  C 340.93 590.90 338.04 592.64 335.00 593.54
  Q 333.25 594.06 331.58 594.83
  Q 329.83 595.64 327.46 596.35
  C 324.43 597.25 322.20 598.86 318.64 600.00
  Z"
/>
<path fill="#e2dcd9" d="
  M 692.87 599.42
  Q 692.87 599.55 692.81 599.66
  Q 692.76 599.74 692.64 599.77
  Q 689.37 600.81 686.36 602.46
  Q 685.06 603.18 683.92 603.30
  A 0.67 0.67 0.0 0 1 683.18 602.69
  Q 682.52 595.35 684.63 589.12
  Q 685.11 587.71 688.01 584.07
  C 690.00 581.57 693.80 578.86 696.81 577.77
  Q 709.73 573.11 718.74 583.09
  C 719.89 584.36 720.71 586.09 721.83 587.53
  Q 722.32 588.16 721.59 588.49
  C 718.84 589.73 715.95 590.53 713.17 591.75
  C 710.04 593.12 707.08 593.78 703.90 595.41
  C 702.28 596.23 700.57 596.31 699.09 596.99
  C 697.45 597.75 694.69 599.45 692.92 599.38
  Q 692.88 599.37 692.87 599.42
  Z"
/>
<path fill="#e2dcd9" d="
  M 895.10 619.02
  Q 895.07 619.09 894.97 619.13
  Q 884.94 622.87 875.51 617.99
  C 874.60 617.51 873.92 616.54 872.90 615.96
  C 870.76 614.76 869.56 612.59 868.24 610.82
  C 863.82 604.87 863.44 596.06 866.04 589.51
  Q 867.59 585.57 871.91 581.88
  Q 881.80 573.41 895.01 578.06
  Q 897.50 578.93 898.42 579.71
  C 903.11 583.70 907.49 587.85 908.35 594.01
  C 909.50 602.22 907.04 610.12 901.01 615.54
  C 899.33 617.05 897.31 617.78 895.25 618.81
  Q 895.19 618.84 895.10 619.02
  Z"
/>
<path fill="#e2dcd9" d="
  M 996.37 595.87
  C 990.64 598.50 984.59 600.04 979.11 603.23
  A 0.95 0.95 0.0 0 1 977.71 602.64
  C 975.57 594.30 978.75 586.67 985.33 581.19
  C 991.85 575.75 1000.07 574.84 1007.75 578.58
  C 1010.91 580.11 1014.30 584.07 1015.99 587.95
  Q 1016.18 588.38 1015.74 588.54
  Q 1008.51 591.26 1001.48 594.31
  C 999.81 595.03 997.80 595.22 996.37 595.87
  Z"
/>
<path fill="#e2dcd9" d="
  M 1774.93 616.90
  C 1771.72 615.23 1770.43 612.83 1768.47 610.21
  Q 1767.31 608.67 1766.89 607.24
  C 1765.20 601.43 1764.84 596.49 1766.89 590.50
  Q 1768.21 586.63 1772.68 582.02
  Q 1773.22 581.46 1774.63 580.69
  C 1775.65 580.13 1776.09 579.33 1777.24 578.79
  Q 1790.57 572.48 1801.03 581.70
  C 1808.89 588.62 1810.91 599.98 1805.92 609.50
  C 1803.67 613.79 1800.35 615.55 1797.50 618.75
  Q 1797.17 619.12 1796.73 618.89
  L 1796.51 618.78
  Q 1796.34 618.69 1796.16 618.77
  C 1790.01 621.82 1782.84 621.32 1776.73 618.56
  Q 1775.99 618.22 1775.60 617.55
  Q 1775.36 617.12 1774.93 616.90
  Z"
/>
<circle fill="#31464e" cx="1011.44" cy="835.33" r="11.79"/>
</svg>
